<svg version="1.1" viewBox="0.0 0.0 960.0 540.0" fill="none" stroke="none" stroke-linecap="square" stroke-miterlimit="10" xmlns:xlink="http://www.w3.org/1999/xlink" xmlns="http://www.w3.org/2000/svg"><clipPath id="g34b6e2f5c32_0_536.0"><path d="m0 0l960.0 0l0 540.0l-960.0 0l0 -540.0z" clip-rule="nonzero"/></clipPath><g clip-path="url(#g34b6e2f5c32_0_536.0)"><path fill="#fcfaf7" d="m0 0l960.0 0l0 540.0l-960.0 0z" fill-rule="evenodd"/><path fill="#cfe2f3" d="m46.66142 96.5694l0 0c0 -20.196716 16.372677 -36.569397 36.5694 -36.569397l793.5383 0c9.698853 0 19.000366 3.8528366 25.85846 10.71093c6.8580933 6.8580933 10.7109375 16.15966 10.7109375 25.858467l0 346.8612c0 20.196716 -16.37268 36.569397 -36.569397 36.569397l-793.5383 0c-20.196724 0 -36.5694 -16.37268 -36.5694 -36.569397z" fill-rule="evenodd"/><path stroke="#434343" stroke-width="1.0" stroke-linejoin="round" stroke-linecap="butt" stroke-dasharray="1.0,3.0" d="m46.66142 96.5694l0 0c0 -20.196716 16.372677 -36.569397 36.5694 -36.569397l793.5383 0c9.698853 0 19.000366 3.8528366 25.85846 10.71093c6.8580933 6.8580933 10.7109375 16.15966 10.7109375 25.858467l0 346.8612c0 20.196716 -16.37268 36.569397 -36.569397 36.569397l-793.5383 0c-20.196724 0 -36.5694 -16.37268 -36.5694 -36.569397z" fill-rule="evenodd"/><path fill="#073763" d="m546.46893 443.22543l5.921875 0q-0.125 2.578125 -1.390625 4.546875q-1.265625 1.953125 -3.515625 3.046875q-2.234375 1.09375 -5.28125 1.09375q-2.46875 0 -4.40625 -0.828125q-1.9375 -0.828125 -3.28125 -2.390625q-1.34375 -1.5625 -2.046875 -3.765625q-0.703125 -2.21875 -0.703125 -5.0l0 -1.34375q0 -2.765625 0.734375 -4.984375q0.734375 -2.234375 2.09375 -3.796875q1.359375 -1.5625 3.265625 -2.390625q1.921875 -0.84375 4.265625 -0.84375q3.203125 0 5.421875 1.15625q2.21875 1.15625 3.4375 3.15625q1.21875 2.0 1.4375 4.5625l-5.921875 0q-0.03125 -1.390625 -0.46875 -2.328125q-0.4375 -0.9375 -1.390625 -1.40625q-0.953125 -0.484375 -2.515625 -0.484375q-1.109375 0 -1.921875 0.40625q-0.8125 0.40625 -1.359375 1.296875q-0.53125 0.875 -0.796875 2.28125q-0.265625 1.390625 -0.265625 3.34375l0 1.375q0 1.96875 0.234375 3.359375q0.25 1.375 0.765625 2.265625q0.53125 0.875 1.359375 1.296875q0.84375 0.40625 2.0625 0.40625q1.359375 0 2.28125 -0.421875q0.9375 -0.4375 1.4375 -1.328125q0.515625 -0.890625 0.546875 -2.28125zm14.477539 -9.96875l0 18.3125l-5.71875 0l0 -18.3125l5.71875 0zm-6.046875 -4.71875q0 -1.21875 0.875 -2.0q0.875 -0.78125 2.28125 -0.78125q1.40625 0 2.28125 0.78125q0.890625 0.78125 0.890625 2.0q0 1.21875 -0.890625 2.0q-0.875 0.78125 -2.28125 0.78125q-1.40625 0 -2.28125 -0.78125q-0.875 -0.78125 -0.875 -2.0zm15.30835 9.25l0 13.78125l-5.703125 0l0 -18.3125l5.328125 0l0.375 4.53125zm5.421875 -4.65625l-0.109375 5.296875q-0.328125 -0.046875 -0.90625 -0.09375q-0.578125 -0.046875 -0.96875 -0.046875q-1.0 0 -1.71875 0.234375q-0.71875 0.21875 -1.1875 0.671875q-0.46875 0.4375 -0.6875 1.125q-0.203125 0.671875 -0.1875 1.578125l-1.03125 -0.6875q0 -1.84375 0.359375 -3.359375q0.375 -1.515625 1.046875 -2.625q0.6875 -1.109375 1.640625 -1.703125q0.96875 -0.59375 2.171875 -0.59375q0.421875 0 0.828125 0.046875q0.421875 0.046875 0.75 0.15625zm9.3723755 14.375q0.796875 0 1.359375 -0.296875q0.5625 -0.296875 0.859375 -0.84375q0.296875 -0.546875 0.28125 -1.328125l5.359375 0q0.03125 2.0625 -1.0 3.609375q-1.03125 1.546875 -2.78125 2.40625q-1.75 0.859375 -3.953125 0.859375q-2.140625 0 -3.75 -0.703125q-1.609375 -0.703125 -2.6875 -1.96875q-1.0625 -1.265625 -1.609375 -2.953125q-0.53125 -1.6875 -0.53125 -3.671875l0 -0.390625q0 -1.984375 0.53125 -3.671875q0.546875 -1.703125 1.609375 -2.96875q1.078125 -1.265625 2.671875 -1.953125q1.609375 -0.703125 3.734375 -0.703125q2.296875 0 4.046875 0.859375q1.75 0.859375 2.75 2.5q1.0 1.640625 0.96875 3.984375l-5.359375 0q0.015625 -0.84375 -0.25 -1.5q-0.265625 -0.65625 -0.84375 -1.046875q-0.5625 -0.40625 -1.4375 -0.40625q-0.890625 0 -1.4375 0.390625q-0.53125 0.390625 -0.8125 1.078125q-0.28125 0.6875 -0.375 1.5625q-0.09375 0.875 -0.09375 1.875l0 0.390625q0 1.015625 0.09375 1.90625q0.09375 0.890625 0.375 1.5625q0.296875 0.65625 0.828125 1.046875q0.546875 0.375 1.453125 0.375zm20.975037 -0.390625l0 -13.859375l5.71875 0l0 18.3125l-5.34375 0l-0.375 -4.453125zm0.546875 -3.71875l1.484375 -0.03125q0 1.84375 -0.4375 3.40625q-0.4375 1.5625 -1.296875 2.71875q-0.84375 1.140625 -2.09375 1.78125q-1.25 0.640625 -2.875 0.640625q-1.34375 0 -2.46875 -0.375q-1.125 -0.390625 -1.9375 -1.203125q-0.8125 -0.828125 -1.265625 -2.125q-0.453125 -1.296875 -0.453125 -3.109375l0 -11.84375l5.703125 0l0 11.875q0 0.609375 0.15625 1.0625q0.15625 0.4375 0.4375 0.734375q0.296875 0.296875 0.71875 0.4375q0.4375 0.140625 1.0 0.140625q1.28125 0 2.0 -0.53125q0.734375 -0.546875 1.03125 -1.46875q0.296875 -0.9375 0.296875 -2.109375zm14.077454 -6.265625l0 14.4375l-5.703125 0l0 -18.3125l5.34375 0l0.359375 3.875zm-0.6875 4.65625l-1.3125 0.03125q0 -1.921875 0.453125 -3.546875q0.46875 -1.625 1.359375 -2.828125q0.90625 -1.203125 2.203125 -1.859375q1.3125 -0.65625 3.046875 -0.65625q1.203125 0 2.171875 0.359375q0.984375 0.359375 1.6875 1.140625q0.71875 0.765625 1.09375 2.0q0.390625 1.21875 0.390625 2.921875l0 12.21875l-5.703125 0l0 -11.484375q0 -1.171875 -0.265625 -1.765625q-0.25 -0.59375 -0.75 -0.796875q-0.484375 -0.203125 -1.203125 -0.203125q-0.734375 0 -1.328125 0.34375q-0.59375 0.328125 -1.015625 0.9375q-0.40625 0.59375 -0.625 1.40625q-0.203125 0.8125 -0.203125 1.78125zm10.453125 0l-1.59375 0.03125q0 -1.921875 0.421875 -3.546875q0.4375 -1.625 1.3125 -2.828125q0.875 -1.203125 2.171875 -1.859375q1.3125 -0.65625 3.03125 -0.65625q1.25 0 2.296875 0.375q1.0625 0.359375 1.8125 1.1875q0.765625 0.828125 1.1875 2.203125q0.421875 1.359375 0.421875 3.34375l0 11.53125l-5.71875 0l0 -11.53125q0 -1.125 -0.265625 -1.703125q-0.25 -0.59375 -0.75 -0.796875q-0.484375 -0.21875 -1.15625 -0.21875q-0.8125 0 -1.40625 0.34375q-0.59375 0.328125 -1.0 0.9375q-0.390625 0.59375 -0.578125 1.40625q-0.1875 0.8125 -0.1875 1.78125zm23.928528 4.640625q0 -0.484375 -0.3125 -0.828125q-0.3125 -0.34375 -1.09375 -0.640625q-0.78125 -0.296875 -2.1875 -0.59375q-1.328125 -0.296875 -2.515625 -0.765625q-1.171875 -0.46875 -2.046875 -1.140625q-0.875 -0.6875 -1.375 -1.609375q-0.5 -0.9375 -0.5 -2.140625q0 -1.171875 0.5 -2.203125q0.5 -1.046875 1.46875 -1.84375q0.96875 -0.8125 2.375 -1.265625q1.40625 -0.46875 3.203125 -0.46875q2.46875 0 4.25 0.75q1.796875 0.75 2.765625 2.09375q0.984375 1.34375 0.984375 3.109375l-5.703125 0q0 -0.703125 -0.234375 -1.1875q-0.21875 -0.484375 -0.734375 -0.75q-0.5 -0.265625 -1.34375 -0.265625q-0.59375 0 -1.078125 0.21875q-0.484375 0.21875 -0.78125 0.609375q-0.28125 0.390625 -0.28125 0.921875q0 0.359375 0.171875 0.65625q0.1875 0.296875 0.5625 0.546875q0.375 0.25 0.9375 0.453125q0.578125 0.1875 1.390625 0.328125q1.84375 0.34375 3.453125 0.96875q1.609375 0.625 2.609375 1.78125q1.015625 1.140625 1.015625 3.09375q0 1.21875 -0.5625 2.25q-0.5625 1.015625 -1.609375 1.796875q-1.046875 0.765625 -2.515625 1.1875q-1.46875 0.421875 -3.3125 0.421875q-2.625 0 -4.4375 -0.9375q-1.8125 -0.953125 -2.734375 -2.375q-0.921875 -1.4375 -0.921875 -2.90625l5.3125 0q0.03125 0.84375 0.40625 1.390625q0.390625 0.546875 1.03125 0.796875q0.640625 0.25 1.484375 0.25q0.78125 0 1.296875 -0.21875q0.515625 -0.21875 0.78125 -0.59375q0.28125 -0.390625 0.28125 -0.890625zm17.815002 -13.171875l0 3.96875l-11.03125 0l0 -3.96875l11.03125 0zm-8.71875 -4.546875l5.703125 0l0 16.890625q0 0.71875 0.171875 1.125q0.171875 0.390625 0.578125 0.5625q0.421875 0.15625 1.125 0.15625q0.484375 0 0.796875 -0.03125q0.328125 -0.03125 0.625 -0.078125l0 4.078125q-0.734375 0.234375 -1.53125 0.359375q-0.796875 0.140625 -1.6875 0.140625q-1.828125 0 -3.125 -0.578125q-1.296875 -0.578125 -1.984375 -1.8125q-0.671875 -1.234375 -0.671875 -3.21875l0 -17.59375zm20.506836 18.25l0 -7.546875q0 -0.765625 -0.234375 -1.328125q-0.21875 -0.5625 -0.6875 -0.875q-0.46875 -0.3125 -1.265625 -0.3125q-0.640625 0 -1.109375 0.21875q-0.453125 0.21875 -0.6875 0.671875q-0.234375 0.4375 -0.234375 1.109375l-5.703125 0q0 -1.265625 0.5625 -2.359375q0.5625 -1.09375 1.625 -1.90625q1.0625 -0.8125 2.53125 -1.25q1.484375 -0.453125 3.3125 -0.453125q2.1875 0 3.90625 0.734375q1.71875 0.71875 2.71875 2.171875q1.0 1.4375 1.0 3.625l0 7.484375q0 1.796875 0.203125 2.71875q0.203125 0.921875 0.5625 1.625l0 0.28125l-5.71875 0q-0.40625 -0.84375 -0.59375 -2.0625q-0.1875 -1.234375 -0.1875 -2.546875zm0.6875 -6.578125l0.03125 3.046875l-2.515625 0q-0.796875 0 -1.359375 0.21875q-0.546875 0.21875 -0.875 0.609375q-0.328125 0.375 -0.46875 0.859375q-0.140625 0.46875 -0.140625 0.984375q0 0.515625 0.234375 0.921875q0.25 0.390625 0.671875 0.609375q0.421875 0.21875 0.953125 0.21875q0.953125 0 1.609375 -0.359375q0.671875 -0.375 1.03125 -0.890625q0.359375 -0.53125 0.359375 -0.984375l1.25 2.328125q-0.34375 0.6875 -0.78125 1.375q-0.421875 0.6875 -1.0625 1.28125q-0.625 0.578125 -1.546875 0.953125q-0.90625 0.359375 -2.21875 0.359375q-1.6875 0 -3.109375 -0.6875q-1.40625 -0.703125 -2.25 -1.9375q-0.84375 -1.25 -0.84375 -2.875q0 -1.421875 0.515625 -2.53125q0.515625 -1.125 1.5625 -1.90625q1.046875 -0.78125 2.671875 -1.1875q1.625 -0.40625 3.828125 -0.40625l2.453125 0zm13.801758 -3.21875l0 14.40625l-5.703125 0l0 -18.3125l5.359375 0l0.34375 3.90625zm-0.671875 4.625l-1.34375 0.03125q0 -2.09375 0.5 -3.734375q0.515625 -1.65625 1.453125 -2.8125q0.9375 -1.15625 2.21875 -1.75q1.296875 -0.59375 2.890625 -0.59375q1.265625 0 2.328125 0.375q1.0625 0.359375 1.828125 1.1875q0.765625 0.828125 1.171875 2.203125q0.421875 1.359375 0.421875 3.34375l0 11.53125l-5.734375 0l0 -11.546875q0 -1.09375 -0.3125 -1.671875q-0.296875 -0.59375 -0.875 -0.8125q-0.5625 -0.21875 -1.40625 -0.21875q-0.875 0 -1.484375 0.34375q-0.609375 0.328125 -0.96875 0.9375q-0.359375 0.59375 -0.53125 1.40625q-0.15625 0.8125 -0.15625 1.78125zm22.374329 5.71875q0.796875 0 1.359375 -0.296875q0.5625 -0.296875 0.859375 -0.84375q0.296875 -0.546875 0.28125 -1.328125l5.359375 0q0.03125 2.0625 -1.0 3.609375q-1.03125 1.546875 -2.78125 2.40625q-1.75 0.859375 -3.953125 0.859375q-2.140625 0 -3.75 -0.703125q-1.609375 -0.703125 -2.6875 -1.96875q-1.0625 -1.265625 -1.609375 -2.953125q-0.53125 -1.6875 -0.53125 -3.671875l0 -0.390625q0 -1.984375 0.53125 -3.671875q0.546875 -1.703125 1.609375 -2.96875q1.078125 -1.265625 2.671875 -1.953125q1.609375 -0.703125 3.734375 -0.703125q2.296875 0 4.046875 0.859375q1.75 0.859375 2.75 2.5q1.0 1.640625 0.96875 3.984375l-5.359375 0q0.015625 -0.84375 -0.25 -1.5q-0.265625 -0.65625 -0.84375 -1.046875q-0.5625 -0.40625 -1.4375 -0.40625q-0.890625 0 -1.4375 0.390625q-0.53125 0.390625 -0.8125 1.078125q-0.28125 0.6875 -0.375 1.5625q-0.09375 0.875 -0.09375 1.875l0 0.390625q0 1.015625 0.09375 1.90625q0.09375 0.890625 0.375 1.5625q0.296875 0.65625 0.828125 1.046875q0.546875 0.375 1.453125 0.375zm19.146912 4.40625q-2.234375 0 -4.0 -0.703125q-1.75 -0.703125 -2.96875 -1.9375q-1.203125 -1.234375 -1.84375 -2.84375q-0.625 -1.609375 -0.625 -3.40625l0 -0.640625q0 -2.015625 0.5625 -3.734375q0.5625 -1.71875 1.65625 -3.0q1.09375 -1.28125 2.75 -2.0q1.671875 -0.71875 3.859375 -0.71875q1.953125 0 3.484375 0.625q1.546875 0.625 2.625 1.796875q1.078125 1.15625 1.640625 2.8125q0.5625 1.65625 0.5625 3.734375l0 2.3125l-14.953125 0l0 -3.578125l9.390625 0l0 -0.4375q0.015625 -0.90625 -0.3125 -1.546875q-0.328125 -0.65625 -0.953125 -0.984375q-0.625 -0.34375 -1.53125 -0.34375q-0.921875 0 -1.53125 0.40625q-0.59375 0.40625 -0.9375 1.109375q-0.328125 0.703125 -0.46875 1.625q-0.125 0.90625 -0.125 1.921875l0 0.640625q0 1.015625 0.28125 1.84375q0.28125 0.828125 0.8125 1.421875q0.53125 0.578125 1.28125 0.90625q0.75 0.3125 1.71875 0.3125q1.171875 0 2.296875 -0.4375q1.140625 -0.4375 1.953125 -1.453125l2.59375 3.078125q-0.5625 0.796875 -1.59375 1.546875q-1.015625 0.734375 -2.4375 1.203125q-1.421875 0.46875 -3.1875 0.46875zm19.619324 -5.484375q0 -0.484375 -0.3125 -0.828125q-0.3125 -0.34375 -1.09375 -0.640625q-0.78125 -0.296875 -2.1875 -0.59375q-1.328125 -0.296875 -2.515625 -0.765625q-1.171875 -0.46875 -2.046875 -1.140625q-0.875 -0.6875 -1.375 -1.609375q-0.5 -0.9375 -0.5 -2.140625q0 -1.171875 0.5 -2.203125q0.5 -1.046875 1.46875 -1.84375q0.96875 -0.8125 2.375 -1.265625q1.40625 -0.46875 3.203125 -0.46875q2.46875 0 4.25 0.75q1.796875 0.75 2.765625 2.09375q0.984375 1.34375 0.984375 3.109375l-5.703125 0q0 -0.703125 -0.234375 -1.1875q-0.21875 -0.484375 -0.734375 -0.75q-0.5 -0.265625 -1.34375 -0.265625q-0.59375 0 -1.078125 0.21875q-0.484375 0.21875 -0.78125 0.609375q-0.28125 0.390625 -0.28125 0.921875q0 0.359375 0.171875 0.65625q0.1875 0.296875 0.5625 0.546875q0.375 0.25 0.9375 0.453125q0.578125 0.1875 1.390625 0.328125q1.84375 0.34375 3.453125 0.96875q1.609375 0.625 2.609375 1.78125q1.015625 1.140625 1.015625 3.09375q0 1.21875 -0.5625 2.25q-0.5625 1.015625 -1.609375 1.796875q-1.046875 0.765625 -2.515625 1.1875q-1.46875 0.421875 -3.3125 0.421875q-2.625 0 -4.4375 -0.9375q-1.8125 -0.953125 -2.734375 -2.375q-0.921875 -1.4375 -0.921875 -2.90625l5.3125 0q0.03125 0.84375 0.40625 1.390625q0.390625 0.546875 1.03125 0.796875q0.640625 0.25 1.484375 0.25q0.78125 0 1.296875 -0.21875q0.515625 -0.21875 0.78125 -0.59375q0.28125 -0.390625 0.28125 -0.890625z" fill-rule="nonzero"/><path fill="#333333" d="m90.49606 269.44882l0 0c0 -109.58722 88.83798 -198.4252 198.4252 -198.4252l0 0c52.62564 0 103.095856 20.905457 140.3078 58.1174c37.211945 37.211945 58.1174 87.68216 58.1174 140.3078l0 0c0 109.58722 -88.83798 198.4252 -198.4252 198.4252l0 0c-109.58722 0 -198.4252 -88.83798 -198.4252 -198.4252z" fill-rule="evenodd"/><path fill="#ffffff" d="m241.21033 184.11102l0 22.75l-5.46875 0l0 -22.75l5.46875 0zm13.3125 18.875l0 -20.125l5.296875 0l0 24.0l-4.75 0l-0.546875 -3.875zm-10.375 -4.375l0 -0.328125q0 -1.921875 0.421875 -3.5q0.421875 -1.59375 1.25 -2.734375q0.828125 -1.15625 2.0625 -1.78125q1.234375 -0.625 2.84375 -0.625q1.4375 0 2.515625 0.671875q1.078125 0.65625 1.84375 1.84375q0.765625 1.1875 1.25 2.78125q0.484375 1.578125 0.734375 3.40625l0 0.390625q-0.25 1.71875 -0.734375 3.25q-0.484375 1.515625 -1.25 2.6875q-0.765625 1.171875 -1.859375 1.84375q-1.078125 0.65625 -2.53125 0.65625q-1.609375 0 -2.84375 -0.640625q-1.21875 -0.640625 -2.046875 -1.796875q-0.8125 -1.15625 -1.234375 -2.71875q-0.421875 -1.5625 -0.421875 -3.40625zm5.265625 -0.328125l0 0.328125q0 0.953125 0.125 1.765625q0.125 0.8125 0.421875 1.4375q0.3125 0.609375 0.8125 0.953125q0.515625 0.34375 1.265625 0.34375q1.015625 0 1.671875 -0.484375q0.671875 -0.484375 0.984375 -1.375q0.328125 -0.890625 0.28125 -2.09375l0 -1.234375q0.03125 -1.03125 -0.140625 -1.8125q-0.171875 -0.796875 -0.546875 -1.328125q-0.359375 -0.53125 -0.921875 -0.796875q-0.546875 -0.28125 -1.296875 -0.28125q-0.734375 0 -1.25 0.34375q-0.5 0.34375 -0.8125 0.96875q-0.3125 0.609375 -0.453125 1.453125q-0.140625 0.828125 -0.140625 1.8125zm21.578125 8.890625q-2.0625 0 -3.6875 -0.640625q-1.625 -0.65625 -2.75 -1.796875q-1.109375 -1.140625 -1.703125 -2.625q-0.578125 -1.484375 -0.578125 -3.140625l0 -0.59375q0 -1.859375 0.515625 -3.4375q0.515625 -1.59375 1.53125 -2.78125q1.015625 -1.1875 2.546875 -1.84375q1.53125 -0.671875 3.5625 -0.671875q1.796875 0 3.21875 0.578125q1.421875 0.578125 2.40625 1.65625q1.0 1.078125 1.515625 2.609375q0.53125 1.53125 0.53125 3.4375l0 2.140625l-13.8125 0l0 -3.296875l8.671875 0l0 -0.40625q0.015625 -0.84375 -0.296875 -1.4375q-0.296875 -0.59375 -0.875 -0.90625q-0.578125 -0.3125 -1.40625 -0.3125q-0.859375 0 -1.421875 0.375q-0.546875 0.375 -0.859375 1.03125q-0.296875 0.640625 -0.421875 1.484375q-0.125 0.84375 -0.125 1.78125l0 0.59375q0 0.9375 0.25 1.703125q0.265625 0.765625 0.75 1.3125q0.5 0.53125 1.1875 0.828125q0.703125 0.296875 1.59375 0.296875q1.078125 0 2.125 -0.40625q1.046875 -0.40625 1.796875 -1.34375l2.390625 2.84375q-0.515625 0.734375 -1.46875 1.421875q-0.9375 0.6875 -2.25 1.125q-1.3125 0.421875 -2.9375 0.421875zm14.421875 -13.609375l0 13.296875l-5.265625 0l0 -16.90625l4.9375 0l0.328125 3.609375zm-0.625 4.265625l-1.234375 0.03125q0 -1.9375 0.46875 -3.453125q0.46875 -1.53125 1.328125 -2.59375q0.859375 -1.0625 2.046875 -1.609375q1.203125 -0.5625 2.671875 -0.5625q1.171875 0 2.140625 0.34375q0.984375 0.34375 1.6875 1.109375q0.71875 0.765625 1.09375 2.03125q0.390625 1.25 0.390625 3.09375l0 10.640625l-5.296875 0l0 -10.65625q0 -1.015625 -0.28125 -1.546875q-0.28125 -0.546875 -0.8125 -0.75q-0.53125 -0.203125 -1.296875 -0.203125q-0.8125 0 -1.375 0.3125q-0.5625 0.3125 -0.90625 0.875q-0.328125 0.546875 -0.484375 1.296875q-0.140625 0.75 -0.140625 1.640625zm22.421875 -7.875l0 3.65625l-10.1875 0l0 -3.65625l10.1875 0zm-8.046875 -4.203125l5.265625 0l0 15.59375q0 0.671875 0.15625 1.046875q0.15625 0.359375 0.53125 0.515625q0.390625 0.140625 1.03125 0.140625q0.453125 0 0.75 -0.015625q0.296875 -0.03125 0.5625 -0.078125l0 3.765625q-0.671875 0.21875 -1.40625 0.328125q-0.734375 0.125 -1.5625 0.125q-1.6875 0 -2.890625 -0.53125q-1.1875 -0.53125 -1.8125 -1.671875q-0.625 -1.140625 -0.625 -2.96875l0 -16.25zm15.703125 4.203125l0 16.90625l-5.28125 0l0 -16.90625l5.28125 0zm-5.59375 -4.359375q0 -1.125 0.8125 -1.84375q0.8125 -0.71875 2.109375 -0.71875q1.296875 0 2.109375 0.71875q0.8125 0.71875 0.8125 1.84375q0 1.125 -0.8125 1.84375q-0.8125 0.71875 -2.109375 0.71875q-1.296875 0 -2.109375 -0.71875q-0.8125 -0.71875 -0.8125 -1.84375zm17.734375 4.359375l0 3.65625l-10.1875 0l0 -3.65625l10.1875 0zm-8.046875 -4.203125l5.265625 0l0 15.59375q0 0.671875 0.15625 1.046875q0.15625 0.359375 0.53125 0.515625q0.390625 0.140625 1.03125 0.140625q0.453125 0 0.75 -0.015625q0.296875 -0.03125 0.5625 -0.078125l0 3.765625q-0.671875 0.21875 -1.40625 0.328125q-0.734375 0.125 -1.5625 0.125q-1.6875 0 -2.890625 -0.53125q-1.1875 -0.53125 -1.8125 -1.671875q-0.625 -1.140625 -0.625 -2.96875l0 -16.25zm15.328125 19.125l4.375 -14.921875l5.65625 0l-6.796875 19.421875q-0.21875 0.640625 -0.578125 1.375q-0.359375 0.75 -0.984375 1.421875q-0.625 0.671875 -1.609375 1.09375q-0.96875 0.421875 -2.40625 0.421875q-0.765625 0 -1.125 -0.078125q-0.34375 -0.0625 -1.0625 -0.234375l0 -3.765625q0.203125 0 0.34375 0q0.15625 0 0.34375 0q0.84375 0 1.34375 -0.171875q0.515625 -0.171875 0.78125 -0.5q0.28125 -0.328125 0.4375 -0.796875l1.28125 -3.265625zm-1.109375 -14.921875l3.328125 11.828125l0.578125 5.578125l-3.53125 0l-6.015625 -17.40625l5.640625 0z" fill-rule="nonzero"/><path fill="#ffd966" d="m104.35958 291.20734l0 0c0 -27.53595 56.20765 -49.85826 125.54331 -49.85826l0 0c69.33566 0 125.543304 22.322311 125.543304 49.85826l0 0c0 27.53598 -56.20764 49.858276 -125.543304 49.858276l0 0c-69.33566 0 -125.54331 -22.322296 -125.54331 -49.858276z" fill-rule="evenodd"/><path fill="#000000" d="m168.64311 286.26297l-4.15625 13.484375l-4.421875 0l6.265625 -17.0625l2.8125 0l-0.5 3.578125zm3.453125 13.484375l-4.171875 -13.484375l-0.546875 -3.578125l2.84375 0l6.296875 17.0625l-4.421875 0zm-0.171875 -6.359375l0 3.171875l-8.75 0l0 -3.171875l8.75 0zm11.003906 3.546875q0.546875 0 0.9375 -0.203125q0.40625 -0.203125 0.609375 -0.578125q0.203125 -0.390625 0.1875 -0.9375l3.71875 0q0.015625 1.4375 -0.703125 2.515625q-0.703125 1.0625 -1.921875 1.65625q-1.203125 0.59375 -2.734375 0.59375q-1.484375 0 -2.609375 -0.484375q-1.109375 -0.484375 -1.859375 -1.359375q-0.734375 -0.875 -1.109375 -2.046875q-0.359375 -1.171875 -0.359375 -2.546875l0 -0.265625q0 -1.375 0.359375 -2.546875q0.375 -1.1875 1.109375 -2.046875q0.75 -0.875 1.859375 -1.359375q1.109375 -0.5 2.59375 -0.5q1.578125 0 2.78125 0.609375q1.21875 0.59375 1.90625 1.734375q0.703125 1.125 0.6875 2.75l-3.71875 0q0.015625 -0.578125 -0.171875 -1.03125q-0.1875 -0.453125 -0.578125 -0.734375q-0.390625 -0.28125 -1.0 -0.28125q-0.609375 0 -0.984375 0.28125q-0.375 0.265625 -0.578125 0.75q-0.1875 0.46875 -0.25 1.078125q-0.0625 0.609375 -0.0625 1.296875l0 0.265625q0 0.703125 0.0625 1.328125q0.0625 0.609375 0.25 1.078125q0.203125 0.453125 0.578125 0.71875q0.375 0.265625 1.0 0.265625zm12.480469 0q0.546875 0 0.9375 -0.203125q0.40625 -0.203125 0.609375 -0.578125q0.203125 -0.390625 0.1875 -0.9375l3.71875 0q0.015625 1.4375 -0.703125 2.515625q-0.703125 1.0625 -1.921875 1.65625q-1.203125 0.59375 -2.734375 0.59375q-1.484375 0 -2.609375 -0.484375q-1.109375 -0.484375 -1.859375 -1.359375q-0.734375 -0.875 -1.109375 -2.046875q-0.359375 -1.171875 -0.359375 -2.546875l0 -0.265625q0 -1.375 0.359375 -2.546875q0.375 -1.1875 1.109375 -2.046875q0.75 -0.875 1.859375 -1.359375q1.109375 -0.5 2.59375 -0.5q1.578125 0 2.78125 0.609375q1.21875 0.59375 1.90625 1.734375q0.703125 1.125 0.6875 2.75l-3.71875 0q0.015625 -0.578125 -0.171875 -1.03125q-0.1875 -0.453125 -0.578125 -0.734375q-0.390625 -0.28125 -1.0 -0.28125q-0.609375 0 -0.984375 0.28125q-0.375 0.265625 -0.578125 0.75q-0.1875 0.46875 -0.25 1.078125q-0.0625 0.609375 -0.0625 1.296875l0 0.265625q0 0.703125 0.0625 1.328125q0.0625 0.609375 0.25 1.078125q0.203125 0.453125 0.578125 0.71875q0.375 0.265625 1.0 0.265625zm13.261719 3.046875q-1.546875 0 -2.765625 -0.484375q-1.21875 -0.484375 -2.0625 -1.34375q-0.828125 -0.859375 -1.265625 -1.96875q-0.4375 -1.109375 -0.4375 -2.359375l0 -0.4375q0 -1.40625 0.375 -2.59375q0.390625 -1.1875 1.15625 -2.078125q0.765625 -0.890625 1.90625 -1.390625q1.15625 -0.5 2.671875 -0.5q1.359375 0 2.421875 0.4375q1.0625 0.4375 1.796875 1.25q0.75 0.796875 1.140625 1.953125q0.40625 1.140625 0.40625 2.578125l0 1.609375l-10.359375 0l0 -2.484375l6.5 0l0 -0.296875q0.015625 -0.640625 -0.21875 -1.078125q-0.234375 -0.453125 -0.671875 -0.6875q-0.421875 -0.234375 -1.046875 -0.234375q-0.640625 0 -1.0625 0.28125q-0.40625 0.28125 -0.640625 0.78125q-0.234375 0.484375 -0.328125 1.125q-0.09375 0.625 -0.09375 1.328125l0 0.4375q0 0.703125 0.1875 1.28125q0.203125 0.578125 0.5625 0.984375q0.375 0.390625 0.890625 0.625q0.53125 0.21875 1.203125 0.21875q0.8125 0 1.59375 -0.296875q0.78125 -0.3125 1.34375 -1.015625l1.796875 2.125q-0.390625 0.5625 -1.109375 1.078125q-0.703125 0.515625 -1.6875 0.84375q-0.984375 0.3125 -2.203125 0.3125zm13.59375 -3.796875q0 -0.328125 -0.21875 -0.5625q-0.21875 -0.25 -0.765625 -0.453125q-0.53125 -0.203125 -1.5 -0.421875q-0.9375 -0.1875 -1.75 -0.515625q-0.8125 -0.328125 -1.421875 -0.796875q-0.609375 -0.46875 -0.953125 -1.109375q-0.34375 -0.65625 -0.34375 -1.484375q0 -0.8125 0.34375 -1.53125q0.34375 -0.71875 1.015625 -1.265625q0.671875 -0.5625 1.640625 -0.890625q0.984375 -0.328125 2.21875 -0.328125q1.71875 0 2.953125 0.53125q1.25 0.515625 1.921875 1.453125q0.671875 0.921875 0.671875 2.140625l-3.953125 0q0 -0.46875 -0.15625 -0.8125q-0.15625 -0.34375 -0.515625 -0.515625q-0.34375 -0.1875 -0.921875 -0.1875q-0.421875 0 -0.75 0.15625q-0.328125 0.140625 -0.53125 0.421875q-0.203125 0.265625 -0.203125 0.625q0 0.265625 0.125 0.46875q0.125 0.203125 0.375 0.375q0.265625 0.171875 0.65625 0.3125q0.40625 0.125 0.96875 0.234375q1.28125 0.234375 2.390625 0.671875q1.109375 0.421875 1.796875 1.21875q0.703125 0.796875 0.703125 2.140625q0 0.84375 -0.390625 1.5625q-0.375 0.703125 -1.109375 1.234375q-0.71875 0.53125 -1.75 0.828125q-1.015625 0.296875 -2.28125 0.296875q-1.828125 0 -3.078125 -0.640625q-1.25 -0.65625 -1.890625 -1.640625q-0.640625 -1.0 -0.640625 -2.015625l3.6875 0q0.015625 0.578125 0.28125 0.953125q0.265625 0.375 0.703125 0.5625q0.453125 0.171875 1.03125 0.171875q0.546875 0 0.90625 -0.15625q0.359375 -0.15625 0.546875 -0.421875q0.1875 -0.265625 0.1875 -0.609375zm12.3046875 0q0 -0.328125 -0.21875 -0.5625q-0.21875 -0.25 -0.765625 -0.453125q-0.53125 -0.203125 -1.5 -0.421875q-0.9375 -0.1875 -1.75 -0.515625q-0.8125 -0.328125 -1.421875 -0.796875q-0.609375 -0.46875 -0.953125 -1.109375q-0.34375 -0.65625 -0.34375 -1.484375q0 -0.8125 0.34375 -1.53125q0.34375 -0.71875 1.015625 -1.265625q0.671875 -0.5625 1.640625 -0.890625q0.984375 -0.328125 2.21875 -0.328125q1.71875 0 2.953125 0.53125q1.25 0.515625 1.921875 1.453125q0.671875 0.921875 0.671875 2.140625l-3.953125 0q0 -0.46875 -0.15625 -0.8125q-0.15625 -0.34375 -0.515625 -0.515625q-0.34375 -0.1875 -0.921875 -0.1875q-0.421875 0 -0.75 0.15625q-0.328125 0.140625 -0.53125 0.421875q-0.203125 0.265625 -0.203125 0.625q0 0.265625 0.125 0.46875q0.125 0.203125 0.375 0.375q0.265625 0.171875 0.65625 0.3125q0.40625 0.125 0.96875 0.234375q1.28125 0.234375 2.390625 0.671875q1.109375 0.421875 1.796875 1.21875q0.703125 0.796875 0.703125 2.140625q0 0.84375 -0.390625 1.5625q-0.375 0.703125 -1.109375 1.234375q-0.71875 0.53125 -1.75 0.828125q-1.015625 0.296875 -2.28125 0.296875q-1.828125 0 -3.078125 -0.640625q-1.25 -0.65625 -1.890625 -1.640625q-0.640625 -1.0 -0.640625 -2.015625l3.6875 0q0.015625 0.578125 0.28125 0.953125q0.265625 0.375 0.703125 0.5625q0.453125 0.171875 1.03125 0.171875q0.546875 0 0.90625 -0.15625q0.359375 -0.15625 0.546875 -0.421875q0.1875 -0.265625 0.1875 -0.609375zm9.8203125 -9.125l0 12.6875l-3.953125 0l0 -12.6875l3.953125 0zm-4.1875 -3.265625q0 -0.84375 0.609375 -1.375q0.609375 -0.546875 1.578125 -0.546875q0.96875 0 1.578125 0.546875q0.609375 0.53125 0.609375 1.375q0 0.84375 -0.609375 1.390625q-0.609375 0.53125 -1.578125 0.53125q-0.96875 0 -1.578125 -0.53125q-0.609375 -0.546875 -0.609375 -1.390625zm6.6601562 -2.046875l3.9375 0l0 14.875l-0.40625 3.125l-3.53125 0l0 -18.0zm11.718765 11.515625l0 0.25q0 1.4375 -0.296875 2.625q-0.28125 1.1875 -0.890625 2.046875q-0.609375 0.859375 -1.5468903 1.328125q-0.921875 0.46875 -2.1875 0.46875q-1.140625 0 -1.96875 -0.5q-0.8125 -0.5 -1.375 -1.375q-0.546875 -0.890625 -0.890625 -2.046875q-0.328125 -1.171875 -0.53125 -2.515625l0 -0.296875q0.203125 -1.3125 0.53125 -2.484375q0.34375 -1.171875 0.890625 -2.046875q0.5625 -0.890625 1.375 -1.390625q0.8125 -0.5 1.953125 -0.5q1.28125 0 2.203125 0.484375q0.93751526 0.484375 1.5468903 1.359375q0.609375 0.859375 0.890625 2.03125q0.296875 1.171875 0.296875 2.5625zm-3.9375153 0.25l0 -0.25q0 -0.6875 -0.09375 -1.296875q-0.078125 -0.609375 -0.296875 -1.078125q-0.203125 -0.46875 -0.59375 -0.734375q-0.375 -0.28125 -1.0 -0.28125q-0.640625 0 -1.0625 0.21875q-0.421875 0.203125 -0.6875 0.609375q-0.25 0.390625 -0.359375 0.953125q-0.09375 0.5625 -0.078125 1.28125l0 0.921875q-0.03125 0.984375 0.171875 1.671875q0.203125 0.6875 0.6875 1.0625q0.5 0.359375 1.34375 0.359375q0.640625 0 1.03125 -0.25q0.390625 -0.25 0.59375 -0.703125q0.203125 -0.453125 0.265625 -1.078125q0.078125 -0.640625 0.078125 -1.40625zm9.855484 -6.453125l0 12.6875l-3.953125 0l0 -12.6875l3.953125 0zm-4.1875 -3.265625q0 -0.84375 0.609375 -1.375q0.609375 -0.546875 1.578125 -0.546875q0.96875 0 1.578125 0.546875q0.609375 0.53125 0.609375 1.375q0 0.84375 -0.609375 1.390625q-0.609375 0.53125 -1.578125 0.53125q-0.96875 0 -1.578125 -0.53125q-0.609375 -0.546875 -0.609375 -1.390625zm10.785156 -2.046875l0 18.0l-3.953125 0l0 -18.0l3.953125 0zm6.5976562 5.3125l0 12.6875l-3.953125 0l0 -12.6875l3.953125 0zm-4.1875 -3.265625q0 -0.84375 0.609375 -1.375q0.609375 -0.546875 1.578125 -0.546875q0.96875 0 1.578125 0.546875q0.609375 0.53125 0.609375 1.375q0 0.84375 -0.609375 1.390625q-0.609375 0.53125 -1.578125 0.53125q-0.96875 0 -1.578125 -0.53125q-0.609375 -0.546875 -0.609375 -1.390625zm13.300781 3.265625l0 2.75l-7.640625 0l0 -2.75l7.640625 0zm-6.03125 -3.140625l3.9375 0l0 11.6875q0 0.5 0.109375 0.78125q0.125 0.28125 0.40625 0.390625q0.296875 0.109375 0.78125 0.109375q0.34375 0 0.5625 -0.015625q0.21875 -0.015625 0.421875 -0.0625l0 2.828125q-0.5 0.171875 -1.0625 0.25q-0.546875 0.09375 -1.171875 0.09375q-1.265625 0 -2.15625 -0.390625q-0.890625 -0.40625 -1.359375 -1.265625q-0.46875 -0.859375 -0.46875 -2.21875l0 -12.1875zm11.484375 14.34375l3.28125 -11.203125l4.25 0l-5.09375 14.578125q-0.171875 0.484375 -0.4375 1.03125q-0.265625 0.5625 -0.734375 1.0625q-0.46875 0.5 -1.203125 0.8125q-0.734375 0.328125 -1.8125 0.328125q-0.578125 0 -0.84375 -0.0625q-0.265625 -0.046875 -0.796875 -0.171875l0 -2.828125q0.15625 0 0.265625 0q0.109375 0 0.25 0q0.625 0 1.0 -0.125q0.390625 -0.125 0.59375 -0.375q0.203125 -0.25 0.328125 -0.59375l0.953125 -2.453125zm-0.828125 -11.203125l2.5 8.875l0.4375 4.1875l-2.65625 0l-4.515625 -13.0625l4.234375 0z" fill-rule="nonzero"/><path fill="#ff9900" d="m163.24934 346.87927l0 0c0 -16.603333 64.93634 -30.062988 145.03938 -30.062988l0 0c80.10303 0 145.03937 13.459656 145.03937 30.062988l0 0c0 16.603333 -64.93634 30.062988 -145.03937 30.062988l0 0c-80.10304 0 -145.03938 -13.459656 -145.03938 -30.062988z" fill-rule="evenodd"/><path fill="#000000" d="m243.96645 338.35675l0 17.0625l-4.09375 0l-6.03125 -10.625l0 10.625l-4.125 0l0 -17.0625l4.125 0l6.03125 10.609375l0 -10.609375l4.09375 0zm8.5546875 17.296875q-1.546875 0 -2.765625 -0.484375q-1.21875 -0.484375 -2.0625 -1.34375q-0.828125 -0.859375 -1.265625 -1.96875q-0.4375 -1.109375 -0.4375 -2.359375l0 -0.4375q0 -1.40625 0.375 -2.59375q0.390625 -1.1875 1.15625 -2.078125q0.765625 -0.890625 1.90625 -1.390625q1.15625 -0.5 2.671875 -0.5q1.359375 0 2.421875 0.4375q1.0625 0.4375 1.7968597 1.25q0.75 0.796875 1.140625 1.953125q0.40625 1.140625 0.40625 2.578125l0 1.609375l-10.35936 0l0 -2.484375l6.5 0l0 -0.296875q0.015625 -0.640625 -0.21875 -1.078125q-0.234375 -0.453125 -0.671875 -0.6875q-0.421875 -0.234375 -1.046875 -0.234375q-0.640625 0 -1.0625 0.28125q-0.40625 0.28125 -0.640625 0.78125q-0.234375 0.484375 -0.328125 1.125q-0.09375 0.625 -0.09375 1.328125l0 0.4375q0 0.703125 0.1875 1.28125q0.203125 0.578125 0.5625 0.984375q0.375 0.390625 0.890625 0.625q0.53125 0.21875 1.203125 0.21875q0.8125 0 1.59375 -0.296875q0.78125 -0.3125 1.34375 -1.015625l1.7968597 2.125q-0.390625 0.5625 -1.109375 1.078125q-0.70310974 0.515625 -1.6874847 0.84375q-0.984375 0.3125 -2.203125 0.3125zm14.343735 -3.3125l0 -9.609375l3.96875 0l0 12.6875l-3.703125 0l-0.265625 -3.078125zm0.375 -2.578125l1.03125 -0.03125q0 1.28125 -0.3125 2.375q-0.296875 1.078125 -0.890625 1.875q-0.578125 0.796875 -1.453125 1.234375q-0.859375 0.4375 -1.984375 0.4375q-0.9375 0 -1.71875 -0.265625q-0.765625 -0.265625 -1.328125 -0.828125q-0.5625 -0.578125 -0.875 -1.46875q-0.3125 -0.890625 -0.3125 -2.15625l0 -8.203125l3.953125 0l0 8.234375q0 0.421875 0.09375 0.734375q0.109375 0.296875 0.3125 0.5q0.203125 0.203125 0.5 0.3125q0.296875 0.09375 0.6875 0.09375q0.890625 0 1.390625 -0.375q0.5 -0.375 0.703125 -1.015625q0.203125 -0.65625 0.203125 -1.453125zm9.75 -3.890625l0 9.546875l-3.9375 0l0 -12.6875l3.6875 0l0.25 3.140625zm3.75 -3.234375l-0.0625 3.671875q-0.234375 -0.015625 -0.640625 -0.046875q-0.390625 -0.046875 -0.65625 -0.046875q-0.703125 0 -1.203125 0.15625q-0.484375 0.15625 -0.8125 0.46875q-0.328125 0.3125 -0.46875 0.78125q-0.140625 0.46875 -0.140625 1.09375l-0.703125 -0.46875q0 -1.28125 0.25 -2.328125q0.25 -1.046875 0.71875 -1.8125q0.46875 -0.765625 1.125 -1.1875q0.671875 -0.421875 1.515625 -0.421875q0.28125 0 0.5625 0.046875q0.296875 0.03125 0.515625 0.09375zm0.453125 6.5625l0 -0.234375q0 -1.40625 0.390625 -2.578125q0.40625 -1.171875 1.171875 -2.03125q0.78125 -0.875 1.90625 -1.359375q1.140625 -0.5 2.640625 -0.5q1.5 0 2.640625 0.5q1.140625 0.484375 1.90625 1.359375q0.78125 0.859375 1.171875 2.03125q0.40625 1.171875 0.40625 2.578125l0 0.234375q0 1.390625 -0.40625 2.578125q-0.390625 1.171875 -1.171875 2.046875q-0.765625 0.859375 -1.90625 1.34375q-1.140625 0.484375 -2.625 0.484375q-1.484375 0 -2.640625 -0.484375q-1.140625 -0.484375 -1.921875 -1.34375q-0.765625 -0.875 -1.171875 -2.046875q-0.390625 -1.1875 -0.390625 -2.578125zm3.953125 -0.234375l0 0.234375q0 0.71875 0.09375 1.34375q0.109375 0.625 0.359375 1.09375q0.25 0.453125 0.671875 0.71875q0.421875 0.25 1.046875 0.25q0.625 0 1.03125 -0.25q0.421875 -0.265625 0.671875 -0.71875q0.25 -0.46875 0.34375 -1.09375q0.109375 -0.625 0.109375 -1.34375l0 -0.234375q0 -0.703125 -0.109375 -1.3125q-0.09375 -0.609375 -0.34375 -1.078125q-0.25 -0.484375 -0.671875 -0.75q-0.421875 -0.28125 -1.046875 -0.28125q-0.625 0 -1.046875 0.28125q-0.40625 0.265625 -0.65625 0.75q-0.25 0.46875 -0.359375 1.078125q-0.09375 0.609375 -0.09375 1.3125zm17.316406 3.546875l0 -15.09375l3.96875 0l0 18.0l-3.5625 0l-0.40625 -2.90625zm-7.78125 -3.28125l0 -0.25q0 -1.4375 0.3125 -2.625q0.3125 -1.1875 0.9375 -2.046875q0.625 -0.875 1.546875 -1.34375q0.921875 -0.46875 2.140625 -0.46875q1.078125 0 1.875 0.5q0.8125 0.5 1.390625 1.390625q0.578125 0.890625 0.9375 2.078125q0.359375 1.1875 0.546875 2.5625l0 0.296875q-0.1875 1.28125 -0.546875 2.4375q-0.359375 1.140625 -0.9375 2.015625q-0.578125 0.875 -1.390625 1.375q-0.8125 0.5 -1.90625 0.5q-1.203125 0 -2.125 -0.484375q-0.921875 -0.484375 -1.546875 -1.34375q-0.609375 -0.875 -0.921875 -2.046875q-0.3125 -1.171875 -0.3125 -2.546875zm3.953125 -0.25l0 0.25q0 0.71875 0.09375 1.328125q0.09375 0.609375 0.3125 1.078125q0.234375 0.453125 0.609375 0.71875q0.390625 0.25 0.953125 0.25q0.75 0 1.25 -0.359375q0.5 -0.375 0.734375 -1.03125q0.25 -0.671875 0.21875 -1.578125l0 -0.921875q0.015625 -0.78125 -0.109375 -1.359375q-0.125 -0.59375 -0.40625 -0.984375q-0.28125 -0.40625 -0.703125 -0.609375q-0.40625 -0.21875 -0.96875 -0.21875q-0.546875 0 -0.9375 0.265625q-0.375 0.25 -0.609375 0.71875q-0.234375 0.46875 -0.34375 1.09375q-0.09375 0.625 -0.09375 1.359375zm14.203125 -6.25l0 12.6875l-3.953125 0l0 -12.6875l3.953125 0zm-4.1875 -3.265625q0 -0.84375 0.609375 -1.375q0.609375 -0.546875 1.578125 -0.546875q0.96875 0 1.578125 0.546875q0.609375 0.53125 0.609375 1.375q0 0.84375 -0.609375 1.390625q-0.609375 0.53125 -1.578125 0.53125q-0.96875 0 -1.578125 -0.53125q-0.609375 -0.546875 -0.609375 -1.390625zm11.191406 13.25l2.5 -9.984375l4.15625 0l-4.15625 12.6875l-2.453125 0l-0.046875 -2.703125zm-1.484375 -9.984375l2.46875 9.984375l-0.03125 2.703125l-2.46875 0l-4.140625 -12.6875l4.171875 0zm15.292969 12.921875q-1.546875 0 -2.765625 -0.484375q-1.21875 -0.484375 -2.0625 -1.34375q-0.828125 -0.859375 -1.265625 -1.96875q-0.4375 -1.109375 -0.4375 -2.359375l0 -0.4375q0 -1.40625 0.375 -2.59375q0.390625 -1.1875 1.15625 -2.078125q0.765625 -0.890625 1.90625 -1.390625q1.15625 -0.5 2.671875 -0.5q1.359375 0 2.421875 0.4375q1.0625 0.4375 1.796875 1.25q0.75 0.796875 1.140625 1.953125q0.40625 1.140625 0.40625 2.578125l0 1.609375l-10.359375 0l0 -2.484375l6.5 0l0 -0.296875q0.015625 -0.640625 -0.21875 -1.078125q-0.234375 -0.453125 -0.671875 -0.6875q-0.421875 -0.234375 -1.046875 -0.234375q-0.640625 0 -1.0625 0.28125q-0.40625 0.28125 -0.640625 0.78125q-0.234375 0.484375 -0.328125 1.125q-0.09375 0.625 -0.09375 1.328125l0 0.4375q0 0.703125 0.1875 1.28125q0.203125 0.578125 0.5625 0.984375q0.375 0.390625 0.890625 0.625q0.53125 0.21875 1.203125 0.21875q0.8125 0 1.59375 -0.296875q0.78125 -0.3125 1.34375 -1.015625l1.796875 2.125q-0.390625 0.5625 -1.109375 1.078125q-0.703125 0.515625 -1.6875 0.84375q-0.984375 0.3125 -2.203125 0.3125zm10.921875 -9.78125l0 9.546875l-3.9375 0l0 -12.6875l3.6875 0l0.25 3.140625zm3.75 -3.234375l-0.0625 3.671875q-0.234375 -0.015625 -0.640625 -0.046875q-0.390625 -0.046875 -0.65625 -0.046875q-0.703125 0 -1.203125 0.15625q-0.484375 0.15625 -0.8125 0.46875q-0.328125 0.3125 -0.46875 0.78125q-0.140625 0.46875 -0.140625 1.09375l-0.703125 -0.46875q0 -1.28125 0.25 -2.328125q0.25 -1.046875 0.71875 -1.8125q0.46875 -0.765625 1.125 -1.1875q0.671875 -0.421875 1.515625 -0.421875q0.28125 0 0.5625 0.046875q0.296875 0.03125 0.515625 0.09375zm8.015625 9.21875q0 -0.328125 -0.21875 -0.5625q-0.21875 -0.25 -0.765625 -0.453125q-0.53125 -0.203125 -1.5 -0.421875q-0.9375 -0.1875 -1.75 -0.515625q-0.8125 -0.328125 -1.421875 -0.796875q-0.609375 -0.46875 -0.953125 -1.109375q-0.34375 -0.65625 -0.34375 -1.484375q0 -0.8125 0.34375 -1.53125q0.34375 -0.71875 1.015625 -1.265625q0.671875 -0.5625 1.640625 -0.890625q0.984375 -0.328125 2.21875 -0.328125q1.71875 0 2.953125 0.53125q1.25 0.515625 1.921875 1.453125q0.671875 0.921875 0.671875 2.140625l-3.953125 0q0 -0.46875 -0.15625 -0.8125q-0.15625 -0.34375 -0.515625 -0.515625q-0.34375 -0.1875 -0.921875 -0.1875q-0.421875 0 -0.75 0.15625q-0.328125 0.140625 -0.53125 0.421875q-0.203125 0.265625 -0.203125 0.625q0 0.265625 0.125 0.46875q0.125 0.203125 0.375 0.375q0.265625 0.171875 0.65625 0.3125q0.40625 0.125 0.96875 0.234375q1.28125 0.234375 2.390625 0.671875q1.109375 0.421875 1.796875 1.21875q0.703125 0.796875 0.703125 2.140625q0 0.84375 -0.390625 1.5625q-0.375 0.703125 -1.109375 1.234375q-0.71875 0.53125 -1.75 0.828125q-1.015625 0.296875 -2.28125 0.296875q-1.828125 0 -3.078125 -0.640625q-1.25 -0.65625 -1.890625 -1.640625q-0.640625 -1.0 -0.640625 -2.015625l3.6875 0q0.015625 0.578125 0.28125 0.953125q0.265625 0.375 0.703125 0.5625q0.453125 0.171875 1.03125 0.171875q0.546875 0 0.90625 -0.15625q0.359375 -0.15625 0.546875 -0.421875q0.1875 -0.265625 0.1875 -0.609375zm9.8203125 -9.125l0 12.6875l-3.953125 0l0 -12.6875l3.953125 0zm-4.1875 -3.265625q0 -0.84375 0.609375 -1.375q0.609375 -0.546875 1.578125 -0.546875q0.96875 0 1.578125 0.546875q0.609375 0.53125 0.609375 1.375q0 0.84375 -0.609375 1.390625q-0.609375 0.53125 -1.578125 0.53125q-0.96875 0 -1.578125 -0.53125q-0.609375 -0.546875 -0.609375 -1.390625zm13.300781 3.265625l0 2.75l-7.640625 0l0 -2.75l7.640625 0zm-6.03125 -3.140625l3.9375 0l0 11.6875q0 0.5 0.109375 0.78125q0.125 0.28125 0.40625 0.390625q0.296875 0.109375 0.78125 0.109375q0.34375 0 0.5625 -0.015625q0.21875 -0.015625 0.421875 -0.0625l0 2.828125q-0.5 0.171875 -1.0625 0.25q-0.546875 0.09375 -1.171875 0.09375q-1.265625 0 -2.15625 -0.390625q-0.890625 -0.40625 -1.359375 -1.265625q-0.46875 -0.859375 -0.46875 -2.21875l0 -12.1875zm11.484375 14.34375l3.28125 -11.203125l4.25 0l-5.09375 14.578125q-0.171875 0.484375 -0.4375 1.03125q-0.265625 0.5625 -0.734375 1.0625q-0.46875 0.5 -1.203125 0.8125q-0.734375 0.328125 -1.8125 0.328125q-0.578125 0 -0.84375 -0.0625q-0.265625 -0.046875 -0.796875 -0.171875l0 -2.828125q0.15625 0 0.265625 0q0.109375 0 0.25 0q0.625 0 1.0 -0.125q0.390625 -0.125 0.59375 -0.375q0.203125 -0.25 0.328125 -0.59375l0.953125 -2.453125zm-0.828125 -11.203125l2.5 8.875l0.4375 4.1875l-2.65625 0l-4.515625 -13.0625l4.234375 0z" fill-rule="nonzero"/><path fill="#073763" d="m545.3307 262.23358l0 0c0 -30.145172 64.93634 -54.582657 145.03937 -54.582657l0 0c80.10303 0 145.03937 24.437485 145.03937 54.582657l0 0c0 30.145203 -64.93634 54.582703 -145.03937 54.582703l0 0c-80.10303 0 -145.03937 -24.4375 -145.03937 -54.582703z" fill-rule="evenodd"/><path fill="#ffffff" d="m606.41693 270.7736l-3.78125 0l0.015625 -3.171875l3.765625 0q1.171875 0 1.984375 -0.5625q0.8125 -0.5625 1.234375 -1.671875q0.4375 -1.125 0.4375 -2.765625l0 -0.734375q0 -1.234375 -0.25 -2.15625q-0.234375 -0.9375 -0.703125 -1.5625q-0.46875 -0.625 -1.171875 -0.9375q-0.6875 -0.328125 -1.59375 -0.328125l-3.796875 0l0 -3.171875l3.796875 0q1.734375 0 3.1875 0.59375q1.453125 0.59375 2.5 1.6875q1.0625 1.09375 1.640625 2.59375q0.59375 1.484375 0.59375 3.296875l0 0.71875q0 1.8125 -0.59375 3.3125q-0.578125 1.5 -1.640625 2.59375q-1.046875 1.078125 -2.484375 1.671875q-1.421875 0.59375 -3.140625 0.59375zm-1.421875 -17.0625l0 17.0625l-4.125 0l0 -17.0625l4.125 0zm15.386719 4.375l0 12.6875l-3.953125 0l0 -12.6875l3.953125 0zm-4.1875 -3.265625q0 -0.84375 0.609375 -1.375q0.609375 -0.546875 1.578125 -0.546875q0.96875 0 1.578125 0.546875q0.609375 0.53125 0.609375 1.375q0 0.84375 -0.609375 1.390625q-0.609375 0.53125 -1.578125 0.53125q-0.96875 0 -1.578125 -0.53125q-0.609375 -0.546875 -0.609375 -1.390625zm14.582031 3.265625l3.59375 0l0 12.1875q0 1.765625 -0.8125 2.984375q-0.8125 1.234375 -2.265625 1.875q-1.4375 0.640625 -3.375 0.640625q-0.84375 0 -1.734375 -0.21875q-0.890625 -0.21875 -1.671875 -0.640625q-0.765625 -0.421875 -1.296875 -1.046875l1.65625 -2.3125q0.46875 0.53125 1.1875 0.90625q0.734375 0.390625 1.71875 0.390625q0.859375 0 1.4375 -0.3125q0.578125 -0.296875 0.875 -0.875q0.3125 -0.578125 0.3125 -1.40625l0 -9.171875l0.375 -3.0zm-8.421875 6.5l0 -0.25q0 -1.4375 0.359375 -2.625q0.359375 -1.1875 1.03125 -2.046875q0.671875 -0.875 1.625 -1.34375q0.96875 -0.46875 2.171875 -0.46875q1.3125 0 2.140625 0.5q0.84375 0.5 1.34375 1.390625q0.515625 0.890625 0.796875 2.078125q0.296875 1.1875 0.5 2.5625l0 0.296875q-0.203125 1.28125 -0.546875 2.4375q-0.34375 1.140625 -0.90625 2.015625q-0.546875 0.875 -1.375 1.375q-0.828125 0.5 -1.96875 0.5q-1.203125 0 -2.15625 -0.484375q-0.953125 -0.484375 -1.625 -1.34375q-0.671875 -0.875 -1.03125 -2.046875q-0.359375 -1.171875 -0.359375 -2.546875zm3.953125 -0.25l0 0.25q0 0.71875 0.125 1.328125q0.140625 0.609375 0.421875 1.078125q0.28125 0.453125 0.6875 0.71875q0.421875 0.25 0.984375 0.25q0.859375 0 1.390625 -0.359375q0.53125 -0.375 0.765625 -1.03125q0.234375 -0.671875 0.1875 -1.578125l0 -0.921875q0.03125 -0.78125 -0.109375 -1.359375q-0.125 -0.59375 -0.40625 -0.984375q-0.265625 -0.40625 -0.71875 -0.609375q-0.453125 -0.21875 -1.078125 -0.21875q-0.546875 0 -0.96875 0.265625q-0.421875 0.25 -0.703125 0.71875q-0.28125 0.46875 -0.4375 1.09375q-0.140625 0.625 -0.140625 1.359375zm14.488281 -6.25l0 12.6875l-3.953125 0l0 -12.6875l3.953125 0zm-4.1875 -3.265625q0 -0.84375 0.609375 -1.375q0.609375 -0.546875 1.578125 -0.546875q0.96875 0 1.578125 0.546875q0.609375 0.53125 0.609375 1.375q0 0.84375 -0.609375 1.390625q-0.609375 0.53125 -1.578125 0.53125q-0.96875 0 -1.578125 -0.53125q-0.609375 -0.546875 -0.609375 -1.390625zm13.300781 3.265625l0 2.75l-7.640625 0l0 -2.75l7.640625 0zm-6.03125 -3.140625l3.9375 0l0 11.6875q0 0.5 0.109375 0.78125q0.125 0.28125 0.40625 0.390625q0.296875 0.109375 0.78125 0.109375q0.34375 0 0.5625 -0.015625q0.21875 -0.015625 0.421875 -0.0625l0 2.828125q-0.5 0.171875 -1.0625 0.25q-0.546875 0.09375 -1.171875 0.09375q-1.265625 0 -2.15625 -0.390625q-0.890625 -0.40625 -1.359375 -1.265625q-0.46875 -0.859375 -0.46875 -2.21875l0 -12.1875zm14.1875 12.640625l0 -5.234375q0 -0.53125 -0.15625 -0.921875q-0.15625 -0.390625 -0.484375 -0.59375q-0.328125 -0.21875 -0.875 -0.21875q-0.4375 0 -0.765625 0.15625q-0.3125 0.140625 -0.484375 0.453125q-0.15625 0.296875 -0.15625 0.765625l-3.953125 0q0 -0.875 0.390625 -1.625q0.40625 -0.765625 1.125 -1.328125q0.734375 -0.5625 1.765625 -0.875q1.03125 -0.3125 2.296875 -0.3125q1.5 0 2.6875 0.515625q1.203125 0.5 1.890625 1.5q0.6875 1.0 0.6875 2.515625l0 5.1875q0 1.25 0.140625 1.890625q0.140625 0.625 0.40625 1.109375l0 0.203125l-3.96875 0q-0.28125 -0.59375 -0.421875 -1.4375q-0.125 -0.84375 -0.125 -1.75zm0.484375 -4.5625l0.015625 2.109375l-1.75 0q-0.546875 0 -0.9375 0.15625q-0.375 0.15625 -0.609375 0.421875q-0.21875 0.25 -0.328125 0.578125q-0.09375 0.328125 -0.09375 0.703125q0 0.34375 0.171875 0.625q0.171875 0.265625 0.46875 0.421875q0.296875 0.15625 0.65625 0.15625q0.65625 0 1.109375 -0.25q0.46875 -0.25 0.71875 -0.609375q0.25 -0.375 0.25 -0.6875l0.859375 1.609375q-0.234375 0.46875 -0.53125 0.953125q-0.296875 0.484375 -0.734375 0.890625q-0.4375 0.40625 -1.078125 0.65625q-0.625 0.25 -1.53125 0.25q-1.171875 0 -2.15625 -0.484375q-0.96875 -0.484375 -1.5625 -1.34375q-0.578125 -0.859375 -0.578125 -1.984375q0 -0.984375 0.34375 -1.75q0.359375 -0.78125 1.078125 -1.3125q0.734375 -0.546875 1.859375 -0.828125q1.125 -0.28125 2.65625 -0.28125l1.703125 0zm9.84375 -10.25l0 18.0l-3.953125 0l0 -18.0l3.953125 0zm13.761719 15.1875q0.546875 0 0.9375 -0.203125q0.40625 -0.203125 0.609375 -0.578125q0.203125 -0.390625 0.1875 -0.9375l3.71875 0q0.015625 1.4375 -0.703125 2.515625q-0.703125 1.0625 -1.921875 1.65625q-1.203125 0.59375 -2.734375 0.59375q-1.484375 0 -2.609375 -0.484375q-1.109375 -0.484375 -1.859375 -1.359375q-0.734375 -0.875 -1.109375 -2.046875q-0.359375 -1.171875 -0.359375 -2.546875l0 -0.265625q0 -1.375 0.359375 -2.546875q0.375 -1.1875 1.109375 -2.046875q0.75 -0.875 1.859375 -1.359375q1.109375 -0.5 2.59375 -0.5q1.578125 0 2.78125 0.609375q1.21875 0.59375 1.90625 1.734375q0.703125 1.125 0.6875 2.75l-3.71875 0q0.015625 -0.578125 -0.171875 -1.03125q-0.1875 -0.453125 -0.578125 -0.734375q-0.390625 -0.28125 -1.0 -0.28125q-0.609375 0 -0.984375 0.28125q-0.375 0.265625 -0.578125 0.75q-0.1875 0.46875 -0.25 1.078125q-0.0625 0.609375 -0.0625 1.296875l0 0.265625q0 0.703125 0.0625 1.328125q0.0625 0.609375 0.25 1.078125q0.203125 0.453125 0.578125 0.71875q0.375 0.265625 1.0 0.265625zm13.714844 -0.375l0 -5.234375q0 -0.53125 -0.15625 -0.921875q-0.15625 -0.390625 -0.484375 -0.59375q-0.328125 -0.21875 -0.875 -0.21875q-0.4375 0 -0.765625 0.15625q-0.3125 0.140625 -0.484375 0.453125q-0.15625 0.296875 -0.15625 0.765625l-3.953125 0q0 -0.875 0.390625 -1.625q0.40625 -0.765625 1.125 -1.328125q0.734375 -0.5625 1.765625 -0.875q1.03125 -0.3125 2.296875 -0.3125q1.5 0 2.6875 0.515625q1.203125 0.5 1.890625 1.5q0.6875 1.0 0.6875 2.515625l0 5.1875q0 1.25 0.140625 1.890625q0.140625 0.625 0.40625 1.109375l0 0.203125l-3.96875 0q-0.28125 -0.59375 -0.421875 -1.4375q-0.125 -0.84375 -0.125 -1.75zm0.484375 -4.5625l0.015625 2.109375l-1.75 0q-0.546875 0 -0.9375 0.15625q-0.375 0.15625 -0.609375 0.421875q-0.21875 0.25 -0.328125 0.578125q-0.09375 0.328125 -0.09375 0.703125q0 0.34375 0.171875 0.625q0.171875 0.265625 0.46875 0.421875q0.296875 0.15625 0.65625 0.15625q0.65625 0 1.109375 -0.25q0.46875 -0.25 0.71875 -0.609375q0.25 -0.375 0.25 -0.6875l0.859375 1.609375q-0.234375 0.46875 -0.53125 0.953125q-0.296875 0.484375 -0.734375 0.890625q-0.4375 0.40625 -1.078125 0.65625q-0.625 0.25 -1.53125 0.25q-1.171875 0 -2.15625 -0.484375q-0.96875 -0.484375 -1.5625 -1.34375q-0.578125 -0.859375 -0.578125 -1.984375q0 -0.984375 0.34375 -1.75q0.359375 -0.78125 1.078125 -1.3125q0.734375 -0.546875 1.859375 -0.828125q1.125 -0.28125 2.65625 -0.28125l1.703125 0zm9.65625 -2.5l0 15.125l-3.9375 0l0 -17.5625l3.671875 0l0.265625 2.4375zm7.78125 3.75l0 0.25q0 1.390625 -0.3125 2.578125q-0.3125 1.171875 -0.9375 2.0625q-0.625 0.875 -1.546875 1.359375q-0.90625 0.484375 -2.125 0.484375q-1.125 0 -1.953125 -0.5q-0.8125 -0.515625 -1.375 -1.40625q-0.546875 -0.890625 -0.890625 -2.03125q-0.328125 -1.15625 -0.53125 -2.421875l0 -0.328125q0.203125 -1.359375 0.53125 -2.53125q0.34375 -1.1875 0.890625 -2.0625q0.5625 -0.890625 1.375 -1.375q0.8125 -0.5 1.953125 -0.5q1.203125 0 2.125 0.46875q0.921875 0.453125 1.546875 1.3125q0.625 0.84375 0.9375 2.03125q0.3125 1.171875 0.3125 2.609375zm-3.9375 0.25l0 -0.25q0 -0.734375 -0.109375 -1.34375q-0.109375 -0.625 -0.34375 -1.078125q-0.21875 -0.453125 -0.59375 -0.703125q-0.375 -0.25 -0.921875 -0.25q-0.640625 0 -1.078125 0.203125q-0.421875 0.1875 -0.671875 0.578125q-0.25 0.390625 -0.359375 0.984375q-0.09375 0.578125 -0.078125 1.34375l0 0.96875q-0.015625 0.890625 0.171875 1.5625q0.203125 0.671875 0.6875 1.046875q0.5 0.375 1.34375 0.375q0.5625 0 0.9375 -0.265625q0.375 -0.265625 0.59375 -0.734375q0.234375 -0.484375 0.328125 -1.09375q0.09375 -0.625 0.09375 -1.34375zm12.277344 3.0625l0 -5.234375q0 -0.53125 -0.15625 -0.921875q-0.15625 -0.390625 -0.484375 -0.59375q-0.328125 -0.21875 -0.875 -0.21875q-0.4375 0 -0.765625 0.15625q-0.3125 0.140625 -0.484375 0.453125q-0.15625 0.296875 -0.15625 0.765625l-3.953125 0q0 -0.875 0.390625 -1.625q0.40625 -0.765625 1.125 -1.328125q0.734375 -0.5625 1.765625 -0.875q1.03125 -0.3125 2.296875 -0.3125q1.5 0 2.6875 0.515625q1.203125 0.5 1.890625 1.5q0.6875 1.0 0.6875 2.515625l0 5.1875q0 1.25 0.140625 1.890625q0.140625 0.625 0.40625 1.109375l0 0.203125l-3.96875 0q-0.28125 -0.59375 -0.421875 -1.4375q-0.125 -0.84375 -0.125 -1.75zm0.484375 -4.5625l0.015625 2.109375l-1.75 0q-0.546875 0 -0.9375 0.15625q-0.375 0.15625 -0.609375 0.421875q-0.21875 0.25 -0.328125 0.578125q-0.09375 0.328125 -0.09375 0.703125q0 0.34375 0.171875 0.625q0.171875 0.265625 0.46875 0.421875q0.296875 0.15625 0.65625 0.15625q0.65625 0 1.109375 -0.25q0.46875 -0.25 0.71875 -0.609375q0.25 -0.375 0.25 -0.6875l0.859375 1.609375q-0.234375 0.46875 -0.53125 0.953125q-0.296875 0.484375 -0.734375 0.890625q-0.4375 0.40625 -1.078125 0.65625q-0.625 0.25 -1.53125 0.25q-1.171875 0 -2.15625 -0.484375q-0.96875 -0.484375 -1.5625 -1.34375q-0.578125 -0.859375 -0.578125 -1.984375q0 -0.984375 0.34375 -1.75q0.359375 -0.78125 1.078125 -1.3125q0.734375 -0.546875 1.859375 -0.828125q1.125 -0.28125 2.65625 -0.28125l1.703125 0zm5.71875 -10.25l3.9375 0l0 14.875l-0.40625 3.125l-3.53125 0l0 -18.0zm11.71875 11.515625l0 0.25q0 1.4375 -0.296875 2.625q-0.28125 1.1875 -0.890625 2.046875q-0.609375 0.859375 -1.546875 1.328125q-0.921875 0.46875 -2.1875 0.46875q-1.140625 0 -1.96875 -0.5q-0.8125 -0.5 -1.375 -1.375q-0.546875 -0.890625 -0.890625 -2.046875q-0.328125 -1.171875 -0.53125 -2.515625l0 -0.296875q0.203125 -1.3125 0.53125 -2.484375q0.34375 -1.171875 0.890625 -2.046875q0.5625 -0.890625 1.375 -1.390625q0.8125 -0.5 1.953125 -0.5q1.28125 0 2.203125 0.484375q0.9375 0.484375 1.546875 1.359375q0.609375 0.859375 0.890625 2.03125q0.296875 1.171875 0.296875 2.5625zm-3.9375 0.25l0 -0.25q0 -0.6875 -0.09375 -1.296875q-0.078125 -0.609375 -0.296875 -1.078125q-0.203125 -0.46875 -0.59375 -0.734375q-0.375 -0.28125 -1.0 -0.28125q-0.640625 0 -1.0625 0.21875q-0.421875 0.203125 -0.6875 0.609375q-0.25 0.390625 -0.359375 0.953125q-0.09375 0.5625 -0.078125 1.28125l0 0.921875q-0.03125 0.984375 0.171875 1.671875q0.203125 0.6875 0.6875 1.0625q0.5 0.359375 1.34375 0.359375q0.640625 0 1.03125 -0.25q0.390625 -0.25 0.59375 -0.703125q0.203125 -0.453125 0.265625 -1.078125q0.078125 -0.640625 0.078125 -1.40625zm9.855469 -6.453125l0 12.6875l-3.953125 0l0 -12.6875l3.953125 0zm-4.1875 -3.265625q0 -0.84375 0.609375 -1.375q0.609375 -0.546875 1.578125 -0.546875q0.96875 0 1.578125 0.546875q0.609375 0.53125 0.609375 1.375q0 0.84375 -0.609375 1.390625q-0.609375 0.53125 -1.578125 0.53125q-0.96875 0 -1.578125 -0.53125q-0.609375 -0.546875 -0.609375 -1.390625zm10.785156 -2.046875l0 18.0l-3.953125 0l0 -18.0l3.953125 0zm6.5976562 5.3125l0 12.6875l-3.953125 0l0 -12.6875l3.953125 0zm-4.1875 -3.265625q0 -0.84375 0.609375 -1.375q0.609375 -0.546875 1.578125 -0.546875q0.96875 0 1.578125 0.546875q0.609375 0.53125 0.609375 1.375q0 0.84375 -0.609375 1.390625q-0.609375 0.53125 -1.578125 0.53125q-0.96875 0 -1.578125 -0.53125q-0.609375 -0.546875 -0.609375 -1.390625zm13.300781 3.265625l0 2.75l-7.640625 0l0 -2.75l7.640625 0zm-6.03125 -3.140625l3.9375 0l0 11.6875q0 0.5 0.109375 0.78125q0.125 0.28125 0.40625 0.390625q0.296875 0.109375 0.78125 0.109375q0.34375 0 0.5625 -0.015625q0.21875 -0.015625 0.421875 -0.0625l0 2.828125q-0.5 0.171875 -1.0625 0.25q-0.546875 0.09375 -1.171875 0.09375q-1.265625 0 -2.15625 -0.390625q-0.890625 -0.40625 -1.359375 -1.265625q-0.46875 -0.859375 -0.46875 -2.21875l0 -12.1875zm11.484375 14.34375l3.28125 -11.203125l4.25 0l-5.09375 14.578125q-0.171875 0.484375 -0.4375 1.03125q-0.265625 0.5625 -0.734375 1.0625q-0.46875 0.5 -1.203125 0.8125q-0.734375 0.328125 -1.8125 0.328125q-0.578125 0 -0.84375 -0.0625q-0.265625 -0.046875 -0.796875 -0.171875l0 -2.828125q0.15625 0 0.265625 0q0.109375 0 0.25 0q0.625 0 1.0 -0.125q0.390625 -0.125 0.59375 -0.375q0.203125 -0.25 0.328125 -0.59375l0.953125 -2.453125zm-0.828125 -11.203125l2.5 8.875l0.4375 4.1875l-2.65625 0l-4.515625 -13.0625l4.234375 0z" fill-rule="nonzero"/></g></svg>