<svg version="1.1" viewBox="0.0 0.0 960.0 540.0" fill="none" stroke="none" stroke-linecap="square" stroke-miterlimit="10" xmlns:xlink="http://www.w3.org/1999/xlink" xmlns="http://www.w3.org/2000/svg"><clipPath id="g34b6e2f5c32_0_471.0"><path d="m0 0l960.0 0l0 540.0l-960.0 0l0 -540.0z" clip-rule="nonzero"/></clipPath><g clip-path="url(#g34b6e2f5c32_0_471.0)"><path fill="#fcfaf7" d="m0 0l960.0 0l0 540.0l-960.0 0z" fill-rule="evenodd"/><path fill="#ffd966" d="m39.793964 243.13124l0 0c0 -79.87691 98.87105 -144.62993 220.83464 -144.62993l0 0c121.96362 0 220.83466 64.75302 220.83466 144.62993l0 0c0 79.87691 -98.87103 144.62993 -220.83466 144.62993l0 0c-121.96359 0 -220.83464 -64.75302 -220.83464 -144.62993z" fill-rule="evenodd"/><path fill="#000000" d="m171.38115 198.38249l-8.390625 0l-1.34375 3.96875l-5.71875 0l8.125 -22.46875l6.328125 0l8.140625 22.46875l-5.796875 0l-1.34375 -3.96875zm-1.40625 -4.21875l-2.78125 -8.234375l-2.75 8.234375l5.53125 0zm9.91217 -0.734375q0 -2.796875 1.140625 -4.875q1.140625 -2.078125 3.171875 -3.1875q2.03125 -1.125 4.65625 -1.125q3.359375 0 5.609375 1.765625q2.265625 1.75 2.96875 4.953125l-5.828125 0q-0.734375 -2.046875 -2.84375 -2.046875q-1.515625 0 -2.40625 1.171875q-0.890625 1.15625 -0.890625 3.34375q0 2.171875 0.890625 3.34375q0.890625 1.15625 2.40625 1.15625q2.109375 0 2.84375 -2.046875l5.828125 0q-0.703125 3.140625 -2.984375 4.9375q-2.265625 1.78125 -5.59375 1.78125q-2.625 0 -4.65625 -1.109375q-2.03125 -1.125 -3.171875 -3.203125q-1.140625 -2.078125 -1.140625 -4.859375zm19.360046 0q0 -2.796875 1.140625 -4.875q1.140625 -2.078125 3.171875 -3.1875q2.03125 -1.125 4.65625 -1.125q3.359375 0 5.609375 1.765625q2.265625 1.75 2.96875 4.953125l-5.828125 0q-0.734375 -2.046875 -2.84375 -2.046875q-1.515625 0 -2.40625 1.171875q-0.890625 1.15625 -0.890625 3.34375q0 2.171875 0.890625 3.34375q0.890625 1.15625 2.40625 1.15625q2.109375 0 2.84375 -2.046875l5.828125 0q-0.703125 3.140625 -2.984375 4.9375q-2.265625 1.78125 -5.59375 1.78125q-2.625 0 -4.65625 -1.109375q-2.03125 -1.125 -3.171875 -3.203125q-1.140625 -2.078125 -1.140625 -4.859375zm37.28192 -0.296875q0 0.765625 -0.09375 1.609375l-12.375 0q0.125 1.65625 1.0625 2.546875q0.953125 0.875 2.328125 0.875q2.046875 0 2.84375 -1.734375l5.828125 0q-0.453125 1.765625 -1.625 3.171875q-1.171875 1.40625 -2.9375 2.203125q-1.75 0.796875 -3.921875 0.796875q-2.625 0 -4.671875 -1.109375q-2.046875 -1.125 -3.203125 -3.203125q-1.15625 -2.078125 -1.15625 -4.859375q0 -2.796875 1.140625 -4.875q1.140625 -2.078125 3.1875 -3.1875q2.046875 -1.125 4.703125 -1.125q2.59375 0 4.609375 1.09375q2.015625 1.078125 3.140625 3.09375q1.140625 2.015625 1.140625 4.703125zm-5.59375 -1.4375q0 -1.40625 -0.96875 -2.234375q-0.953125 -0.84375 -2.390625 -0.84375q-1.375 0 -2.328125 0.8125q-0.9375 0.796875 -1.15625 2.265625l6.84375 0zm15.743286 10.90625q-2.34375 0 -4.171875 -0.796875q-1.8125 -0.796875 -2.875 -2.1875q-1.046875 -1.390625 -1.171875 -3.125l5.40625 0q0.09375 0.9375 0.859375 1.515625q0.765625 0.5625 1.890625 0.5625q1.015625 0 1.578125 -0.390625q0.5625 -0.40625 0.5625 -1.046875q0 -0.765625 -0.796875 -1.125q-0.796875 -0.375 -2.59375 -0.828125q-1.921875 -0.4375 -3.203125 -0.9375q-1.28125 -0.5 -2.21875 -1.5625q-0.921875 -1.078125 -0.921875 -2.90625q0 -1.53125 0.84375 -2.796875q0.859375 -1.265625 2.5 -2.0q1.65625 -0.734375 3.921875 -0.734375q3.359375 0 5.296875 1.671875q1.9375 1.65625 2.234375 4.40625l-5.0625 0q-0.125 -0.921875 -0.8125 -1.46875q-0.6875 -0.546875 -1.8125 -0.546875q-0.953125 0 -1.46875 0.375q-0.515625 0.359375 -0.515625 1.0q0 0.765625 0.8125 1.15625q0.828125 0.375 2.546875 0.765625q1.984375 0.515625 3.234375 1.015625q1.25 0.484375 2.1875 1.59375q0.953125 1.09375 0.984375 2.953125q0 1.578125 -0.890625 2.8125q-0.875 1.21875 -2.53125 1.921875q-1.640625 0.703125 -3.8125 0.703125zm17.856033 0q-2.34375 0 -4.171875 -0.796875q-1.8125 -0.796875 -2.875 -2.1875q-1.046875 -1.390625 -1.171875 -3.125l5.40625 0q0.09375 0.9375 0.859375 1.515625q0.765625 0.5625 1.890625 0.5625q1.015625 0 1.578125 -0.390625q0.5625 -0.40625 0.5625 -1.046875q0 -0.765625 -0.796875 -1.125q-0.796875 -0.375 -2.59375 -0.828125q-1.921875 -0.4375 -3.203125 -0.9375q-1.28125 -0.5 -2.21875 -1.5625q-0.921875 -1.078125 -0.921875 -2.90625q0 -1.53125 0.84375 -2.796875q0.859375 -1.265625 2.5 -2.0q1.65625 -0.734375 3.921875 -0.734375q3.359375 0 5.296875 1.671875q1.9375 1.65625 2.234375 4.40625l-5.0625 0q-0.125 -0.921875 -0.8125 -1.46875q-0.6875 -0.546875 -1.8125 -0.546875q-0.953125 0 -1.46875 0.375q-0.515625 0.359375 -0.515625 1.0q0 0.765625 0.8125 1.15625q0.828125 0.375 2.546875 0.765625q1.984375 0.515625 3.234375 1.015625q1.25 0.484375 2.1875 1.59375q0.953125 1.09375 0.984375 2.953125q0 1.578125 -0.890625 2.8125q-0.875 1.21875 -2.53125 1.921875q-1.640625 0.703125 -3.8125 0.703125zm13.340424 -19.96875q-1.4375 0 -2.359375 -0.84375q-0.90625 -0.84375 -0.90625 -2.09375q0 -1.28125 0.90625 -2.125q0.921875 -0.84375 2.359375 -0.84375q1.40625 0 2.3125 0.84375q0.921875 0.84375 0.921875 2.125q0 1.25 -0.921875 2.09375q-0.90625 0.84375 -2.3125 0.84375zm2.71875 1.859375l0 17.859375l-5.46875 0l0 -17.859375l5.46875 0zm9.440002 2.53125q0.765625 -1.25 2.203125 -2.015625q1.453125 -0.765625 3.296875 -0.765625q2.21875 0 4.0 1.125q1.796875 1.109375 2.828125 3.1875q1.046875 2.078125 1.046875 4.84375q0 2.75 -1.046875 4.84375q-1.03125 2.09375 -2.828125 3.234375q-1.78125 1.125 -4.0 1.125q-1.875 0 -3.296875 -0.75q-1.40625 -0.75 -2.203125 -2.0l0 2.5l-5.46875 0l0 -23.6875l5.46875 0l0 8.359375zm7.8125 6.375q0 -2.0625 -1.140625 -3.21875q-1.140625 -1.171875 -2.796875 -1.171875q-1.625 0 -2.765625 1.1875q-1.140625 1.1875 -1.140625 3.234375q0 2.046875 1.140625 3.234375q1.140625 1.171875 2.765625 1.171875q1.625 0 2.78125 -1.1875q1.15625 -1.203125 1.15625 -3.25zm11.196808 -10.765625q-1.4375 0 -2.359375 -0.84375q-0.90625 -0.84375 -0.90625 -2.09375q0 -1.28125 0.90625 -2.125q0.921875 -0.84375 2.359375 -0.84375q1.40625 0 2.3125 0.84375q0.921875 0.84375 0.921875 2.125q0 1.25 -0.921875 2.09375q-0.90625 0.84375 -2.3125 0.84375zm2.71875 1.859375l0 17.859375l-5.46875 0l0 -17.859375l5.46875 0zm9.440002 -5.828125l0 23.6875l-5.46875 0l0 -23.6875l5.46875 0zm6.721283 3.96875q-1.4375 0 -2.359375 -0.84375q-0.90625 -0.84375 -0.90625 -2.09375q0 -1.28125 0.90625 -2.125q0.921875 -0.84375 2.359375 -0.84375q1.40625 0 2.3125 0.84375q0.921875 0.84375 0.921875 2.125q0 1.25 -0.921875 2.09375q-0.90625 0.84375 -2.3125 0.84375zm2.71875 1.859375l0 17.859375l-5.46875 0l0 -17.859375l5.46875 0zm13.924377 13.21875l0 4.640625l-2.78125 0q-2.984375 0 -4.65625 -1.453125q-1.65625 -1.453125 -1.65625 -4.75l0 -7.109375l-2.171875 0l0 -4.546875l2.171875 0l0 -4.34375l5.46875 0l0 4.34375l3.59375 0l0 4.546875l-3.59375 0l0 7.171875q0 0.796875 0.390625 1.15625q0.390625 0.34375 1.28125 0.34375l1.953125 0zm21.273285 -13.21875l-11.1875 26.34375l-5.890625 0l4.09375 -9.09375l-7.265625 -17.25l6.109375 0l4.125 11.171875l4.09375 -11.171875l5.921875 0z" fill-rule="nonzero"/><path fill="#000000" d="m128.36688 219.98373l0 1.671875l-6.859375 0l0 -1.671875l6.859375 0zm-4.546875 -3.078125l2.171875 0l0 12.625q0 0.640625 0.203125 0.96875q0.203125 0.328125 0.515625 0.4375q0.3125 0.109375 0.671875 0.109375q0.28125 0 0.578125 -0.046875q0.296875 -0.0625 0.453125 -0.09375l0 1.765625q-0.25 0.078125 -0.671875 0.15625q-0.40625 0.078125 -1.0 0.078125q-0.796875 0 -1.46875 -0.3125q-0.65625 -0.328125 -1.0625 -1.0625q-0.390625 -0.75 -0.390625 -2.015625l0 -12.609375zm6.2734375 9.5625l0 -0.265625q0 -1.375 0.390625 -2.546875q0.40625 -1.1875 1.15625 -2.046875q0.75 -0.875 1.8125 -1.359375q1.078125 -0.5 2.390625 -0.5q1.34375 0 2.40625 0.5q1.078125 0.484375 1.828125 1.359375q0.765625 0.859375 1.15625 2.046875q0.40625 1.171875 0.40625 2.546875l0 0.265625q0 1.375 -0.40625 2.546875q-0.390625 1.171875 -1.15625 2.046875q-0.75 0.875 -1.8125 1.359375q-1.0625 0.484375 -2.390625 0.484375q-1.34375 0 -2.40625 -0.484375q-1.0625 -0.484375 -1.828125 -1.359375q-0.75 -0.875 -1.15625 -2.046875q-0.390625 -1.171875 -0.390625 -2.546875zm2.171875 -0.265625l0 0.265625q0 0.953125 0.21875 1.796875q0.21875 0.828125 0.671875 1.484375q0.453125 0.640625 1.125 1.015625q0.6875 0.359375 1.59375 0.359375q0.890625 0 1.5625 -0.359375q0.671875 -0.375 1.109375 -1.015625q0.453125 -0.65625 0.671875 -1.484375q0.234375 -0.84375 0.234375 -1.796875l0 -0.265625q0 -0.9375 -0.234375 -1.765625q-0.21875 -0.84375 -0.671875 -1.5q-0.453125 -0.65625 -1.125 -1.03125q-0.671875 -0.375 -1.578125 -0.375q-0.890625 0 -1.5625 0.375q-0.671875 0.375 -1.125 1.03125q-0.453125 0.65625 -0.671875 1.5q-0.21875 0.828125 -0.21875 1.765625zm20.40625 -6.21875l0 12.6875l-2.1875 0l0 -12.6875l2.1875 0zm-2.34375 -3.359375q0 -0.53125 0.3125 -0.890625q0.328125 -0.359375 0.953125 -0.359375q0.625 0 0.953125 0.359375q0.34375 0.359375 0.34375 0.890625q0 0.5 -0.34375 0.859375q-0.328125 0.359375 -0.953125 0.359375q-0.625 0 -0.953125 -0.359375q-0.3125 -0.359375 -0.3125 -0.859375zm7.9921875 6.078125l0 9.96875l-2.171875 0l0 -12.6875l2.046875 0l0.125 2.71875zm-0.515625 3.140625l-0.90625 -0.03125q0.015625 -1.296875 0.390625 -2.40625q0.375 -1.109375 1.046875 -1.921875q0.6875 -0.828125 1.625 -1.28125q0.9375 -0.453125 2.09375 -0.453125q0.9375 0 1.6875 0.265625q0.75 0.25 1.28125 0.796875q0.53125 0.546875 0.8125 1.421875q0.28125 0.875 0.28125 2.125l0 8.3125l-2.171875 0l0 -8.328125q0 -1.0 -0.296875 -1.59375q-0.296875 -0.609375 -0.859375 -0.890625q-0.5625 -0.28125 -1.375 -0.28125q-0.8125 0 -1.484375 0.34375q-0.65625 0.34375 -1.140625 0.9375q-0.46875 0.59375 -0.734375 1.375q-0.25 0.765625 -0.25 1.609375zm16.675781 5.28125q0.765625 0 1.421875 -0.3125q0.65625 -0.328125 1.078125 -0.875q0.421875 -0.5625 0.484375 -1.28125l2.0625 0q-0.0625 1.125 -0.765625 2.09375q-0.6875 0.96875 -1.8125 1.5625q-1.125 0.59375 -2.46875 0.59375q-1.4375 0 -2.5 -0.5q-1.0625 -0.515625 -1.765625 -1.390625q-0.6875 -0.875 -1.03125 -2.015625q-0.34375 -1.140625 -0.34375 -2.421875l0 -0.5q0 -1.265625 0.34375 -2.40625q0.34375 -1.15625 1.03125 -2.03125q0.703125 -0.875 1.765625 -1.375q1.0625 -0.515625 2.5 -0.515625q1.484375 0 2.59375 0.609375q1.109375 0.609375 1.75 1.640625q0.640625 1.03125 0.703125 2.34375l-2.0625 0q-0.0625 -0.78125 -0.453125 -1.40625q-0.375 -0.640625 -1.03125 -1.015625q-0.640625 -0.390625 -1.5 -0.390625q-1.0 0 -1.671875 0.40625q-0.671875 0.390625 -1.078125 1.046875q-0.390625 0.65625 -0.5625 1.46875q-0.15625 0.796875 -0.15625 1.625l0 0.5q0 0.828125 0.15625 1.640625q0.171875 0.8125 0.5625 1.46875q0.390625 0.65625 1.0625 1.046875q0.671875 0.390625 1.6875 0.390625zm9.84375 -16.453125l0 18.0l-2.1875 0l0 -18.0l2.1875 0zm11.2265625 15.0625l0 -9.75l2.1875 0l0 12.6875l-2.078125 0l-0.109375 -2.9375zm0.421875 -2.671875l0.890625 -0.015625q0 1.265625 -0.265625 2.34375q-0.25 1.0625 -0.84375 1.859375q-0.578125 0.78125 -1.53125 1.21875q-0.953125 0.4375 -2.3125 0.4375q-0.921875 0 -1.6875 -0.265625q-0.765625 -0.28125 -1.328125 -0.84375q-0.546875 -0.5625 -0.84375 -1.453125q-0.296875 -0.90625 -0.296875 -2.171875l0 -8.1875l2.171875 0l0 8.203125q0 0.859375 0.1875 1.421875q0.1875 0.546875 0.515625 0.875q0.34375 0.328125 0.75 0.453125q0.421875 0.125 0.875 0.125q1.375 0 2.1875 -0.53125q0.8125 -0.53125 1.171875 -1.4375q0.359375 -0.90625 0.359375 -2.03125zm13.042969 3.140625l0 -15.53125l2.1875 0l0 18.0l-2.0 0l-0.1875 -2.46875zm-8.53125 -3.734375l0 -0.25q0 -1.453125 0.359375 -2.640625q0.359375 -1.1875 1.015625 -2.03125q0.671875 -0.859375 1.59375 -1.328125q0.921875 -0.46875 2.046875 -0.46875q1.203125 0 2.09375 0.421875q0.90625 0.421875 1.53125 1.21875q0.625 0.78125 0.984375 1.890625q0.359375 1.109375 0.5 2.515625l0 1.078125q-0.125 1.40625 -0.5 2.515625q-0.359375 1.109375 -0.984375 1.90625q-0.625 0.78125 -1.53125 1.203125q-0.90625 0.40625 -2.109375 0.40625q-1.109375 0 -2.03125 -0.484375q-0.921875 -0.484375 -1.59375 -1.34375q-0.65625 -0.875 -1.015625 -2.046875q-0.359375 -1.171875 -0.359375 -2.5625zm2.1875 -0.25l0 0.25q0 0.953125 0.1875 1.78125q0.203125 0.828125 0.609375 1.46875q0.40625 0.625 1.03125 0.984375q0.640625 0.359375 1.515625 0.359375q1.078125 0 1.78125 -0.453125q0.703125 -0.453125 1.125 -1.203125q0.421875 -0.75 0.65625 -1.640625l0 -2.8125q-0.140625 -0.65625 -0.40625 -1.25q-0.265625 -0.609375 -0.6875 -1.078125q-0.40625 -0.484375 -1.015625 -0.765625q-0.609375 -0.28125 -1.421875 -0.28125q-0.890625 0 -1.53125 0.375q-0.640625 0.375 -1.046875 1.015625q-0.40625 0.625 -0.609375 1.46875q-0.1875 0.84375 -0.1875 1.78125zm17.160156 6.6875q-1.328125 0 -2.40625 -0.453125q-1.0625 -0.453125 -1.84375 -1.265625q-0.765625 -0.828125 -1.171875 -1.953125q-0.40625 -1.125 -0.40625 -2.453125l0 -0.5q0 -1.546875 0.453125 -2.75q0.453125 -1.21875 1.234375 -2.0625q0.796875 -0.84375 1.78125 -1.28125q1.0 -0.4375 2.078125 -0.4375q1.359375 0 2.34375 0.46875q0.984375 0.46875 1.609375 1.3125q0.640625 0.84375 0.9375 1.96875q0.3125 1.125 0.3125 2.46875l0 0.96875l-9.46875 0l0 -1.765625l7.3125 0l0 -0.171875q-0.046875 -0.84375 -0.359375 -1.640625q-0.296875 -0.796875 -0.9375 -1.3125q-0.640625 -0.515625 -1.75 -0.515625q-0.75 0 -1.375 0.3125q-0.609375 0.3125 -1.0625 0.921875q-0.4375 0.609375 -0.6875 1.5q-0.25 0.875 -0.25 2.015625l0 0.5q0 0.890625 0.25 1.6875q0.265625 0.796875 0.75 1.390625q0.484375 0.59375 1.171875 0.9375q0.703125 0.34375 1.59375 0.34375q1.15625 0 1.953125 -0.46875q0.796875 -0.46875 1.390625 -1.265625l1.3125 1.046875q-0.40625 0.625 -1.046875 1.1875q-0.625 0.5625 -1.546875 0.921875q-0.921875 0.34375 -2.171875 0.34375zm21.398438 -2.703125l0 -15.53125l2.1875 0l0 18.0l-2.0 0l-0.1875 -2.46875zm-8.53125 -3.734375l0 -0.25q0 -1.453125 0.359375 -2.640625q0.359375 -1.1875 1.015625 -2.03125q0.671875 -0.859375 1.59375 -1.328125q0.921875 -0.46875 2.046875 -0.46875q1.203125 0 2.09375 0.421875q0.90625 0.421875 1.53125 1.21875q0.625 0.78125 0.984375 1.890625q0.359375 1.109375 0.5 2.515625l0 1.078125q-0.125 1.40625 -0.5 2.515625q-0.359375 1.109375 -0.984375 1.90625q-0.625 0.78125 -1.53125 1.203125q-0.90625 0.40625 -2.109375 0.40625q-1.109375 0 -2.03125 -0.484375q-0.921875 -0.484375 -1.59375 -1.34375q-0.65625 -0.875 -1.015625 -2.046875q-0.359375 -1.171875 -0.359375 -2.5625zm2.1875 -0.25l0 0.25q0 0.953125 0.1875 1.78125q0.203125 0.828125 0.609375 1.46875q0.40625 0.625 1.03125 0.984375q0.640625 0.359375 1.515625 0.359375q1.078125 0 1.78125 -0.453125q0.703125 -0.453125 1.125 -1.203125q0.421875 -0.75 0.65625 -1.640625l0 -2.8125q-0.140625 -0.65625 -0.40625 -1.25q-0.265625 -0.609375 -0.6875 -1.078125q-0.40625 -0.484375 -1.015625 -0.765625q-0.609375 -0.28125 -1.421875 -0.28125q-0.890625 0 -1.53125 0.375q-0.640625 0.375 -1.046875 1.015625q-0.40625 0.625 -0.609375 1.46875q-0.1875 0.84375 -0.1875 1.78125zm14.253906 -6.234375l0 12.6875l-2.1875 0l0 -12.6875l2.1875 0zm-2.34375 -3.359375q0 -0.53125 0.3125 -0.890625q0.328125 -0.359375 0.953125 -0.359375q0.625 0 0.953125 0.359375q0.34375 0.359375 0.34375 0.890625q0 0.5 -0.34375 0.859375q-0.328125 0.359375 -0.953125 0.359375q-0.625 0 -0.953125 -0.359375q-0.3125 -0.359375 -0.3125 -0.859375zm13.1953125 12.6875q0 -0.46875 -0.203125 -0.875q-0.203125 -0.40625 -0.828125 -0.734375q-0.625 -0.34375 -1.875 -0.59375q-1.0625 -0.21875 -1.921875 -0.515625q-0.84375 -0.3125 -1.4375 -0.734375q-0.578125 -0.4375 -0.90625 -1.015625q-0.3125 -0.59375 -0.3125 -1.390625q0 -0.75 0.328125 -1.40625q0.34375 -0.671875 0.953125 -1.1875q0.625 -0.515625 1.484375 -0.8125q0.875 -0.296875 1.9375 -0.296875q1.515625 0 2.59375 0.546875q1.078125 0.53125 1.65625 1.4375q0.578125 0.890625 0.578125 1.984375l-2.171875 0q0 -0.53125 -0.3125 -1.03125q-0.3125 -0.5 -0.90625 -0.828125q-0.578125 -0.328125 -1.4375 -0.328125q-0.90625 0 -1.46875 0.28125q-0.546875 0.28125 -0.796875 0.703125q-0.25 0.421875 -0.25 0.890625q0 0.34375 0.109375 0.625q0.125 0.265625 0.4375 0.5q0.328125 0.234375 0.890625 0.4375q0.578125 0.1875 1.46875 0.390625q1.5625 0.34375 2.5625 0.84375q1.015625 0.484375 1.5 1.203125q0.5 0.71875 0.5 1.734375q0 0.828125 -0.34375 1.53125q-0.34375 0.6875 -1.0 1.1875q-0.640625 0.5 -1.546875 0.78125q-0.890625 0.265625 -2.0 0.265625q-1.6875 0 -2.84375 -0.59375q-1.15625 -0.609375 -1.765625 -1.546875q-0.59375 -0.953125 -0.59375 -2.015625l2.1875 0q0.046875 0.890625 0.515625 1.421875q0.46875 0.515625 1.140625 0.734375q0.6875 0.21875 1.359375 0.21875q0.890625 0 1.484375 -0.234375q0.609375 -0.234375 0.921875 -0.640625q0.3125 -0.421875 0.3125 -0.9375zm12.480469 1.1875l0 -6.53125q0 -0.75 -0.296875 -1.296875q-0.296875 -0.5625 -0.890625 -0.859375q-0.59375 -0.3125 -1.484375 -0.3125q-0.8125 0 -1.4375 0.28125q-0.609375 0.28125 -0.953125 0.75q-0.34375 0.453125 -0.34375 0.96875l-2.171875 0q0 -0.671875 0.34375 -1.34375q0.359375 -0.671875 1.015625 -1.203125q0.671875 -0.546875 1.59375 -0.875q0.9375 -0.328125 2.09375 -0.328125q1.375 0 2.4375 0.46875q1.0625 0.46875 1.65625 1.421875q0.609375 0.9375 0.609375 2.359375l0 5.90625q0 0.625 0.109375 1.34375q0.109375 0.71875 0.34375 1.234375l0 0.1875l-2.265625 0q-0.171875 -0.375 -0.265625 -1.0q-0.09375 -0.625 -0.09375 -1.171875zm0.375 -5.515625l0.03125 1.515625l-2.1875 0q-0.9375 0 -1.671875 0.15625q-0.71875 0.140625 -1.21875 0.4375q-0.484375 0.296875 -0.75 0.734375q-0.25 0.4375 -0.25 1.015625q0 0.609375 0.265625 1.109375q0.28125 0.484375 0.828125 0.765625q0.546875 0.28125 1.34375 0.28125q0.984375 0 1.75 -0.421875q0.765625 -0.421875 1.21875 -1.03125q0.453125 -0.609375 0.484375 -1.171875l0.921875 1.03125q-0.078125 0.5 -0.453125 1.09375q-0.359375 0.59375 -0.96875 1.140625q-0.59375 0.546875 -1.421875 0.90625q-0.828125 0.359375 -1.859375 0.359375q-1.28125 0 -2.25 -0.5q-0.96875 -0.515625 -1.5 -1.359375q-0.53125 -0.84375 -0.53125 -1.90625q0 -1.015625 0.390625 -1.796875q0.40625 -0.78125 1.15625 -1.296875q0.75 -0.53125 1.796875 -0.796875q1.0625 -0.265625 2.359375 -0.265625l2.515625 0zm5.1953125 -10.3125l2.1875 0l0 15.53125l-0.1875 2.46875l-2.0 0l0 -18.0zm10.75 11.546875l0 0.25q0 1.390625 -0.328125 2.5625q-0.328125 1.171875 -0.96875 2.046875q-0.625 0.859375 -1.546875 1.34375q-0.90625 0.484375 -2.09375 0.484375q-1.203125 0 -2.109375 -0.40625q-0.90625 -0.421875 -1.53125 -1.203125q-0.625 -0.796875 -1.0 -1.90625q-0.359375 -1.109375 -0.5 -2.515625l0 -1.078125q0.140625 -1.40625 0.5 -2.515625q0.375 -1.109375 1.0 -1.890625q0.625 -0.796875 1.515625 -1.21875q0.90625 -0.421875 2.109375 -0.421875q1.1875 0 2.109375 0.46875q0.9375 0.46875 1.5625 1.328125q0.625 0.84375 0.953125 2.03125q0.328125 1.1875 0.328125 2.640625zm-2.1875 0.25l0 -0.25q0 -0.9375 -0.171875 -1.78125q-0.171875 -0.84375 -0.5625 -1.46875q-0.390625 -0.640625 -1.03125 -1.015625q-0.625 -0.375 -1.546875 -0.375q-0.8125 0 -1.421875 0.28125q-0.609375 0.28125 -1.03125 0.765625q-0.421875 0.46875 -0.6875 1.078125q-0.25 0.59375 -0.390625 1.25l0 2.8125q0.1875 0.828125 0.609375 1.59375q0.4375 0.75 1.15625 1.234375q0.71875 0.46875 1.796875 0.46875q0.875 0 1.5 -0.359375q0.625 -0.359375 1.015625 -0.984375q0.390625 -0.640625 0.578125 -1.46875q0.1875 -0.828125 0.1875 -1.78125zm7.2890625 -11.796875l0 18.0l-2.1875 0l0 -18.0l2.1875 0zm8.7421875 18.234375q-1.328125 0 -2.40625 -0.453125q-1.0625 -0.453125 -1.84375 -1.265625q-0.765625 -0.828125 -1.171875 -1.953125q-0.40625 -1.125 -0.40625 -2.453125l0 -0.5q0 -1.546875 0.453125 -2.75q0.453125 -1.21875 1.234375 -2.0625q0.796875 -0.84375 1.78125 -1.28125q1.0 -0.4375 2.078125 -0.4375q1.359375 0 2.34375 0.46875q0.984375 0.46875 1.609375 1.3125q0.640625 0.84375 0.9375 1.96875q0.3125 1.125 0.3125 2.46875l0 0.96875l-9.46875 0l0 -1.765625l7.3125 0l0 -0.171875q-0.046875 -0.84375 -0.359375 -1.640625q-0.296875 -0.796875 -0.9375 -1.3125q-0.640625 -0.515625 -1.75 -0.515625q-0.75 0 -1.375 0.3125q-0.609375 0.3125 -1.0625 0.921875q-0.4375 0.609375 -0.6875 1.5q-0.25 0.875 -0.25 2.015625l0 0.5q0 0.890625 0.25 1.6875q0.265625 0.796875 0.75 1.390625q0.484375 0.59375 1.171875 0.9375q0.703125 0.34375 1.59375 0.34375q1.15625 0 1.953125 -0.46875q0.796875 -0.46875 1.390625 -1.265625l1.3125 1.046875q-0.40625 0.625 -1.046875 1.1875q-0.625 0.5625 -1.546875 0.921875q-0.921875 0.34375 -2.171875 0.34375zm15.4453125 -2.703125l0 -15.53125l2.1875 0l0 18.0l-2.0 0l-0.1875 -2.46875zm-8.53125 -3.734375l0 -0.25q0 -1.453125 0.359375 -2.640625q0.359375 -1.1875 1.015625 -2.03125q0.671875 -0.859375 1.59375 -1.328125q0.921875 -0.46875 2.046875 -0.46875q1.203125 0 2.09375 0.421875q0.90625 0.421875 1.53125 1.21875q0.625 0.78125 0.984375 1.890625q0.359375 1.109375 0.5 2.515625l0 1.078125q-0.125 1.40625 -0.5 2.515625q-0.359375 1.109375 -0.984375 1.90625q-0.625 0.78125 -1.53125 1.203125q-0.90625 0.40625 -2.109375 0.40625q-1.109375 0 -2.03125 -0.484375q-0.921875 -0.484375 -1.59375 -1.34375q-0.65625 -0.875 -1.015625 -2.046875q-0.359375 -1.171875 -0.359375 -2.5625zm2.1875 -0.25l0 0.25q0 0.953125 0.1875 1.78125q0.203125 0.828125 0.609375 1.46875q0.40625 0.625 1.03125 0.984375q0.640625 0.359375 1.515625 0.359375q1.078125 0 1.78125 -0.453125q0.703125 -0.453125 1.125 -1.203125q0.421875 -0.75 0.65625 -1.640625l0 -2.8125q-0.140625 -0.65625 -0.40625 -1.25q-0.265625 -0.609375 -0.6875 -1.078125q-0.40625 -0.484375 -1.015625 -0.765625q-0.609375 -0.28125 -1.421875 -0.28125q-0.890625 0 -1.53125 0.375q-0.640625 0.375 -1.046875 1.015625q-0.40625 0.625 -0.609375 1.46875q-0.1875 0.84375 -0.1875 1.78125zm20.019531 -3.796875l0 15.125l-2.1875 0l0 -17.5625l2.0 0l0.1875 2.4375zm8.53125 3.796875l0 0.25q0 1.390625 -0.328125 2.5625q-0.328125 1.171875 -0.953125 2.046875q-0.625 0.859375 -1.546875 1.34375q-0.90625 0.484375 -2.09375 0.484375q-1.203125 0 -2.125 -0.390625q-0.921875 -0.40625 -1.578125 -1.171875q-0.640625 -0.765625 -1.03125 -1.828125q-0.375 -1.0625 -0.515625 -2.40625l0 -1.3125q0.140625 -1.40625 0.53125 -2.515625q0.390625 -1.109375 1.03125 -1.890625q0.640625 -0.796875 1.546875 -1.21875q0.921875 -0.421875 2.109375 -0.421875q1.203125 0 2.125 0.46875q0.921875 0.46875 1.546875 1.328125q0.640625 0.84375 0.953125 2.03125q0.328125 1.1875 0.328125 2.640625zm-2.171875 0.25l0 -0.25q0 -0.9375 -0.203125 -1.78125q-0.203125 -0.84375 -0.625 -1.46875q-0.40625 -0.640625 -1.046875 -1.015625q-0.640625 -0.375 -1.53125 -0.375q-0.828125 0 -1.4375 0.28125q-0.59375 0.28125 -1.015625 0.765625q-0.421875 0.46875 -0.6875 1.078125q-0.265625 0.59375 -0.390625 1.25l0 3.03125q0.234375 0.8125 0.65625 1.546875q0.421875 0.71875 1.125 1.15625q0.703125 0.4375 1.765625 0.4375q0.875 0 1.515625 -0.359375q0.640625 -0.375 1.046875 -1.015625q0.421875 -0.65625 0.625 -1.484375q0.203125 -0.84375 0.203125 -1.796875zm10.2109375 6.4375q-1.328125 0 -2.40625 -0.453125q-1.0625 -0.453125 -1.84375 -1.265625q-0.765625 -0.828125 -1.171875 -1.953125q-0.40625 -1.125 -0.40625 -2.453125l0 -0.5q0 -1.546875 0.453125 -2.75q0.453125 -1.21875 1.234375 -2.0625q0.796875 -0.84375 1.78125 -1.28125q1.0 -0.4375 2.078125 -0.4375q1.359375 0 2.34375 0.46875q0.984375 0.46875 1.609375 1.3125q0.640625 0.84375 0.9375 1.96875q0.3125 1.125 0.3125 2.46875l0 0.96875l-9.46875 0l0 -1.765625l7.3125 0l0 -0.171875q-0.046875 -0.84375 -0.359375 -1.640625q-0.296875 -0.796875 -0.9375 -1.3125q-0.640625 -0.515625 -1.75 -0.515625q-0.75 0 -1.375 0.3125q-0.609375 0.3125 -1.0625 0.921875q-0.4375 0.609375 -0.6875 1.5q-0.25 0.875 -0.25 2.015625l0 0.5q0 0.890625 0.25 1.6875q0.265625 0.796875 0.75 1.390625q0.484375 0.59375 1.171875 0.9375q0.703125 0.34375 1.59375 0.34375q1.15625 0 1.953125 -0.46875q0.796875 -0.46875 1.390625 -1.265625l1.3125 1.046875q-0.40625 0.625 -1.046875 1.1875q-0.625 0.5625 -1.546875 0.921875q-0.921875 0.34375 -2.171875 0.34375zm6.8828125 -6.4375l0 -0.265625q0 -1.375 0.390625 -2.546875q0.40625 -1.1875 1.15625 -2.046875q0.75 -0.875 1.8125 -1.359375q1.078125 -0.5 2.3906555 -0.5q1.34375 0 2.40625 0.5q1.078125 0.484375 1.828125 1.359375q0.765625 0.859375 1.15625 2.046875q0.40625 1.171875 0.40625 2.546875l0 0.265625q0 1.375 -0.40625 2.546875q-0.390625 1.171875 -1.15625 2.046875q-0.75 0.875 -1.8125 1.359375q-1.0625 0.484375 -2.390625 0.484375q-1.3437805 0 -2.4062805 -0.484375q-1.0625 -0.484375 -1.828125 -1.359375q-0.75 -0.875 -1.15625 -2.046875q-0.390625 -1.171875 -0.390625 -2.546875zm2.171875 -0.265625l0 0.265625q0 0.953125 0.21875 1.796875q0.21875 0.828125 0.671875 1.484375q0.453125 0.640625 1.125 1.015625q0.6875 0.359375 1.5937805 0.359375q0.890625 0 1.5625 -0.359375q0.671875 -0.375 1.109375 -1.015625q0.453125 -0.65625 0.671875 -1.484375q0.234375 -0.84375 0.234375 -1.796875l0 -0.265625q0 -0.9375 -0.234375 -1.765625q-0.21875 -0.84375 -0.671875 -1.5q-0.453125 -0.65625 -1.125 -1.03125q-0.671875 -0.375 -1.578125 -0.375q-0.8906555 0 -1.5625305 0.375q-0.671875 0.375 -1.125 1.03125q-0.453125 0.65625 -0.671875 1.5q-0.21875 0.828125 -0.21875 1.765625zm14.2656555 -3.78125l0 15.125l-2.1875 0l0 -17.5625l2.0 0l0.1875 2.4375zm8.53125 3.796875l0 0.25q0 1.390625 -0.328125 2.5625q-0.328125 1.171875 -0.953125 2.046875q-0.625 0.859375 -1.546875 1.34375q-0.90625 0.484375 -2.09375 0.484375q-1.203125 0 -2.125 -0.390625q-0.921875 -0.40625 -1.578125 -1.171875q-0.640625 -0.765625 -1.03125 -1.828125q-0.375 -1.0625 -0.515625 -2.40625l0 -1.3125q0.140625 -1.40625 0.53125 -2.515625q0.390625 -1.109375 1.03125 -1.890625q0.640625 -0.796875 1.546875 -1.21875q0.921875 -0.421875 2.109375 -0.421875q1.203125 0 2.125 0.46875q0.921875 0.46875 1.546875 1.328125q0.640625 0.84375 0.953125 2.03125q0.328125 1.1875 0.328125 2.640625zm-2.171875 0.25l0 -0.25q0 -0.9375 -0.203125 -1.78125q-0.203125 -0.84375 -0.625 -1.46875q-0.40625 -0.640625 -1.046875 -1.015625q-0.640625 -0.375 -1.53125 -0.375q-0.828125 0 -1.4375 0.28125q-0.59375 0.28125 -1.015625 0.765625q-0.421875 0.46875 -0.6875 1.078125q-0.265625 0.59375 -0.390625 1.25l0 3.03125q0.234375 0.8125 0.65625 1.546875q0.421875 0.71875 1.125 1.15625q0.703125 0.4375 1.765625 0.4375q0.875 0 1.515625 -0.359375q0.640625 -0.375 1.046875 -1.015625q0.421875 -0.65625 0.625 -1.484375q0.203125 -0.84375 0.203125 -1.796875zm7.3046875 -11.796875l0 18.0l-2.1875 0l0 -18.0l2.1875 0zm8.7421875 18.234375q-1.328125 0 -2.40625 -0.453125q-1.0625 -0.453125 -1.84375 -1.265625q-0.765625 -0.828125 -1.171875 -1.953125q-0.40625 -1.125 -0.40625 -2.453125l0 -0.5q0 -1.546875 0.453125 -2.75q0.453125 -1.21875 1.234375 -2.0625q0.796875 -0.84375 1.78125 -1.28125q1.0 -0.4375 2.078125 -0.4375q1.359375 0 2.34375 0.46875q0.984375 0.46875 1.609375 1.3125q0.640625 0.84375 0.9375 1.96875q0.3125 1.125 0.3125 2.46875l0 0.96875l-9.46875 0l0 -1.765625l7.3125 0l0 -0.171875q-0.046875 -0.84375 -0.359375 -1.640625q-0.296875 -0.796875 -0.9375 -1.3125q-0.640625 -0.515625 -1.75 -0.515625q-0.75 0 -1.375 0.3125q-0.609375 0.3125 -1.0625 0.921875q-0.4375 0.609375 -0.6875 1.5q-0.25 0.875 -0.25 2.015625l0 0.5q0 0.890625 0.25 1.6875q0.265625 0.796875 0.75 1.390625q0.484375 0.59375 1.171875 0.9375q0.703125 0.34375 1.59375 0.34375q1.15625 0 1.953125 -0.46875q0.796875 -0.46875 1.390625 -1.265625l1.3125 1.046875q-0.40625 0.625 -1.046875 1.1875q-0.625 0.5625 -1.546875 0.921875q-0.921875 0.34375 -2.171875 0.34375z" fill-rule="nonzero"/><path fill="#ff9900" d="m177.70473 357.30972l0 0c0 -46.496307 84.50185 -84.188995 188.74016 -84.188995l0 0c104.23831 0 188.74017 37.692688 188.74017 84.188995l0 0c0 46.496277 -84.50186 84.188965 -188.74017 84.188965l0 0c-104.23831 0 -188.74016 -37.692688 -188.74016 -84.188965z" fill-rule="evenodd"/><path fill="#000000" d="m266.25076 369.02972l-5.46875 0l-9.15625 -13.859375l0 13.859375l-5.46875 0l0 -22.46875l5.46875 0l9.15625 13.921875l0 -13.921875l5.46875 0l0 22.46875zm20.798431 -9.21875q0 0.765625 -0.09375 1.609375l-12.375 0q0.125 1.65625 1.0625 2.546875q0.953125 0.875 2.328125 0.875q2.046875 0 2.84375 -1.734375l5.828125 0q-0.453125 1.765625 -1.625 3.171875q-1.171875 1.40625 -2.9375 2.203125q-1.75 0.796875 -3.921875 0.796875q-2.625 0 -4.671875 -1.109375q-2.046875 -1.125 -3.203125 -3.203125q-1.15625 -2.078125 -1.15625 -4.859375q0 -2.796875 1.140625 -4.875q1.140625 -2.078125 3.1875 -3.1875q2.046875 -1.125 4.703125 -1.125q2.59375 0 4.609375 1.09375q2.015625 1.078125 3.140625 3.09375q1.140625 2.015625 1.140625 4.703125zm-5.59375 -1.4375q0 -1.40625 -0.96875 -2.234375q-0.953125 -0.84375 -2.390625 -0.84375q-1.375 0 -2.328125 0.8125q-0.9375 0.796875 -1.15625 2.265625l6.84375 0zm26.102661 -7.203125l0 17.859375l-5.46875 0l0 -2.4375q-0.828125 1.1875 -2.25 1.90625q-1.421875 0.71875 -3.15625 0.71875q-2.046875 0 -3.625 -0.90625q-1.5625 -0.90625 -2.421875 -2.640625q-0.859375 -1.734375 -0.859375 -4.0625l0 -10.4375l5.4375 0l0 9.703125q0 1.78125 0.921875 2.78125q0.9375 0.984375 2.5 0.984375q1.59375 0 2.515625 -0.984375q0.9375 -1.0 0.9375 -2.78125l0 -9.703125l5.46875 0zm9.411774 2.984375q0.96875 -1.484375 2.40625 -2.328125q1.4375 -0.84375 3.203125 -0.84375l0 5.796875l-1.515625 0q-2.046875 0 -3.078125 0.875q-1.015625 0.875 -1.015625 3.09375l0 8.28125l-5.46875 0l0 -17.859375l5.46875 0l0 2.984375zm16.352295 15.125q-2.625 0 -4.71875 -1.109375q-2.09375 -1.125 -3.296875 -3.203125q-1.203125 -2.078125 -1.203125 -4.859375q0 -2.765625 1.21875 -4.859375q1.21875 -2.09375 3.328125 -3.203125q2.109375 -1.125 4.734375 -1.125q2.625 0 4.734375 1.125q2.125 1.109375 3.328125 3.203125q1.21875 2.09375 1.21875 4.859375q0 2.75 -1.234375 4.84375q-1.234375 2.09375 -3.359375 3.21875q-2.125 1.109375 -4.75 1.109375zm0 -4.734375q1.578125 0 2.671875 -1.140625q1.109375 -1.15625 1.109375 -3.296875q0 -2.15625 -1.078125 -3.296875q-1.0625 -1.15625 -2.640625 -1.15625q-1.59375 0 -2.65625 1.140625q-1.046875 1.125 -1.046875 3.3125q0 2.140625 1.03125 3.296875q1.046875 1.140625 2.609375 1.140625zm11.165283 -4.46875q0 -2.765625 1.03125 -4.84375q1.046875 -2.078125 2.84375 -3.1875q1.796875 -1.125 4.0 -1.125q1.765625 0 3.21875 0.734375q1.453125 0.734375 2.28125 1.984375l0 -8.296875l5.484375 0l0 23.6875l-5.484375 0l0 -2.5625q-0.765625 1.28125 -2.1875 2.046875q-1.421875 0.765625 -3.3125 0.765625q-2.203125 0 -4.0 -1.125q-1.796875 -1.140625 -2.84375 -3.234375q-1.03125 -2.09375 -1.03125 -4.84375zm13.375 0.03125q0 -2.046875 -1.140625 -3.234375q-1.125 -1.1875 -2.75 -1.1875q-1.640625 0 -2.78125 1.171875q-1.125 1.15625 -1.125 3.21875q0 2.046875 1.125 3.25q1.140625 1.1875 2.78125 1.1875q1.625 0 2.75 -1.171875q1.140625 -1.1875 1.140625 -3.234375zm12.196808 -10.796875q-1.4375 0 -2.359375 -0.84375q-0.90625 -0.84375 -0.90625 -2.09375q0 -1.28125 0.90625 -2.125q0.921875 -0.84375 2.359375 -0.84375q1.40625 0 2.3125 0.84375q0.921875 0.84375 0.921875 2.125q0 1.25 -0.921875 2.09375q-0.90625 0.84375 -2.3125 0.84375zm2.71875 1.859375l0 17.859375l-5.46875 0l0 -17.859375l5.46875 0zm12.002502 12.734375l3.875 -12.734375l5.828125 0l-6.34375 17.859375l-6.75 0l-6.34375 -17.859375l5.859375 0l3.875 12.734375zm28.828918 -4.09375q0 0.765625 -0.09375 1.609375l-12.375 0q0.125 1.65625 1.0625 2.546875q0.953125 0.875 2.328125 0.875q2.046875 0 2.84375 -1.734375l5.828125 0q-0.453125 1.765625 -1.625 3.171875q-1.171875 1.40625 -2.9375 2.203125q-1.75 0.796875 -3.921875 0.796875q-2.625 0 -4.671875 -1.109375q-2.046875 -1.125 -3.203125 -3.203125q-1.15625 -2.078125 -1.15625 -4.859375q0 -2.796875 1.140625 -4.875q1.140625 -2.078125 3.1875 -3.1875q2.046875 -1.125 4.703125 -1.125q2.59375 0 4.609375 1.09375q2.015625 1.078125 3.140625 3.09375q1.140625 2.015625 1.140625 4.703125zm-5.59375 -1.4375q0 -1.40625 -0.96875 -2.234375q-0.953125 -0.84375 -2.390625 -0.84375q-1.375 0 -2.328125 0.8125q-0.9375 0.796875 -1.15625 2.265625l6.84375 0zm13.946411 -4.21875q0.96875 -1.484375 2.40625 -2.328125q1.4375 -0.84375 3.203125 -0.84375l0 5.796875l-1.515625 0q-2.046875 0 -3.078125 0.875q-1.015625 0.875 -1.015625 3.09375l0 8.28125l-5.46875 0l0 -17.859375l5.46875 0l0 2.984375zm15.49292 15.125q-2.34375 0 -4.171875 -0.796875q-1.8125 -0.796875 -2.875 -2.1875q-1.046875 -1.390625 -1.171875 -3.125l5.40625 0q0.09375 0.9375 0.859375 1.515625q0.765625 0.5625 1.890625 0.5625q1.015625 0 1.578125 -0.390625q0.5625 -0.40625 0.5625 -1.046875q0 -0.765625 -0.796875 -1.125q-0.796875 -0.375 -2.59375 -0.828125q-1.921875 -0.4375 -3.203125 -0.9375q-1.28125 -0.5 -2.21875 -1.5625q-0.921875 -1.078125 -0.921875 -2.90625q0 -1.53125 0.84375 -2.796875q0.859375 -1.265625 2.5 -2.0q1.65625 -0.734375 3.921875 -0.734375q3.359375 0 5.296875 1.671875q1.9375 1.65625 2.234375 4.40625l-5.0625 0q-0.125 -0.921875 -0.8125 -1.46875q-0.6875 -0.546875 -1.8125 -0.546875q-0.953125 0 -1.46875 0.375q-0.515625 0.359375 -0.515625 1.0q0 0.765625 0.8125 1.15625q0.828125 0.375 2.546875 0.765625q1.984375 0.515625 3.234375 1.015625q1.25 0.484375 2.1875 1.59375q0.953125 1.09375 0.984375 2.953125q0 1.578125 -0.890625 2.8125q-0.875 1.21875 -2.53125 1.921875q-1.640625 0.703125 -3.8125 0.703125zm13.340393 -19.96875q-1.4375 0 -2.359375 -0.84375q-0.90625 -0.84375 -0.90625 -2.09375q0 -1.28125 0.90625 -2.125q0.921875 -0.84375 2.359375 -0.84375q1.40625 0 2.3125 0.84375q0.921875 0.84375 0.921875 2.125q0 1.25 -0.921875 2.09375q-0.90625 0.84375 -2.3125 0.84375zm2.71875 1.859375l0 17.859375l-5.46875 0l0 -17.859375l5.46875 0zm13.924408 13.21875l0 4.640625l-2.78125 0q-2.984375 0 -4.65625 -1.453125q-1.65625 -1.453125 -1.65625 -4.75l0 -7.109375l-2.171875 0l0 -4.546875l2.171875 0l0 -4.34375l5.46875 0l0 4.34375l3.59375 0l0 4.546875l-3.59375 0l0 7.171875q0 0.796875 0.390625 1.15625q0.390625 0.34375 1.28125 0.34375l1.953125 0zm21.273254 -13.21875l-11.1875 26.34375l-5.890625 0l4.09375 -9.09375l-7.265625 -17.25l6.109375 0l4.125 11.171875l4.09375 -11.171875l5.921875 0z" fill-rule="nonzero"/><path fill="#073763" d="m422.0013 224.77428l0 0c0 -64.99565 111.52695 -117.685036 249.10239 -117.685036l0 0c137.57544 0 249.10236 52.689384 249.10236 117.685036l0 0c0 64.99565 -111.52692 117.68504 -249.10236 117.68504l0 0c-137.57544 0 -249.10239 -52.689392 -249.10239 -117.68504z" fill-rule="evenodd"/><path fill="#ffffff" d="m540.19763 185.02553q3.546875 0 6.203125 1.421875q2.65625 1.40625 4.109375 3.953125q1.453125 2.53125 1.453125 5.859375q0 3.296875 -1.453125 5.859375q-1.453125 2.5625 -4.125 3.96875q-2.671875 1.40625 -6.1875 1.40625l-8.421875 0l0 -22.46875l8.421875 0zm-0.359375 17.734375q3.109375 0 4.828125 -1.6875q1.734375 -1.703125 1.734375 -4.8125q0 -3.109375 -1.734375 -4.828125q-1.71875 -1.734375 -4.828125 -1.734375l-2.59375 0l0 13.0625l2.59375 0zm17.951538 -14.984375q-1.4375 0 -2.359375 -0.84375q-0.90625 -0.84375 -0.90625 -2.09375q0 -1.28125 0.90625 -2.125q0.921875 -0.84375 2.359375 -0.84375q1.40625 0 2.3125 0.84375q0.921875 0.84375 0.921875 2.125q0 1.25 -0.921875 2.09375q-0.90625 0.84375 -2.3125 0.84375zm2.71875 1.859375l0 17.859375l-5.46875 0l0 -17.859375l5.46875 0zm10.752563 -0.25q1.890625 0 3.3125 0.765625q1.421875 0.765625 2.1875 2.015625l0 -2.53125l5.484375 0l0 17.828125q0 2.46875 -0.984375 4.46875q-0.96875 2.0 -2.96875 3.171875q-2.0 1.1875 -4.984375 1.1875q-3.96875 0 -6.4375 -1.875q-2.453125 -1.859375 -2.8125 -5.0625l5.40625 0q0.265625 1.015625 1.21875 1.609375q0.96875 0.59375 2.375 0.59375q1.6875 0 2.6875 -0.984375q1.015625 -0.96875 1.015625 -3.109375l0 -2.53125q-0.796875 1.25 -2.203125 2.03125q-1.40625 0.78125 -3.296875 0.78125q-2.203125 0 -4.0 -1.125q-1.796875 -1.140625 -2.84375 -3.234375q-1.03125 -2.09375 -1.03125 -4.84375q0 -2.765625 1.03125 -4.84375q1.046875 -2.078125 2.84375 -3.1875q1.796875 -1.125 4.0 -1.125zm5.5 9.1875q0 -2.046875 -1.140625 -3.234375q-1.125 -1.1875 -2.75 -1.1875q-1.640625 0 -2.78125 1.171875q-1.125 1.15625 -1.125 3.21875q0 2.046875 1.125 3.25q1.140625 1.1875 2.78125 1.1875q1.625 0 2.75 -1.171875q1.140625 -1.1875 1.140625 -3.234375zm12.196777 -10.796875q-1.4375 0 -2.359375 -0.84375q-0.90625 -0.84375 -0.90625 -2.09375q0 -1.28125 0.90625 -2.125q0.921875 -0.84375 2.359375 -0.84375q1.40625 0 2.3125 0.84375q0.921875 0.84375 0.921875 2.125q0 1.25 -0.921875 2.09375q-0.90625 0.84375 -2.3125 0.84375zm2.71875 1.859375l0 17.859375l-5.46875 0l0 -17.859375l5.46875 0zm13.924377 13.21875l0 4.640625l-2.78125 0q-2.984375 0 -4.65625 -1.453125q-1.65625 -1.453125 -1.65625 -4.75l0 -7.109375l-2.171875 0l0 -4.546875l2.171875 0l0 -4.34375l5.46875 0l0 4.34375l3.59375 0l0 4.546875l-3.59375 0l0 7.171875q0 0.796875 0.390625 1.15625q0.390625 0.34375 1.28125 0.34375l1.953125 0zm1.9451294 -4.3125q0 -2.765625 1.03125 -4.84375q1.046875 -2.078125 2.84375 -3.1875q1.796875 -1.125 4.0 -1.125q1.890625 0 3.3125 0.765625q1.421875 0.765625 2.1875 2.015625l0 -2.53125l5.484375 0l0 17.859375l-5.484375 0l0 -2.53125q-0.796875 1.25 -2.21875 2.015625q-1.421875 0.765625 -3.3125 0.765625q-2.171875 0 -3.96875 -1.125q-1.796875 -1.140625 -2.84375 -3.234375q-1.03125 -2.09375 -1.03125 -4.84375zm13.375 0.03125q0 -2.046875 -1.140625 -3.234375q-1.125 -1.1875 -2.75 -1.1875q-1.640625 0 -2.78125 1.171875q-1.125 1.15625 -1.125 3.21875q0 2.046875 1.125 3.25q1.140625 1.1875 2.78125 1.1875q1.625 0 2.75 -1.171875q1.140625 -1.1875 1.140625 -3.234375zm14.915588 -14.765625l0 23.6875l-5.46875 0l0 -23.6875l5.46875 0zm9.661499 14.765625q0 -2.796875 1.140625 -4.875q1.140625 -2.078125 3.171875 -3.1875q2.03125 -1.125 4.65625 -1.125q3.359375 0 5.609375 1.765625q2.265625 1.75 2.96875 4.953125l-5.828125 0q-0.734375 -2.046875 -2.84375 -2.046875q-1.515625 0 -2.40625 1.171875q-0.890625 1.15625 -0.890625 3.34375q0 2.171875 0.890625 3.34375q0.890625 1.15625 2.40625 1.15625q2.109375 0 2.84375 -2.046875l5.828125 0q-0.703125 3.140625 -2.984375 4.9375q-2.265625 1.78125 -5.59375 1.78125q-2.625 0 -4.65625 -1.109375q-2.03125 -1.125 -3.171875 -3.203125q-1.140625 -2.078125 -1.140625 -4.859375zm19.360046 -0.03125q0 -2.765625 1.03125 -4.84375q1.046875 -2.078125 2.84375 -3.1875q1.796875 -1.125 4.0 -1.125q1.890625 0 3.3125 0.765625q1.421875 0.765625 2.1875 2.015625l0 -2.53125l5.484375 0l0 17.859375l-5.484375 0l0 -2.53125q-0.796875 1.25 -2.21875 2.015625q-1.421875 0.765625 -3.3125 0.765625q-2.171875 0 -3.96875 -1.125q-1.796875 -1.140625 -2.84375 -3.234375q-1.03125 -2.09375 -1.03125 -4.84375zm13.375 0.03125q0 -2.046875 -1.140625 -3.234375q-1.125 -1.1875 -2.75 -1.1875q-1.640625 0 -2.78125 1.171875q-1.125 1.15625 -1.125 3.21875q0 2.046875 1.125 3.25q1.140625 1.1875 2.78125 1.1875q1.625 0 2.75 -1.171875q1.140625 -1.1875 1.140625 -3.234375zm14.915527 -6.40625q0.796875 -1.25 2.203125 -2.015625q1.421875 -0.765625 3.296875 -0.765625q2.21875 0 4.0 1.125q1.796875 1.109375 2.828125 3.1875q1.046875 2.078125 1.046875 4.84375q0 2.75 -1.046875 4.84375q-1.03125 2.09375 -2.828125 3.234375q-1.78125 1.125 -4.0 1.125q-1.84375 0 -3.28125 -0.765625q-1.421875 -0.765625 -2.21875 -1.984375l0 11.015625l-5.46875 0l0 -26.375l5.46875 0l0 2.53125zm7.8125 6.375q0 -2.0625 -1.140625 -3.21875q-1.140625 -1.171875 -2.796875 -1.171875q-1.625 0 -2.765625 1.1875q-1.140625 1.1875 -1.140625 3.234375q0 2.046875 1.140625 3.234375q1.140625 1.171875 2.765625 1.171875q1.625 0 2.78125 -1.1875q1.15625 -1.203125 1.15625 -3.25zm7.3530884 0q0 -2.765625 1.03125 -4.84375q1.046875 -2.078125 2.84375 -3.1875q1.796875 -1.125 4.0 -1.125q1.890625 0 3.3125 0.765625q1.421875 0.765625 2.1875 2.015625l0 -2.53125l5.484375 0l0 17.859375l-5.484375 0l0 -2.53125q-0.796875 1.25 -2.21875 2.015625q-1.421875 0.765625 -3.3125 0.765625q-2.171875 0 -3.96875 -1.125q-1.796875 -1.140625 -2.84375 -3.234375q-1.03125 -2.09375 -1.03125 -4.84375zm13.375 0.03125q0 -2.046875 -1.140625 -3.234375q-1.125 -1.1875 -2.75 -1.1875q-1.640625 0 -2.78125 1.171875q-1.125 1.15625 -1.125 3.21875q0 2.046875 1.125 3.25q1.140625 1.1875 2.78125 1.1875q1.625 0 2.75 -1.171875q1.140625 -1.1875 1.140625 -3.234375zm14.915527 -6.40625q0.765625 -1.25 2.203125 -2.015625q1.453125 -0.765625 3.296875 -0.765625q2.21875 0 4.0 1.125q1.796875 1.109375 2.828125 3.1875q1.046875 2.078125 1.046875 4.84375q0 2.75 -1.046875 4.84375q-1.03125 2.09375 -2.828125 3.234375q-1.78125 1.125 -4.0 1.125q-1.875 0 -3.296875 -0.75q-1.40625 -0.75 -2.203125 -2.0l0 2.5l-5.46875 0l0 -23.6875l5.46875 0l0 8.359375zm7.8125 6.375q0 -2.0625 -1.140625 -3.21875q-1.140625 -1.171875 -2.796875 -1.171875q-1.625 0 -2.765625 1.1875q-1.140625 1.1875 -1.140625 3.234375q0 2.046875 1.140625 3.234375q1.140625 1.171875 2.765625 1.171875q1.625 0 2.78125 -1.1875q1.15625 -1.203125 1.15625 -3.25zm11.196777 -10.765625q-1.4375 0 -2.359375 -0.84375q-0.90625 -0.84375 -0.90625 -2.09375q0 -1.28125 0.90625 -2.125q0.921875 -0.84375 2.359375 -0.84375q1.40625 0 2.3125 0.84375q0.921875 0.84375 0.921875 2.125q0 1.25 -0.921875 2.09375q-0.90625 0.84375 -2.3125 0.84375zm2.71875 1.859375l0 17.859375l-5.46875 0l0 -17.859375l5.46875 0zm9.440063 -5.828125l0 23.6875l-5.46875 0l0 -23.6875l5.46875 0zm6.7212524 3.96875q-1.4375 0 -2.359375 -0.84375q-0.90625 -0.84375 -0.90625 -2.09375q0 -1.28125 0.90625 -2.125q0.921875 -0.84375 2.359375 -0.84375q1.40625 0 2.3125 0.84375q0.921875 0.84375 0.921875 2.125q0 1.25 -0.921875 2.09375q-0.90625 0.84375 -2.3125 0.84375zm2.71875 1.859375l0 17.859375l-5.46875 0l0 -17.859375l5.46875 0zm13.924377 13.21875l0 4.640625l-2.78125 0q-2.984375 0 -4.65625 -1.453125q-1.65625 -1.453125 -1.65625 -4.75l0 -7.109375l-2.171875 0l0 -4.546875l2.171875 0l0 -4.34375l5.46875 0l0 4.34375l3.59375 0l0 4.546875l-3.59375 0l0 7.171875q0 0.796875 0.390625 1.15625q0.390625 0.34375 1.28125 0.34375l1.953125 0zm21.273254 -13.21875l-11.1875 26.34375l-5.890625 0l4.09375 -9.09375l-7.265625 -17.25l6.109375 0l4.125 11.171875l4.09375 -11.171875l5.921875 0z" fill-rule="nonzero"/><path fill="#ffffff" d="m538.61346 227.54866q1.5625 1.703125 2.703125 2.59375q1.140625 0.875 2.140625 1.3125l0 0.515625q-1.15625 0.5625 -2.25 1.4375q-1.09375 0.875 -2.59375 2.5625l-0.90625 0q1.09375 -2.359375 2.3125 -3.625l-18.703125 0l0 -1.171875l18.703125 0q-0.890625 -1.140625 -1.25 -1.6875q-0.34375 -0.5625 -1.046875 -1.9375l0.890625 0z" fill-rule="nonzero"/><path fill="#ffffff" d="m554.17596 227.84554l0 9.96875l-2.171875 0l0 -12.6875l2.046875 0l0.125 2.71875zm-0.515625 3.140625l-0.90625 -0.03125q0.015625 -1.296875 0.390625 -2.40625q0.375 -1.109375 1.046875 -1.921875q0.6875 -0.828125 1.625 -1.28125q0.9375 -0.453125 2.09375 -0.453125q0.9375 0 1.6875 0.265625q0.75 0.25 1.28125 0.796875q0.53125 0.546875 0.8125 1.421875q0.28125 0.875 0.28125 2.125l0 8.3125l-2.171875 0l0 -8.328125q0 -1.0 -0.296875 -1.59375q-0.296875 -0.609375 -0.859375 -0.890625q-0.5625 -0.28125 -1.375 -0.28125q-0.8125 0 -1.484375 0.34375q-0.65625 0.34375 -1.140625 0.9375q-0.46875 0.59375 -0.734375 1.375q-0.25 0.765625 -0.25 1.609375zm11.019531 0.625l0 -0.265625q0 -1.375 0.390625 -2.546875q0.40625 -1.1875 1.15625 -2.046875q0.75 -0.875 1.8125 -1.359375q1.078125 -0.5 2.390625 -0.5q1.34375 0 2.40625 0.5q1.078125 0.484375 1.828125 1.359375q0.765625 0.859375 1.15625 2.046875q0.40625 1.171875 0.40625 2.546875l0 0.265625q0 1.375 -0.40625 2.546875q-0.390625 1.171875 -1.15625 2.046875q-0.75 0.875 -1.8125 1.359375q-1.0625 0.484375 -2.390625 0.484375q-1.34375 0 -2.40625 -0.484375q-1.0625 -0.484375 -1.828125 -1.359375q-0.75 -0.875 -1.15625 -2.046875q-0.390625 -1.171875 -0.390625 -2.546875zm2.171875 -0.265625l0 0.265625q0 0.953125 0.21875 1.796875q0.21875 0.828125 0.671875 1.484375q0.453125 0.640625 1.125 1.015625q0.6875 0.359375 1.59375 0.359375q0.890625 0 1.5625 -0.359375q0.671875 -0.375 1.109375 -1.015625q0.453125 -0.65625 0.671875 -1.484375q0.234375 -0.84375 0.234375 -1.796875l0 -0.265625q0 -0.9375 -0.234375 -1.765625q-0.21875 -0.84375 -0.671875 -1.5q-0.453125 -0.65625 -1.125 -1.03125q-0.671875 -0.375 -1.578125 -0.375q-0.890625 0 -1.5625 0.375q-0.671875 0.375 -1.125 1.03125q-0.453125 0.65625 -0.671875 1.5q-0.21875 0.828125 -0.21875 1.765625zm19.640625 -10.59375l-7.109375 18.53125l-1.875 0l7.125 -18.53125l1.859375 0zm4.7148438 -0.9375l0 18.0l-2.1875 0l0 -18.0l2.1875 0zm2.8984375 11.796875l0 -0.265625q0 -1.375 0.390625 -2.546875q0.40625 -1.1875 1.15625 -2.046875q0.75 -0.875 1.8125 -1.359375q1.078125 -0.5 2.390625 -0.5q1.34375 0 2.40625 0.5q1.078125 0.484375 1.828125 1.359375q0.765625 0.859375 1.15625 2.046875q0.40625 1.171875 0.40625 2.546875l0 0.265625q0 1.375 -0.40625 2.546875q-0.390625 1.171875 -1.15625 2.046875q-0.75 0.875 -1.8125 1.359375q-1.0625 0.484375 -2.390625 0.484375q-1.34375 0 -2.40625 -0.484375q-1.0625 -0.484375 -1.828125 -1.359375q-0.75 -0.875 -1.15625 -2.046875q-0.390625 -1.171875 -0.390625 -2.546875zm2.171875 -0.265625l0 0.265625q0 0.953125 0.21875 1.796875q0.21875 0.828125 0.671875 1.484375q0.453125 0.640625 1.125 1.015625q0.6875 0.359375 1.59375 0.359375q0.890625 0 1.5625 -0.359375q0.671875 -0.375 1.109375 -1.015625q0.453125 -0.65625 0.671875 -1.484375q0.234375 -0.84375 0.234375 -1.796875l0 -0.265625q0 -0.9375 -0.234375 -1.765625q-0.21875 -0.84375 -0.671875 -1.5q-0.453125 -0.65625 -1.125 -1.03125q-0.671875 -0.375 -1.578125 -0.375q-0.890625 0 -1.5625 0.375q-0.671875 0.375 -1.125 1.03125q-0.453125 0.65625 -0.671875 1.5q-0.21875 0.828125 -0.21875 1.765625zm15.296875 4.21875l3.265625 -10.4375l1.421875 0l-0.28125 2.078125l-3.3125 10.609375l-1.390625 0l0.296875 -2.25zm-2.1875 -10.4375l2.78125 10.546875l0.203125 2.140625l-1.46875 0l-3.6875 -12.6875l2.171875 0zm10.0 10.46875l2.640625 -10.46875l2.15625 0l-3.671875 12.6875l-1.453125 0l0.328125 -2.21875zm-2.796875 -10.46875l3.1875 10.265625l0.359375 2.421875l-1.390625 0l-3.40625 -10.625l-0.28125 -2.0625l1.53125 0zm23.238281 10.515625l0 -6.53125q0 -0.75 -0.296875 -1.296875q-0.296875 -0.5625 -0.890625 -0.859375q-0.59375 -0.3125 -1.484375 -0.3125q-0.8125 0 -1.4375 0.28125q-0.609375 0.28125 -0.953125 0.75q-0.34375 0.453125 -0.34375 0.96875l-2.171875 0q0 -0.671875 0.34375 -1.34375q0.359375 -0.671875 1.015625 -1.203125q0.671875 -0.546875 1.59375 -0.875q0.9375 -0.328125 2.09375 -0.328125q1.375 0 2.4375 0.46875q1.0625 0.46875 1.65625 1.421875q0.609375 0.9375 0.609375 2.359375l0 5.90625q0 0.625 0.109375 1.34375q0.109375 0.71875 0.34375 1.234375l0 0.1875l-2.265625 0q-0.171875 -0.375 -0.265625 -1.0q-0.09375 -0.625 -0.09375 -1.171875zm0.375 -5.515625l0.03125 1.515625l-2.1875 0q-0.9375 0 -1.671875 0.15625q-0.71875 0.140625 -1.21875 0.4375q-0.484375 0.296875 -0.75 0.734375q-0.25 0.4375 -0.25 1.015625q0 0.609375 0.265625 1.109375q0.28125 0.484375 0.828125 0.765625q0.546875 0.28125 1.34375 0.28125q0.984375 0 1.75 -0.421875q0.765625 -0.421875 1.21875 -1.03125q0.453125 -0.609375 0.484375 -1.171875l0.921875 1.03125q-0.078125 0.5 -0.453125 1.09375q-0.359375 0.59375 -0.96875 1.140625q-0.59375 0.546875 -1.421875 0.90625q-0.828125 0.359375 -1.859375 0.359375q-1.28125 0 -2.25 -0.5q-0.96875 -0.515625 -1.5 -1.359375q-0.53125 -0.84375 -0.53125 -1.90625q0 -1.015625 0.390625 -1.796875q0.40625 -0.78125 1.15625 -1.296875q0.75 -0.53125 1.796875 -0.796875q1.0625 -0.265625 2.359375 -0.265625l2.515625 0zm10.2890625 6.140625q0.765625 0 1.421875 -0.3125q0.65625 -0.328125 1.078125 -0.875q0.421875 -0.5625 0.484375 -1.28125l2.0625 0q-0.0625 1.125 -0.765625 2.09375q-0.6875 0.96875 -1.8125 1.5625q-1.125 0.59375 -2.46875 0.59375q-1.4375 0 -2.5 -0.5q-1.0625 -0.515625 -1.765625 -1.390625q-0.6875 -0.875 -1.03125 -2.015625q-0.34375 -1.140625 -0.34375 -2.421875l0 -0.5q0 -1.265625 0.34375 -2.40625q0.34375 -1.15625 1.03125 -2.03125q0.703125 -0.875 1.765625 -1.375q1.0625 -0.515625 2.5 -0.515625q1.484375 0 2.59375 0.609375q1.109375 0.609375 1.75 1.640625q0.640625 1.03125 0.703125 2.34375l-2.0625 0q-0.0625 -0.78125 -0.453125 -1.40625q-0.375 -0.640625 -1.03125 -1.015625q-0.640625 -0.390625 -1.5 -0.390625q-1.0 0 -1.671875 0.40625q-0.671875 0.390625 -1.078125 1.046875q-0.390625 0.65625 -0.5625 1.46875q-0.15625 0.796875 -0.15625 1.625l0 0.5q0 0.828125 0.15625 1.640625q0.171875 0.8125 0.5625 1.46875q0.390625 0.65625 1.0625 1.046875q0.671875 0.390625 1.6875 0.390625zm12.5625 0q0.765625 0 1.421875 -0.3125q0.65625 -0.328125 1.078125 -0.875q0.421875 -0.5625 0.484375 -1.28125l2.0625 0q-0.0625 1.125 -0.765625 2.09375q-0.6875 0.96875 -1.8125 1.5625q-1.125 0.59375 -2.46875 0.59375q-1.4375 0 -2.5 -0.5q-1.0625 -0.515625 -1.765625 -1.390625q-0.6875 -0.875 -1.03125 -2.015625q-0.34375 -1.140625 -0.34375 -2.421875l0 -0.5q0 -1.265625 0.34375 -2.40625q0.34375 -1.15625 1.03125 -2.03125q0.703125 -0.875 1.765625 -1.375q1.0625 -0.515625 2.5 -0.515625q1.484375 0 2.59375 0.609375q1.109375 0.609375 1.75 1.640625q0.640625 1.03125 0.703125 2.34375l-2.0625 0q-0.0625 -0.78125 -0.453125 -1.40625q-0.375 -0.640625 -1.03125 -1.015625q-0.640625 -0.390625 -1.5 -0.390625q-1.0 0 -1.671875 0.40625q-0.671875 0.390625 -1.078125 1.046875q-0.390625 0.65625 -0.5625 1.46875q-0.15625 0.796875 -0.15625 1.625l0 0.5q0 0.828125 0.15625 1.640625q0.171875 0.8125 0.5625 1.46875q0.390625 0.65625 1.0625 1.046875q0.671875 0.390625 1.6875 0.390625zm12.75 1.78125q-1.328125 0 -2.40625 -0.453125q-1.0625 -0.453125 -1.84375 -1.265625q-0.765625 -0.828125 -1.171875 -1.953125q-0.40625 -1.125 -0.40625 -2.453125l0 -0.5q0 -1.546875 0.453125 -2.75q0.453125 -1.21875 1.234375 -2.0625q0.796875 -0.84375 1.78125 -1.28125q1.0 -0.4375 2.078125 -0.4375q1.359375 0 2.34375 0.46875q0.984375 0.46875 1.609375 1.3125q0.640625 0.84375 0.9375 1.96875q0.3125 1.125 0.3125 2.46875l0 0.96875l-9.46875 0l0 -1.765625l7.3125 0l0 -0.171875q-0.046875 -0.84375 -0.359375 -1.640625q-0.296875 -0.796875 -0.9375 -1.3125q-0.640625 -0.515625 -1.75 -0.515625q-0.75 0 -1.375 0.3125q-0.609375 0.3125 -1.0625 0.921875q-0.4375 0.609375 -0.6875 1.5q-0.25 0.875 -0.25 2.015625l0 0.5q0 0.890625 0.25 1.6875q0.265625 0.796875 0.75 1.390625q0.484375 0.59375 1.171875 0.9375q0.703125 0.34375 1.59375 0.34375q1.15625 0 1.953125 -0.46875q0.796875 -0.46875 1.390625 -1.265625l1.3125 1.046875q-0.40625 0.625 -1.046875 1.1875q-0.625 0.5625 -1.546875 0.921875q-0.921875 0.34375 -2.171875 0.34375zm14.8359375 -3.59375q0 -0.46875 -0.203125 -0.875q-0.203125 -0.40625 -0.828125 -0.734375q-0.625 -0.34375 -1.875 -0.59375q-1.0625 -0.21875 -1.921875 -0.515625q-0.84375 -0.3125 -1.4375 -0.734375q-0.578125 -0.4375 -0.90625 -1.015625q-0.3125 -0.59375 -0.3125 -1.390625q0 -0.75 0.328125 -1.40625q0.34375 -0.671875 0.953125 -1.1875q0.625 -0.515625 1.484375 -0.8125q0.875 -0.296875 1.9375 -0.296875q1.515625 0 2.59375 0.546875q1.078125 0.53125 1.65625 1.4375q0.578125 0.890625 0.578125 1.984375l-2.171875 0q0 -0.53125 -0.3125 -1.03125q-0.3125 -0.5 -0.90625 -0.828125q-0.578125 -0.328125 -1.4375 -0.328125q-0.90625 0 -1.46875 0.28125q-0.546875 0.28125 -0.796875 0.703125q-0.25 0.421875 -0.25 0.890625q0 0.34375 0.109375 0.625q0.125 0.265625 0.4375 0.5q0.328125 0.234375 0.890625 0.4375q0.578125 0.1875 1.46875 0.390625q1.5625 0.34375 2.5625 0.84375q1.015625 0.484375 1.5 1.203125q0.5 0.71875 0.5 1.734375q0 0.828125 -0.34375 1.53125q-0.34375 0.6875 -1.0 1.1875q-0.640625 0.5 -1.546875 0.78125q-0.890625 0.265625 -2.0 0.265625q-1.6875 0 -2.84375 -0.59375q-1.15625 -0.609375 -1.765625 -1.546875q-0.59375 -0.953125 -0.59375 -2.015625l2.1875 0q0.046875 0.890625 0.515625 1.421875q0.46875 0.515625 1.140625 0.734375q0.6875 0.21875 1.359375 0.21875q0.890625 0 1.484375 -0.234375q0.609375 -0.234375 0.921875 -0.640625q0.3125 -0.421875 0.3125 -0.9375zm12.386719 0q0 -0.46875 -0.203125 -0.875q-0.203125 -0.40625 -0.828125 -0.734375q-0.625 -0.34375 -1.875 -0.59375q-1.0625 -0.21875 -1.921875 -0.515625q-0.84375 -0.3125 -1.4375 -0.734375q-0.578125 -0.4375 -0.90625 -1.015625q-0.3125 -0.59375 -0.3125 -1.390625q0 -0.75 0.328125 -1.40625q0.34375 -0.671875 0.953125 -1.1875q0.625 -0.515625 1.484375 -0.8125q0.875 -0.296875 1.9375 -0.296875q1.515625 0 2.59375 0.546875q1.078125 0.53125 1.65625 1.4375q0.578125 0.890625 0.578125 1.984375l-2.171875 0q0 -0.53125 -0.3125 -1.03125q-0.3125 -0.5 -0.90625 -0.828125q-0.578125 -0.328125 -1.4375 -0.328125q-0.90625 0 -1.46875 0.28125q-0.546875 0.28125 -0.796875 0.703125q-0.25 0.421875 -0.25 0.890625q0 0.34375 0.109375 0.625q0.125 0.265625 0.4375 0.5q0.328125 0.234375 0.890625 0.4375q0.578125 0.1875 1.46875 0.390625q1.5625 0.34375 2.5625 0.84375q1.015625 0.484375 1.5 1.203125q0.5 0.71875 0.5 1.734375q0 0.828125 -0.34375 1.53125q-0.34375 0.6875 -1.0 1.1875q-0.640625 0.5 -1.546875 0.78125q-0.890625 0.265625 -2.0 0.265625q-1.6875 0 -2.84375 -0.59375q-1.15625 -0.609375 -1.765625 -1.546875q-0.59375 -0.953125 -0.59375 -2.015625l2.1875 0q0.046875 0.890625 0.515625 1.421875q0.46875 0.515625 1.140625 0.734375q0.6875 0.21875 1.359375 0.21875q0.890625 0 1.484375 -0.234375q0.609375 -0.234375 0.921875 -0.640625q0.3125 -0.421875 0.3125 -0.9375zm10.386719 -2.84375l0 -0.265625q0 -1.375 0.390625 -2.546875q0.40625 -1.1875 1.15625 -2.046875q0.75 -0.875 1.8125 -1.359375q1.078125 -0.5 2.390625 -0.5q1.34375 0 2.40625 0.5q1.078125 0.484375 1.828125 1.359375q0.765625 0.859375 1.15625 2.046875q0.40625 1.171875 0.40625 2.546875l0 0.265625q0 1.375 -0.40625 2.546875q-0.390625 1.171875 -1.15625 2.046875q-0.75 0.875 -1.8125 1.359375q-1.0625 0.484375 -2.390625 0.484375q-1.34375 0 -2.40625 -0.484375q-1.0625 -0.484375 -1.828125 -1.359375q-0.75 -0.875 -1.15625 -2.046875q-0.390625 -1.171875 -0.390625 -2.546875zm2.171875 -0.265625l0 0.265625q0 0.953125 0.21875 1.796875q0.21875 0.828125 0.671875 1.484375q0.453125 0.640625 1.125 1.015625q0.6875 0.359375 1.59375 0.359375q0.890625 0 1.5625 -0.359375q0.671875 -0.375 1.109375 -1.015625q0.453125 -0.65625 0.671875 -1.484375q0.234375 -0.84375 0.234375 -1.796875l0 -0.265625q0 -0.9375 -0.234375 -1.765625q-0.21875 -0.84375 -0.671875 -1.5q-0.453125 -0.65625 -1.125 -1.03125q-0.671875 -0.375 -1.578125 -0.375q-0.890625 0 -1.5625 0.375q-0.671875 0.375 -1.125 1.03125q-0.453125 0.65625 -0.671875 1.5q-0.21875 0.828125 -0.21875 1.765625zm14.265625 -4.21875l0 10.6875l-2.171875 0l0 -12.6875l2.109375 0l0.0625 2.0zm3.953125 -2.0625l-0.015625 2.015625q-0.265625 -0.0625 -0.515625 -0.078125q-0.234375 -0.015625 -0.53125 -0.015625q-0.75 0 -1.328125 0.234375q-0.578125 0.234375 -0.984375 0.65625q-0.390625 0.421875 -0.625 1.0q-0.21875 0.578125 -0.28125 1.265625l-0.609375 0.359375q0 -1.15625 0.21875 -2.15625q0.234375 -1.015625 0.703125 -1.78125q0.484375 -0.78125 1.234375 -1.21875q0.75 -0.453125 1.78125 -0.453125q0.234375 0 0.53125 0.0625q0.3125 0.046875 0.421875 0.109375zm15.3359375 9.390625q0 -0.46875 -0.203125 -0.875q-0.203125 -0.40625 -0.828125 -0.734375q-0.625 -0.34375 -1.875 -0.59375q-1.0625 -0.21875 -1.921875 -0.515625q-0.84375 -0.3125 -1.4375 -0.734375q-0.578125 -0.4375 -0.90625 -1.015625q-0.3125 -0.59375 -0.3125 -1.390625q0 -0.75 0.328125 -1.40625q0.34375 -0.671875 0.953125 -1.1875q0.625 -0.515625 1.484375 -0.8125q0.875 -0.296875 1.9375 -0.296875q1.515625 0 2.59375 0.546875q1.078125 0.53125 1.65625 1.4375q0.578125 0.890625 0.578125 1.984375l-2.171875 0q0 -0.53125 -0.3125 -1.03125q-0.3125 -0.5 -0.90625 -0.828125q-0.578125 -0.328125 -1.4375 -0.328125q-0.90625 0 -1.46875 0.28125q-0.546875 0.28125 -0.796875 0.703125q-0.25 0.421875 -0.25 0.890625q0 0.34375 0.109375 0.625q0.125 0.265625 0.4375 0.5q0.328125 0.234375 0.890625 0.4375q0.578125 0.1875 1.46875 0.390625q1.5625 0.34375 2.5625 0.84375q1.015625 0.484375 1.5 1.203125q0.5 0.71875 0.5 1.734375q0 0.828125 -0.34375 1.53125q-0.34375 0.6875 -1.0 1.1875q-0.640625 0.5 -1.546875 0.78125q-0.890625 0.265625 -2.0 0.265625q-1.6875 0 -2.84375 -0.59375q-1.15625 -0.609375 -1.765625 -1.546875q-0.59375 -0.953125 -0.59375 -2.015625l2.1875 0q0.046875 0.890625 0.515625 1.421875q0.46875 0.515625 1.140625 0.734375q0.6875 0.21875 1.359375 0.21875q0.890625 0 1.484375 -0.234375q0.609375 -0.234375 0.921875 -0.640625q0.3125 -0.421875 0.3125 -0.9375zm7.1835938 -14.640625l0 18.0l-2.171875 0l0 -18.0l2.171875 0zm7.75 5.3125l-5.53125 5.921875l-3.09375 3.21875l-0.171875 -2.3125l2.21875 -2.65625l3.9375 -4.171875l2.640625 0zm-1.984375 12.6875l-4.515625 -6.046875l1.125 -1.9375l5.953125 7.984375l-2.5625 0zm6.5859375 -12.6875l0 12.6875l-2.1875 0l0 -12.6875l2.1875 0zm-2.34375 -3.359375q0 -0.53125 0.3125 -0.890625q0.328125 -0.359375 0.953125 -0.359375q0.625 0 0.953125 0.359375q0.34375 0.359375 0.34375 0.890625q0 0.5 -0.34375 0.859375q-0.328125 0.359375 -0.953125 0.359375q-0.625 0 -0.953125 -0.359375q-0.3125 -0.359375 -0.3125 -0.859375zm8.1796875 -1.953125l0 18.0l-2.1875 0l0 -18.0l2.1875 0zm5.8359375 0l0 18.0l-2.1875 0l0 -18.0l2.1875 0zm10.8515625 14.640625q0 -0.46875 -0.203125 -0.875q-0.203125 -0.40625 -0.828125 -0.734375q-0.625 -0.34375 -1.875 -0.59375q-1.0625 -0.21875 -1.921875 -0.515625q-0.84375 -0.3125 -1.4375 -0.734375q-0.578125 -0.4375 -0.90625 -1.015625q-0.3125 -0.59375 -0.3125 -1.390625q0 -0.75 0.328125 -1.40625q0.34375 -0.671875 0.953125 -1.1875q0.625 -0.515625 1.484375 -0.8125q0.875 -0.296875 1.9375 -0.296875q1.515625 0 2.59375 0.546875q1.078125 0.53125 1.65625 1.4375q0.578125 0.890625 0.578125 1.984375l-2.171875 0q0 -0.53125 -0.3125 -1.03125q-0.3125 -0.5 -0.90625 -0.828125q-0.578125 -0.328125 -1.4375 -0.328125q-0.90625 0 -1.46875 0.28125q-0.546875 0.28125 -0.796875 0.703125q-0.25 0.421875 -0.25 0.890625q0 0.34375 0.109375 0.625q0.125 0.265625 0.4375 0.5q0.328125 0.234375 0.890625 0.4375q0.578125 0.1875 1.46875 0.390625q1.5625 0.34375 2.5625 0.84375q1.015625 0.484375 1.5 1.203125q0.5 0.71875 0.5 1.734375q0 0.828125 -0.34375 1.53125q-0.34375 0.6875 -1.0 1.1875q-0.640625 0.5 -1.546875 0.78125q-0.890625 0.265625 -2.0 0.265625q-1.6875 0 -2.84375 -0.59375q-1.15625 -0.609375 -1.765625 -1.546875q-0.59375 -0.953125 -0.59375 -2.015625l2.1875 0q0.046875 0.890625 0.515625 1.421875q0.46875 0.515625 1.140625 0.734375q0.6875 0.21875 1.359375 0.21875q0.890625 0 1.484375 -0.234375q0.609375 -0.234375 0.921875 -0.640625q0.3125 -0.421875 0.3125 -0.9375zm16.277344 -9.328125l0 1.671875l-6.859375 0l0 -1.671875l6.859375 0zm-4.546875 -3.078125l2.171875 0l0 12.625q0 0.640625 0.203125 0.96875q0.203125 0.328125 0.515625 0.4375q0.3125 0.109375 0.671875 0.109375q0.28125 0 0.578125 -0.046875q0.296875 -0.0625 0.453125 -0.09375l0 1.765625q-0.25 0.078125 -0.671875 0.15625q-0.40625 0.078125 -1.0 0.078125q-0.796875 0 -1.46875 -0.3125q-0.65625 -0.328125 -1.0625 -1.0625q-0.390625 -0.75 -0.390625 -2.015625l0 -12.609375zm6.2734375 9.5625l0 -0.265625q0 -1.375 0.390625 -2.546875q0.40625 -1.1875 1.15625 -2.046875q0.75 -0.875 1.8125 -1.359375q1.078125 -0.5 2.390625 -0.5q1.34375 0 2.40625 0.5q1.078125 0.484375 1.828125 1.359375q0.765625 0.859375 1.15625 2.046875q0.40625 1.171875 0.40625 2.546875l0 0.265625q0 1.375 -0.40625 2.546875q-0.390625 1.171875 -1.15625 2.046875q-0.75 0.875 -1.8125 1.359375q-1.0625 0.484375 -2.390625 0.484375q-1.34375 0 -2.40625 -0.484375q-1.0625 -0.484375 -1.828125 -1.359375q-0.75 -0.875 -1.15625 -2.046875q-0.390625 -1.171875 -0.390625 -2.546875zm2.171875 -0.265625l0 0.265625q0 0.953125 0.21875 1.796875q0.21875 0.828125 0.671875 1.484375q0.453125 0.640625 1.125 1.015625q0.6875 0.359375 1.59375 0.359375q0.890625 0 1.5625 -0.359375q0.671875 -0.375 1.109375 -1.015625q0.453125 -0.65625 0.671875 -1.484375q0.234375 -0.84375 0.234375 -1.796875l0 -0.265625q0 -0.9375 -0.234375 -1.765625q-0.21875 -0.84375 -0.671875 -1.5q-0.453125 -0.65625 -1.125 -1.03125q-0.671875 -0.375 -1.578125 -0.375q-0.890625 0 -1.5625 0.375q-0.671875 0.375 -1.125 1.03125q-0.453125 0.65625 -0.671875 1.5q-0.21875 0.828125 -0.21875 1.765625z" fill-rule="nonzero"/><path fill="#ffffff" d="m632.1232 254.12679l1.96875 0l0 12.42186q0 1.671875 -0.6875 2.859375q-0.671875 1.1875 -1.890625 1.796875q-1.21875 0.609375 -2.796875 0.609375q-0.65625 0 -1.546875 -0.203125q-0.875 -0.203125 -1.734375 -0.6875q-0.84375 -0.484375 -1.421875 -1.3125l1.140625 -1.28125q0.796875 0.953125 1.671875 1.328125q0.875 0.375 1.734375 0.375q1.03125 0 1.78125 -0.390625q0.75 -0.375 1.15625 -1.140625q0.421875 -0.75 0.421875 -1.859375l0 -9.71875l0.203125 -2.7968597zm-8.734375 6.4843597l0 -0.25q0 -1.453125 0.34375 -2.640625q0.34375 -1.1875 0.984375 -2.0312347q0.65625 -0.859375 1.578125 -1.328125q0.9375 -0.46875 2.09375 -0.46875q1.203125 0 2.09375 0.421875q0.890625 0.421875 1.515625 1.21875q0.640625 0.78123474 1.0 1.8906097q0.359375 1.109375 0.5 2.515625l0 1.078125q-0.125 1.40625 -0.5 2.515625q-0.359375 1.109375 -1.0 1.90625q-0.625 0.78125 -1.53125 1.203125q-0.890625 0.40625 -2.09375 0.40625q-1.140625 0 -2.0625 -0.484375q-0.921875 -0.484375 -1.578125 -1.34375q-0.65625 -0.875 -1.0 -2.046875q-0.34375 -1.171875 -0.34375 -2.5625zm2.171875 -0.25l0 0.25q0 0.953125 0.1875 1.78125q0.1875 0.828125 0.59375 1.46875q0.40625 0.625 1.03125 0.984375q0.640625 0.359375 1.515625 0.359375q1.078125 0 1.78125 -0.453125q0.703125 -0.453125 1.125 -1.203125q0.421875 -0.75 0.65625 -1.640625l0 -2.8125q-0.140625 -0.65625 -0.40625 -1.25q-0.25 -0.609375 -0.671875 -1.078125q-0.421875 -0.484375 -1.03125 -0.765625q-0.609375 -0.28123474 -1.421875 -0.28123474q-0.890625 0 -1.53125 0.37498474q-0.640625 0.375 -1.046875 1.015625q-0.40625 0.625 -0.59375 1.46875q-0.1875 0.84375 -0.1875 1.78125zm11.2421875 0.25l0 -0.265625q0 -1.375 0.390625 -2.546875q0.40625 -1.1875 1.15625 -2.0468597q0.75 -0.875 1.8125 -1.359375q1.078125 -0.5 2.390625 -0.5q1.34375 0 2.40625 0.5q1.078125 0.484375 1.828125 1.359375q0.765625 0.85935974 1.15625 2.0468597q0.40625 1.171875 0.40625 2.546875l0 0.265625q0 1.375 -0.40625 2.546875q-0.390625 1.171875 -1.15625 2.046875q-0.75 0.875 -1.8125 1.359375q-1.0625 0.484375 -2.390625 0.484375q-1.34375 0 -2.40625 -0.484375q-1.0625 -0.484375 -1.828125 -1.359375q-0.75 -0.875 -1.15625 -2.046875q-0.390625 -1.171875 -0.390625 -2.546875zm2.171875 -0.265625l0 0.265625q0 0.953125 0.21875 1.796875q0.21875 0.828125 0.671875 1.484375q0.453125 0.640625 1.125 1.015625q0.6875 0.359375 1.59375 0.359375q0.890625 0 1.5625 -0.359375q0.671875 -0.375 1.109375 -1.015625q0.453125 -0.65625 0.671875 -1.484375q0.234375 -0.84375 0.234375 -1.796875l0 -0.265625q0 -0.9375 -0.234375 -1.765625q-0.21875 -0.84375 -0.671875 -1.5q-0.453125 -0.65625 -1.125 -1.03125q-0.671875 -0.37498474 -1.578125 -0.37498474q-0.890625 0 -1.5625 0.37498474q-0.671875 0.375 -1.125 1.03125q-0.453125 0.65625 -0.671875 1.5q-0.21875 0.828125 -0.21875 1.765625zm17.46875 0.265625l0 -0.265625q0 -1.375 0.390625 -2.546875q0.40625 -1.1875 1.15625 -2.0468597q0.75 -0.875 1.8125 -1.359375q1.078125 -0.5 2.390625 -0.5q1.34375 0 2.40625 0.5q1.078125 0.484375 1.828125 1.359375q0.765625 0.85935974 1.15625 2.0468597q0.40625 1.171875 0.40625 2.546875l0 0.265625q0 1.375 -0.40625 2.546875q-0.390625 1.171875 -1.15625 2.046875q-0.75 0.875 -1.8125 1.359375q-1.0625 0.484375 -2.390625 0.484375q-1.34375 0 -2.40625 -0.484375q-1.0625 -0.484375 -1.828125 -1.359375q-0.75 -0.875 -1.15625 -2.046875q-0.390625 -1.171875 -0.390625 -2.546875zm2.171875 -0.265625l0 0.265625q0 0.953125 0.21875 1.796875q0.21875 0.828125 0.671875 1.484375q0.453125 0.640625 1.125 1.015625q0.6875 0.359375 1.59375 0.359375q0.890625 0 1.5625 -0.359375q0.671875 -0.375 1.109375 -1.015625q0.453125 -0.65625 0.671875 -1.484375q0.234375 -0.84375 0.234375 -1.796875l0 -0.265625q0 -0.9375 -0.234375 -1.765625q-0.21875 -0.84375 -0.671875 -1.5q-0.453125 -0.65625 -1.125 -1.03125q-0.671875 -0.37498474 -1.578125 -0.37498474q-0.890625 0 -1.5625 0.37498474q-0.671875 0.375 -1.125 1.03125q-0.453125 0.65625 -0.671875 1.5q-0.21875 0.828125 -0.21875 1.765625zm14.265625 -3.5l0 9.96875l-2.171875 0l0 -12.687485l2.046875 0l0.125 2.7187347zm-0.515625 3.140625l-0.90625 -0.03125q0.015625 -1.296875 0.390625 -2.40625q0.375 -1.109375 1.046875 -1.9218597q0.6875 -0.828125 1.625 -1.28125q0.9375 -0.453125 2.09375 -0.453125q0.9375 0 1.6875 0.265625q0.75 0.25 1.28125 0.796875q0.53125 0.546875 0.8125 1.4218597q0.28125 0.875 0.28125 2.125l0 8.3125l-2.171875 0l0 -8.328125q0 -1.0 -0.296875 -1.59375q-0.296875 -0.609375 -0.859375 -0.890625q-0.5625 -0.28123474 -1.375 -0.28123474q-0.8125 0 -1.484375 0.34373474q-0.65625 0.34375 -1.140625 0.9375q-0.46875 0.59375 -0.734375 1.375q-0.25 0.765625 -0.25 1.609375zm13.957031 -11.17186l0 17.999985l-2.1875 0l0 -17.999985l2.1875 0zm5.8359375 5.3125l0 12.687485l-2.1875 0l0 -12.687485l2.1875 0zm-2.34375 -3.359375q0 -0.53125 0.3125 -0.890625q0.328125 -0.359375 0.953125 -0.359375q0.625 0 0.953125 0.359375q0.34375 0.359375 0.34375 0.890625q0 0.5 -0.34375 0.859375q-0.328125 0.359375 -0.953125 0.359375q-0.625 0 -0.953125 -0.359375q-0.3125 -0.359375 -0.3125 -0.859375zm7.9921875 6.0781097l0 9.96875l-2.171875 0l0 -12.687485l2.046875 0l0.125 2.7187347zm-0.515625 3.140625l-0.90625 -0.03125q0.015625 -1.296875 0.390625 -2.40625q0.375 -1.109375 1.046875 -1.9218597q0.6875 -0.828125 1.625 -1.28125q0.9375 -0.453125 2.09375 -0.453125q0.9375 0 1.6875 0.265625q0.75 0.25 1.28125 0.796875q0.53125 0.546875 0.8125 1.4218597q0.28125 0.875 0.28125 2.125l0 8.3125l-2.171875 0l0 -8.328125q0 -1.0 -0.296875 -1.59375q-0.296875 -0.609375 -0.859375 -0.890625q-0.5625 -0.28123474 -1.375 -0.28123474q-0.8125 0 -1.484375 0.34373474q-0.65625 0.34375 -1.140625 0.9375q-0.46875 0.59375 -0.734375 1.375q-0.25 0.765625 -0.25 1.609375zm16.863281 7.0625q-1.328125 0 -2.40625 -0.453125q-1.0625 -0.453125 -1.84375 -1.265625q-0.765625 -0.828125 -1.171875 -1.953125q-0.40625 -1.125 -0.40625 -2.453125l0 -0.5q0 -1.546875 0.453125 -2.75q0.453125 -1.21875 1.234375 -2.0624847q0.796875 -0.84375 1.78125 -1.28125q1.0 -0.4375 2.078125 -0.4375q1.359375 0 2.34375 0.46875q0.984375 0.46875 1.609375 1.3125q0.640625 0.84373474 0.9375 1.9687347q0.3125 1.125 0.3125 2.46875l0 0.96875l-9.46875 0l0 -1.765625l7.3125 0l0 -0.171875q-0.046875 -0.84375 -0.359375 -1.640625q-0.296875 -0.796875 -0.9375 -1.3125q-0.640625 -0.51560974 -1.75 -0.51560974q-0.75 0 -1.375 0.3125q-0.609375 0.31248474 -1.0625 0.92185974q-0.4375 0.609375 -0.6875 1.5q-0.25 0.875 -0.25 2.015625l0 0.5q0 0.890625 0.25 1.6875q0.265625 0.796875 0.75 1.390625q0.484375 0.59375 1.171875 0.9375q0.703125 0.34375 1.59375 0.34375q1.15625 0 1.953125 -0.46875q0.796875 -0.46875 1.390625 -1.265625l1.3125 1.046875q-0.40625 0.625 -1.046875 1.1875q-0.625 0.5625 -1.546875 0.921875q-0.921875 0.34375 -2.171875 0.34375z" fill-rule="nonzero"/></g></svg>