<svg version="1.1" viewBox="0.0 0.0 960.0 540.0" fill="none" stroke="none" stroke-linecap="square" stroke-miterlimit="10" xmlns:xlink="http://www.w3.org/1999/xlink" xmlns="http://www.w3.org/2000/svg"><clipPath id="g34d359735a1_0_297.0"><path d="m0 0l960.0 0l0 540.0l-960.0 0l0 -540.0z" clip-rule="nonzero"/></clipPath><g clip-path="url(#g34d359735a1_0_297.0)"><path fill="#fcfaf7" d="m0 0l960.0 0l0 540.0l-960.0 0z" fill-rule="evenodd"/><path fill="#cfe2f3" d="m54.721786 96.5694l0 0c0 -20.196716 16.372673 -36.569397 36.569397 -36.569397l793.5383 0c9.698853 0 19.000427 3.8528366 25.85852 10.71093c6.8580933 6.8580933 10.710876 16.15966 10.710876 25.858467l0 346.8612c0 20.196716 -16.37268 36.569397 -36.569397 36.569397l-793.5383 0c-20.196724 0 -36.569397 -16.37268 -36.569397 -36.569397z" fill-rule="evenodd"/><path stroke="#434343" stroke-width="1.0" stroke-linejoin="round" stroke-linecap="butt" stroke-dasharray="1.0,3.0" d="m54.721786 96.5694l0 0c0 -20.196716 16.372673 -36.569397 36.569397 -36.569397l793.5383 0c9.698853 0 19.000427 3.8528366 25.85852 10.71093c6.8580933 6.8580933 10.710876 16.15966 10.710876 25.858467l0 346.8612c0 20.196716 -16.37268 36.569397 -36.569397 36.569397l-793.5383 0c-20.196724 0 -36.569397 -16.37268 -36.569397 -36.569397z" fill-rule="evenodd"/><path fill="#073763" d="m689.9335 354.0094l5.609375 -18.75l6.03125 0l-8.484375 24.328125q-0.28125 0.796875 -0.75 1.71875q-0.453125 0.921875 -1.21875 1.75q-0.765625 0.828125 -1.9375 1.34375q-1.15625 0.53125 -2.84375 0.53125q-0.796875 0 -1.3125 -0.09375q-0.5 -0.09375 -1.203125 -0.265625l0 -4.125q0.21875 0 0.453125 0q0.234375 0.015625 0.453125 0.015625q1.109375 0 1.8125 -0.25q0.703125 -0.25 1.125 -0.78125q0.4375 -0.515625 0.6875 -1.328125l1.578125 -4.09375zm-2.34375 -18.75l4.59375 15.3125l0.796875 5.96875l-3.828125 0.40625l-7.59375 -21.6875l6.03125 0zm15.03125 10.78125l0 -0.40625q0 -2.328125 0.65625 -4.28125q0.671875 -1.96875 1.9375 -3.40625q1.265625 -1.453125 3.125 -2.265625q1.859375 -0.8125 4.25 -0.8125q2.40625 0 4.28125 0.8125q1.875 0.8125 3.15625 2.265625q1.28125 1.4375 1.9375 3.40625q0.671875 1.953125 0.671875 4.28125l0 0.40625q0 2.3125 -0.671875 4.28125q-0.65625 1.953125 -1.9375 3.40625q-1.28125 1.453125 -3.140625 2.265625q-1.84375 0.796875 -4.25 0.796875q-2.40625 0 -4.28125 -0.796875q-1.859375 -0.8125 -3.140625 -2.265625q-1.265625 -1.453125 -1.9375 -3.40625q-0.65625 -1.96875 -0.65625 -4.28125zm5.625 -0.40625l0 0.40625q0 1.328125 0.234375 2.484375q0.234375 1.15625 0.75 2.03125q0.515625 0.859375 1.34375 1.359375q0.84375 0.484375 2.0625 0.484375q1.171875 0 2.0 -0.484375q0.84375 -0.5 1.34375 -1.359375q0.515625 -0.875 0.765625 -2.03125q0.25 -1.15625 0.25 -2.484375l0 -0.40625q0 -1.28125 -0.25 -2.421875q-0.25 -1.15625 -0.765625 -2.03125q-0.515625 -0.890625 -1.359375 -1.390625q-0.828125 -0.515625 -2.03125 -0.515625q-1.1875 0 -2.015625 0.515625q-0.828125 0.5 -1.34375 1.390625q-0.515625 0.875 -0.75 2.03125q-0.234375 1.140625 -0.234375 2.421875zm30.34375 5.703125l0 -16.078125l5.625 0l0 21.140625l-5.296875 0l-0.328125 -5.0625zm0.625 -4.328125l1.65625 -0.046875q0 2.109375 -0.484375 3.921875q-0.484375 1.796875 -1.46875 3.125q-0.96875 1.3125 -2.453125 2.046875q-1.484375 0.734375 -3.5 0.734375q-1.546875 0 -2.84375 -0.4375q-1.296875 -0.4375 -2.234375 -1.390625q-0.921875 -0.953125 -1.4375 -2.4375q-0.515625 -1.5 -0.515625 -3.609375l0 -13.65625l5.625 0l0 13.703125q0 0.9375 0.21875 1.578125q0.234375 0.640625 0.640625 1.0625q0.40625 0.40625 0.96875 0.578125q0.5625 0.171875 1.234375 0.171875q1.75 0 2.75 -0.703125q1.0 -0.703125 1.421875 -1.921875q0.421875 -1.21875 0.421875 -2.71875zm14.902344 -7.140625l0 16.53125l-5.625 0l0 -21.140625l5.296875 0l0.328125 4.609375zm6.375 -4.734375l-0.109375 5.203125q-0.40625 -0.046875 -0.984375 -0.09375q-0.578125 -0.0625 -1.046875 -0.0625q-1.1875 0 -2.0625 0.3125q-0.859375 0.296875 -1.4375 0.875q-0.578125 0.578125 -0.859375 1.4375q-0.28125 0.84375 -0.328125 1.90625l-1.125 -0.34375q0 -2.046875 0.40625 -3.78125q0.40625 -1.734375 1.203125 -3.015625q0.796875 -1.296875 1.9375 -2.0q1.15625 -0.703125 2.640625 -0.703125q0.46875 0 0.953125 0.078125q0.5 0.0625 0.8125 0.1875zm25.089844 16.203125l0 -16.078125l5.625 0l0 21.140625l-5.296875 0l-0.328125 -5.0625zm0.625 -4.328125l1.65625 -0.046875q0 2.109375 -0.484375 3.921875q-0.484375 1.796875 -1.46875 3.125q-0.96875 1.3125 -2.453125 2.046875q-1.484375 0.734375 -3.5 0.734375q-1.546875 0 -2.84375 -0.4375q-1.296875 -0.4375 -2.234375 -1.390625q-0.921875 -0.953125 -1.4375 -2.4375q-0.515625 -1.5 -0.515625 -3.609375l0 -13.65625l5.625 0l0 13.703125q0 0.9375 0.21875 1.578125q0.234375 0.640625 0.640625 1.0625q0.40625 0.40625 0.96875 0.578125q0.5625 0.171875 1.234375 0.171875q1.75 0 2.75 -0.703125q1.0 -0.703125 1.421875 -1.921875q0.421875 -1.21875 0.421875 -2.71875zm20.699219 3.546875q0 -0.609375 -0.359375 -1.09375q-0.34375 -0.484375 -1.296875 -0.90625q-0.9375 -0.421875 -2.71875 -0.765625q-1.59375 -0.359375 -2.96875 -0.890625q-1.375 -0.546875 -2.390625 -1.296875q-1.0 -0.765625 -1.578125 -1.8125q-0.5625 -1.046875 -0.5625 -2.390625q0 -1.328125 0.578125 -2.5q0.578125 -1.171875 1.65625 -2.078125q1.09375 -0.90625 2.65625 -1.421875q1.578125 -0.53125 3.546875 -0.53125q2.765625 0 4.734375 0.890625q1.984375 0.875 3.046875 2.40625q1.078125 1.53125 1.078125 3.484375l-5.625 0q0 -0.8125 -0.34375 -1.46875q-0.34375 -0.65625 -1.0625 -1.03125q-0.703125 -0.390625 -1.84375 -0.390625q-0.9375 0 -1.625 0.328125q-0.671875 0.3125 -1.046875 0.859375q-0.359375 0.53125 -0.359375 1.171875q0 0.5 0.203125 0.875q0.21875 0.375 0.6875 0.6875q0.46875 0.3125 1.21875 0.578125q0.75 0.265625 1.859375 0.484375q2.28125 0.46875 4.078125 1.21875q1.796875 0.75 2.84375 2.03125q1.0625 1.28125 1.0625 3.34375q0 1.40625 -0.625 2.578125q-0.625 1.171875 -1.796875 2.046875q-1.171875 0.875 -2.796875 1.359375q-1.625 0.46875 -3.65625 0.46875q-2.953125 0 -5.0 -1.046875q-2.03125 -1.0625 -3.078125 -2.6875q-1.046875 -1.640625 -1.046875 -3.359375l5.328125 0q0.046875 1.15625 0.59375 1.859375q0.5625 0.703125 1.421875 1.015625q0.875 0.3125 1.890625 0.3125q1.09375 0 1.8125 -0.296875q0.734375 -0.3125 1.109375 -0.828125q0.375 -0.515625 0.375 -1.203125zm18.859375 6.234375q-2.46875 0 -4.421875 -0.78125q-1.953125 -0.796875 -3.3125 -2.203125q-1.359375 -1.40625 -2.078125 -3.265625q-0.71875 -1.875 -0.71875 -3.984375l0 -0.78125q0 -2.40625 0.671875 -4.390625q0.6875 -2.0 1.96875 -3.453125q1.28125 -1.46875 3.109375 -2.265625q1.84375 -0.796875 4.15625 -0.796875q2.234375 0 3.96875 0.75q1.75 0.734375 2.921875 2.109375q1.1875 1.359375 1.796875 3.265625q0.609375 1.90625 0.609375 4.234375l0 2.34375l-16.796875 0l0 -3.75l11.265625 0l0 -0.4375q0 -1.171875 -0.421875 -2.09375q-0.421875 -0.921875 -1.265625 -1.46875q-0.828125 -0.546875 -2.140625 -0.546875q-1.109375 0 -1.921875 0.484375q-0.796875 0.484375 -1.296875 1.375q-0.5 0.875 -0.75 2.0625q-0.234375 1.171875 -0.234375 2.578125l0 0.78125q0 1.265625 0.359375 2.34375q0.359375 1.078125 1.03125 1.859375q0.6875 0.78125 1.640625 1.21875q0.96875 0.421875 2.203125 0.421875q1.53125 0 2.84375 -0.59375q1.3125 -0.609375 2.28125 -1.8125l2.734375 2.96875q-0.671875 0.953125 -1.8125 1.84375q-1.140625 0.875 -2.75 1.4375q-1.59375 0.546875 -3.640625 0.546875zm17.492188 -16.921875l0 16.53125l-5.625 0l0 -21.140625l5.296875 0l0.328125 4.609375zm6.375 -4.734375l-0.109375 5.203125q-0.40625 -0.046875 -0.984375 -0.09375q-0.578125 -0.0625 -1.046875 -0.0625q-1.1875 0 -2.0625 0.3125q-0.859375 0.296875 -1.4375 0.875q-0.578125 0.578125 -0.859375 1.4375q-0.28125 0.84375 -0.328125 1.90625l-1.125 -0.34375q0 -2.046875 0.40625 -3.78125q0.40625 -1.734375 1.203125 -3.015625q0.796875 -1.296875 1.9375 -2.0q1.15625 -0.703125 2.640625 -0.703125q0.46875 0 0.953125 0.078125q0.5 0.0625 0.8125 0.1875zm14.0703125 15.421875q0 -0.609375 -0.359375 -1.09375q-0.34375 -0.484375 -1.296875 -0.90625q-0.9375 -0.421875 -2.71875 -0.765625q-1.59375 -0.359375 -2.96875 -0.890625q-1.375 -0.546875 -2.390625 -1.296875q-1.0 -0.765625 -1.578125 -1.8125q-0.5625 -1.046875 -0.5625 -2.390625q0 -1.328125 0.578125 -2.5q0.578125 -1.171875 1.65625 -2.078125q1.09375 -0.90625 2.65625 -1.421875q1.578125 -0.53125 3.546875 -0.53125q2.765625 0 4.734375 0.890625q1.984375 0.875 3.046875 2.40625q1.078125 1.53125 1.078125 3.484375l-5.625 0q0 -0.8125 -0.34375 -1.46875q-0.34375 -0.65625 -1.0625 -1.03125q-0.703125 -0.390625 -1.84375 -0.390625q-0.9375 0 -1.625 0.328125q-0.671875 0.3125 -1.046875 0.859375q-0.359375 0.53125 -0.359375 1.171875q0 0.5 0.203125 0.875q0.21875 0.375 0.6875 0.6875q0.46875 0.3125 1.21875 0.578125q0.75 0.265625 1.859375 0.484375q2.28125 0.46875 4.078125 1.21875q1.796875 0.75 2.84375 2.03125q1.0625 1.28125 1.0625 3.34375q0 1.40625 -0.625 2.578125q-0.625 1.171875 -1.796875 2.046875q-1.171875 0.875 -2.796875 1.359375q-1.625 0.46875 -3.65625 0.46875q-2.953125 0 -5.0 -1.046875q-2.03125 -1.0625 -3.078125 -2.6875q-1.046875 -1.640625 -1.046875 -3.359375l5.328125 0q0.046875 1.15625 0.59375 1.859375q0.5625 0.703125 1.421875 1.015625q0.875 0.3125 1.890625 0.3125q1.09375 0 1.8125 -0.296875q0.734375 -0.3125 1.109375 -0.828125q0.375 -0.515625 0.375 -1.203125z" fill-rule="nonzero"/><path fill="#333333" d="m90.784775 279.41733l0 0c0 -101.26381 122.75859 -183.35434 274.18896 -183.35434l0 0c151.43036 0 274.18896 82.09052 274.18896 183.35434l0 0c0 101.263794 -122.758606 183.35434 -274.18896 183.35434l0 0c-151.43039 0 -274.18896 -82.090546 -274.18896 -183.35434z" fill-rule="evenodd"/><path fill="#ffffff" d="m212.24524 194.7756l5.609375 -18.75l6.03125 0l-8.484375 24.328125q-0.28125 0.796875 -0.75 1.71875q-0.453125 0.921875 -1.21875 1.75q-0.765625 0.828125 -1.9375 1.34375q-1.15625 0.53125 -2.84375 0.53125q-0.796875 0 -1.3125 -0.09375q-0.5 -0.09375 -1.203125 -0.265625l0 -4.125q0.21875 0 0.453125 0q0.234375 0.015625 0.453125 0.015625q1.109375 0 1.8125 -0.25q0.703125 -0.25 1.125 -0.78125q0.4375 -0.515625 0.6875 -1.328125l1.578125 -4.09375zm-2.34375 -18.75l4.59375 15.3125l0.796875 5.96875l-3.828125 0.40625l-7.59375 -21.6875l6.03125 0zm15.03125 10.78125l0 -0.40625q0 -2.328125 0.65625 -4.28125q0.671875 -1.96875 1.9375 -3.40625q1.265625 -1.453125 3.125 -2.265625q1.859375 -0.8125 4.25 -0.8125q2.40625 0 4.28125 0.8125q1.875 0.8125 3.15625 2.265625q1.28125 1.4375 1.9375 3.40625q0.671875 1.953125 0.671875 4.28125l0 0.40625q0 2.3125 -0.671875 4.28125q-0.65625 1.953125 -1.9375 3.40625q-1.28125 1.453125 -3.140625 2.265625q-1.84375 0.796875 -4.25 0.796875q-2.40625 0 -4.28125 -0.796875q-1.859375 -0.8125 -3.140625 -2.265625q-1.265625 -1.453125 -1.9375 -3.40625q-0.65625 -1.96875 -0.65625 -4.28125zm5.625 -0.40625l0 0.40625q0 1.328125 0.234375 2.484375q0.234375 1.15625 0.75 2.03125q0.515625 0.859375 1.34375 1.359375q0.84375 0.484375 2.0625 0.484375q1.171875 0 2.0 -0.484375q0.84375 -0.5 1.34375 -1.359375q0.515625 -0.875 0.765625 -2.03125q0.25 -1.15625 0.25 -2.484375l0 -0.40625q0 -1.28125 -0.25 -2.421875q-0.25 -1.15625 -0.765625 -2.03125q-0.515625 -0.890625 -1.359375 -1.390625q-0.828125 -0.515625 -2.03125 -0.515625q-1.1875 0 -2.015625 0.515625q-0.828125 0.5 -1.34375 1.390625q-0.515625 0.875 -0.75 2.03125q-0.234375 1.140625 -0.234375 2.421875zm30.34375 5.703125l0 -16.078125l5.625 0l0 21.140625l-5.296875 0l-0.328125 -5.0625zm0.625 -4.328125l1.65625 -0.046875q0 2.109375 -0.484375 3.921875q-0.484375 1.796875 -1.46875 3.125q-0.96875 1.3125 -2.453125 2.046875q-1.484375 0.734375 -3.5 0.734375q-1.546875 0 -2.84375 -0.4375q-1.296875 -0.4375 -2.234375 -1.390625q-0.921875 -0.953125 -1.4375 -2.4375q-0.515625 -1.5 -0.515625 -3.609375l0 -13.65625l5.625 0l0 13.703125q0 0.9375 0.21875 1.578125q0.234375 0.640625 0.640625 1.0625q0.40625 0.40625 0.96875 0.578125q0.5625 0.171875 1.234375 0.171875q1.75 0 2.75 -0.703125q1.0 -0.703125 1.421875 -1.921875q0.421875 -1.21875 0.421875 -2.71875zm14.902344 -7.140625l0 16.53125l-5.625 0l0 -21.140625l5.296875 0l0.328125 4.609375zm6.375 -4.734375l-0.109375 5.203125q-0.40625 -0.046875 -0.984375 -0.09375q-0.578125 -0.0625 -1.046875 -0.0625q-1.1875 0 -2.0625 0.3125q-0.859375 0.296875 -1.4375 0.875q-0.578125 0.578125 -0.859375 1.4375q-0.28125 0.84375 -0.328125 1.90625l-1.125 -0.34375q0 -2.046875 0.40625 -3.78125q0.40625 -1.734375 1.203125 -3.015625q0.796875 -1.296875 1.9375 -2.0q1.15625 -0.703125 2.640625 -0.703125q0.46875 0 0.953125 0.078125q0.5 0.0625 0.8125 0.1875zm24.011719 15.421875q0 -0.609375 -0.359375 -1.09375q-0.34375 -0.484375 -1.296875 -0.90625q-0.9375 -0.421875 -2.71875 -0.765625q-1.59375 -0.359375 -2.96875 -0.890625q-1.375 -0.546875 -2.390625 -1.296875q-1.0 -0.765625 -1.578125 -1.8125q-0.5625 -1.046875 -0.5625 -2.390625q0 -1.328125 0.578125 -2.5q0.578125 -1.171875 1.65625 -2.078125q1.09375 -0.90625 2.65625 -1.421875q1.578125 -0.53125 3.546875 -0.53125q2.765625 0 4.734375 0.890625q1.984375 0.875 3.046875 2.40625q1.078125 1.53125 1.078125 3.484375l-5.625 0q0 -0.8125 -0.34375 -1.46875q-0.34375 -0.65625 -1.0625 -1.03125q-0.703125 -0.390625 -1.84375 -0.390625q-0.9375 0 -1.625 0.328125q-0.671875 0.3125 -1.046875 0.859375q-0.359375 0.53125 -0.359375 1.171875q0 0.5 0.203125 0.875q0.21875 0.375 0.6875 0.6875q0.46875 0.3125 1.21875 0.578125q0.75 0.265625 1.859375 0.484375q2.28125 0.46875 4.078125 1.21875q1.796875 0.75 2.84375 2.03125q1.0625 1.28125 1.0625 3.34375q0 1.40625 -0.625 2.578125q-0.625 1.171875 -1.796875 2.046875q-1.171875 0.875 -2.796875 1.359375q-1.625 0.46875 -3.65625 0.46875q-2.953125 0 -5.0 -1.046875q-2.03125 -1.0625 -3.078125 -2.6875q-1.046875 -1.640625 -1.046875 -3.359375l5.328125 0q0.046875 1.15625 0.59375 1.859375q0.5625 0.703125 1.421875 1.015625q0.875 0.3125 1.890625 0.3125q1.09375 0 1.8125 -0.296875q0.734375 -0.3125 1.109375 -0.828125q0.375 -0.515625 0.375 -1.203125zm19.484375 -15.296875l0 3.984375l-12.3125 0l0 -3.984375l12.3125 0zm-9.265625 -5.203125l5.625 0l0 19.96875q0 0.921875 0.234375 1.421875q0.25 0.484375 0.734375 0.671875q0.5 0.171875 1.234375 0.171875q0.53125 0 0.953125 -0.046875q0.421875 -0.046875 0.71875 -0.109375l0.015625 4.140625q-0.71875 0.25 -1.5625 0.375q-0.84375 0.140625 -1.859375 0.140625q-1.859375 0 -3.234375 -0.609375q-1.375 -0.625 -2.125 -1.984375q-0.734375 -1.375 -0.734375 -3.59375l0 -20.546875zm23.847656 21.578125l0 -9.421875q0 -1.015625 -0.328125 -1.734375q-0.328125 -0.734375 -1.03125 -1.140625q-0.6875 -0.421875 -1.78125 -0.421875q-0.9375 0 -1.625 0.328125q-0.6875 0.3125 -1.0625 0.921875q-0.359375 0.59375 -0.359375 1.390625l-5.625 0q0 -1.34375 0.625 -2.546875q0.625 -1.21875 1.8125 -2.140625q1.1875 -0.9375 2.84375 -1.46875q1.65625 -0.53125 3.703125 -0.53125q2.453125 0 4.359375 0.828125q1.921875 0.8125 3.03125 2.453125q1.109375 1.640625 1.109375 4.109375l0 9.046875q0 1.734375 0.203125 2.84375q0.21875 1.09375 0.625 1.921875l0 0.328125l-5.671875 0q-0.421875 -0.859375 -0.625 -2.15625q-0.203125 -1.296875 -0.203125 -2.609375zm0.75 -8.109375l0.03125 3.1875l-3.140625 0q-1.109375 0 -1.9375 0.25q-0.8125 0.25 -1.34375 0.71875q-0.53125 0.453125 -0.78125 1.0625q-0.234375 0.609375 -0.234375 1.328125q0 0.71875 0.328125 1.296875q0.328125 0.578125 0.953125 0.90625q0.625 0.3125 1.46875 0.3125q1.265625 0 2.203125 -0.5q0.9375 -0.515625 1.453125 -1.25q0.53125 -0.75 0.546875 -1.40625l1.484375 2.375q-0.3125 0.796875 -0.859375 1.65625q-0.53125 0.859375 -1.359375 1.625q-0.8125 0.75 -1.96875 1.234375q-1.140625 0.46875 -2.734375 0.46875q-2.0 0 -3.640625 -0.8125q-1.625 -0.8125 -2.578125 -2.25q-0.9375 -1.4375 -0.9375 -3.265625q0 -1.65625 0.625 -2.9375q0.625 -1.296875 1.84375 -2.1875q1.21875 -0.890625 3.046875 -1.34375q1.84375 -0.46875 4.265625 -0.46875l3.265625 0zm14.875 -17.140625l0 30.015625l-5.625 0l0 -30.015625l5.625 0zm13.328125 8.875l-9.1875 10.46875l-4.921875 4.984375l-2.046875 -4.0625l3.90625 -4.953125l5.484375 -6.4375l6.765625 0zm-5.84375 21.140625l-6.25 -9.765625l3.890625 -3.40625l8.84375 13.171875l-6.484375 0zm17.601562 0.390625q-2.46875 0 -4.421875 -0.78125q-1.953125 -0.796875 -3.3125 -2.203125q-1.359375 -1.40625 -2.078125 -3.265625q-0.71875 -1.875 -0.71875 -3.984375l0 -0.78125q0 -2.40625 0.671875 -4.390625q0.6875 -2.0 1.96875 -3.453125q1.28125 -1.46875 3.109375 -2.265625q1.84375 -0.796875 4.15625 -0.796875q2.234375 0 3.96875 0.75q1.75 0.734375 2.921875 2.109375q1.1875 1.359375 1.796875 3.265625q0.609375 1.90625 0.609375 4.234375l0 2.34375l-16.796875 0l0 -3.75l11.265625 0l0 -0.4375q0 -1.171875 -0.421875 -2.09375q-0.421875 -0.921875 -1.265625 -1.46875q-0.828125 -0.546875 -2.140625 -0.546875q-1.109375 0 -1.921875 0.484375q-0.796875 0.484375 -1.296875 1.375q-0.5 0.875 -0.75 2.0625q-0.234375 1.171875 -0.234375 2.578125l0 0.78125q0 1.265625 0.359375 2.34375q0.359375 1.078125 1.03125 1.859375q0.6875 0.78125 1.640625 1.21875q0.96875 0.421875 2.203125 0.421875q1.53125 0 2.84375 -0.59375q1.3125 -0.609375 2.28125 -1.8125l2.734375 2.96875q-0.671875 0.953125 -1.8125 1.84375q-1.140625 0.875 -2.75 1.4375q-1.59375 0.546875 -3.640625 0.546875zm17.351562 -30.390625l0 30.0l-5.625 0l0 -30.0l5.625 0zm-0.796875 18.6875l-1.546875 0q0.03125 -2.203125 0.59375 -4.0625q0.5625 -1.875 1.609375 -3.25q1.0625 -1.375 2.53125 -2.140625q1.484375 -0.765625 3.28125 -0.765625q1.5625 0 2.84375 0.453125q1.28125 0.4375 2.203125 1.40625q0.921875 0.953125 1.421875 2.515625q0.515625 1.5625 0.515625 3.796875l0 13.359375l-5.65625 0l0 -13.40625q0 -1.40625 -0.40625 -2.203125q-0.390625 -0.8125 -1.15625 -1.15625q-0.75 -0.34375 -1.84375 -0.34375q-1.203125 0 -2.0625 0.453125q-0.84375 0.4375 -1.359375 1.234375q-0.5 0.796875 -0.734375 1.859375q-0.234375 1.046875 -0.234375 2.25zm16.824219 0.953125l0 -0.40625q0 -2.328125 0.65625 -4.28125q0.671875 -1.96875 1.9375 -3.40625q1.265625 -1.453125 3.125 -2.265625q1.859375 -0.8125 4.25 -0.8125q2.40625 0 4.28125 0.8125q1.875 0.8125 3.15625 2.265625q1.28125 1.4375 1.9375 3.40625q0.671875 1.953125 0.671875 4.28125l0 0.40625q0 2.3125 -0.671875 4.28125q-0.65625 1.953125 -1.9375 3.40625q-1.28125 1.453125 -3.140625 2.265625q-1.84375 0.796875 -4.25 0.796875q-2.40625 0 -4.28125 -0.796875q-1.859375 -0.8125 -3.140625 -2.265625q-1.265625 -1.453125 -1.9375 -3.40625q-0.65625 -1.96875 -0.65625 -4.28125zm5.625 -0.40625l0 0.40625q0 1.328125 0.234375 2.484375q0.234375 1.15625 0.75 2.03125q0.515625 0.859375 1.34375 1.359375q0.84375 0.484375 2.0625 0.484375q1.171875 0 2.0 -0.484375q0.84375 -0.5 1.34375 -1.359375q0.515625 -0.875 0.765625 -2.03125q0.25 -1.15625 0.25 -2.484375l0 -0.40625q0 -1.28125 -0.25 -2.421875q-0.25 -1.15625 -0.765625 -2.03125q-0.515625 -0.890625 -1.359375 -1.390625q-0.828125 -0.515625 -2.03125 -0.515625q-1.1875 0 -2.015625 0.515625q-0.828125 0.5 -1.34375 1.390625q-0.515625 0.875 -0.75 2.03125q-0.234375 1.140625 -0.234375 2.421875zm23.78125 -19.234375l0 30.0l-5.640625 0l0 -30.0l5.640625 0zm17.132812 25.390625l0 -25.390625l5.65625 0l0 30.0l-5.09375 0l-0.5625 -4.609375zm-13.359375 -5.703125l0 -0.40625q0 -2.421875 0.546875 -4.40625q0.546875 -1.984375 1.59375 -3.40625q1.0625 -1.4375 2.59375 -2.21875q1.546875 -0.78125 3.53125 -0.78125q1.84375 0 3.234375 0.78125q1.40625 0.78125 2.390625 2.21875q0.984375 1.4375 1.59375 3.390625q0.609375 1.9375 0.875 4.234375l0 0.90625q-0.265625 2.203125 -0.875 4.109375q-0.609375 1.890625 -1.59375 3.3125q-0.984375 1.40625 -2.390625 2.1875q-1.40625 0.78125 -3.28125 0.78125q-1.96875 0 -3.5 -0.796875q-1.53125 -0.8125 -2.578125 -2.25q-1.046875 -1.453125 -1.59375 -3.40625q-0.546875 -1.953125 -0.546875 -4.25zm5.625 -0.40625l0 0.40625q0 1.3125 0.203125 2.453125q0.203125 1.125 0.671875 2.0q0.484375 0.859375 1.25 1.34375q0.78125 0.46875 1.890625 0.46875q1.453125 0 2.390625 -0.65625q0.9375 -0.65625 1.4375 -1.796875q0.5 -1.15625 0.578125 -2.65625l0 -2.5625q-0.0625 -1.234375 -0.34375 -2.21875q-0.28125 -0.984375 -0.828125 -1.6875q-0.53125 -0.703125 -1.328125 -1.09375q-0.78125 -0.390625 -1.859375 -0.390625q-1.09375 0 -1.875 0.5q-0.78125 0.5 -1.265625 1.359375q-0.46875 0.859375 -0.703125 2.015625q-0.21875 1.15625 -0.21875 2.515625zm27.503906 11.109375q-2.46875 0 -4.421875 -0.78125q-1.953125 -0.796875 -3.3125 -2.203125q-1.359375 -1.40625 -2.078125 -3.265625q-0.71875 -1.875 -0.71875 -3.984375l0 -0.78125q0 -2.40625 0.671875 -4.390625q0.6875 -2.0 1.96875 -3.453125q1.28125 -1.46875 3.109375 -2.265625q1.84375 -0.796875 4.15625 -0.796875q2.234375 0 3.96875 0.75q1.75 0.734375 2.921875 2.109375q1.1875 1.359375 1.796875 3.265625q0.609375 1.90625 0.609375 4.234375l0 2.34375l-16.796875 0l0 -3.75l11.265625 0l0 -0.4375q0 -1.171875 -0.421875 -2.09375q-0.421875 -0.921875 -1.265625 -1.46875q-0.828125 -0.546875 -2.140625 -0.546875q-1.109375 0 -1.921875 0.484375q-0.796875 0.484375 -1.296875 1.375q-0.5 0.875 -0.75 2.0625q-0.234375 1.171875 -0.234375 2.578125l0 0.78125q0 1.265625 0.359375 2.34375q0.359375 1.078125 1.03125 1.859375q0.6875 0.78125 1.640625 1.21875q0.96875 0.421875 2.203125 0.421875q1.53125 0 2.84375 -0.59375q1.3125 -0.609375 2.28125 -1.8125l2.734375 2.96875q-0.671875 0.953125 -1.8125 1.84375q-1.140625 0.875 -2.75 1.4375q-1.59375 0.546875 -3.640625 0.546875zm17.492188 -16.921875l0 16.53125l-5.625 0l0 -21.140625l5.296875 0l0.328125 4.609375zm6.375 -4.734375l-0.109375 5.203125q-0.40625 -0.046875 -0.984375 -0.09375q-0.578125 -0.0625 -1.046875 -0.0625q-1.1875 0 -2.0625 0.3125q-0.859375 0.296875 -1.4375 0.875q-0.578125 0.578125 -0.859375 1.4375q-0.28125 0.84375 -0.328125 1.90625l-1.125 -0.34375q0 -2.046875 0.40625 -3.78125q0.40625 -1.734375 1.203125 -3.015625q0.796875 -1.296875 1.9375 -2.0q1.15625 -0.703125 2.640625 -0.703125q0.46875 0 0.953125 0.078125q0.5 0.0625 0.8125 0.1875zm14.0703125 15.421875q0 -0.609375 -0.359375 -1.09375q-0.34375 -0.484375 -1.296875 -0.90625q-0.9375 -0.421875 -2.71875 -0.765625q-1.59375 -0.359375 -2.96875 -0.890625q-1.375 -0.546875 -2.390625 -1.296875q-1.0 -0.765625 -1.578125 -1.8125q-0.5625 -1.046875 -0.5625 -2.390625q0 -1.328125 0.578125 -2.5q0.578125 -1.171875 1.65625 -2.078125q1.09375 -0.90625 2.65625 -1.421875q1.578125 -0.53125 3.546875 -0.53125q2.765625 0 4.734375 0.890625q1.984375 0.875 3.046875 2.40625q1.078125 1.53125 1.078125 3.484375l-5.625 0q0 -0.8125 -0.34375 -1.46875q-0.34375 -0.65625 -1.0625 -1.03125q-0.703125 -0.390625 -1.84375 -0.390625q-0.9375 0 -1.625 0.328125q-0.671875 0.3125 -1.046875 0.859375q-0.359375 0.53125 -0.359375 1.171875q0 0.5 0.203125 0.875q0.21875 0.375 0.6875 0.6875q0.46875 0.3125 1.21875 0.578125q0.75 0.265625 1.859375 0.484375q2.28125 0.46875 4.078125 1.21875q1.796875 0.75 2.84375 2.03125q1.0625 1.28125 1.0625 3.34375q0 1.40625 -0.625 2.578125q-0.625 1.171875 -1.796875 2.046875q-1.171875 0.875 -2.796875 1.359375q-1.625 0.46875 -3.65625 0.46875q-2.953125 0 -5.0 -1.046875q-2.03125 -1.0625 -3.078125 -2.6875q-1.046875 -1.640625 -1.046875 -3.359375l5.328125 0q0.046875 1.15625 0.59375 1.859375q0.5625 0.703125 1.421875 1.015625q0.875 0.3125 1.890625 0.3125q1.09375 0 1.8125 -0.296875q0.734375 -0.3125 1.109375 -0.828125q0.375 -0.515625 0.375 -1.203125z" fill-rule="nonzero"/><path fill="#ff9900" d="m270.48557 356.1496l0 0c0 -52.184387 42.303802 -94.48819 94.48819 -94.48819l0 0c25.059814 0 49.09326 9.954987 66.81323 27.674957c17.71997 17.71997 27.674957 41.753418 27.674957 66.81323l0 0c0 52.184387 -42.303802 94.48819 -94.48819 94.48819l0 0c-52.184387 0 -94.48819 -42.303802 -94.48819 -94.48819z" fill-rule="evenodd"/><path fill="#ffffff" d="m333.69055 344.15897l5.609375 -18.75l6.03125 0l-8.484375 24.328125q-0.28125 0.796875 -0.75 1.71875q-0.453125 0.921875 -1.21875 1.75q-0.765625 0.8281555 -1.9375 1.3437805q-1.15625 0.53125 -2.84375 0.53125q-0.796875 0 -1.3125 -0.09375q-0.5 -0.09375 -1.203125 -0.265625l0 -4.1250305q0.21875 0 0.453125 0q0.234375 0.015625 0.453125 0.015625q1.109375 0 1.8125 -0.25q0.703125 -0.25 1.125 -0.78125q0.4375 -0.515625 0.6875 -1.328125l1.578125 -4.09375zm-2.34375 -18.75l4.59375 15.3125l0.796875 5.96875l-3.828125 0.40625l-7.59375 -21.6875l6.03125 0zm15.03125 10.78125l0 -0.40625q0 -2.328125 0.65625 -4.28125q0.671875 -1.96875 1.9375 -3.40625q1.265625 -1.453125 3.125 -2.265625q1.859375 -0.8125 4.25 -0.8125q2.40625 0 4.28125 0.8125q1.875 0.8125 3.15625 2.265625q1.28125 1.4375 1.9375 3.40625q0.671875 1.953125 0.671875 4.28125l0 0.40625q0 2.3125 -0.671875 4.28125q-0.65625 1.953125 -1.9375 3.40625q-1.28125 1.453125 -3.140625 2.265625q-1.84375 0.796875 -4.25 0.796875q-2.40625 0 -4.28125 -0.796875q-1.859375 -0.8125 -3.140625 -2.265625q-1.265625 -1.453125 -1.9375 -3.40625q-0.65625 -1.96875 -0.65625 -4.28125zm5.625 -0.40625l0 0.40625q0 1.328125 0.234375 2.484375q0.234375 1.15625 0.75 2.03125q0.515625 0.859375 1.34375 1.359375q0.84375 0.484375 2.0625 0.484375q1.171875 0 2.0 -0.484375q0.84375 -0.5 1.34375 -1.359375q0.515625 -0.875 0.765625 -2.03125q0.25 -1.15625 0.25 -2.484375l0 -0.40625q0 -1.28125 -0.25 -2.421875q-0.25 -1.15625 -0.765625 -2.03125q-0.515625 -0.890625 -1.359375 -1.390625q-0.828125 -0.515625 -2.03125 -0.515625q-1.1875 0 -2.015625 0.515625q-0.828125 0.5 -1.34375 1.390625q-0.515625 0.875 -0.75 2.03125q-0.234375 1.140625 -0.234375 2.421875zm30.34375 5.703125l0 -16.078125l5.625 0l0 21.140625l-5.296875 0l-0.328125 -5.0625zm0.625 -4.328125l1.65625 -0.046875q0 2.109375 -0.484375 3.921875q-0.484375 1.796875 -1.46875 3.125q-0.96875 1.3125 -2.453125 2.046875q-1.484375 0.734375 -3.5 0.734375q-1.546875 0 -2.84375 -0.4375q-1.296875 -0.4375 -2.234375 -1.390625q-0.921875 -0.953125 -1.4375 -2.4375q-0.515625 -1.5 -0.515625 -3.609375l0 -13.65625l5.625 0l0 13.703125q0 0.9375 0.21875 1.578125q0.234375 0.640625 0.640625 1.0625q0.40625 0.40625 0.96875 0.578125q0.5625 0.171875 1.234375 0.171875q1.75 0 2.75 -0.703125q1.0 -0.703125 1.421875 -1.921875q0.421875 -1.21875 0.421875 -2.71875zm14.902344 -7.140625l0 16.53125l-5.625 0l0 -21.140625l5.296875 0l0.328125 4.609375zm6.375 -4.734375l-0.109375 5.203125q-0.40625 -0.046875 -0.984375 -0.09375q-0.578125 -0.0625 -1.046875 -0.0625q-1.1875 0 -2.0625 0.3125q-0.859375 0.296875 -1.4375 0.875q-0.578125 0.578125 -0.859375 1.4375q-0.28125 0.84375 -0.328125 1.90625l-1.125 -0.34375q0 -2.046875 0.40625 -3.78125q0.40625 -1.734375 1.203125 -3.015625q0.796875 -1.296875 1.9375 -2.0q1.15625 -0.703125 2.640625 -0.703125q0.46875 0 0.953125 0.078125q0.5 0.0625 0.8125 0.1875z" fill-rule="nonzero"/><path fill="#ffffff" d="m331.92493 373.409l0 3.984375l-12.3125 0l0 -3.984375l12.3125 0zm-9.265625 -5.203125l5.625 0l0 19.96875q0 0.921875 0.234375 1.421875q0.25 0.484375 0.734375 0.671875q0.5 0.171875 1.234375 0.171875q0.53125 0 0.953125 -0.046875q0.421875 -0.046875 0.71875 -0.109375l0.015625 4.140625q-0.71875 0.25 -1.5625 0.375q-0.84375 0.140625 -1.859375 0.140625q-1.859375 0 -3.234375 -0.609375q-1.375 -0.625 -2.125 -1.984375q-0.734375 -1.375 -0.734375 -3.59375l0 -20.546875zm22.175781 26.734375q-2.46875 0 -4.421875 -0.78125q-1.953125 -0.796875 -3.3125 -2.203125q-1.359375 -1.40625 -2.078125 -3.265625q-0.71875 -1.875 -0.71875 -3.984375l0 -0.78125q0 -2.40625 0.671875 -4.390625q0.6875 -2.0 1.96875 -3.453125q1.28125 -1.46875 3.109375 -2.265625q1.84375 -0.796875 4.15625 -0.796875q2.234375 0 3.96875 0.75q1.75 0.734375 2.921875 2.109375q1.1875 1.359375 1.796875 3.265625q0.609375 1.90625 0.609375 4.234375l0 2.34375l-16.796875 0l0 -3.75l11.265625 0l0 -0.4375q0 -1.171875 -0.421875 -2.09375q-0.421875 -0.921875 -1.265625 -1.46875q-0.828125 -0.546875 -2.140625 -0.546875q-1.109375 0 -1.921875 0.484375q-0.796875 0.484375 -1.296875 1.375q-0.5 0.875 -0.75 2.0625q-0.234375 1.171875 -0.234375 2.578125l0 0.78125q0 1.265625 0.359375 2.34375q0.359375 1.078125 1.03125 1.859375q0.6875 0.78125 1.640625 1.21875q0.96875 0.421875 2.203125 0.421875q1.53125 0 2.84375 -0.59375q1.3125 -0.609375 2.28125 -1.8125l2.734375 2.96875q-0.671875 0.953125 -1.8125 1.84375q-1.140625 0.875 -2.75 1.4375q-1.59375 0.546875 -3.640625 0.546875zm23.273438 -5.15625l0 -9.421875q0 -1.015625 -0.328125 -1.734375q-0.328125 -0.734375 -1.03125 -1.140625q-0.6875 -0.421875 -1.78125 -0.421875q-0.9375 0 -1.625 0.328125q-0.6875 0.3125 -1.0625 0.921875q-0.359375 0.59375 -0.359375 1.390625l-5.625 0q0 -1.34375 0.625 -2.546875q0.625 -1.21875 1.8125 -2.140625q1.1875 -0.9375 2.84375 -1.46875q1.65625 -0.53125 3.703125 -0.53125q2.453125 0 4.359375 0.828125q1.921875 0.8125 3.03125 2.453125q1.109375 1.640625 1.109375 4.109375l0 9.046875q0 1.734375 0.203125 2.84375q0.21875 1.09375 0.625 1.921875l0 0.328125l-5.671875 0q-0.421875 -0.859375 -0.625 -2.15625q-0.203125 -1.296875 -0.203125 -2.609375zm0.75 -8.109375l0.03125 3.1875l-3.140625 0q-1.109375 0 -1.9375 0.25q-0.8125 0.25 -1.34375 0.71875q-0.53125 0.453125 -0.78125 1.0625q-0.234375 0.609375 -0.234375 1.328125q0 0.71875 0.328125 1.296875q0.328125 0.578125 0.953125 0.90625q0.625 0.3125 1.46875 0.3125q1.265625 0 2.203125 -0.5q0.9375 -0.515625 1.453125 -1.25q0.53125 -0.75 0.546875 -1.40625l1.484375 2.375q-0.3125 0.796875 -0.859375 1.65625q-0.53125 0.859375 -1.359375 1.625q-0.8125 0.75 -1.96875 1.234375q-1.140625 0.46875 -2.734375 0.46875q-2.0 0 -3.640625 -0.8125q-1.625 -0.8125 -2.578125 -2.25q-0.9375 -1.4375 -0.9375 -3.265625q0 -1.65625 0.625 -2.9375q0.625 -1.296875 1.84375 -2.1875q1.21875 -0.890625 3.046875 -1.34375q1.84375 -0.46875 4.265625 -0.46875l3.265625 0zm14.875 -3.890625l0 16.765625l-5.640625 0l0 -21.140625l5.296875 0l0.34375 4.375zm-0.796875 5.453125l-1.546875 0q0 -2.203125 0.53125 -4.0625q0.546875 -1.875 1.59375 -3.25q1.046875 -1.375 2.578125 -2.140625q1.546875 -0.765625 3.578125 -0.765625q1.40625 0 2.578125 0.421875q1.171875 0.421875 2.015625 1.3125q0.859375 0.890625 1.328125 2.3125q0.46875 1.40625 0.46875 3.375l0 14.109375l-5.625 0l0 -13.484375q0 -1.4375 -0.390625 -2.21875q-0.390625 -0.78125 -1.109375 -1.09375q-0.703125 -0.3125 -1.703125 -0.3125q-1.09375 0 -1.90625 0.453125q-0.8125 0.4375 -1.34375 1.234375q-0.515625 0.796875 -0.78125 1.859375q-0.265625 1.046875 -0.265625 2.25zm12.59375 -0.640625l-2.015625 0.25q0 -2.0625 0.515625 -3.84375q0.53125 -1.78125 1.546875 -3.125q1.03125 -1.34375 2.546875 -2.09375q1.53125 -0.765625 3.515625 -0.765625q1.53125 0 2.78125 0.453125q1.25 0.4375 2.140625 1.390625q0.890625 0.9375 1.359375 2.46875q0.484375 1.515625 0.484375 3.71875l0 13.5l-5.640625 0l0 -13.5q0 -1.46875 -0.390625 -2.234375q-0.375 -0.765625 -1.09375 -1.0625q-0.703125 -0.3125 -1.6875 -0.3125q-1.015625 0 -1.78125 0.40625q-0.75 0.390625 -1.265625 1.09375q-0.5 0.703125 -0.765625 1.640625q-0.25 0.921875 -0.25 2.015625z" fill-rule="nonzero"/></g></svg>