<svg version="1.1" viewBox="0.0 0.0 960.0 540.0" fill="none" stroke="none" stroke-linecap="square" stroke-miterlimit="10" xmlns:xlink="http://www.w3.org/1999/xlink" xmlns="http://www.w3.org/2000/svg"><clipPath id="g3562a60989f_0_0.0"><path d="m0 0l960.0 0l0 540.0l-960.0 0l0 -540.0z" clip-rule="nonzero"/></clipPath><g clip-path="url(#g3562a60989f_0_0.0)"><path fill="#fcfaf7" d="m0 0l960.0 0l0 540.0l-960.0 0z" fill-rule="evenodd"/><path fill="#ffd966" d="m0 242.5853l0 0c0 -100.70717 107.81124 -182.34645 240.80315 -182.34645l0 0c132.9919 0 240.80315 81.63928 240.80315 182.34645l0 0c0 100.707184 -107.81125 182.34647 -240.80315 182.34647l0 0c-132.99191 0 -240.80315 -81.63928 -240.80315 -182.34647z" fill-rule="evenodd"/><path fill="#000000" d="m129.23639 198.03217l-10.468742 0l-1.6875 4.953125l-7.15625 0l10.15625 -28.078125l7.9218674 0l10.15625 28.078125l-7.234375 0l-1.6875 -4.953125zm-1.7499924 -5.28125l-3.484375 -10.28125l-3.4375 10.28125l6.921875 0zm12.401833 -0.921875q0 -3.484375 1.40625 -6.078125q1.421875 -2.609375 3.96875 -4.0q2.546875 -1.40625 5.8125 -1.40625q4.203125 0 7.015625 2.203125q2.828125 2.203125 3.71875 6.203125l-7.28125 0q-0.921875 -2.5625 -3.5625 -2.5625q-1.890625 0 -3.015625 1.46875q-1.109375 1.453125 -1.109375 4.171875q0 2.71875 1.109375 4.1875q1.125 1.453125 3.015625 1.453125q2.640625 0 3.5625 -2.5625l7.28125 0q-0.890625 3.921875 -3.734375 6.15625q-2.828125 2.234375 -7.0 2.234375q-3.265625 0 -5.8125 -1.390625q-2.546875 -1.40625 -3.96875 -4.0q-1.40625 -2.609375 -1.40625 -6.078125zm24.199982 0q0 -3.484375 1.40625 -6.078125q1.421875 -2.609375 3.96875 -4.0q2.546875 -1.40625 5.8125 -1.40625q4.203125 0 7.015625 2.203125q2.828125 2.203125 3.71875 6.203125l-7.28125 0q-0.921875 -2.5625 -3.5625 -2.5625q-1.890625 0 -3.015625 1.46875q-1.109375 1.453125 -1.109375 4.171875q0 2.71875 1.109375 4.1875q1.125 1.453125 3.015625 1.453125q2.640625 0 3.5625 -2.5625l7.28125 0q-0.890625 3.921875 -3.734375 6.15625q-2.828125 2.234375 -7.0 2.234375q-3.265625 0 -5.8125 -1.390625q-2.546875 -1.40625 -3.96875 -4.0q-1.40625 -2.609375 -1.40625 -6.078125zm46.590607 -0.359375q0 0.953125 -0.109375 2.0l-15.484375 0q0.15625 2.078125 1.328125 3.1875q1.1875 1.09375 2.90625 1.09375q2.5625 0 3.5625 -2.171875l7.28125 0q-0.5625 2.203125 -2.03125 3.96875q-1.453125 1.75 -3.65625 2.75q-2.1875 1.0 -4.90625 1.0q-3.28125 0 -5.84375 -1.390625q-2.5625 -1.40625 -4.0 -4.0q-1.4375 -2.609375 -1.4375 -6.078125q0 -3.484375 1.40625 -6.078125q1.421875 -2.609375 3.984375 -4.0q2.5625 -1.40625 5.890625 -1.40625q3.234375 0 5.75 1.359375q2.53125 1.359375 3.9375 3.890625q1.421875 2.515625 1.421875 5.875zm-7.0 -1.796875q0 -1.765625 -1.203125 -2.796875q-1.1875 -1.046875 -3.0 -1.046875q-1.71875 0 -2.90625 1.0q-1.171875 1.0 -1.453125 2.84375l8.5625 0zm19.68686 13.625q-2.921875 0 -5.203125 -1.0q-2.28125 -1.0 -3.609375 -2.734375q-1.3125 -1.734375 -1.46875 -3.890625l6.765625 0q0.109375 1.15625 1.0625 1.875q0.96875 0.71875 2.375 0.71875q1.28125 0 1.96875 -0.5q0.703125 -0.5 0.703125 -1.296875q0 -0.96875 -1.0 -1.421875q-1.0 -0.46875 -3.234375 -1.015625q-2.40625 -0.5625 -4.015625 -1.1875q-1.59375 -0.625 -2.75 -1.953125q-1.15625 -1.34375 -1.15625 -3.625q0 -1.921875 1.0625 -3.5q1.0625 -1.578125 3.109375 -2.5q2.0625 -0.921875 4.90625 -0.921875q4.203125 0 6.625 2.078125q2.421875 2.078125 2.78125 5.515625l-6.328125 0q-0.15625 -1.15625 -1.015625 -1.828125q-0.859375 -0.6875 -2.265625 -0.6875q-1.1875 0 -1.828125 0.46875q-0.640625 0.453125 -0.640625 1.25q0 0.96875 1.015625 1.453125q1.015625 0.46875 3.171875 0.953125q2.484375 0.640625 4.046875 1.265625q1.5625 0.609375 2.734375 2.0q1.1875 1.375 1.21875 3.6875q0 1.96875 -1.09375 3.515625q-1.09375 1.53125 -3.15625 2.40625q-2.0625 0.875 -4.78125 0.875zm22.319977 0q-2.921875 0 -5.203125 -1.0q-2.28125 -1.0 -3.609375 -2.734375q-1.3125 -1.734375 -1.46875 -3.890625l6.765625 0q0.109375 1.15625 1.0625 1.875q0.96875 0.71875 2.375 0.71875q1.28125 0 1.96875 -0.5q0.703125 -0.5 0.703125 -1.296875q0 -0.96875 -1.0 -1.421875q-1.0 -0.46875 -3.234375 -1.015625q-2.40625 -0.5625 -4.015625 -1.1875q-1.59375 -0.625 -2.75 -1.953125q-1.15625 -1.34375 -1.15625 -3.625q0 -1.921875 1.0625 -3.5q1.0625 -1.578125 3.109375 -2.5q2.0625 -0.921875 4.90625 -0.921875q4.203125 0 6.625 2.078125q2.421875 2.078125 2.78125 5.515625l-6.328125 0q-0.15625 -1.15625 -1.015625 -1.828125q-0.859375 -0.6875 -2.265625 -0.6875q-1.1875 0 -1.828125 0.46875q-0.640625 0.453125 -0.640625 1.25q0 0.96875 1.015625 1.453125q1.015625 0.46875 3.171875 0.953125q2.484375 0.640625 4.046875 1.265625q1.5625 0.609375 2.734375 2.0q1.1875 1.375 1.21875 3.6875q0 1.96875 -1.09375 3.515625q-1.09375 1.53125 -3.15625 2.40625q-2.0625 0.875 -4.78125 0.875zm16.679367 -24.953125q-1.796875 0 -2.9375 -1.0625q-1.140625 -1.0625 -1.140625 -2.609375q0 -1.609375 1.140625 -2.671875q1.140625 -1.0625 2.9375 -1.0625q1.765625 0 2.890625 1.0625q1.140625 1.0625 1.140625 2.671875q0 1.546875 -1.140625 2.609375q-1.125 1.0625 -2.890625 1.0625zm3.390625 2.328125l0 22.3125l-6.828125 0l0 -22.3125l6.828125 0zm11.799988 3.15625q0.96875 -1.5625 2.765625 -2.515625q1.796875 -0.96875 4.125 -0.96875q2.75 0 4.984375 1.40625q2.25 1.390625 3.546875 4.0q1.3125 2.59375 1.3125 6.03125q0 3.4375 -1.3125 6.0625q-1.296875 2.625 -3.546875 4.046875q-2.234375 1.40625 -4.984375 1.40625q-2.359375 0 -4.125 -0.9375q-1.765625 -0.9375 -2.765625 -2.5l0 3.125l-6.828125 0l0 -29.59375l6.828125 0l0 10.4375zm9.765625 7.953125q0 -2.5625 -1.421875 -4.015625q-1.421875 -1.46875 -3.5 -1.46875q-2.03125 0 -3.453125 1.484375q-1.421875 1.484375 -1.421875 4.046875q0 2.5625 1.421875 4.046875q1.421875 1.46875 3.453125 1.46875q2.046875 0 3.484375 -1.5q1.4375 -1.5 1.4375 -4.0625zm14.003723 -13.4375q-1.796875 0 -2.9375 -1.0625q-1.140625 -1.0625 -1.140625 -2.609375q0 -1.609375 1.140625 -2.671875q1.140625 -1.0625 2.9375 -1.0625q1.765625 0 2.890625 1.0625q1.140625 1.0625 1.140625 2.671875q0 1.546875 -1.140625 2.609375q-1.125 1.0625 -2.890625 1.0625zm3.390625 2.328125l0 22.3125l-6.828125 0l0 -22.3125l6.828125 0zm11.799988 -7.28125l0 29.59375l-6.828125 0l0 -29.59375l6.828125 0zm8.409363 4.953125q-1.796875 0 -2.9375 -1.0625q-1.140625 -1.0625 -1.140625 -2.609375q0 -1.609375 1.140625 -2.671875q1.140625 -1.0625 2.9375 -1.0625q1.7655945 0 2.8905945 1.0625q1.140625 1.0625 1.140625 2.671875q0 1.546875 -1.140625 2.609375q-1.125 1.0625 -2.8905945 1.0625zm3.3905945 2.328125l0 22.3125l-6.8280945 0l0 -22.3125l6.8280945 0zm17.409363 16.515625l0 5.796875l-3.484375 0q-3.71875 0 -5.796875 -1.8125q-2.078125 -1.828125 -2.078125 -5.953125l0 -8.875l-2.71875 0l0 -5.671875l2.71875 0l0 -5.453125l6.84375 0l0 5.453125l4.46875 0l0 5.671875l-4.46875 0l0 8.953125q0 1.0 0.46875 1.453125q0.484375 0.4375 1.609375 0.4375l2.4375 0zm26.599365 -16.515625l-14.0 32.90625l-7.359375 0l5.125 -11.359375l-9.09375 -21.546875l7.640625 0l5.171875 13.953125l5.109375 -13.953125l7.40625 0z" fill-rule="nonzero"/><path fill="#000000" d="m93.8975 224.10718l0 1.84375l-7.625 0l0 -1.84375l7.625 0zm-5.046875 -3.421875l2.421875 0l0 14.015625q0 0.71875 0.21875 1.078125q0.21875 0.359375 0.5625 0.484375q0.359375 0.109375 0.765625 0.109375q0.296875 0 0.625 -0.046875q0.328125 -0.0625 0.5 -0.109375l0.015625 1.96875q-0.28125 0.09375 -0.75 0.171875q-0.453125 0.09375 -1.109375 0.09375q-0.890625 0 -1.640625 -0.34375q-0.734375 -0.359375 -1.171875 -1.1875q-0.4375 -0.828125 -0.4375 -2.234375l0 -14.0zm6.975754 10.609375l0 -0.296875q0 -1.515625 0.4375 -2.828125q0.4375 -1.3125 1.265625 -2.28125q0.84375 -0.96875 2.03125 -1.5q1.1875 -0.546875 2.65625 -0.546875q1.484375 0 2.671875 0.546875q1.1875 0.53125 2.03125 1.5q0.84375 0.96875 1.28125 2.28125q0.4375 1.3125 0.4375 2.828125l0 0.296875q0 1.53125 -0.4375 2.828125q-0.4375 1.296875 -1.28125 2.28125q-0.84375 0.96875 -2.03125 1.515625q-1.171875 0.53125 -2.65625 0.53125q-1.484375 0 -2.671875 -0.53125q-1.171875 -0.546875 -2.015625 -1.515625q-0.84375 -0.984375 -1.28125 -2.28125q-0.4375 -1.296875 -0.4375 -2.828125zm2.40625 -0.296875l0 0.296875q0 1.0625 0.234375 2.0q0.25 0.921875 0.75 1.640625q0.515625 0.71875 1.265625 1.125q0.75 0.40625 1.75 0.40625q1.0 0 1.734375 -0.40625q0.75 -0.40625 1.25 -1.125q0.5 -0.71875 0.75 -1.640625q0.25 -0.9375 0.25 -2.0l0 -0.296875q0 -1.03125 -0.25 -1.96875q-0.25 -0.9375 -0.75 -1.65625q-0.5 -0.71875 -1.25 -1.125q-0.75 -0.421875 -1.75 -0.421875q-1.0 0 -1.75 0.421875q-0.734375 0.40625 -1.25 1.125q-0.5 0.71875 -0.75 1.65625q-0.234375 0.9375 -0.234375 1.96875zm22.658142 -6.890625l0 14.078125l-2.421875 0l0 -14.078125l2.421875 0zm-2.609375 -3.734375q0 -0.59375 0.359375 -1.0q0.359375 -0.40625 1.0625 -0.40625q0.6875 0 1.0625 0.40625q0.375 0.40625 0.375 1.0q0 0.546875 -0.375 0.953125q-0.375 0.390625 -1.0625 0.390625q-0.703125 0 -1.0625 -0.390625q-0.359375 -0.40625 -0.359375 -0.953125zm8.888092 6.734375l0 11.078125l-2.421875 0l0 -14.078125l2.28125 0l0.140625 3.0zm-0.578125 3.5l-1.0 -0.03125q0.015625 -1.453125 0.421875 -2.671875q0.421875 -1.234375 1.171875 -2.140625q0.765625 -0.921875 1.8124924 -1.421875q1.046875 -0.5 2.3125 -0.5q1.046875 0 1.875 0.28125q0.84375 0.28125 1.421875 0.890625q0.59375 0.609375 0.90625 1.578125q0.3125 0.96875 0.3125 2.359375l0 9.234375l-2.421875 0l0 -9.25q0 -1.109375 -0.328125 -1.78125q-0.3125 -0.671875 -0.9375 -0.96875q-0.625 -0.3125 -1.546875 -0.3125q-0.890625 0 -1.625 0.375q-0.734375 0.375 -1.2656174 1.046875q-0.53125 0.65625 -0.828125 1.515625q-0.28125 0.84375 -0.28125 1.796875zm18.517677 5.859375q0.859375 0 1.578125 -0.34375q0.734375 -0.359375 1.203125 -0.96875q0.46875 -0.625 0.546875 -1.421875l2.28125 0q-0.0625 1.25 -0.84375 2.328125q-0.765625 1.078125 -2.015625 1.734375q-1.25 0.65625 -2.75 0.65625q-1.578125 0 -2.765625 -0.5625q-1.171875 -0.5625 -1.953125 -1.53125q-0.765625 -0.984375 -1.15625 -2.25q-0.390625 -1.265625 -0.390625 -2.6875l0 -0.546875q0 -1.421875 0.390625 -2.6875q0.390625 -1.265625 1.15625 -2.234375q0.78125 -0.984375 1.953125 -1.546875q1.1875 -0.5625 2.765625 -0.5625q1.65625 0 2.890625 0.671875q1.234375 0.671875 1.9375 1.828125q0.71875 1.140625 0.78125 2.609375l-2.28125 0q-0.078125 -0.875 -0.5 -1.578125q-0.421875 -0.703125 -1.140625 -1.125q-0.71875 -0.421875 -1.6875 -0.421875q-1.109375 0 -1.859375 0.4375q-0.734375 0.421875 -1.171875 1.171875q-0.4375 0.734375 -0.625 1.625q-0.1875 0.890625 -0.1875 1.8125l0 0.546875q0 0.921875 0.171875 1.828125q0.1875 0.890625 0.625 1.625q0.4375 0.71875 1.1875 1.15625q0.75 0.4375 1.859375 0.4375zm10.937256 -18.28125l0 20.0l-2.421875 0l0 -20.0l2.421875 0zm12.481842 16.75l0 -10.828125l2.421875 0l0 14.078125l-2.3125 0l-0.109375 -3.25zm0.453125 -2.96875l1.0 -0.03125q0 1.40625 -0.296875 2.609375q-0.28125 1.1875 -0.9375 2.0625q-0.65625 0.859375 -1.71875 1.359375q-1.046875 0.484375 -2.546875 0.484375q-1.03125 0 -1.890625 -0.296875q-0.84375 -0.3125 -1.453125 -0.9375q-0.609375 -0.625 -0.953125 -1.625q-0.328125 -1.0 -0.328125 -2.40625l0 -9.078125l2.40625 0l0 9.109375q0 0.953125 0.21875 1.578125q0.21875 0.609375 0.578125 0.96875q0.375 0.359375 0.828125 0.5q0.46875 0.140625 0.96875 0.140625q1.53125 0 2.421875 -0.59375q0.90625 -0.59375 1.296875 -1.59375q0.40625 -1.015625 0.40625 -2.25zm14.507278 3.484375l0 -17.265625l2.421875 0l0 20.0l-2.21875 0l-0.203125 -2.734375zm-9.484375 -4.15625l0 -0.265625q0 -1.609375 0.390625 -2.9375q0.40625 -1.328125 1.140625 -2.265625q0.734375 -0.953125 1.75 -1.46875q1.03125 -0.515625 2.296875 -0.515625q1.328125 0 2.3125 0.46875q1.0 0.453125 1.6875 1.34375q0.703125 0.875 1.109375 2.109375q0.40625 1.234375 0.5625 2.796875l0 1.1875q-0.140625 1.5625 -0.5625 2.796875q-0.40625 1.234375 -1.109375 2.109375q-0.6875 0.875 -1.6875 1.34375q-1.0 0.453125 -2.34375 0.453125q-1.234375 0 -2.265625 -0.53125q-1.015625 -0.546875 -1.75 -1.5q-0.734375 -0.96875 -1.140625 -2.265625q-0.390625 -1.3125 -0.390625 -2.859375zm2.421875 -0.265625l0 0.265625q0 1.0625 0.21875 1.984375q0.21875 0.921875 0.671875 1.625q0.453125 0.703125 1.15625 1.109375q0.703125 0.390625 1.671875 0.390625q1.203125 0 1.96875 -0.5q0.78125 -0.515625 1.25 -1.34375q0.46875 -0.84375 0.734375 -1.8125l0 -3.140625q-0.15625 -0.71875 -0.453125 -1.390625q-0.296875 -0.671875 -0.765625 -1.1875q-0.453125 -0.53125 -1.125 -0.84375q-0.671875 -0.3125 -1.578125 -0.3125q-0.984375 0 -1.703125 0.40625q-0.703125 0.40625 -1.15625 1.125q-0.453125 0.703125 -0.671875 1.640625q-0.21875 0.921875 -0.21875 1.984375zm19.048813 7.421875q-1.46875 0 -2.65625 -0.5q-1.1875 -0.5 -2.046875 -1.40625q-0.84375 -0.921875 -1.3125 -2.171875q-0.453125 -1.25 -0.453125 -2.734375l0 -0.546875q0 -1.71875 0.5 -3.0625q0.515625 -1.34375 1.390625 -2.28125q0.875 -0.9375 1.984375 -1.421875q1.109375 -0.484375 2.28125 -0.484375q1.515625 0 2.609375 0.53125q1.109375 0.515625 1.8125 1.453125q0.703125 0.921875 1.03125 2.1875q0.34375 1.25 0.34375 2.734375l0 1.078125l-10.515625 0l0 -1.96875l8.109375 0l0 -0.1875q-0.046875 -0.9375 -0.390625 -1.8125q-0.328125 -0.890625 -1.046875 -1.453125q-0.703125 -0.578125 -1.953125 -0.578125q-0.8125 0 -1.5 0.34375q-0.6875 0.34375 -1.1875 1.015625q-0.5 0.671875 -0.78125 1.65625q-0.265625 0.96875 -0.265625 2.25l0 0.546875q0 1.0 0.28125 1.890625q0.28125 0.875 0.8125 1.546875q0.546875 0.65625 1.3125 1.03125q0.78125 0.375 1.78125 0.375q1.265625 0 2.15625 -0.515625q0.890625 -0.53125 1.546875 -1.40625l1.46875 1.171875q-0.46875 0.6875 -1.171875 1.3125q-0.703125 0.625 -1.71875 1.015625q-1.015625 0.390625 -2.421875 0.390625zm23.793976 -3.0l0 -17.265625l2.421875 0l0 20.0l-2.21875 0l-0.203125 -2.734375zm-9.484375 -4.15625l0 -0.265625q0 -1.609375 0.390625 -2.9375q0.40625 -1.328125 1.140625 -2.265625q0.734375 -0.953125 1.75 -1.46875q1.03125 -0.515625 2.296875 -0.515625q1.328125 0 2.3125 0.46875q1.0 0.453125 1.6875 1.34375q0.703125 0.875 1.109375 2.109375q0.40625 1.234375 0.5625 2.796875l0 1.1875q-0.140625 1.5625 -0.5625 2.796875q-0.40625 1.234375 -1.109375 2.109375q-0.6875 0.875 -1.6875 1.34375q-1.0 0.453125 -2.34375 0.453125q-1.234375 0 -2.265625 -0.53125q-1.015625 -0.546875 -1.75 -1.5q-0.734375 -0.96875 -1.140625 -2.265625q-0.390625 -1.3125 -0.390625 -2.859375zm2.421875 -0.265625l0 0.265625q0 1.0625 0.21875 1.984375q0.21875 0.921875 0.671875 1.625q0.453125 0.703125 1.15625 1.109375q0.703125 0.390625 1.671875 0.390625q1.203125 0 1.96875 -0.5q0.78125 -0.515625 1.25 -1.34375q0.46875 -0.84375 0.734375 -1.8125l0 -3.140625q-0.15625 -0.71875 -0.453125 -1.390625q-0.296875 -0.671875 -0.765625 -1.1875q-0.453125 -0.53125 -1.125 -0.84375q-0.671875 -0.3125 -1.578125 -0.3125q-0.984375 0 -1.703125 0.40625q-0.703125 0.40625 -1.15625 1.125q-0.453125 0.703125 -0.671875 1.640625q-0.21875 0.921875 -0.21875 1.984375zm15.830063 -6.921875l0 14.078125l-2.421875 0l0 -14.078125l2.421875 0zm-2.609375 -3.734375q0 -0.59375 0.359375 -1.0q0.359375 -0.40625 1.0625 -0.40625q0.6875 0 1.0625 0.40625q0.375 0.40625 0.375 1.0q0 0.546875 -0.375 0.953125q-0.375 0.390625 -1.0625 0.390625q-0.703125 0 -1.0625 -0.390625q-0.359375 -0.40625 -0.359375 -0.953125zm14.669342 14.078125q0 -0.515625 -0.234375 -0.96875q-0.21875 -0.453125 -0.921875 -0.8125q-0.6875 -0.375 -2.078125 -0.65625q-1.171875 -0.25 -2.125 -0.578125q-0.9375 -0.34375 -1.59375 -0.828125q-0.65625 -0.484375 -1.015625 -1.125q-0.34375 -0.65625 -0.34375 -1.53125q0 -0.828125 0.359375 -1.5625q0.375 -0.75 1.0625 -1.3125q0.6875 -0.578125 1.640625 -0.90625q0.96875 -0.328125 2.15625 -0.328125q1.6875 0 2.890625 0.609375q1.203125 0.59375 1.828125 1.59375q0.640625 0.984375 0.640625 2.203125l-2.40625 0q0 -0.59375 -0.34375 -1.140625q-0.34375 -0.5625 -1.0 -0.921875q-0.65625 -0.359375 -1.609375 -0.359375q-1.0 0 -1.625 0.3125q-0.609375 0.296875 -0.890625 0.765625q-0.28125 0.46875 -0.28125 0.984375q0 0.390625 0.125 0.703125q0.140625 0.296875 0.484375 0.5625q0.359375 0.25 1.0 0.46875q0.640625 0.21875 1.625 0.4375q1.734375 0.390625 2.84375 0.9375q1.125 0.546875 1.671875 1.34375q0.546875 0.796875 0.546875 1.921875q0 0.921875 -0.390625 1.703125q-0.375 0.765625 -1.09375 1.328125q-0.71875 0.546875 -1.71875 0.859375q-1.0 0.296875 -2.234375 0.296875q-1.859375 0 -3.15625 -0.65625q-1.28125 -0.671875 -1.953125 -1.71875q-0.65625 -1.0625 -0.65625 -2.234375l2.421875 0q0.046875 0.984375 0.5625 1.5625q0.53125 0.578125 1.28125 0.828125q0.765625 0.234375 1.5 0.234375q0.984375 0 1.65625 -0.25q0.671875 -0.265625 1.015625 -0.71875q0.359375 -0.46875 0.359375 -1.046875zm13.86702 1.328125l0 -7.25q0 -0.828125 -0.34375 -1.453125q-0.328125 -0.625 -1.0 -0.953125q-0.65625 -0.34375 -1.625 -0.34375q-0.90625 0 -1.59375 0.3125q-0.6875 0.3125 -1.078125 0.828125q-0.375 0.5 -0.375 1.09375l-2.40625 0q0 -0.765625 0.390625 -1.5q0.390625 -0.75 1.125 -1.34375q0.734375 -0.609375 1.765625 -0.96875q1.046875 -0.359375 2.3125 -0.359375q1.53125 0 2.703125 0.53125q1.1875 0.515625 1.859375 1.5625q0.671875 1.046875 0.671875 2.625l0 6.546875q0 0.703125 0.125 1.5q0.125 0.796875 0.375 1.375l0 0.203125l-2.515625 0q-0.1875 -0.421875 -0.296875 -1.109375q-0.09375 -0.703125 -0.09375 -1.296875zm0.421875 -6.125l0.015625 1.6875l-2.4375 0q-1.015625 0 -1.828125 0.171875q-0.8125 0.15625 -1.359375 0.484375q-0.546875 0.3125 -0.828125 0.8125q-0.28125 0.484375 -0.28125 1.125q0 0.671875 0.296875 1.21875q0.296875 0.546875 0.90625 0.875q0.609375 0.3125 1.484375 0.3125q1.109375 0 1.953125 -0.46875q0.84375 -0.46875 1.34375 -1.140625q0.5 -0.6875 0.546875 -1.328125l1.03125 1.15625q-0.09375 0.546875 -0.5 1.21875q-0.40625 0.65625 -1.078125 1.265625q-0.671875 0.609375 -1.59375 1.015625q-0.90625 0.390625 -2.046875 0.390625q-1.4375 0 -2.515625 -0.5625q-1.0625 -0.5625 -1.65625 -1.5q-0.59375 -0.953125 -0.59375 -2.125q0 -1.125 0.4375 -1.984375q0.4375 -0.875 1.265625 -1.453125q0.84375 -0.578125 2.015625 -0.875q1.171875 -0.296875 2.609375 -0.296875l2.8125 0zm5.765167 -11.46875l2.421875 0l0 17.265625l-0.21875 2.734375l-2.203125 0l0 -20.0zm11.921875 12.84375l0 0.265625q0 1.546875 -0.359375 2.859375q-0.359375 1.296875 -1.0625 2.265625q-0.703125 0.953125 -1.71875 1.5q-1.015625 0.53125 -2.328125 0.53125q-1.34375 0 -2.359375 -0.453125q-1.0 -0.46875 -1.6875 -1.34375q-0.6875 -0.875 -1.109375 -2.109375q-0.40625 -1.234375 -0.5625 -2.796875l0 -1.1875q0.15625 -1.5625 0.5625 -2.796875q0.421875 -1.234375 1.109375 -2.109375q0.6875 -0.890625 1.6875 -1.34375q1.0 -0.46875 2.328125 -0.46875q1.328125 0 2.359375 0.515625q1.03125 0.515625 1.71875 1.46875q0.703125 0.9375 1.0625 2.265625q0.359375 1.328125 0.359375 2.9375zm-2.40625 0.265625l0 -0.265625q0 -1.0625 -0.203125 -1.984375q-0.1875 -0.9375 -0.625 -1.640625q-0.421875 -0.71875 -1.125 -1.125q-0.703125 -0.40625 -1.734375 -0.40625q-0.921875 0 -1.59375 0.3125q-0.65625 0.3125 -1.125 0.84375q-0.46875 0.515625 -0.765625 1.1875q-0.296875 0.671875 -0.4375 1.390625l0 3.140625q0.203125 0.90625 0.671875 1.75q0.484375 0.84375 1.28125 1.375q0.8125 0.53125 1.984375 0.53125q0.984375 0 1.671875 -0.390625q0.703125 -0.40625 1.140625 -1.109375q0.4375 -0.703125 0.640625 -1.625q0.21875 -0.921875 0.21875 -1.984375zm8.077484 -13.109375l0 20.0l-2.421875 0l0 -20.0l2.421875 0zm9.700592 20.265625q-1.46875 0 -2.65625 -0.5q-1.1875 -0.5 -2.046875 -1.40625q-0.84375 -0.921875 -1.3125 -2.171875q-0.453125 -1.25 -0.453125 -2.734375l0 -0.546875q0 -1.71875 0.5 -3.0625q0.515625 -1.34375 1.390625 -2.28125q0.875 -0.9375 1.984375 -1.421875q1.109375 -0.484375 2.28125 -0.484375q1.515625 0 2.609375 0.53125q1.109375 0.515625 1.8125 1.453125q0.703125 0.921875 1.03125 2.1875q0.34375 1.25 0.34375 2.734375l0 1.078125l-10.515625 0l0 -1.96875l8.109375 0l0 -0.1875q-0.046875 -0.9375 -0.390625 -1.8125q-0.328125 -0.890625 -1.046875 -1.453125q-0.703125 -0.578125 -1.953125 -0.578125q-0.8125 0 -1.5 0.34375q-0.6875 0.34375 -1.1875 1.015625q-0.5 0.671875 -0.78125 1.65625q-0.265625 0.96875 -0.265625 2.25l0 0.546875q0 1.0 0.28125 1.890625q0.28125 0.875 0.8125 1.546875q0.546875 0.65625 1.3125 1.03125q0.78125 0.375 1.78125 0.375q1.265625 0 2.15625 -0.515625q0.890625 -0.53125 1.546875 -1.40625l1.46875 1.171875q-0.46875 0.6875 -1.171875 1.3125q-0.703125 0.625 -1.71875 1.015625q-1.015625 0.390625 -2.421875 0.390625zm17.181976 -3.0l0 -17.265625l2.421875 0l0 20.0l-2.21875 0l-0.203125 -2.734375zm-9.484375 -4.15625l0 -0.265625q0 -1.609375 0.390625 -2.9375q0.40625 -1.328125 1.140625 -2.265625q0.734375 -0.953125 1.75 -1.46875q1.03125 -0.515625 2.296875 -0.515625q1.328125 0 2.3125 0.46875q1.0 0.453125 1.6875 1.34375q0.703125 0.875 1.109375 2.109375q0.40625 1.234375 0.5625 2.796875l0 1.1875q-0.140625 1.5625 -0.5625 2.796875q-0.40625 1.234375 -1.109375 2.109375q-0.6875 0.875 -1.6875 1.34375q-1.0 0.453125 -2.34375 0.453125q-1.234375 0 -2.265625 -0.53125q-1.015625 -0.546875 -1.75 -1.5q-0.734375 -0.96875 -1.140625 -2.265625q-0.390625 -1.3125 -0.390625 -2.859375zm2.421875 -0.265625l0 0.265625q0 1.0625 0.21875 1.984375q0.21875 0.921875 0.671875 1.625q0.453125 0.703125 1.15625 1.109375q0.703125 0.390625 1.671875 0.390625q1.203125 0 1.96875 -0.5q0.78125 -0.515625 1.25 -1.34375q0.46875 -0.84375 0.734375 -1.8125l0 -3.140625q-0.15625 -0.71875 -0.453125 -1.390625q-0.296875 -0.671875 -0.765625 -1.1875q-0.453125 -0.53125 -1.125 -0.84375q-0.671875 -0.3125 -1.578125 -0.3125q-0.984375 0 -1.703125 0.40625q-0.703125 0.40625 -1.15625 1.125q-0.453125 0.703125 -0.671875 1.640625q-0.21875 0.921875 -0.21875 1.984375zm22.238953 -4.21875l0 16.796875l-2.421875 0l0 -19.5l2.203125 0l0.21875 2.703125zm9.484375 4.21875l0 0.265625q0 1.546875 -0.375 2.859375q-0.359375 1.296875 -1.0625 2.265625q-0.6875 0.953125 -1.703125 1.5q-1.015625 0.53125 -2.328125 0.53125q-1.34375 0 -2.375 -0.4375q-1.015625 -0.453125 -1.734375 -1.296875q-0.71875 -0.84375 -1.140625 -2.03125q-0.421875 -1.1875 -0.578125 -2.671875l0 -1.453125q0.15625 -1.5625 0.578125 -2.796875q0.4375 -1.234375 1.140625 -2.109375q0.71875 -0.890625 1.71875 -1.34375q1.015625 -0.46875 2.34375 -0.46875q1.328125 0 2.359375 0.515625q1.03125 0.515625 1.734375 1.46875q0.703125 0.9375 1.0625 2.265625q0.359375 1.328125 0.359375 2.9375zm-2.421875 0.265625l0 -0.265625q0 -1.0625 -0.21875 -1.984375q-0.21875 -0.9375 -0.6875 -1.640625q-0.46875 -0.71875 -1.1875 -1.125q-0.703125 -0.40625 -1.703125 -0.40625q-0.90625 0 -1.578125 0.3125q-0.671875 0.3125 -1.140625 0.84375q-0.46875 0.515625 -0.765625 1.1875q-0.28125 0.671875 -0.421875 1.390625l0 3.375q0.25 0.90625 0.71875 1.71875q0.46875 0.796875 1.25 1.28125q0.78125 0.484375 1.96875 0.484375q0.984375 0 1.6875 -0.40625q0.703125 -0.40625 1.171875 -1.125q0.46875 -0.71875 0.6875 -1.640625q0.21875 -0.9375 0.21875 -2.0zm11.327454 7.15625q-1.46875 0 -2.65625 -0.5q-1.1875 -0.5 -2.046875 -1.40625q-0.84375 -0.921875 -1.3125 -2.171875q-0.453125 -1.25 -0.453125 -2.734375l0 -0.546875q0 -1.71875 0.5 -3.0625q0.515625 -1.34375 1.390625 -2.28125q0.875 -0.9375 1.984375 -1.421875q1.109375 -0.484375 2.28125 -0.484375q1.515625 0 2.609375 0.53125q1.109375 0.515625 1.8125 1.453125q0.703125 0.921875 1.03125 2.1875q0.34375 1.25 0.34375 2.734375l0 1.078125l-10.515625 0l0 -1.96875l8.109375 0l0 -0.1875q-0.046875 -0.9375 -0.390625 -1.8125q-0.328125 -0.890625 -1.046875 -1.453125q-0.703125 -0.578125 -1.953125 -0.578125q-0.8125 0 -1.5 0.34375q-0.6875 0.34375 -1.1875 1.015625q-0.5 0.671875 -0.78125 1.65625q-0.265625 0.96875 -0.265625 2.25l0 0.546875q0 1.0 0.28125 1.890625q0.28125 0.875 0.8125 1.546875q0.546875 0.65625 1.3125 1.03125q0.78125 0.375 1.78125 0.375q1.265625 0 2.15625 -0.515625q0.890625 -0.53125 1.546875 -1.40625l1.46875 1.171875q-0.46875 0.6875 -1.171875 1.3125q-0.703125 0.625 -1.71875 1.015625q-1.015625 0.390625 -2.421875 0.390625zm7.6663513 -7.15625l0 -0.296875q0 -1.515625 0.4375 -2.828125q0.4375 -1.3125 1.265625 -2.28125q0.84375 -0.96875 2.03125 -1.5q1.1875 -0.546875 2.65625 -0.546875q1.484375 0 2.671875 0.546875q1.1875 0.53125 2.03125 1.5q0.84375 0.96875 1.28125 2.28125q0.4375 1.3125 0.4375 2.828125l0 0.296875q0 1.53125 -0.4375 2.828125q-0.4375 1.296875 -1.28125 2.28125q-0.84375 0.96875 -2.03125 1.515625q-1.171875 0.53125 -2.65625 0.53125q-1.484375 0 -2.671875 -0.53125q-1.171875 -0.546875 -2.015625 -1.515625q-0.84375 -0.984375 -1.28125 -2.28125q-0.4375 -1.296875 -0.4375 -2.828125zm2.40625 -0.296875l0 0.296875q0 1.0625 0.234375 2.0q0.25 0.921875 0.75 1.640625q0.515625 0.71875 1.265625 1.125q0.75 0.40625 1.75 0.40625q1.0 0 1.734375 -0.40625q0.75 -0.40625 1.25 -1.125q0.5 -0.71875 0.75 -1.640625q0.25 -0.9375 0.25 -2.0l0 -0.296875q0 -1.03125 -0.25 -1.96875q-0.25 -0.9375 -0.75 -1.65625q-0.5 -0.71875 -1.25 -1.125q-0.75 -0.421875 -1.75 -0.421875q-1.0 0 -1.75 0.421875q-0.734375 0.40625 -1.25 1.125q-0.5 0.71875 -0.75 1.65625q-0.234375 0.9375 -0.234375 1.96875zm15.843018 -4.1875l0 16.796875l-2.421875 0l0 -19.5l2.203125 0l0.21875 2.703125zm9.484375 4.21875l0 0.265625q0 1.546875 -0.375 2.859375q-0.359375 1.296875 -1.0625 2.265625q-0.6875 0.953125 -1.703125 1.5q-1.015625 0.53125 -2.328125 0.53125q-1.34375 0 -2.375 -0.4375q-1.015625 -0.453125 -1.734375 -1.296875q-0.71875 -0.84375 -1.140625 -2.03125q-0.421875 -1.1875 -0.578125 -2.671875l0 -1.453125q0.15625 -1.5625 0.578125 -2.796875q0.4375 -1.234375 1.140625 -2.109375q0.71875 -0.890625 1.71875 -1.34375q1.015625 -0.46875 2.34375 -0.46875q1.328125 0 2.359375 0.515625q1.03125 0.515625 1.734375 1.46875q0.703125 0.9375 1.0625 2.265625q0.359375 1.328125 0.359375 2.9375zm-2.421875 0.265625l0 -0.265625q0 -1.0625 -0.21875 -1.984375q-0.21875 -0.9375 -0.6875 -1.640625q-0.46875 -0.71875 -1.1875 -1.125q-0.703125 -0.40625 -1.703125 -0.40625q-0.90625 0 -1.578125 0.3125q-0.671875 0.3125 -1.140625 0.84375q-0.46875 0.515625 -0.765625 1.1875q-0.28125 0.671875 -0.421875 1.390625l0 3.375q0.25 0.90625 0.71875 1.71875q0.46875 0.796875 1.25 1.28125q0.78125 0.484375 1.96875 0.484375q0.984375 0 1.6875 -0.40625q0.703125 -0.40625 1.171875 -1.125q0.46875 -0.71875 0.6875 -1.640625q0.21875 -0.9375 0.21875 -2.0zm8.108734 -13.109375l0 20.0l-2.421875 0l0 -20.0l2.421875 0zm9.700592 20.265625q-1.46875 0 -2.65625 -0.5q-1.1875 -0.5 -2.046875 -1.40625q-0.84375 -0.921875 -1.3125 -2.171875q-0.453125 -1.25 -0.453125 -2.734375l0 -0.546875q0 -1.71875 0.5 -3.0625q0.515625 -1.34375 1.390625 -2.28125q0.875 -0.9375 1.984375 -1.421875q1.109375 -0.484375 2.28125 -0.484375q1.515625 0 2.609375 0.53125q1.109375 0.515625 1.8125 1.453125q0.703125 0.921875 1.03125 2.1875q0.34375 1.25 0.34375 2.734375l0 1.078125l-10.515625 0l0 -1.96875l8.109375 0l0 -0.1875q-0.046875 -0.9375 -0.390625 -1.8125q-0.328125 -0.890625 -1.046875 -1.453125q-0.703125 -0.578125 -1.953125 -0.578125q-0.8125 0 -1.5 0.34375q-0.6875 0.34375 -1.1875 1.015625q-0.5 0.671875 -0.78125 1.65625q-0.265625 0.96875 -0.265625 2.25l0 0.546875q0 1.0 0.28125 1.890625q0.28125 0.875 0.8125 1.546875q0.546875 0.65625 1.3125 1.03125q0.78125 0.375 1.78125 0.375q1.265625 0 2.15625 -0.515625q0.890625 -0.53125 1.546875 -1.40625l1.46875 1.171875q-0.46875 0.6875 -1.171875 1.3125q-0.703125 0.625 -1.71875 1.015625q-1.015625 0.390625 -2.421875 0.390625z" fill-rule="nonzero"/><path fill="#ff9900" d="m150.37737 386.53723l0 0c0 -58.620453 92.14473 -106.14172 205.81102 -106.14172l0 0c113.66629 0 205.811 47.52127 205.811 106.14172l0 0c0 58.620483 -92.144714 106.141754 -205.811 106.141754l0 0c-113.66629 0 -205.81102 -47.52127 -205.81102 -106.141754z" fill-rule="evenodd"/><path fill="#000000" d="m247.67297 398.81726l-5.921875 0l-9.90625 -15.0l0 15.0l-5.921875 0l0 -24.328125l5.921875 0l9.90625 15.078125l0 -15.078125l5.921875 0l0 24.328125zm22.530273 -9.984375q0 0.828125 -0.09375 1.734375l-13.421875 0q0.140625 1.796875 1.15625 2.75q1.03125 0.953125 2.515625 0.953125q2.21875 0 3.09375 -1.859375l6.296875 0q-0.484375 1.90625 -1.75 3.4375q-1.265625 1.515625 -3.171875 2.390625q-1.90625 0.859375 -4.25 0.859375q-2.84375 0 -5.0625 -1.21875q-2.21875 -1.21875 -3.46875 -3.46875q-1.25 -2.25 -1.25 -5.265625q0 -3.015625 1.234375 -5.265625q1.234375 -2.25 3.4375 -3.453125q2.21875 -1.21875 5.109375 -1.21875q2.796875 0 4.984375 1.171875q2.1875 1.171875 3.40625 3.359375q1.234375 2.1875 1.234375 5.09375zm-6.0625 -1.5625q0 -1.515625 -1.046875 -2.421875q-1.03125 -0.90625 -2.59375 -0.90625q-1.484375 0 -2.515625 0.875q-1.015625 0.859375 -1.265625 2.453125l7.421875 0zm28.285767 -7.796875l0 19.34375l-5.9375 0l0 -2.640625q-0.890625 1.28125 -2.4375 2.0625q-1.546875 0.78125 -3.40625 0.78125q-2.21875 0 -3.921875 -0.984375q-1.703125 -0.984375 -2.640625 -2.859375q-0.9375 -1.875 -0.9375 -4.40625l0 -11.296875l5.890625 0l0 10.5q0 1.953125 1.0 3.03125q1.015625 1.0625 2.71875 1.0625q1.734375 0 2.734375 -1.0625q1.0 -1.078125 1.0 -3.03125l0 -10.5l5.9375 0zm10.186462 3.234375q1.03125 -1.59375 2.59375 -2.515625q1.5625 -0.921875 3.46875 -0.921875l0 6.28125l-1.625 0q-2.21875 0 -3.328125 0.953125q-1.109375 0.9375 -1.109375 3.34375l0 8.96875l-5.921875 0l0 -19.34375l5.921875 0l0 3.234375zm17.707886 16.390625q-2.84375 0 -5.125 -1.21875q-2.265625 -1.21875 -3.5625 -3.46875q-1.296875 -2.25 -1.296875 -5.265625q0 -2.984375 1.3125 -5.25q1.328125 -2.265625 3.609375 -3.46875q2.28125 -1.21875 5.125 -1.21875q2.84375 0 5.125 1.21875q2.296875 1.203125 3.609375 3.46875q1.328125 2.265625 1.328125 5.25q0 2.984375 -1.34375 5.25q-1.328125 2.265625 -3.640625 3.484375q-2.296875 1.21875 -5.140625 1.21875zm0 -5.140625q1.703125 0 2.890625 -1.234375q1.203125 -1.25 1.203125 -3.578125q0 -2.3125 -1.171875 -3.5625q-1.15625 -1.25 -2.859375 -1.25q-1.734375 0 -2.875 1.234375q-1.140625 1.21875 -1.140625 3.578125q0 2.328125 1.125 3.578125q1.125 1.234375 2.828125 1.234375zm12.091675 -4.84375q0 -2.984375 1.125 -5.234375q1.125 -2.25 3.0625 -3.453125q1.953125 -1.21875 4.34375 -1.21875q1.90625 0 3.484375 0.796875q1.578125 0.796875 2.46875 2.140625l0 -8.96875l5.9375 0l0 25.640625l-5.9375 0l0 -2.765625q-0.828125 1.375 -2.375 2.21875q-1.53125 0.828125 -3.578125 0.828125q-2.390625 0 -4.34375 -1.234375q-1.9375 -1.234375 -3.0625 -3.5q-1.125 -2.265625 -1.125 -5.25zm14.484375 0.03125q0 -2.21875 -1.234375 -3.5q-1.21875 -1.28125 -2.984375 -1.28125q-1.765625 0 -3.0 1.265625q-1.234375 1.265625 -1.234375 3.484375q0 2.21875 1.234375 3.515625q1.234375 1.296875 3.0 1.296875q1.765625 0 2.984375 -1.28125q1.234375 -1.28125 1.234375 -3.5zm13.203491 -11.671875q-1.5625 0 -2.546875 -0.921875q-0.984375 -0.921875 -0.984375 -2.265625q0 -1.390625 0.984375 -2.3125q0.984375 -0.921875 2.546875 -0.921875q1.53125 0 2.515625 0.921875q0.984375 0.921875 0.984375 2.3125q0 1.34375 -0.984375 2.265625q-0.984375 0.921875 -2.515625 0.921875zm2.953125 2.0l0 19.34375l-5.921875 0l0 -19.34375l5.921875 0zm12.989227 13.796875l4.203125 -13.796875l6.296875 0l-6.859375 19.34375l-7.3125 0l-6.859375 -19.34375l6.34375 0l4.1875 13.796875zm31.226105 -4.4375q0 0.828125 -0.09375 1.734375l-13.421875 0q0.140625 1.796875 1.15625 2.75q1.03125 0.953125 2.515625 0.953125q2.21875 0 3.09375 -1.859375l6.296875 0q-0.484375 1.90625 -1.75 3.4375q-1.265625 1.515625 -3.171875 2.390625q-1.90625 0.859375 -4.25 0.859375q-2.84375 0 -5.0625 -1.21875q-2.21875 -1.21875 -3.46875 -3.46875q-1.25 -2.25 -1.25 -5.265625q0 -3.015625 1.234375 -5.265625q1.234375 -2.25 3.4375 -3.453125q2.21875 -1.21875 5.109375 -1.21875q2.796875 0 4.984375 1.171875q2.1875 1.171875 3.40625 3.359375q1.234375 2.1875 1.234375 5.09375zm-6.0625 -1.5625q0 -1.515625 -1.046875 -2.421875q-1.03125 -0.90625 -2.59375 -0.90625q-1.484375 0 -2.515625 0.875q-1.015625 0.859375 -1.265625 2.453125l7.421875 0zm15.113892 -4.5625q1.03125 -1.59375 2.59375 -2.515625q1.5625 -0.921875 3.46875 -0.921875l0 6.28125l-1.625 0q-2.21875 0 -3.328125 0.953125q-1.109375 0.9375 -1.109375 3.34375l0 8.96875l-5.921875 0l0 -19.34375l5.921875 0l0 3.234375zm16.770386 16.390625q-2.53125 0 -4.515625 -0.859375q-1.96875 -0.875 -3.109375 -2.375q-1.140625 -1.515625 -1.28125 -3.390625l5.859375 0q0.09375 1.0 0.921875 1.625q0.84375 0.625 2.0625 0.625q1.109375 0 1.703125 -0.421875q0.609375 -0.4375 0.609375 -1.140625q0 -0.828125 -0.875 -1.21875q-0.859375 -0.40625 -2.796875 -0.890625q-2.078125 -0.484375 -3.46875 -1.015625q-1.375 -0.546875 -2.390625 -1.703125q-1.0 -1.15625 -1.0 -3.140625q0 -1.65625 0.90625 -3.015625q0.921875 -1.375 2.703125 -2.171875q1.796875 -0.796875 4.25 -0.796875q3.640625 0 5.734375 1.796875q2.109375 1.796875 2.421875 4.78125l-5.484375 0q-0.140625 -1.0 -0.890625 -1.59375q-0.734375 -0.59375 -1.953125 -0.59375q-1.03125 0 -1.59375 0.40625q-0.546875 0.390625 -0.546875 1.09375q0 0.828125 0.875 1.25q0.890625 0.40625 2.765625 0.828125q2.140625 0.546875 3.484375 1.09375q1.359375 0.53125 2.375 1.734375q1.03125 1.1875 1.0625 3.203125q0 1.6875 -0.953125 3.03125q-0.953125 1.328125 -2.734375 2.09375q-1.78125 0.765625 -4.140625 0.765625zm14.447571 -21.625q-1.5625 0 -2.546875 -0.921875q-0.984375 -0.921875 -0.984375 -2.265625q0 -1.390625 0.984375 -2.3125q0.984375 -0.921875 2.546875 -0.921875q1.53125 0 2.515625 0.921875q0.984375 0.921875 0.984375 2.3125q0 1.34375 -0.984375 2.265625q-0.984375 0.921875 -2.515625 0.921875zm2.953125 2.0l0 19.34375l-5.921875 0l0 -19.34375l5.921875 0zm15.067352 14.3125l0 5.03125l-3.015625 0q-3.21875 0 -5.03125 -1.578125q-1.796875 -1.578125 -1.796875 -5.140625l0 -7.703125l-2.34375 0l0 -4.921875l2.34375 0l0 -4.703125l5.9375 0l0 4.703125l3.875 0l0 4.921875l-3.875 0l0 7.765625q0 0.875 0.40625 1.25q0.421875 0.375 1.390625 0.375l2.109375 0zm23.05484 -14.3125l-12.140625 28.53125l-6.375 0l4.4375 -9.84375l-7.859375 -18.6875l6.609375 0l4.484375 12.09375l4.421875 -12.09375l6.421875 0z" fill-rule="nonzero"/><path fill="#073763" d="m416.75745 219.44429l0 0c0 -81.946884 121.609314 -148.37796 271.622 -148.37796l0 0c150.01276 0 271.62207 66.431076 271.62207 148.37796l0 0c0 81.946884 -121.609314 148.37794 -271.62207 148.37794l0 0c-150.0127 0 -271.622 -66.43106 -271.622 -148.37794z" fill-rule="evenodd"/><path fill="#ffffff" d="m524.7397 173.76616q4.4375 0 7.75 1.765625q3.328125 1.75 5.140625 4.9375q1.828125 3.171875 1.828125 7.328125q0 4.125 -1.828125 7.328125q-1.8125 3.203125 -5.15625 4.96875q-3.328125 1.75 -7.734375 1.75l-10.515625 0l0 -28.078125l10.515625 0zm-0.4375 22.15625q3.875 0 6.03125 -2.109375q2.171875 -2.125 2.171875 -6.015625q0 -3.875 -2.171875 -6.03125q-2.15625 -2.15625 -6.03125 -2.15625l-3.25 0l0 16.3125l3.25 0zm22.439331 -18.71875q-1.796875 0 -2.9375 -1.0625q-1.140625 -1.0625 -1.140625 -2.609375q0 -1.609375 1.140625 -2.671875q1.140625 -1.0625 2.9375 -1.0625q1.765625 0 2.890625 1.0625q1.140625 1.0625 1.140625 2.671875q0 1.546875 -1.140625 2.609375q-1.125 1.0625 -2.890625 1.0625zm3.390625 2.328125l0 22.3125l-6.828125 0l0 -22.3125l6.828125 0zm13.440613 -0.328125q2.359375 0 4.140625 0.96875q1.78125 0.953125 2.75 2.515625l0 -3.15625l6.84375 0l0 22.265625q0 3.09375 -1.234375 5.59375q-1.21875 2.5 -3.71875 3.96875q-2.5 1.484375 -6.21875 1.484375q-4.953125 0 -8.03125 -2.34375q-3.078125 -2.34375 -3.53125 -6.34375l6.765625 0q0.328125 1.28125 1.515625 2.015625q1.203125 0.75 2.96875 0.75q2.109375 0 3.375 -1.21875q1.265625 -1.21875 1.265625 -3.90625l0 -3.15625q-1.0 1.5625 -2.765625 2.546875q-1.765625 0.96875 -4.125 0.96875q-2.75 0 -5.0 -1.40625q-2.234375 -1.421875 -3.53125 -4.046875q-1.296875 -2.625 -1.296875 -6.0625q0 -3.4375 1.296875 -6.03125q1.296875 -2.609375 3.53125 -4.0q2.25 -1.40625 5.0 -1.40625zm6.890625 11.484375q0 -2.5625 -1.421875 -4.046875q-1.421875 -1.484375 -3.46875 -1.484375q-2.03125 0 -3.453125 1.46875q-1.421875 1.453125 -1.421875 4.015625q0 2.5625 1.421875 4.0625q1.421875 1.5 3.453125 1.5q2.046875 0 3.46875 -1.46875q1.421875 -1.484375 1.421875 -4.046875zm15.238098 -13.484375q-1.796875 0 -2.9375 -1.0625q-1.140625 -1.0625 -1.140625 -2.609375q0 -1.609375 1.140625 -2.671875q1.140625 -1.0625 2.9375 -1.0625q1.765625 0 2.890625 1.0625q1.140625 1.0625 1.140625 2.671875q0 1.546875 -1.140625 2.609375q-1.125 1.0625 -2.890625 1.0625zm3.390625 2.328125l0 22.3125l-6.828125 0l0 -22.3125l6.828125 0zm17.409363 16.515625l0 5.796875l-3.484375 0q-3.71875 0 -5.796875 -1.8125q-2.078125 -1.828125 -2.078125 -5.953125l0 -8.875l-2.71875 0l0 -5.671875l2.71875 0l0 -5.453125l6.84375 0l0 5.453125l4.46875 0l0 5.671875l-4.46875 0l0 8.953125q0 1.0 0.46875 1.453125q0.484375 0.4375 1.609375 0.4375l2.4375 0zm2.4431152 -5.40625q0 -3.4375 1.296875 -6.03125q1.296875 -2.609375 3.53125 -4.0q2.25 -1.40625 5.0 -1.40625q2.359375 0 4.140625 0.96875q1.78125 0.953125 2.75 2.515625l0 -3.15625l6.84375 0l0 22.3125l-6.84375 0l0 -3.15625q-1.0 1.5625 -2.78125 2.515625q-1.78125 0.953125 -4.140625 0.953125q-2.71875 0 -4.96875 -1.40625q-2.234375 -1.421875 -3.53125 -4.046875q-1.296875 -2.625 -1.296875 -6.0625zm16.71875 0.046875q0 -2.5625 -1.421875 -4.046875q-1.421875 -1.484375 -3.46875 -1.484375q-2.03125 0 -3.453125 1.46875q-1.421875 1.453125 -1.421875 4.015625q0 2.5625 1.421875 4.0625q1.421875 1.5 3.453125 1.5q2.046875 0 3.46875 -1.46875q1.421875 -1.484375 1.421875 -4.046875zm18.628723 -18.4375l0 29.59375l-6.828125 0l0 -29.59375l6.828125 0zm12.092468 18.4375q0 -3.484375 1.40625 -6.078125q1.421875 -2.609375 3.96875 -4.0q2.546875 -1.40625 5.8125 -1.40625q4.203125 0 7.015625 2.203125q2.828125 2.203125 3.71875 6.203125l-7.28125 0q-0.921875 -2.5625 -3.5625 -2.5625q-1.890625 0 -3.015625 1.46875q-1.109375 1.453125 -1.109375 4.171875q0 2.71875 1.109375 4.1875q1.125 1.453125 3.015625 1.453125q2.640625 0 3.5625 -2.5625l7.28125 0q-0.890625 3.921875 -3.734375 6.15625q-2.828125 2.234375 -7.0 2.234375q-3.265625 0 -5.8125 -1.390625q-2.546875 -1.40625 -3.96875 -4.0q-1.40625 -2.609375 -1.40625 -6.078125zm24.200012 -0.046875q0 -3.4375 1.296875 -6.03125q1.296875 -2.609375 3.53125 -4.0q2.25 -1.40625 5.0 -1.40625q2.359375 0 4.140625 0.96875q1.78125 0.953125 2.75 2.515625l0 -3.15625l6.84375 0l0 22.3125l-6.84375 0l0 -3.15625q-1.0 1.5625 -2.78125 2.515625q-1.78125 0.953125 -4.140625 0.953125q-2.71875 0 -4.96875 -1.40625q-2.234375 -1.421875 -3.53125 -4.046875q-1.296875 -2.625 -1.296875 -6.0625zm16.71875 0.046875q0 -2.5625 -1.421875 -4.046875q-1.421875 -1.484375 -3.46875 -1.484375q-2.03125 0 -3.453125 1.46875q-1.421875 1.453125 -1.421875 4.015625q0 2.5625 1.421875 4.0625q1.421875 1.5 3.453125 1.5q2.046875 0 3.46875 -1.46875q1.421875 -1.484375 1.421875 -4.046875zm18.628723 -8.0q1.0 -1.5625 2.765625 -2.515625q1.765625 -0.96875 4.125 -0.96875q2.75 0 4.984375 1.40625q2.25 1.390625 3.546875 4.0q1.3125 2.59375 1.3125 6.03125q0 3.4375 -1.3125 6.0625q-1.296875 2.625 -3.546875 4.046875q-2.234375 1.40625 -4.984375 1.40625q-2.328125 0 -4.109375 -0.953125q-1.78125 -0.953125 -2.78125 -2.484375l0 13.765625l-6.828125 0l0 -32.953125l6.828125 0l0 3.15625zm9.765625 7.953125q0 -2.5625 -1.421875 -4.015625q-1.421875 -1.46875 -3.5 -1.46875q-2.03125 0 -3.453125 1.484375q-1.421875 1.484375 -1.421875 4.046875q0 2.5625 1.421875 4.046875q1.421875 1.46875 3.453125 1.46875q2.046875 0 3.484375 -1.5q1.4375 -1.5 1.4375 -4.0625zm9.206848 0q0 -3.4375 1.296875 -6.03125q1.296875 -2.609375 3.53125 -4.0q2.25 -1.40625 5.0 -1.40625q2.359375 0 4.140625 0.96875q1.78125 0.953125 2.75 2.515625l0 -3.15625l6.84375 0l0 22.3125l-6.84375 0l0 -3.15625q-1.0 1.5625 -2.78125 2.515625q-1.78125 0.953125 -4.140625 0.953125q-2.71875 0 -4.96875 -1.40625q-2.234375 -1.421875 -3.53125 -4.046875q-1.296875 -2.625 -1.296875 -6.0625zm16.71875 0.046875q0 -2.5625 -1.421875 -4.046875q-1.421875 -1.484375 -3.46875 -1.484375q-2.03125 0 -3.453125 1.46875q-1.421875 1.453125 -1.421875 4.015625q0 2.5625 1.421875 4.0625q1.421875 1.5 3.453125 1.5q2.046875 0 3.46875 -1.46875q1.421875 -1.484375 1.421875 -4.046875zm18.628723 -8.0q0.96875 -1.5625 2.765625 -2.515625q1.796875 -0.96875 4.125 -0.96875q2.75 0 4.984375 1.40625q2.25 1.390625 3.546875 4.0q1.3125 2.59375 1.3125 6.03125q0 3.4375 -1.3125 6.0625q-1.296875 2.625 -3.546875 4.046875q-2.234375 1.40625 -4.984375 1.40625q-2.359375 0 -4.125 -0.9375q-1.765625 -0.9375 -2.765625 -2.5l0 3.125l-6.828125 0l0 -29.59375l6.828125 0l0 10.4375zm9.765625 7.953125q0 -2.5625 -1.421875 -4.015625q-1.421875 -1.46875 -3.5 -1.46875q-2.03125 0 -3.453125 1.484375q-1.421875 1.484375 -1.421875 4.046875q0 2.5625 1.421875 4.046875q1.421875 1.46875 3.453125 1.46875q2.046875 0 3.484375 -1.5q1.4375 -1.5 1.4375 -4.0625zm14.003723 -13.4375q-1.796875 0 -2.9375 -1.0625q-1.140625 -1.0625 -1.140625 -2.609375q0 -1.609375 1.140625 -2.671875q1.140625 -1.0625 2.9375 -1.0625q1.765625 0 2.890625 1.0625q1.140625 1.0625 1.140625 2.671875q0 1.546875 -1.140625 2.609375q-1.125 1.0625 -2.890625 1.0625zm3.390625 2.328125l0 22.3125l-6.828125 0l0 -22.3125l6.828125 0zm11.799988 -7.28125l0 29.59375l-6.828125 0l0 -29.59375l6.828125 0zm8.409363 4.953125q-1.796875 0 -2.9375 -1.0625q-1.140625 -1.0625 -1.140625 -2.609375q0 -1.609375 1.140625 -2.671875q1.140625 -1.0625 2.9375 -1.0625q1.765625 0 2.890625 1.0625q1.140625 1.0625 1.140625 2.671875q0 1.546875 -1.140625 2.609375q-1.125 1.0625 -2.890625 1.0625zm3.390625 2.328125l0 22.3125l-6.828125 0l0 -22.3125l6.828125 0zm17.409363 16.515625l0 5.796875l-3.484375 0q-3.71875 0 -5.796875 -1.8125q-2.078125 -1.828125 -2.078125 -5.953125l0 -8.875l-2.71875 0l0 -5.671875l2.71875 0l0 -5.453125l6.84375 0l0 5.453125l4.46875 0l0 5.671875l-4.46875 0l0 8.953125q0 1.0 0.46875 1.453125q0.484375 0.4375 1.609375 0.4375l2.4375 0zm26.599365 -16.515625l-14.0 32.90625l-7.359375 0l5.125 -11.359375l-9.09375 -21.546875l7.640625 0l5.171875 13.953125l5.109375 -13.953125l7.40625 0z" fill-rule="nonzero"/><path fill="#ffffff" d="m541.2249 225.63803q1.734375 1.890625 3.0 2.875q1.265625 0.984375 2.375 1.46875l0 0.578125q-1.28125 0.625 -2.5 1.59375q-1.203125 0.96875 -2.890625 2.84375l-1.0 0q1.234375 -2.609375 2.5625 -4.015625l-20.75 0l0 -1.3125l20.75 0q-0.984375 -1.265625 -1.375 -1.875q-0.390625 -0.609375 -1.15625 -2.15625l0.984375 0z" fill-rule="nonzero"/><path fill="#ffffff" d="m558.5088 225.96616l0 11.078125l-2.421875 0l0 -14.078125l2.28125 0l0.140625 3.0zm-0.578125 3.5l-1.0 -0.03125q0.015625 -1.453125 0.421875 -2.671875q0.421875 -1.234375 1.171875 -2.140625q0.765625 -0.921875 1.8125 -1.421875q1.046875 -0.5 2.3125 -0.5q1.046875 0 1.875 0.28125q0.84375 0.28125 1.421875 0.890625q0.59375 0.609375 0.90625 1.578125q0.3125 0.96875 0.3125 2.359375l0 9.234375l-2.421875 0l0 -9.25q0 -1.109375 -0.328125 -1.78125q-0.3125 -0.671875 -0.9375 -0.96875q-0.625 -0.3125 -1.546875 -0.3125q-0.890625 0 -1.625 0.375q-0.734375 0.375 -1.265625 1.046875q-0.53125 0.65625 -0.828125 1.515625q-0.28125 0.84375 -0.28125 1.796875zm12.252014 0.6875l0 -0.296875q0 -1.515625 0.4375 -2.828125q0.4375 -1.3125 1.265625 -2.28125q0.84375 -0.96875 2.03125 -1.5q1.1875 -0.546875 2.65625 -0.546875q1.484375 0 2.671875 0.546875q1.1875 0.53125 2.03125 1.5q0.84375 0.96875 1.28125 2.28125q0.4375 1.3125 0.4375 2.828125l0 0.296875q0 1.53125 -0.4375 2.828125q-0.4375 1.296875 -1.28125 2.28125q-0.84375 0.96875 -2.03125 1.515625q-1.171875 0.53125 -2.65625 0.53125q-1.484375 0 -2.671875 -0.53125q-1.171875 -0.546875 -2.015625 -1.515625q-0.84375 -0.984375 -1.28125 -2.28125q-0.4375 -1.296875 -0.4375 -2.828125zm2.40625 -0.296875l0 0.296875q0 1.0625 0.234375 2.0q0.25 0.921875 0.75 1.640625q0.515625 0.71875 1.265625 1.125q0.75 0.40625 1.75 0.40625q1.0 0 1.734375 -0.40625q0.75 -0.40625 1.25 -1.125q0.5 -0.71875 0.75 -1.640625q0.25 -0.9375 0.25 -2.0l0 -0.296875q0 -1.03125 -0.25 -1.96875q-0.25 -0.9375 -0.75 -1.65625q-0.5 -0.71875 -1.25 -1.125q-0.75 -0.421875 -1.75 -0.421875q-1.0 0 -1.75 0.421875q-0.734375 0.40625 -1.25 1.125q-0.5 0.71875 -0.75 1.65625q-0.234375 0.9375 -0.234375 1.96875zm21.811768 -11.765625l-7.90625 20.578125l-2.0625 0l7.90625 -20.578125l2.0625 0zm5.232727 -1.046875l0 20.0l-2.421875 0l0 -20.0l2.421875 0zm3.2318115 13.109375l0 -0.296875q0 -1.515625 0.4375 -2.828125q0.4375 -1.3125 1.265625 -2.28125q0.84375 -0.96875 2.03125 -1.5q1.1875 -0.546875 2.65625 -0.546875q1.484375 0 2.671875 0.546875q1.1875 0.53125 2.03125 1.5q0.84375 0.96875 1.28125 2.28125q0.4375 1.3125 0.4375 2.828125l0 0.296875q0 1.53125 -0.4375 2.828125q-0.4375 1.296875 -1.28125 2.28125q-0.84375 0.96875 -2.03125 1.515625q-1.171875 0.53125 -2.65625 0.53125q-1.484375 0 -2.671875 -0.53125q-1.171875 -0.546875 -2.015625 -1.515625q-0.84375 -0.984375 -1.28125 -2.28125q-0.4375 -1.296875 -0.4375 -2.828125zm2.40625 -0.296875l0 0.296875q0 1.0625 0.234375 2.0q0.25 0.921875 0.75 1.640625q0.515625 0.71875 1.265625 1.125q0.75 0.40625 1.75 0.40625q1.0 0 1.734375 -0.40625q0.75 -0.40625 1.25 -1.125q0.5 -0.71875 0.75 -1.640625q0.25 -0.9375 0.25 -2.0l0 -0.296875q0 -1.03125 -0.25 -1.96875q-0.25 -0.9375 -0.75 -1.65625q-0.5 -0.71875 -1.25 -1.125q-0.75 -0.421875 -1.75 -0.421875q-1.0 0 -1.75 0.421875q-0.734375 0.40625 -1.25 1.125q-0.5 0.71875 -0.75 1.65625q-0.234375 0.9375 -0.234375 1.96875zm16.999268 4.6875l3.609375 -11.578125l1.59375 0l-0.3125 2.296875l-3.6875 11.78125l-1.546875 0l0.34375 -2.5zm-2.4375 -11.578125l3.078125 11.703125l0.234375 2.375l-1.640625 0l-4.078125 -14.078125l2.40625 0zm11.09375 11.625l2.953125 -11.625l2.390625 0l-4.09375 14.078125l-1.609375 0l0.359375 -2.453125zm-3.109375 -11.625l3.546875 11.390625l0.40625 2.6875l-1.546875 0l-3.78125 -11.8125l-0.3125 -2.265625l1.6875 0zm25.83075 11.671875l0 -7.25q0 -0.828125 -0.34375 -1.453125q-0.328125 -0.625 -1.0 -0.953125q-0.65625 -0.34375 -1.625 -0.34375q-0.90625 0 -1.59375 0.3125q-0.6875 0.3125 -1.078125 0.828125q-0.375 0.5 -0.375 1.09375l-2.40625 0q0 -0.765625 0.390625 -1.5q0.390625 -0.75 1.125 -1.34375q0.734375 -0.609375 1.765625 -0.96875q1.046875 -0.359375 2.3125 -0.359375q1.53125 0 2.703125 0.53125q1.1875 0.515625 1.859375 1.5625q0.671875 1.046875 0.671875 2.625l0 6.546875q0 0.703125 0.125 1.5q0.125 0.796875 0.375 1.375l0 0.203125l-2.515625 0q-0.1875 -0.421875 -0.296875 -1.109375q-0.09375 -0.703125 -0.09375 -1.296875zm0.421875 -6.125l0.015625 1.6875l-2.4375 0q-1.015625 0 -1.828125 0.171875q-0.8125 0.15625 -1.359375 0.484375q-0.546875 0.3125 -0.828125 0.8125q-0.28125 0.484375 -0.28125 1.125q0 0.671875 0.296875 1.21875q0.296875 0.546875 0.90625 0.875q0.609375 0.3125 1.484375 0.3125q1.109375 0 1.953125 -0.46875q0.84375 -0.46875 1.34375 -1.140625q0.5 -0.6875 0.546875 -1.328125l1.03125 1.15625q-0.09375 0.546875 -0.5 1.21875q-0.40625 0.65625 -1.078125 1.265625q-0.671875 0.609375 -1.59375 1.015625q-0.90625 0.390625 -2.046875 0.390625q-1.4375 0 -2.515625 -0.5625q-1.0625 -0.5625 -1.65625 -1.5q-0.59375 -0.953125 -0.59375 -2.125q0 -1.125 0.4375 -1.984375q0.4375 -0.875 1.265625 -1.453125q0.84375 -0.578125 2.015625 -0.875q1.171875 -0.296875 2.609375 -0.296875l2.8125 0zm11.405762 6.8125q0.859375 0 1.578125 -0.34375q0.734375 -0.359375 1.203125 -0.96875q0.46875 -0.625 0.546875 -1.421875l2.28125 0q-0.0625 1.25 -0.84375 2.328125q-0.765625 1.078125 -2.015625 1.734375q-1.25 0.65625 -2.75 0.65625q-1.578125 0 -2.765625 -0.5625q-1.171875 -0.5625 -1.953125 -1.53125q-0.765625 -0.984375 -1.15625 -2.25q-0.390625 -1.265625 -0.390625 -2.6875l0 -0.546875q0 -1.421875 0.390625 -2.6875q0.390625 -1.265625 1.15625 -2.234375q0.78125 -0.984375 1.953125 -1.546875q1.1875 -0.5625 2.765625 -0.5625q1.65625 0 2.890625 0.671875q1.234375 0.671875 1.9375 1.828125q0.71875 1.140625 0.78125 2.609375l-2.28125 0q-0.078125 -0.875 -0.5 -1.578125q-0.421875 -0.703125 -1.140625 -1.125q-0.71875 -0.421875 -1.6875 -0.421875q-1.109375 0 -1.859375 0.4375q-0.734375 0.421875 -1.171875 1.171875q-0.4375 0.734375 -0.625 1.625q-0.1875 0.890625 -0.1875 1.8125l0 0.546875q0 0.921875 0.171875 1.828125q0.1875 0.890625 0.625 1.625q0.4375 0.71875 1.1875 1.15625q0.75 0.4375 1.859375 0.4375zm13.952881 0q0.859375 0 1.578125 -0.34375q0.734375 -0.359375 1.203125 -0.96875q0.46875 -0.625 0.546875 -1.421875l2.28125 0q-0.0625 1.25 -0.84375 2.328125q-0.765625 1.078125 -2.015625 1.734375q-1.25 0.65625 -2.75 0.65625q-1.578125 0 -2.765625 -0.5625q-1.171875 -0.5625 -1.953125 -1.53125q-0.765625 -0.984375 -1.15625 -2.25q-0.390625 -1.265625 -0.390625 -2.6875l0 -0.546875q0 -1.421875 0.390625 -2.6875q0.390625 -1.265625 1.15625 -2.234375q0.78125 -0.984375 1.953125 -1.546875q1.1875 -0.5625 2.765625 -0.5625q1.65625 0 2.890625 0.671875q1.234375 0.671875 1.9375 1.828125q0.71875 1.140625 0.78125 2.609375l-2.28125 0q-0.078125 -0.875 -0.5 -1.578125q-0.421875 -0.703125 -1.140625 -1.125q-0.71875 -0.421875 -1.6875 -0.421875q-1.109375 0 -1.859375 0.4375q-0.734375 0.421875 -1.171875 1.171875q-0.4375 0.734375 -0.625 1.625q-0.1875 0.890625 -0.1875 1.8125l0 0.546875q0 0.921875 0.171875 1.828125q0.1875 0.890625 0.625 1.625q0.4375 0.71875 1.1875 1.15625q0.75 0.4375 1.859375 0.4375zm14.156006 1.984375q-1.46875 0 -2.65625 -0.5q-1.1875 -0.5 -2.046875 -1.40625q-0.84375 -0.921875 -1.3125 -2.171875q-0.453125 -1.25 -0.453125 -2.734375l0 -0.546875q0 -1.71875 0.5 -3.0625q0.515625 -1.34375 1.390625 -2.28125q0.875 -0.9375 1.984375 -1.421875q1.109375 -0.484375 2.28125 -0.484375q1.515625 0 2.609375 0.53125q1.109375 0.515625 1.8125 1.453125q0.703125 0.921875 1.03125 2.1875q0.34375 1.25 0.34375 2.734375l0 1.078125l-10.515625 0l0 -1.96875l8.109375 0l0 -0.1875q-0.046875 -0.9375 -0.390625 -1.8125q-0.328125 -0.890625 -1.046875 -1.453125q-0.703125 -0.578125 -1.953125 -0.578125q-0.8125 0 -1.5 0.34375q-0.6875 0.34375 -1.1875 1.015625q-0.5 0.671875 -0.78125 1.65625q-0.265625 0.96875 -0.265625 2.25l0 0.546875q0 1.0 0.28125 1.890625q0.28125 0.875 0.8125 1.546875q0.546875 0.65625 1.3125 1.03125q0.78125 0.375 1.78125 0.375q1.265625 0 2.15625 -0.515625q0.890625 -0.53125 1.546875 -1.40625l1.46875 1.171875q-0.46875 0.6875 -1.171875 1.3125q-0.703125 0.625 -1.71875 1.015625q-1.015625 0.390625 -2.421875 0.390625zm16.494507 -4.0q0 -0.515625 -0.234375 -0.96875q-0.21875 -0.453125 -0.921875 -0.8125q-0.6875 -0.375 -2.078125 -0.65625q-1.171875 -0.25 -2.125 -0.578125q-0.9375 -0.34375 -1.59375 -0.828125q-0.65625 -0.484375 -1.015625 -1.125q-0.34375 -0.65625 -0.34375 -1.53125q0 -0.828125 0.359375 -1.5625q0.375 -0.75 1.0625 -1.3125q0.6875 -0.578125 1.640625 -0.90625q0.96875 -0.328125 2.15625 -0.328125q1.6875 0 2.890625 0.609375q1.203125 0.59375 1.828125 1.59375q0.640625 0.984375 0.640625 2.203125l-2.40625 0q0 -0.59375 -0.34375 -1.140625q-0.34375 -0.5625 -1.0 -0.921875q-0.65625 -0.359375 -1.609375 -0.359375q-1.0 0 -1.625 0.3125q-0.609375 0.296875 -0.890625 0.765625q-0.28125 0.46875 -0.28125 0.984375q0 0.390625 0.125 0.703125q0.140625 0.296875 0.484375 0.5625q0.359375 0.25 1.0 0.46875q0.640625 0.21875 1.625 0.4375q1.734375 0.390625 2.84375 0.9375q1.125 0.546875 1.671875 1.34375q0.546875 0.796875 0.546875 1.921875q0 0.921875 -0.390625 1.703125q-0.375 0.765625 -1.09375 1.328125q-0.71875 0.546875 -1.71875 0.859375q-1.0 0.296875 -2.234375 0.296875q-1.859375 0 -3.15625 -0.65625q-1.28125 -0.671875 -1.953125 -1.71875q-0.65625 -1.0625 -0.65625 -2.234375l2.421875 0q0.046875 0.984375 0.5625 1.5625q0.53125 0.578125 1.28125 0.828125q0.765625 0.234375 1.5 0.234375q0.984375 0 1.65625 -0.25q0.671875 -0.265625 1.015625 -0.71875q0.359375 -0.46875 0.359375 -1.046875zm13.757629 0q0 -0.515625 -0.234375 -0.96875q-0.21875 -0.453125 -0.921875 -0.8125q-0.6875 -0.375 -2.078125 -0.65625q-1.171875 -0.25 -2.125 -0.578125q-0.9375 -0.34375 -1.59375 -0.828125q-0.65625 -0.484375 -1.015625 -1.125q-0.34375 -0.65625 -0.34375 -1.53125q0 -0.828125 0.359375 -1.5625q0.375 -0.75 1.0625 -1.3125q0.6875 -0.578125 1.640625 -0.90625q0.96875 -0.328125 2.15625 -0.328125q1.6875 0 2.890625 0.609375q1.203125 0.59375 1.828125 1.59375q0.640625 0.984375 0.640625 2.203125l-2.40625 0q0 -0.59375 -0.34375 -1.140625q-0.34375 -0.5625 -1.0 -0.921875q-0.65625 -0.359375 -1.609375 -0.359375q-1.0 0 -1.625 0.3125q-0.609375 0.296875 -0.890625 0.765625q-0.28125 0.46875 -0.28125 0.984375q0 0.390625 0.125 0.703125q0.140625 0.296875 0.484375 0.5625q0.359375 0.25 1.0 0.46875q0.640625 0.21875 1.625 0.4375q1.734375 0.390625 2.84375 0.9375q1.125 0.546875 1.671875 1.34375q0.546875 0.796875 0.546875 1.921875q0 0.921875 -0.390625 1.703125q-0.375 0.765625 -1.09375 1.328125q-0.71875 0.546875 -1.71875 0.859375q-1.0 0.296875 -2.234375 0.296875q-1.859375 0 -3.15625 -0.65625q-1.28125 -0.671875 -1.953125 -1.71875q-0.65625 -1.0625 -0.65625 -2.234375l2.421875 0q0.046875 0.984375 0.5625 1.5625q0.53125 0.578125 1.28125 0.828125q0.765625 0.234375 1.5 0.234375q0.984375 0 1.65625 -0.25q0.671875 -0.265625 1.015625 -0.71875q0.359375 -0.46875 0.359375 -1.046875zm11.541504 -3.15625l0 -0.296875q0 -1.515625 0.4375 -2.828125q0.4375 -1.3125 1.265625 -2.28125q0.84375 -0.96875 2.03125 -1.5q1.1875 -0.546875 2.65625 -0.546875q1.484375 0 2.671875 0.546875q1.1875 0.53125 2.03125 1.5q0.84375 0.96875 1.28125 2.28125q0.4375 1.3125 0.4375 2.828125l0 0.296875q0 1.53125 -0.4375 2.828125q-0.4375 1.296875 -1.28125 2.28125q-0.84375 0.96875 -2.03125 1.515625q-1.171875 0.53125 -2.65625 0.53125q-1.484375 0 -2.671875 -0.53125q-1.171875 -0.546875 -2.015625 -1.515625q-0.84375 -0.984375 -1.28125 -2.28125q-0.4375 -1.296875 -0.4375 -2.828125zm2.40625 -0.296875l0 0.296875q0 1.0625 0.234375 2.0q0.25 0.921875 0.75 1.640625q0.515625 0.71875 1.265625 1.125q0.75 0.40625 1.75 0.40625q1.0 0 1.734375 -0.40625q0.75 -0.40625 1.25 -1.125q0.5 -0.71875 0.75 -1.640625q0.25 -0.9375 0.25 -2.0l0 -0.296875q0 -1.03125 -0.25 -1.96875q-0.25 -0.9375 -0.75 -1.65625q-0.5 -0.71875 -1.25 -1.125q-0.75 -0.421875 -1.75 -0.421875q-1.0 0 -1.75 0.421875q-0.734375 0.40625 -1.25 1.125q-0.5 0.71875 -0.75 1.65625q-0.234375 0.9375 -0.234375 1.96875zm15.843079 -4.6875l0 11.875l-2.421936 0l0 -14.078125l2.343811 0l0.078125 2.203125zm4.390625 -2.28125l-0.015625 2.234375q-0.296875 -0.0625 -0.5625 -0.078125q-0.265625 -0.03125 -0.609375 -0.03125q-0.828125 0 -1.46875 0.265625q-0.640625 0.265625 -1.078125 0.734375q-0.4375 0.46875 -0.703125 1.109375q-0.25 0.640625 -0.328125 1.40625l-0.671875 0.390625q0 -1.265625 0.25 -2.390625q0.25 -1.125 0.78125 -1.984375q0.546875 -0.859375 1.375 -1.34375q0.828125 -0.5 1.96875 -0.5q0.25 0 0.59375 0.0625q0.34375 0.0625 0.46875 0.125zm17.035522 10.421875q0 -0.515625 -0.234375 -0.96875q-0.21875 -0.453125 -0.921875 -0.8125q-0.6875 -0.375 -2.078125 -0.65625q-1.171875 -0.25 -2.125 -0.578125q-0.9375 -0.34375 -1.59375 -0.828125q-0.65625 -0.484375 -1.015625 -1.125q-0.34375 -0.65625 -0.34375 -1.53125q0 -0.828125 0.359375 -1.5625q0.375 -0.75 1.0625 -1.3125q0.6875 -0.578125 1.640625 -0.90625q0.96875 -0.328125 2.15625 -0.328125q1.6875 0 2.890625 0.609375q1.203125 0.59375 1.828125 1.59375q0.640625 0.984375 0.640625 2.203125l-2.40625 0q0 -0.59375 -0.34375 -1.140625q-0.34375 -0.5625 -1.0 -0.921875q-0.65625 -0.359375 -1.609375 -0.359375q-1.0 0 -1.625 0.3125q-0.609375 0.296875 -0.890625 0.765625q-0.28125 0.46875 -0.28125 0.984375q0 0.390625 0.125 0.703125q0.140625 0.296875 0.484375 0.5625q0.359375 0.25 1.0 0.46875q0.640625 0.21875 1.625 0.4375q1.734375 0.390625 2.84375 0.9375q1.125 0.546875 1.671875 1.34375q0.546875 0.796875 0.546875 1.921875q0 0.921875 -0.390625 1.703125q-0.375 0.765625 -1.09375 1.328125q-0.71875 0.546875 -1.71875 0.859375q-1.0 0.296875 -2.234375 0.296875q-1.859375 0 -3.15625 -0.65625q-1.28125 -0.671875 -1.953125 -1.71875q-0.65625 -1.0625 -0.65625 -2.234375l2.421875 0q0.046875 0.984375 0.5625 1.5625q0.53125 0.578125 1.28125 0.828125q0.765625 0.234375 1.5 0.234375q0.984375 0 1.65625 -0.25q0.671875 -0.265625 1.015625 -0.71875q0.359375 -0.46875 0.359375 -1.046875zm7.9763794 -16.265625l0 20.0l-2.421875 0l0 -20.0l2.421875 0zm8.609375 5.921875l-6.140625 6.5625l-3.4375 3.578125l-0.203125 -2.578125l2.46875 -2.9375l4.375 -4.625l2.9375 0zm-2.203125 14.078125l-5.015625 -6.71875l1.25 -2.140625l6.609375 8.859375l-2.84375 0zm7.307251 -14.078125l0 14.078125l-2.421875 0l0 -14.078125l2.421875 0zm-2.609375 -3.734375q0 -0.59375 0.359375 -1.0q0.359375 -0.40625 1.0625 -0.40625q0.6875 0 1.0625 0.40625q0.375 0.40625 0.375 1.0q0 0.546875 -0.375 0.953125q-0.375 0.390625 -1.0625 0.390625q-0.703125 0 -1.0625 -0.390625q-0.359375 -0.40625 -0.359375 -0.953125zm9.091187 -2.1875l0 20.0l-2.421875 0l0 -20.0l2.421875 0zm6.4818726 0l0 20.0l-2.421875 0l0 -20.0l2.421875 0zm12.059937 16.265625q0 -0.515625 -0.234375 -0.96875q-0.21875 -0.453125 -0.921875 -0.8125q-0.6875 -0.375 -2.078125 -0.65625q-1.171875 -0.25 -2.125 -0.578125q-0.9375 -0.34375 -1.59375 -0.828125q-0.65625 -0.484375 -1.015625 -1.125q-0.34375 -0.65625 -0.34375 -1.53125q0 -0.828125 0.359375 -1.5625q0.375 -0.75 1.0625 -1.3125q0.6875 -0.578125 1.640625 -0.90625q0.96875 -0.328125 2.15625 -0.328125q1.6875 0 2.890625 0.609375q1.203125 0.59375 1.828125 1.59375q0.640625 0.984375 0.640625 2.203125l-2.40625 0q0 -0.59375 -0.34375 -1.140625q-0.34375 -0.5625 -1.0 -0.921875q-0.65625 -0.359375 -1.609375 -0.359375q-1.0 0 -1.625 0.3125q-0.609375 0.296875 -0.890625 0.765625q-0.28125 0.46875 -0.28125 0.984375q0 0.390625 0.125 0.703125q0.140625 0.296875 0.484375 0.5625q0.359375 0.25 1.0 0.46875q0.640625 0.21875 1.625 0.4375q1.734375 0.390625 2.84375 0.9375q1.125 0.546875 1.671875 1.34375q0.546875 0.796875 0.546875 1.921875q0 0.921875 -0.390625 1.703125q-0.375 0.765625 -1.09375 1.328125q-0.71875 0.546875 -1.71875 0.859375q-1.0 0.296875 -2.234375 0.296875q-1.859375 0 -3.15625 -0.65625q-1.28125 -0.671875 -1.953125 -1.71875q-0.65625 -1.0625 -0.65625 -2.234375l2.421875 0q0.046875 0.984375 0.5625 1.5625q0.53125 0.578125 1.28125 0.828125q0.765625 0.234375 1.5 0.234375q0.984375 0 1.65625 -0.25q0.671875 -0.265625 1.015625 -0.71875q0.359375 -0.46875 0.359375 -1.046875zm18.072815 -10.34375l0 1.84375l-7.625 0l0 -1.84375l7.625 0zm-5.046875 -3.421875l2.421875 0l0 14.015625q0 0.71875 0.21875 1.078125q0.21875 0.359375 0.5625 0.484375q0.359375 0.109375 0.765625 0.109375q0.296875 0 0.625 -0.046875q0.328125 -0.0625 0.5 -0.109375l0.015625 1.96875q-0.28125 0.09375 -0.75 0.171875q-0.453125 0.09375 -1.109375 0.09375q-0.890625 0 -1.640625 -0.34375q-0.734375 -0.359375 -1.171875 -1.1875q-0.4375 -0.828125 -0.4375 -2.234375l0 -14.0zm6.975769 10.609375l0 -0.296875q0 -1.515625 0.4375 -2.828125q0.4375 -1.3125 1.265625 -2.28125q0.84375 -0.96875 2.03125 -1.5q1.1875 -0.546875 2.65625 -0.546875q1.484375 0 2.671875 0.546875q1.1875 0.53125 2.03125 1.5q0.84375 0.96875 1.28125 2.28125q0.4375 1.3125 0.4375 2.828125l0 0.296875q0 1.53125 -0.4375 2.828125q-0.4375 1.296875 -1.28125 2.28125q-0.84375 0.96875 -2.03125 1.515625q-1.171875 0.53125 -2.65625 0.53125q-1.484375 0 -2.671875 -0.53125q-1.171875 -0.546875 -2.015625 -1.515625q-0.84375 -0.984375 -1.28125 -2.28125q-0.4375 -1.296875 -0.4375 -2.828125zm2.40625 -0.296875l0 0.296875q0 1.0625 0.234375 2.0q0.25 0.921875 0.75 1.640625q0.515625 0.71875 1.265625 1.125q0.75 0.40625 1.75 0.40625q1.0 0 1.734375 -0.40625q0.75 -0.40625 1.25 -1.125q0.5 -0.71875 0.75 -1.640625q0.25 -0.9375 0.25 -2.0l0 -0.296875q0 -1.03125 -0.25 -1.96875q-0.25 -0.9375 -0.75 -1.65625q-0.5 -0.71875 -1.25 -1.125q-0.75 -0.421875 -1.75 -0.421875q-1.0 0 -1.75 0.421875q-0.734375 0.40625 -1.25 1.125q-0.5 0.71875 -0.75 1.65625q-0.234375 0.9375 -0.234375 1.96875z" fill-rule="nonzero"/><path fill="#ffffff" d="m645.06995 254.96614l2.1875 0l0 13.781265q0 1.859375 -0.75 3.171875q-0.75 1.3125 -2.109375 2.0q-1.34375 0.6875 -3.09375 0.6875q-0.734375 0 -1.71875 -0.234375q-0.984375 -0.21875 -1.921875 -0.765625q-0.9375 -0.546875 -1.578125 -1.453125l1.265625 -1.4375q0.875 1.078125 1.84375 1.484375q0.96875 0.421875 1.921875 0.421875q1.140625 0 1.96875 -0.4375q0.84375 -0.421875 1.296875 -1.265625q0.46875 -0.828125 0.46875 -2.0625l0 -10.796875l0.21875 -3.0937653zm-9.6875 7.1875153l0 -0.265625q0 -1.609375 0.375 -2.9375q0.390625 -1.328125 1.109375 -2.265625q0.71875 -0.95314026 1.75 -1.4687653q1.03125 -0.515625 2.3125 -0.515625q1.328125 0 2.328125 0.46875q1.0 0.453125 1.6875 1.3437653q0.703125 0.875 1.109375 2.109375q0.40625 1.234375 0.5625 2.796875l0 1.1875q-0.140625 1.5625 -0.5625 2.796875q-0.40625 1.234375 -1.109375 2.109375q-0.6875 0.875 -1.6875 1.34375q-1.0 0.453125 -2.34375 0.453125q-1.265625 0 -2.296875 -0.53125q-1.015625 -0.546875 -1.75 -1.5q-0.71875 -0.96875 -1.109375 -2.265625q-0.375 -1.3125 -0.375 -2.859375zm2.40625 -0.265625l0 0.265625q0 1.0625 0.203125 1.984375q0.21875 0.921875 0.671875 1.625q0.453125 0.703125 1.15625 1.109375q0.703125 0.390625 1.671875 0.390625q1.203125 0 1.984375 -0.5q0.78125 -0.515625 1.234375 -1.34375q0.46875 -0.84375 0.734375 -1.8125l0 -3.140625q-0.140625 -0.71875 -0.4375 -1.390625q-0.296875 -0.671875 -0.765625 -1.1875q-0.453125 -0.53125 -1.140625 -0.84375q-0.671875 -0.3125 -1.578125 -0.3125q-0.984375 0 -1.703125 0.40625q-0.703125 0.40625 -1.15625 1.125q-0.453125 0.703125 -0.671875 1.640625q-0.203125 0.921875 -0.203125 1.984375zm12.49939 0.265625l0 -0.296875q0 -1.515625 0.4375 -2.828125q0.4375 -1.3125 1.265625 -2.28125q0.84375 -0.96876526 2.03125 -1.5000153q1.1875 -0.546875 2.65625 -0.546875q1.484375 0 2.671875 0.546875q1.1875 0.53125 2.03125 1.5000153q0.84375 0.96875 1.28125 2.28125q0.4375 1.3125 0.4375 2.828125l0 0.296875q0 1.53125 -0.4375 2.828125q-0.4375 1.296875 -1.28125 2.28125q-0.84375 0.96875 -2.03125 1.515625q-1.171875 0.53125 -2.65625 0.53125q-1.484375 0 -2.671875 -0.53125q-1.171875 -0.546875 -2.015625 -1.515625q-0.84375 -0.984375 -1.28125 -2.28125q-0.4375 -1.296875 -0.4375 -2.828125zm2.40625 -0.296875l0 0.296875q0 1.0625 0.234375 2.0q0.25 0.921875 0.75 1.640625q0.515625 0.71875 1.265625 1.125q0.75 0.40625 1.75 0.40625q1.0 0 1.734375 -0.40625q0.75 -0.40625 1.25 -1.125q0.5 -0.71875 0.75 -1.640625q0.25 -0.9375 0.25 -2.0l0 -0.296875q0 -1.03125 -0.25 -1.96875q-0.25 -0.9375 -0.75 -1.65625q-0.5 -0.71875 -1.25 -1.125q-0.75 -0.421875 -1.75 -0.421875q-1.0 0 -1.75 0.421875q-0.734375 0.40625 -1.25 1.125q-0.5 0.71875 -0.75 1.65625q-0.234375 0.9375 -0.234375 1.96875zm19.408142 0.296875l0 -0.296875q0 -1.515625 0.4375 -2.828125q0.4375 -1.3125 1.265625 -2.28125q0.84375 -0.96876526 2.03125 -1.5000153q1.1875 -0.546875 2.65625 -0.546875q1.484375 0 2.671875 0.546875q1.1875 0.53125 2.03125 1.5000153q0.84375 0.96875 1.28125 2.28125q0.4375 1.3125 0.4375 2.828125l0 0.296875q0 1.53125 -0.4375 2.828125q-0.4375 1.296875 -1.28125 2.28125q-0.84375 0.96875 -2.03125 1.515625q-1.171875 0.53125 -2.65625 0.53125q-1.484375 0 -2.671875 -0.53125q-1.171875 -0.546875 -2.015625 -1.515625q-0.84375 -0.984375 -1.28125 -2.28125q-0.4375 -1.296875 -0.4375 -2.828125zm2.40625 -0.296875l0 0.296875q0 1.0625 0.234375 2.0q0.25 0.921875 0.75 1.640625q0.515625 0.71875 1.265625 1.125q0.75 0.40625 1.75 0.40625q1.0 0 1.734375 -0.40625q0.75 -0.40625 1.25 -1.125q0.5 -0.71875 0.75 -1.640625q0.25 -0.9375 0.25 -2.0l0 -0.296875q0 -1.03125 -0.25 -1.96875q-0.25 -0.9375 -0.75 -1.65625q-0.5 -0.71875 -1.25 -1.125q-0.75 -0.421875 -1.75 -0.421875q-1.0 0 -1.75 0.421875q-0.734375 0.40625 -1.25 1.125q-0.5 0.71875 -0.75 1.65625q-0.234375 0.9375 -0.234375 1.96875zm15.843018 -3.890625l0 11.078125l-2.421875 0l0 -14.07814l2.28125 0l0.140625 3.0000153zm-0.578125 3.5l-1.0 -0.03125q0.015625 -1.453125 0.421875 -2.671875q0.421875 -1.234375 1.171875 -2.140625q0.765625 -0.92189026 1.8125 -1.4218903q1.046875 -0.5 2.3125 -0.5q1.046875 0 1.875 0.28125q0.84375 0.28125 1.421875 0.890625q0.59375 0.60939026 0.90625 1.5781403q0.3125 0.96875 0.3125 2.359375l0 9.234375l-2.421875 0l0 -9.25q0 -1.109375 -0.328125 -1.78125q-0.3125 -0.671875 -0.9375 -0.96875q-0.625 -0.3125 -1.546875 -0.3125q-0.890625 0 -1.625 0.375q-0.734375 0.375 -1.265625 1.046875q-0.53125 0.65625 -0.828125 1.515625q-0.28125 0.84375 -0.28125 1.796875zm15.502075 -12.42189l0 20.000015l-2.421875 0l0 -20.000015l2.421875 0zm6.4818115 5.921875l0 14.07814l-2.421875 0l0 -14.07814l2.421875 0zm-2.609375 -3.734375q0 -0.59375 0.359375 -1.0q0.359375 -0.40625 1.0625 -0.40625q0.6875 0 1.0625 0.40625q0.375 0.40625 0.375 1.0q0 0.546875 -0.375 0.953125q-0.375 0.390625 -1.0625 0.390625q-0.703125 0 -1.0625 -0.390625q-0.359375 -0.40625 -0.359375 -0.953125zm8.888123 6.7343903l0 11.078125l-2.421875 0l0 -14.07814l2.28125 0l0.140625 3.0000153zm-0.578125 3.5l-1.0 -0.03125q0.015625 -1.453125 0.421875 -2.671875q0.421875 -1.234375 1.171875 -2.140625q0.765625 -0.92189026 1.8125 -1.4218903q1.046875 -0.5 2.3125 -0.5q1.046875 0 1.875 0.28125q0.84375 0.28125 1.421875 0.890625q0.59375 0.60939026 0.90625 1.5781403q0.3125 0.96875 0.3125 2.359375l0 9.234375l-2.421875 0l0 -9.25q0 -1.109375 -0.328125 -1.78125q-0.3125 -0.671875 -0.9375 -0.96875q-0.625 -0.3125 -1.546875 -0.3125q-0.890625 0 -1.625 0.375q-0.734375 0.375 -1.265625 1.046875q-0.53125 0.65625 -0.828125 1.515625q-0.28125 0.84375 -0.28125 1.796875zm18.720764 7.84375q-1.46875 0 -2.65625 -0.5q-1.1875 -0.5 -2.046875 -1.40625q-0.84375 -0.921875 -1.3125 -2.171875q-0.453125 -1.25 -0.453125 -2.734375l0 -0.546875q0 -1.71875 0.5 -3.0625q0.515625 -1.34375 1.390625 -2.28125q0.875 -0.93751526 1.984375 -1.4218903q1.109375 -0.484375 2.28125 -0.484375q1.515625 0 2.609375 0.53125q1.109375 0.515625 1.8125 1.4531403q0.703125 0.921875 1.03125 2.1875q0.34375 1.25 0.34375 2.734375l0 1.078125l-10.515625 0l0 -1.96875l8.109375 0l0 -0.1875q-0.046875 -0.9375 -0.390625 -1.8125q-0.328125 -0.890625 -1.046875 -1.453125q-0.703125 -0.578125 -1.953125 -0.578125q-0.8125 0 -1.5 0.34375q-0.6875 0.34375 -1.1875 1.015625q-0.5 0.671875 -0.78125 1.65625q-0.265625 0.96875 -0.265625 2.25l0 0.546875q0 1.0 0.28125 1.890625q0.28125 0.875 0.8125 1.546875q0.546875 0.65625 1.3125 1.03125q0.78125 0.375 1.78125 0.375q1.265625 0 2.15625 -0.515625q0.890625 -0.53125 1.546875 -1.40625l1.46875 1.171875q-0.46875 0.6875 -1.171875 1.3125q-0.703125 0.625 -1.71875 1.015625q-1.015625 0.390625 -2.421875 0.390625z" fill-rule="nonzero"/></g></svg>