<svg version="1.1" viewBox="0.0 0.0 960.0 540.0" fill="none" stroke="none" stroke-linecap="square" stroke-miterlimit="10" xmlns:xlink="http://www.w3.org/1999/xlink" xmlns="http://www.w3.org/2000/svg"><clipPath id="g377aef350ad_0_31.0"><path d="m0 0l960.0 0l0 540.0l-960.0 0l0 -540.0z" clip-rule="nonzero"/></clipPath><g clip-path="url(#g377aef350ad_0_31.0)"><path fill="#fcfaf7" d="m0 0l960.0 0l0 540.0l-960.0 0z" fill-rule="evenodd"/><path fill="#513184" d="m3.2913387 278.33334l0 0c0 -104.42966 213.42973 -189.08662 476.70865 -189.08662l0 0c263.27893 0 476.70868 84.65697 476.70868 189.08662l0 0c0 104.42966 -213.42975 189.08661 -476.70868 189.08661l0 0c-263.27893 0 -476.70865 -84.65695 -476.70865 -189.08661z" fill-rule="evenodd"/><path fill="#ffffff" d="m578.5878 204.01772l0 24.734375l-5.53125 0l0 -24.734375l5.53125 0zm9.37854 10.28125l0 14.453125l-5.328125 0l0 -18.390625l5.0 0l0.328125 3.9375zm-0.703125 4.609375l-1.328125 0.046875q0 -2.078125 0.515625 -3.71875q0.515625 -1.65625 1.453125 -2.8125q0.9375 -1.171875 2.25 -1.78125q1.328125 -0.609375 2.921875 -0.609375q1.296875 0 2.359375 0.375q1.078125 0.375 1.84375 1.203125q0.78125 0.8125 1.1875 2.171875q0.40625 1.34375 0.40625 3.3125l0 11.65625l-5.328125 0l0 -11.671875q0 -1.15625 -0.328125 -1.78125q-0.328125 -0.625 -0.953125 -0.875q-0.609375 -0.265625 -1.5 -0.265625q-0.9375 0 -1.59375 0.375q-0.65625 0.359375 -1.09375 1.0q-0.421875 0.640625 -0.625 1.515625q-0.1875 0.859375 -0.1875 1.859375zm22.760742 6.0625q0.84375 0 1.46875 -0.328125q0.625 -0.328125 0.96875 -0.90625q0.359375 -0.59375 0.359375 -1.421875l5.0 0q0 2.0 -1.03125 3.53125q-1.03125 1.53125 -2.765625 2.390625q-1.734375 0.859375 -3.90625 0.859375q-2.140625 0 -3.734375 -0.703125q-1.59375 -0.71875 -2.671875 -1.984375q-1.0625 -1.28125 -1.609375 -2.96875q-0.53125 -1.6875 -0.53125 -3.65625l0 -0.4375q0 -1.953125 0.53125 -3.65625q0.546875 -1.703125 1.609375 -2.96875q1.078125 -1.28125 2.65625 -1.984375q1.59375 -0.703125 3.734375 -0.703125q2.265625 0 4.0 0.875q1.75 0.859375 2.734375 2.484375q0.984375 1.609375 0.984375 3.890625l-5.0 0q0 -0.890625 -0.3125 -1.59375q-0.3125 -0.703125 -0.953125 -1.109375q-0.640625 -0.421875 -1.578125 -0.421875q-0.96875 0 -1.59375 0.421875q-0.609375 0.40625 -0.9375 1.140625q-0.3125 0.734375 -0.4375 1.65625q-0.109375 0.921875 -0.109375 1.96875l0 0.4375q0 1.046875 0.109375 2.0q0.125 0.9375 0.453125 1.65625q0.328125 0.703125 0.9375 1.125q0.609375 0.40625 1.625 0.40625zm16.01831 -22.3125l0 26.09375l-5.328125 0l0 -26.09375l5.328125 0zm14.598999 21.65625l0 -13.953125l5.328125 0l0 18.390625l-5.0 0l-0.328125 -4.4375zm0.546875 -3.75l1.46875 -0.03125q0 1.84375 -0.4375 3.40625q-0.421875 1.5625 -1.28125 2.71875q-0.859375 1.15625 -2.125 1.796875q-1.265625 0.640625 -2.953125 0.640625q-1.359375 0 -2.5 -0.375q-1.125 -0.390625 -1.9375 -1.21875q-0.8125 -0.828125 -1.265625 -2.125q-0.4375 -1.296875 -0.4375 -3.109375l0 -11.90625l5.3125 0l0 11.9375q0 0.703125 0.171875 1.21875q0.1875 0.5 0.5 0.828125q0.3125 0.3125 0.78125 0.46875q0.46875 0.15625 1.03125 0.15625q1.40625 0 2.203125 -0.59375q0.8125 -0.59375 1.140625 -1.578125q0.328125 -1.0 0.328125 -2.234375zm18.010742 3.078125q0 -0.515625 -0.3125 -0.90625q-0.3125 -0.390625 -1.125 -0.703125q-0.796875 -0.328125 -2.265625 -0.65625q-1.375 -0.28125 -2.5625 -0.75q-1.1875 -0.46875 -2.078125 -1.140625q-0.875 -0.671875 -1.375 -1.59375q-0.484375 -0.9375 -0.484375 -2.125q0 -1.15625 0.5 -2.1875q0.5 -1.03125 1.453125 -1.828125q0.96875 -0.8125 2.34375 -1.265625q1.390625 -0.453125 3.15625 -0.453125q2.4375 0 4.203125 0.75q1.765625 0.75 2.71875 2.109375q0.953125 1.34375 0.953125 3.078125l-5.3125 0q0 -0.703125 -0.265625 -1.234375q-0.265625 -0.53125 -0.828125 -0.828125q-0.5625 -0.296875 -1.484375 -0.296875q-0.703125 0 -1.25 0.25q-0.53125 0.25 -0.828125 0.671875q-0.296875 0.421875 -0.296875 0.984375q0 0.390625 0.171875 0.703125q0.1875 0.3125 0.5625 0.578125q0.390625 0.265625 1.0 0.46875q0.625 0.203125 1.53125 0.390625q1.921875 0.359375 3.5 1.0q1.59375 0.640625 2.546875 1.78125q0.96875 1.140625 0.96875 3.015625q0 1.21875 -0.5625 2.25q-0.546875 1.015625 -1.59375 1.78125q-1.03125 0.75 -2.46875 1.1875q-1.4375 0.421875 -3.265625 0.421875q-2.59375 0 -4.40625 -0.9375q-1.796875 -0.9375 -2.703125 -2.34375q-0.90625 -1.421875 -0.90625 -2.921875l4.984375 0q0.03125 0.921875 0.453125 1.5q0.4375 0.578125 1.125 0.84375q0.703125 0.25 1.578125 0.25q0.859375 0 1.4375 -0.234375q0.578125 -0.234375 0.875 -0.65625q0.3125 -0.421875 0.3125 -0.953125zm13.669678 -13.28125l0 18.390625l-5.328125 0l0 -18.390625l5.328125 0zm-5.640625 -4.75q0 -1.15625 0.8125 -1.890625q0.8125 -0.75 2.140625 -0.75q1.328125 0 2.140625 0.75q0.828125 0.734375 0.828125 1.890625q0 1.140625 -0.828125 1.875q-0.8125 0.734375 -2.140625 0.734375q-1.328125 0 -2.140625 -0.734375q-0.8125 -0.734375 -0.8125 -1.875zm8.677124 14.140625l0 -0.359375q0 -2.03125 0.578125 -3.734375q0.578125 -1.703125 1.703125 -2.953125q1.125 -1.265625 2.75 -1.96875q1.625 -0.703125 3.734375 -0.703125q2.140625 0 3.78125 0.703125q1.640625 0.703125 2.765625 1.96875q1.125 1.25 1.703125 2.953125q0.578125 1.703125 0.578125 3.734375l0 0.359375q0 2.0 -0.578125 3.71875q-0.578125 1.703125 -1.703125 2.96875q-1.125 1.265625 -2.765625 1.96875q-1.625 0.6875 -3.75 0.6875q-2.09375 0 -3.75 -0.6875q-1.640625 -0.703125 -2.765625 -1.96875q-1.125 -1.265625 -1.703125 -2.96875q-0.578125 -1.71875 -0.578125 -3.71875zm5.328125 -0.359375l0 0.359375q0 1.078125 0.171875 2.03125q0.171875 0.953125 0.578125 1.671875q0.421875 0.703125 1.078125 1.109375q0.671875 0.40625 1.640625 0.40625q0.96875 0 1.625 -0.40625q0.671875 -0.40625 1.078125 -1.109375q0.40625 -0.71875 0.578125 -1.671875q0.1875 -0.953125 0.1875 -2.03125l0 -0.359375q0 -1.078125 -0.1875 -2.015625q-0.171875 -0.9375 -0.578125 -1.671875q-0.40625 -0.734375 -1.078125 -1.140625q-0.671875 -0.40625 -1.65625 -0.40625q-0.953125 0 -1.609375 0.40625q-0.65625 0.40625 -1.078125 1.140625q-0.40625 0.734375 -0.578125 1.671875q-0.171875 0.9375 -0.171875 2.015625zm20.247803 -5.09375l0 14.453125l-5.328125 0l0 -18.390625l5.0 0l0.328125 3.9375zm-0.703125 4.609375l-1.328125 0.046875q0 -2.078125 0.515625 -3.71875q0.515625 -1.65625 1.453125 -2.8125q0.9375 -1.171875 2.25 -1.78125q1.328125 -0.609375 2.921875 -0.609375q1.296875 0 2.359375 0.375q1.078125 0.375 1.84375 1.203125q0.78125 0.8125 1.1875 2.171875q0.40625 1.34375 0.40625 3.3125l0 11.65625l-5.328125 0l0 -11.671875q0 -1.15625 -0.328125 -1.78125q-0.328125 -0.625 -0.953125 -0.875q-0.609375 -0.265625 -1.5 -0.265625q-0.9375 0 -1.59375 0.375q-0.65625 0.359375 -1.09375 1.0q-0.421875 0.640625 -0.625 1.515625q-0.1875 0.859375 -0.1875 1.859375z" fill-rule="nonzero"/><path fill="#ffffff" d="m590.4628 251.24115q1.6875 1.84375 2.921875 2.8125q1.25 0.953125 2.34375 1.421875l0 0.578125q-1.265625 0.609375 -2.453125 1.5625q-1.1875 0.953125 -2.828125 2.78125l-0.984375 0q1.203125 -2.5625 2.515625 -3.9375l-20.328125 0l0 -1.28125l20.328125 0q-0.96875 -1.234375 -1.359375 -1.828125q-0.375 -0.609375 -1.125 -2.109375l0.96875 0z" fill-rule="nonzero"/><path fill="#ffffff" d="m607.3728 250.7724l0 11.625l-2.359375 0l0 -13.78125l2.296875 0l0.0625 2.15625zm4.296875 -2.234375l0 2.1875q-0.296875 -0.0625 -0.5625 -0.078125q-0.265625 -0.015625 -0.59375 -0.015625q-0.8125 0 -1.4375 0.25q-0.625 0.25 -1.0625 0.71875q-0.421875 0.453125 -0.671875 1.09375q-0.25 0.625 -0.328125 1.375l-0.65625 0.375q0 -1.25 0.234375 -2.34375q0.25 -1.09375 0.765625 -1.9375q0.53125 -0.84375 1.34375 -1.328125q0.8125 -0.484375 1.9375 -0.484375q0.25 0 0.578125 0.0625q0.328125 0.0625 0.453125 0.125zm7.6625977 14.109375q-1.4375 0 -2.609375 -0.484375q-1.15625 -0.484375 -2.0 -1.375q-0.828125 -0.90625 -1.28125 -2.125q-0.4375 -1.21875 -0.4375 -2.671875l0 -0.53125q0 -1.6875 0.484375 -3.0q0.5 -1.328125 1.359375 -2.234375q0.859375 -0.921875 1.9375 -1.390625q1.078125 -0.484375 2.25 -0.484375q1.46875 0 2.546875 0.515625q1.078125 0.515625 1.765625 1.421875q0.6875 0.90625 1.015625 2.140625q0.328125 1.234375 0.328125 2.6875l0 1.046875l-10.28125 0l0 -1.921875l7.9375 0l0 -0.171875q-0.0625 -0.921875 -0.390625 -1.78125q-0.3125 -0.875 -1.015625 -1.4375q-0.703125 -0.5625 -1.90625 -0.5625q-0.8125 0 -1.484375 0.34375q-0.671875 0.34375 -1.15625 1.0q-0.484375 0.65625 -0.75 1.625q-0.265625 0.953125 -0.265625 2.203125l0 0.53125q0 0.984375 0.265625 1.84375q0.28125 0.859375 0.796875 1.515625q0.53125 0.640625 1.28125 1.015625q0.765625 0.359375 1.734375 0.359375q1.25 0 2.109375 -0.5q0.875 -0.515625 1.53125 -1.375l1.421875 1.140625q-0.453125 0.671875 -1.140625 1.28125q-0.6875 0.609375 -1.6875 1.0q-1.0 0.375 -2.359375 0.375zm16.149292 -3.90625q0 -0.515625 -0.234375 -0.953125q-0.21875 -0.4375 -0.90625 -0.796875q-0.671875 -0.359375 -2.03125 -0.640625q-1.15625 -0.234375 -2.078125 -0.5625q-0.921875 -0.328125 -1.5625 -0.796875q-0.640625 -0.484375 -0.984375 -1.109375q-0.34375 -0.640625 -0.34375 -1.5q0 -0.8125 0.359375 -1.53125q0.359375 -0.734375 1.03125 -1.296875q0.671875 -0.5625 1.609375 -0.875q0.9375 -0.328125 2.109375 -0.328125q1.65625 0 2.828125 0.59375q1.171875 0.578125 1.796875 1.5625q0.625 0.96875 0.625 2.15625l-2.359375 0q0 -0.578125 -0.34375 -1.109375q-0.328125 -0.546875 -0.984375 -0.90625q-0.640625 -0.359375 -1.5625 -0.359375q-0.984375 0 -1.59375 0.3125q-0.609375 0.296875 -0.890625 0.75q-0.265625 0.453125 -0.265625 0.96875q0 0.375 0.125 0.6875q0.140625 0.296875 0.484375 0.546875q0.34375 0.25 0.96875 0.46875q0.625 0.203125 1.59375 0.421875q1.703125 0.390625 2.796875 0.921875q1.09375 0.53125 1.625 1.3125q0.546875 0.78125 0.546875 1.890625q0 0.890625 -0.390625 1.65625q-0.375 0.75 -1.078125 1.296875q-0.703125 0.53125 -1.6875 0.828125q-0.96875 0.296875 -2.171875 0.296875q-1.828125 0 -3.09375 -0.640625q-1.25 -0.65625 -1.90625 -1.6875q-0.65625 -1.03125 -0.65625 -2.171875l2.375 0q0.046875 0.96875 0.5625 1.53125q0.515625 0.5625 1.25 0.796875q0.734375 0.234375 1.46875 0.234375q0.96875 0 1.625 -0.25q0.65625 -0.25 1.0 -0.6875q0.34375 -0.453125 0.34375 -1.03125zm7.795471 -7.484375l0 16.4375l-2.375 0l0 -19.078125l2.171875 0l0.203125 2.640625zm9.28125 4.140625l0 0.265625q0 1.5 -0.359375 2.78125q-0.34375 1.28125 -1.03125 2.21875q-0.6875 0.9375 -1.6875 1.46875q-0.984375 0.515625 -2.265625 0.515625q-1.3125 0 -2.328125 -0.421875q-1.0 -0.4375 -1.703125 -1.265625q-0.703125 -0.828125 -1.125 -1.984375q-0.40625 -1.171875 -0.5625 -2.625l0 -1.421875q0.15625 -1.53125 0.578125 -2.734375q0.421875 -1.21875 1.109375 -2.078125q0.703125 -0.859375 1.6875 -1.3125q1.0 -0.453125 2.296875 -0.453125q1.3125 0 2.3125 0.515625q1.0 0.5 1.6875 1.4375q0.6875 0.921875 1.03125 2.21875q0.359375 1.28125 0.359375 2.875zm-2.359375 0.265625l0 -0.265625q0 -1.046875 -0.21875 -1.953125q-0.21875 -0.90625 -0.671875 -1.59375q-0.453125 -0.703125 -1.15625 -1.09375q-0.703125 -0.40625 -1.671875 -0.40625q-0.890625 0 -1.546875 0.3125q-0.65625 0.296875 -1.109375 0.8125q-0.453125 0.515625 -0.75 1.171875q-0.28125 0.65625 -0.421875 1.359375l0 3.296875q0.25 0.890625 0.703125 1.671875q0.46875 0.78125 1.234375 1.265625q0.765625 0.46875 1.921875 0.46875q0.953125 0 1.640625 -0.390625q0.703125 -0.40625 1.15625 -1.109375q0.453125 -0.703125 0.671875 -1.609375q0.21875 -0.90625 0.21875 -1.9375zm11.089783 6.984375q-1.4375 0 -2.609375 -0.484375q-1.15625 -0.484375 -2.0 -1.375q-0.828125 -0.90625 -1.28125 -2.125q-0.4375 -1.21875 -0.4375 -2.671875l0 -0.53125q0 -1.6875 0.484375 -3.0q0.5 -1.328125 1.359375 -2.234375q0.859375 -0.921875 1.9375 -1.390625q1.078125 -0.484375 2.25 -0.484375q1.46875 0 2.546875 0.515625q1.078125 0.515625 1.765625 1.421875q0.6875 0.90625 1.015625 2.140625q0.328125 1.234375 0.328125 2.6875l0 1.046875l-10.28125 0l0 -1.921875l7.9375 0l0 -0.171875q-0.0625 -0.921875 -0.390625 -1.78125q-0.3125 -0.875 -1.015625 -1.4375q-0.703125 -0.5625 -1.90625 -0.5625q-0.8125 0 -1.484375 0.34375q-0.671875 0.34375 -1.15625 1.0q-0.484375 0.65625 -0.75 1.625q-0.265625 0.953125 -0.265625 2.203125l0 0.53125q0 0.984375 0.265625 1.84375q0.28125 0.859375 0.796875 1.515625q0.53125 0.640625 1.28125 1.015625q0.765625 0.359375 1.734375 0.359375q1.25 0 2.109375 -0.5q0.875 -0.515625 1.53125 -1.375l1.421875 1.140625q-0.453125 0.671875 -1.140625 1.28125q-0.6875 0.609375 -1.6875 1.0q-1.0 0.375 -2.359375 0.375zm13.633667 -1.9375q0.84375 0 1.546875 -0.34375q0.71875 -0.34375 1.171875 -0.9375q0.46875 -0.609375 0.53125 -1.390625l2.25 0q-0.078125 1.21875 -0.84375 2.28125q-0.75 1.046875 -1.96875 1.6875q-1.21875 0.640625 -2.6875 0.640625q-1.546875 0 -2.703125 -0.546875q-1.15625 -0.546875 -1.921875 -1.5q-0.75 -0.953125 -1.125 -2.1875q-0.375 -1.25 -0.375 -2.640625l0 -0.53125q0 -1.390625 0.375 -2.625q0.375 -1.25 1.125 -2.203125q0.765625 -0.953125 1.921875 -1.5q1.15625 -0.5625 2.703125 -0.5625q1.625 0 2.828125 0.65625q1.21875 0.65625 1.90625 1.796875q0.6875 1.125 0.765625 2.546875l-2.25 0q-0.0625 -0.859375 -0.484375 -1.546875q-0.40625 -0.6875 -1.125 -1.09375q-0.703125 -0.421875 -1.640625 -0.421875q-1.078125 0 -1.8125 0.4375q-0.734375 0.421875 -1.171875 1.140625q-0.421875 0.71875 -0.609375 1.59375q-0.171875 0.875 -0.171875 1.78125l0 0.53125q0 0.90625 0.171875 1.78125q0.1875 0.875 0.609375 1.59375q0.421875 0.71875 1.15625 1.140625q0.734375 0.421875 1.828125 0.421875zm13.908447 -12.09375l0 1.796875l-7.453125 0l0 -1.796875l7.453125 0zm-4.921875 -3.359375l2.359375 0l0 13.71875q0 0.703125 0.203125 1.0625q0.21875 0.359375 0.5625 0.484375q0.34375 0.109375 0.75 0.109375q0.28125 0 0.609375 -0.0625q0.328125 -0.0625 0.5 -0.09375l0 1.921875q-0.265625 0.09375 -0.71875 0.171875q-0.453125 0.078125 -1.09375 0.078125q-0.875 0 -1.609375 -0.34375q-0.71875 -0.34375 -1.140625 -1.140625q-0.421875 -0.8125 -0.421875 -2.1875l0 -13.71875zm19.930908 3.359375l0 1.796875l-7.453125 0l0 -1.796875l7.453125 0zm-4.921875 -3.359375l2.359375 0l0 13.71875q0 0.703125 0.203125 1.0625q0.21875 0.359375 0.5625 0.484375q0.34375 0.109375 0.75 0.109375q0.28125 0 0.609375 -0.0625q0.328125 -0.0625 0.5 -0.09375l0 1.921875q-0.265625 0.09375 -0.71875 0.171875q-0.453125 0.078125 -1.09375 0.078125q-0.875 0 -1.609375 -0.34375q-0.71875 -0.34375 -1.140625 -1.140625q-0.421875 -0.8125 -0.421875 -2.1875l0 -13.71875zm10.052124 -2.4375l0 19.578125l-2.359375 0l0 -19.578125l2.359375 0zm-0.5625 12.15625l-0.984375 -0.03125q0.015625 -1.421875 0.421875 -2.625q0.40625 -1.203125 1.140625 -2.09375q0.75 -0.890625 1.765625 -1.375q1.03125 -0.5 2.28125 -0.5q1.015625 0 1.828125 0.28125q0.828125 0.265625 1.40625 0.875q0.578125 0.59375 0.875 1.546875q0.3125 0.953125 0.3125 2.3125l0 9.03125l-2.375 0l0 -9.0625q0 -1.078125 -0.328125 -1.734375q-0.3125 -0.65625 -0.921875 -0.953125q-0.609375 -0.296875 -1.5 -0.296875q-0.875 0 -1.59375 0.375q-0.71875 0.359375 -1.234375 1.015625q-0.515625 0.640625 -0.8125 1.484375q-0.28125 0.828125 -0.28125 1.75zm18.293823 7.671875q-1.4375 0 -2.609375 -0.484375q-1.15625 -0.484375 -2.0 -1.375q-0.828125 -0.90625 -1.28125 -2.125q-0.4375 -1.21875 -0.4375 -2.671875l0 -0.53125q0 -1.6875 0.484375 -3.0q0.5 -1.328125 1.359375 -2.234375q0.859375 -0.921875 1.9375 -1.390625q1.078125 -0.484375 2.25 -0.484375q1.46875 0 2.546875 0.515625q1.078125 0.515625 1.765625 1.421875q0.6875 0.90625 1.015625 2.140625q0.328125 1.234375 0.328125 2.6875l0 1.046875l-10.28125 0l0 -1.921875l7.9375 0l0 -0.171875q-0.0625 -0.921875 -0.390625 -1.78125q-0.3125 -0.875 -1.015625 -1.4375q-0.703125 -0.5625 -1.90625 -0.5625q-0.8125 0 -1.484375 0.34375q-0.671875 0.34375 -1.15625 1.0q-0.484375 0.65625 -0.75 1.625q-0.265625 0.953125 -0.265625 2.203125l0 0.53125q0 0.984375 0.265625 1.84375q0.28125 0.859375 0.796875 1.515625q0.53125 0.640625 1.28125 1.015625q0.765625 0.359375 1.734375 0.359375q1.25 0 2.109375 -0.5q0.875 -0.515625 1.53125 -1.375l1.421875 1.140625q-0.453125 0.671875 -1.140625 1.28125q-0.6875 0.609375 -1.6875 1.0q-1.0 0.375 -2.359375 0.375z" fill-rule="nonzero"/><path fill="#ffffff" d="m575.0097 279.61615l0 13.78125l-2.375 0l0 -13.78125l2.375 0zm-2.546875 -3.65625q0 -0.578125 0.34375 -0.96875q0.359375 -0.40625 1.046875 -0.40625q0.671875 0 1.03125 0.40625q0.359375 0.390625 0.359375 0.96875q0 0.546875 -0.359375 0.9375q-0.359375 0.375 -1.03125 0.375q-0.6875 0 -1.046875 -0.375q-0.34375 -0.390625 -0.34375 -0.9375zm15.016907 14.765625l0 -16.90625l2.375 0l0 19.578125l-2.171875 0l-0.203125 -2.671875zm-9.28125 -4.0625l0 -0.265625q0 -1.59375 0.390625 -2.875q0.390625 -1.296875 1.109375 -2.21875q0.71875 -0.9375 1.71875 -1.4375q1.0 -0.515625 2.234375 -0.515625q1.3125 0 2.28125 0.453125q0.96875 0.453125 1.65625 1.3125q0.6875 0.859375 1.078125 2.078125q0.390625 1.203125 0.546875 2.734375l0 1.171875q-0.140625 1.515625 -0.546875 2.734375q-0.390625 1.203125 -1.078125 2.0625q-0.6875 0.84375 -1.671875 1.296875q-0.96875 0.453125 -2.28125 0.453125q-1.21875 0 -2.21875 -0.515625q-1.0 -0.53125 -1.71875 -1.46875q-0.71875 -0.9375 -1.109375 -2.21875q-0.390625 -1.28125 -0.390625 -2.78125zm2.375 -0.265625l0 0.265625q0 1.03125 0.203125 1.9375q0.21875 0.890625 0.65625 1.59375q0.453125 0.6875 1.140625 1.078125q0.6875 0.375 1.640625 0.375q1.171875 0 1.921875 -0.484375q0.765625 -0.5 1.21875 -1.3125q0.46875 -0.828125 0.71875 -1.78125l0 -3.0625q-0.140625 -0.703125 -0.4375 -1.359375q-0.28125 -0.65625 -0.734375 -1.171875q-0.453125 -0.515625 -1.109375 -0.8125q-0.65625 -0.3125 -1.546875 -0.3125q-0.96875 0 -1.671875 0.40625q-0.6875 0.390625 -1.140625 1.09375q-0.4375 0.6875 -0.65625 1.59375q-0.203125 0.90625 -0.203125 1.953125zm18.653503 7.25q-1.4375 0 -2.609375 -0.484375q-1.15625 -0.484375 -2.0 -1.375q-0.828125 -0.90625 -1.28125 -2.125q-0.4375 -1.21875 -0.4375 -2.671875l0 -0.53125q0 -1.6875 0.484375 -3.0q0.5 -1.328125 1.359375 -2.234375q0.859375 -0.921875 1.9375 -1.390625q1.078125 -0.484375 2.25 -0.484375q1.46875 0 2.546875 0.515625q1.078125 0.515625 1.765625 1.421875q0.6875 0.90625 1.015625 2.140625q0.328125 1.234375 0.328125 2.6875l0 1.046875l-10.28125 0l0 -1.921875l7.9375 0l0 -0.171875q-0.0625 -0.921875 -0.390625 -1.78125q-0.3125 -0.875 -1.015625 -1.4375q-0.703125 -0.5625 -1.90625 -0.5625q-0.8125 0 -1.484375 0.34375q-0.671875 0.34375 -1.15625 1.0q-0.484375 0.65625 -0.75 1.625q-0.265625 0.953125 -0.265625 2.203125l0 0.53125q0 0.984375 0.265625 1.84375q0.28125 0.859375 0.796875 1.515625q0.53125 0.640625 1.28125 1.015625q0.765625 0.359375 1.734375 0.359375q1.25 0 2.109375 -0.5q0.875 -0.515625 1.53125 -1.375l1.421875 1.140625q-0.453125 0.671875 -1.140625 1.28125q-0.6875 0.609375 -1.6875 1.0q-1.0 0.375 -2.359375 0.375zm10.477417 -11.09375l0 10.84375l-2.359375 0l0 -13.78125l2.234375 0l0.125 2.9375zm-0.5625 3.421875l-0.984375 -0.03125q0.015625 -1.421875 0.421875 -2.625q0.40625 -1.203125 1.140625 -2.09375q0.75 -0.890625 1.765625 -1.375q1.03125 -0.5 2.28125 -0.5q1.015625 0 1.828125 0.28125q0.828125 0.265625 1.40625 0.875q0.578125 0.59375 0.875 1.546875q0.3125 0.953125 0.3125 2.3125l0 9.03125l-2.375 0l0 -9.0625q0 -1.078125 -0.328125 -1.734375q-0.3125 -0.65625 -0.921875 -0.953125q-0.609375 -0.296875 -1.5 -0.296875q-0.875 0 -1.59375 0.375q-0.71875 0.359375 -1.234375 1.015625q-0.515625 0.640625 -0.8125 1.484375q-0.28125 0.828125 -0.28125 1.75zm18.378906 -6.359375l0 1.796875l-7.453125 0l0 -1.796875l7.453125 0zm-4.921875 -3.359375l2.359375 0l0 13.71875q0 0.703125 0.203125 1.0625q0.21875 0.359375 0.5625 0.484375q0.34375 0.109375 0.75 0.109375q0.28125 0 0.609375 -0.0625q0.328125 -0.0625 0.5 -0.09375l0 1.921875q-0.265625 0.09375 -0.71875 0.171875q-0.453125 0.078125 -1.09375 0.078125q-0.875 0 -1.609375 -0.34375q-0.71875 -0.34375 -1.140625 -1.140625q-0.421875 -0.8125 -0.421875 -2.1875l0 -13.71875zm10.25531 3.359375l0 13.78125l-2.375 0l0 -13.78125l2.375 0zm-2.546875 -3.65625q0 -0.578125 0.34375 -0.96875q0.359375 -0.40625 1.046875 -0.40625q0.671875 0 1.03125 0.40625q0.359375 0.390625 0.359375 0.96875q0 0.546875 -0.359375 0.9375q-0.359375 0.375 -1.03125 0.375q-0.6875 0 -1.046875 -0.375q-0.34375 -0.390625 -0.34375 -0.9375zm12.095032 3.65625l0 1.796875l-7.453125 0l0 -1.796875l7.453125 0zm-4.921875 -3.359375l2.359375 0l0 13.71875q0 0.703125 0.203125 1.0625q0.21875 0.359375 0.5625 0.484375q0.34375 0.109375 0.75 0.109375q0.28125 0 0.609375 -0.0625q0.328125 -0.0625 0.5 -0.09375l0 1.921875q-0.265625 0.09375 -0.71875 0.171875q-0.453125 0.078125 -1.09375 0.078125q-0.875 0 -1.609375 -0.34375q-0.71875 -0.34375 -1.140625 -1.140625q-0.421875 -0.8125 -0.421875 -2.1875l0 -13.71875zm11.56781 15.71875l3.828125 -12.359375l2.53125 0l-5.53125 15.90625q-0.1875 0.515625 -0.5 1.109375q-0.3125 0.59375 -0.796875 1.125q-0.484375 0.53125 -1.171875 0.859375q-0.6875 0.34375 -1.625 0.34375q-0.28125 0 -0.71875 -0.078125q-0.421875 -0.0625 -0.609375 -0.125l-0.015625 -1.90625q0.109375 0.015625 0.328125 0.03125q0.234375 0.015625 0.3125 0.015625q0.8125 0 1.359375 -0.21875q0.5625 -0.203125 0.953125 -0.6875q0.390625 -0.484375 0.671875 -1.34375l0.984375 -2.671875zm-2.8125 -12.359375l3.578125 10.703125l0.609375 2.484375l-1.703125 0.859375l-5.0625 -14.046875l2.578125 0zm25.881104 11.421875l0 -7.09375q0 -0.8125 -0.328125 -1.421875q-0.3125 -0.609375 -0.96875 -0.9375q-0.65625 -0.328125 -1.609375 -0.328125q-0.890625 0 -1.5625 0.3125q-0.65625 0.296875 -1.046875 0.796875q-0.375 0.5 -0.375 1.0625l-2.34375 0q0 -0.734375 0.375 -1.453125q0.390625 -0.734375 1.109375 -1.328125q0.71875 -0.59375 1.71875 -0.9375q1.015625 -0.359375 2.265625 -0.359375q1.5 0 2.65625 0.515625q1.15625 0.515625 1.8125 1.546875q0.65625 1.015625 0.65625 2.5625l0 6.421875q0 0.6875 0.125 1.46875q0.125 0.765625 0.359375 1.328125l0 0.203125l-2.453125 0q-0.1875 -0.40625 -0.296875 -1.078125q-0.09375 -0.6875 -0.09375 -1.28125zm0.40625 -6.0l0.03125 1.65625l-2.390625 0q-1.0 0 -1.796875 0.15625q-0.78125 0.15625 -1.328125 0.484375q-0.53125 0.3125 -0.8125 0.796875q-0.265625 0.46875 -0.265625 1.109375q0 0.65625 0.28125 1.1875q0.296875 0.53125 0.890625 0.84375q0.59375 0.3125 1.453125 0.3125q1.09375 0 1.921875 -0.453125q0.828125 -0.46875 1.3125 -1.125q0.484375 -0.65625 0.53125 -1.28125l1.0 1.125q-0.078125 0.546875 -0.484375 1.203125q-0.390625 0.640625 -1.046875 1.234375q-0.65625 0.59375 -1.5625 0.984375q-0.890625 0.375 -2.015625 0.375q-1.390625 0 -2.453125 -0.546875q-1.046875 -0.546875 -1.625 -1.46875q-0.578125 -0.921875 -0.578125 -2.0625q0 -1.109375 0.421875 -1.953125q0.4375 -0.859375 1.25 -1.421875q0.828125 -0.5625 1.96875 -0.859375q1.140625 -0.296875 2.5625 -0.296875l2.734375 0zm8.0216675 -2.484375l0 10.84375l-2.359375 0l0 -13.78125l2.234375 0l0.125 2.9375zm-0.5625 3.421875l-0.984375 -0.03125q0.015625 -1.421875 0.421875 -2.625q0.40625 -1.203125 1.140625 -2.09375q0.75 -0.890625 1.765625 -1.375q1.03125 -0.5 2.28125 -0.5q1.015625 0 1.828125 0.28125q0.828125 0.265625 1.40625 0.875q0.578125 0.59375 0.875 1.546875q0.3125 0.953125 0.3125 2.3125l0 9.03125l-2.375 0l0 -9.0625q0 -1.078125 -0.328125 -1.734375q-0.3125 -0.65625 -0.921875 -0.953125q-0.609375 -0.296875 -1.5 -0.296875q-0.875 0 -1.59375 0.375q-0.71875 0.359375 -1.234375 1.015625q-0.515625 0.640625 -0.8125 1.484375q-0.28125 0.828125 -0.28125 1.75zm21.300781 4.75l0 -16.90625l2.375 0l0 19.578125l-2.171875 0l-0.203125 -2.671875zm-9.28125 -4.0625l0 -0.265625q0 -1.59375 0.390625 -2.875q0.390625 -1.296875 1.109375 -2.21875q0.71875 -0.9375 1.71875 -1.4375q1.0 -0.515625 2.234375 -0.515625q1.3125 0 2.28125 0.453125q0.96875 0.453125 1.65625 1.3125q0.6875 0.859375 1.078125 2.078125q0.390625 1.203125 0.546875 2.734375l0 1.171875q-0.140625 1.515625 -0.546875 2.734375q-0.390625 1.203125 -1.078125 2.0625q-0.6875 0.84375 -1.671875 1.296875q-0.96875 0.453125 -2.28125 0.453125q-1.21875 0 -2.21875 -0.515625q-1.0 -0.53125 -1.71875 -1.46875q-0.71875 -0.9375 -1.109375 -2.21875q-0.390625 -1.28125 -0.390625 -2.78125zm2.375 -0.265625l0 0.265625q0 1.03125 0.203125 1.9375q0.21875 0.890625 0.65625 1.59375q0.453125 0.6875 1.140625 1.078125q0.6875 0.375 1.640625 0.375q1.171875 0 1.921875 -0.484375q0.765625 -0.5 1.21875 -1.3125q0.46875 -0.828125 0.71875 -1.78125l0 -3.0625q-0.140625 -0.703125 -0.4375 -1.359375q-0.28125 -0.65625 -0.734375 -1.171875q-0.453125 -0.515625 -1.109375 -0.8125q-0.65625 -0.3125 -1.546875 -0.3125q-0.96875 0 -1.671875 0.40625q-0.6875 0.390625 -1.140625 1.09375q-0.4375 0.6875 -0.65625 1.59375q-0.203125 0.90625 -0.203125 1.953125z" fill-rule="nonzero"/><path fill="#ffffff" d="m577.9628 322.7099q0.84375 0 1.546875 -0.34375q0.71875 -0.34375 1.171875 -0.9375q0.46875 -0.609375 0.53125 -1.390625l2.25 0q-0.078125 1.21875 -0.84375 2.28125q-0.75 1.046875 -1.96875 1.6875q-1.21875 0.640625 -2.6875 0.640625q-1.546875 0 -2.703125 -0.546875q-1.15625 -0.546875 -1.921875 -1.5q-0.75 -0.953125 -1.125 -2.1875q-0.375 -1.25 -0.375 -2.640625l0 -0.53125q0 -1.390625 0.375 -2.625q0.375 -1.25 1.125 -2.203125q0.765625 -0.953125 1.921875 -1.5q1.15625 -0.5625 2.703125 -0.5625q1.625 0 2.828125 0.65625q1.21875 0.65625 1.90625 1.796875q0.6875 1.125 0.765625 2.546875l-2.25 0q-0.0625 -0.859375 -0.484375 -1.546875q-0.40625 -0.6875 -1.125 -1.09375q-0.703125 -0.421875 -1.640625 -0.421875q-1.078125 0 -1.8125 0.4375q-0.734375 0.421875 -1.171875 1.140625q-0.421875 0.71875 -0.609375 1.59375q-0.171875 0.875 -0.171875 1.78125l0 0.53125q0 0.90625 0.171875 1.78125q0.1875 0.875 0.609375 1.59375q0.421875 0.71875 1.15625 1.140625q0.734375 0.421875 1.828125 0.421875zm10.705322 -12.09375l0 13.78125l-2.375 0l0 -13.78125l2.375 0zm-2.546875 -3.65625q0 -0.578125 0.34375 -0.96875q0.359375 -0.40625 1.046875 -0.40625q0.671875 0 1.03125 0.40625q0.359375 0.390625 0.359375 0.96875q0 0.546875 -0.359375 0.9375q-0.359375 0.375 -1.03125 0.375q-0.6875 0 -1.046875 -0.375q-0.34375 -0.390625 -0.34375 -0.9375zm8.688782 5.8125l0 11.625l-2.359375 0l0 -13.78125l2.296875 0l0.0625 2.15625zm4.296875 -2.234375l0 2.1875q-0.296875 -0.0625 -0.5625 -0.078125q-0.265625 -0.015625 -0.59375 -0.015625q-0.8125 0 -1.4375 0.25q-0.625 0.25 -1.0625 0.71875q-0.421875 0.453125 -0.671875 1.09375q-0.25 0.625 -0.328125 1.375l-0.65625 0.375q0 -1.25 0.234375 -2.34375q0.25 -1.09375 0.765625 -1.9375q0.53125 -0.84375 1.34375 -1.328125q0.8125 -0.484375 1.9375 -0.484375q0.25 0 0.578125 0.0625q0.328125 0.0625 0.453125 0.125zm7.4594727 12.171875q0.84375 0 1.546875 -0.34375q0.71875 -0.34375 1.171875 -0.9375q0.46875 -0.609375 0.53125 -1.390625l2.25 0q-0.078125 1.21875 -0.84375 2.28125q-0.75 1.046875 -1.96875 1.6875q-1.21875 0.640625 -2.6875 0.640625q-1.546875 0 -2.703125 -0.546875q-1.15625 -0.546875 -1.921875 -1.5q-0.75 -0.953125 -1.125 -2.1875q-0.375 -1.25 -0.375 -2.640625l0 -0.53125q0 -1.390625 0.375 -2.625q0.375 -1.25 1.125 -2.203125q0.765625 -0.953125 1.921875 -1.5q1.15625 -0.5625 2.703125 -0.5625q1.625 0 2.828125 0.65625q1.21875 0.65625 1.90625 1.796875q0.6875 1.125 0.765625 2.546875l-2.25 0q-0.0625 -0.859375 -0.484375 -1.546875q-0.40625 -0.6875 -1.125 -1.09375q-0.703125 -0.421875 -1.640625 -0.421875q-1.078125 0 -1.8125 0.4375q-0.734375 0.421875 -1.171875 1.140625q-0.421875 0.71875 -0.609375 1.59375q-0.171875 0.875 -0.171875 1.78125l0 0.53125q0 0.90625 0.171875 1.78125q0.1875 0.875 0.609375 1.59375q0.421875 0.71875 1.15625 1.140625q0.734375 0.421875 1.828125 0.421875zm16.580322 -1.5l0 -10.59375l2.359375 0l0 13.78125l-2.25 0l-0.109375 -3.1875zm0.4375 -2.90625l0.984375 -0.015625q0 1.375 -0.296875 2.546875q-0.28125 1.15625 -0.921875 2.015625q-0.625 0.84375 -1.65625 1.328125q-1.03125 0.46875 -2.515625 0.46875q-1.0 0 -1.84375 -0.28125q-0.828125 -0.296875 -1.4375 -0.90625q-0.59375 -0.609375 -0.921875 -1.59375q-0.3125 -0.984375 -0.3125 -2.359375l0 -8.890625l2.359375 0l0 8.921875q0 0.921875 0.203125 1.53125q0.203125 0.59375 0.5625 0.953125q0.375 0.34375 0.828125 0.484375q0.453125 0.140625 0.9375 0.140625q1.5 0 2.375 -0.578125q0.890625 -0.578125 1.265625 -1.5625q0.390625 -0.984375 0.390625 -2.203125zm7.8534546 -4.953125l0 11.046875l-2.375 0l0 -13.78125l2.25 0l0.125 2.734375zm-0.484375 3.625l-1.09375 -0.03125q0.015625 -1.421875 0.359375 -2.625q0.359375 -1.203125 1.0625 -2.09375q0.703125 -0.890625 1.75 -1.375q1.046875 -0.5 2.421875 -0.5q0.96875 0 1.78125 0.28125q0.8125 0.265625 1.40625 0.859375q0.609375 0.578125 0.9375 1.5q0.328125 0.921875 0.328125 2.21875l0 9.1875l-2.359375 0l0 -9.078125q0 -1.078125 -0.359375 -1.71875q-0.359375 -0.65625 -1.03125 -0.953125q-0.65625 -0.296875 -1.546875 -0.296875q-1.046875 0 -1.75 0.375q-0.703125 0.359375 -1.125 1.015625q-0.40625 0.640625 -0.59375 1.484375q-0.1875 0.828125 -0.1875 1.75zm8.9375 -1.296875l-1.578125 0.484375q0 -1.125 0.359375 -2.171875q0.375 -1.046875 1.0625 -1.859375q0.703125 -0.8125 1.71875 -1.296875q1.015625 -0.484375 2.328125 -0.484375q1.109375 0 1.96875 0.296875q0.859375 0.296875 1.453125 0.90625q0.59375 0.59375 0.890625 1.546875q0.3125 0.9375 0.3125 2.234375l0 9.0625l-2.375 0l0 -9.078125q0 -1.171875 -0.359375 -1.8125q-0.359375 -0.640625 -1.015625 -0.890625q-0.65625 -0.265625 -1.5625 -0.265625q-0.78125 0 -1.375 0.265625q-0.59375 0.265625 -1.0 0.734375q-0.40625 0.453125 -0.625 1.0625q-0.203125 0.59375 -0.203125 1.265625zm20.11737 5.0625q0 -0.515625 -0.234375 -0.953125q-0.21875 -0.4375 -0.90625 -0.796875q-0.671875 -0.359375 -2.03125 -0.640625q-1.15625 -0.234375 -2.078125 -0.5625q-0.921875 -0.328125 -1.5625 -0.796875q-0.640625 -0.484375 -0.984375 -1.109375q-0.34375 -0.640625 -0.34375 -1.5q0 -0.8125 0.359375 -1.53125q0.359375 -0.734375 1.03125 -1.296875q0.671875 -0.5625 1.609375 -0.875q0.9375 -0.328125 2.109375 -0.328125q1.65625 0 2.828125 0.59375q1.171875 0.578125 1.796875 1.5625q0.625 0.96875 0.625 2.15625l-2.359375 0q0 -0.578125 -0.34375 -1.109375q-0.328125 -0.546875 -0.984375 -0.90625q-0.640625 -0.359375 -1.5625 -0.359375q-0.984375 0 -1.59375 0.3125q-0.609375 0.296875 -0.890625 0.75q-0.265625 0.453125 -0.265625 0.96875q0 0.375 0.125 0.6875q0.140625 0.296875 0.484375 0.546875q0.34375 0.25 0.96875 0.46875q0.625 0.203125 1.59375 0.421875q1.703125 0.390625 2.796875 0.921875q1.09375 0.53125 1.625 1.3125q0.546875 0.78125 0.546875 1.890625q0 0.890625 -0.390625 1.65625q-0.375 0.75 -1.078125 1.296875q-0.703125 0.53125 -1.6875 0.828125q-0.96875 0.296875 -2.171875 0.296875q-1.828125 0 -3.09375 -0.640625q-1.25 -0.65625 -1.90625 -1.6875q-0.65625 -1.03125 -0.65625 -2.171875l2.375 0q0.046875 0.96875 0.5625 1.53125q0.515625 0.5625 1.25 0.796875q0.734375 0.234375 1.46875 0.234375q0.96875 0 1.625 -0.25q0.65625 -0.25 1.0 -0.6875q0.34375 -0.453125 0.34375 -1.03125zm11.201721 -10.125l0 1.796875l-7.453125 0l0 -1.796875l7.453125 0zm-4.921875 -3.359375l2.359375 0l0 13.71875q0 0.703125 0.203125 1.0625q0.21875 0.359375 0.5625 0.484375q0.34375 0.109375 0.75 0.109375q0.28125 0 0.609375 -0.0625q0.328125 -0.0625 0.5 -0.09375l0 1.921875q-0.265625 0.09375 -0.71875 0.171875q-0.453125 0.078125 -1.09375 0.078125q-0.875 0 -1.609375 -0.34375q-0.71875 -0.34375 -1.140625 -1.140625q-0.421875 -0.8125 -0.421875 -2.1875l0 -13.71875zm15.817749 14.78125l0 -7.09375q0 -0.8125 -0.328125 -1.421875q-0.3125 -0.609375 -0.96875 -0.9375q-0.65625 -0.328125 -1.609375 -0.328125q-0.890625 0 -1.5625 0.3125q-0.65625 0.296875 -1.046875 0.796875q-0.375 0.5 -0.375 1.0625l-2.34375 0q0 -0.734375 0.375 -1.453125q0.390625 -0.734375 1.109375 -1.328125q0.71875 -0.59375 1.71875 -0.9375q1.015625 -0.359375 2.265625 -0.359375q1.5 0 2.65625 0.515625q1.15625 0.515625 1.8125 1.546875q0.65625 1.015625 0.65625 2.5625l0 6.421875q0 0.6875 0.125 1.46875q0.125 0.765625 0.359375 1.328125l0 0.203125l-2.453125 0q-0.1875 -0.40625 -0.296875 -1.078125q-0.09375 -0.6875 -0.09375 -1.28125zm0.40625 -6.0l0.03125 1.65625l-2.390625 0q-1.0 0 -1.796875 0.15625q-0.78125 0.15625 -1.328125 0.484375q-0.53125 0.3125 -0.8125 0.796875q-0.265625 0.46875 -0.265625 1.109375q0 0.65625 0.28125 1.1875q0.296875 0.53125 0.890625 0.84375q0.59375 0.3125 1.453125 0.3125q1.09375 0 1.921875 -0.453125q0.828125 -0.46875 1.3125 -1.125q0.484375 -0.65625 0.53125 -1.28125l1.0 1.125q-0.078125 0.546875 -0.484375 1.203125q-0.390625 0.640625 -1.046875 1.234375q-0.65625 0.59375 -1.5625 0.984375q-0.890625 0.375 -2.015625 0.375q-1.390625 0 -2.453125 -0.546875q-1.046875 -0.546875 -1.625 -1.46875q-0.578125 -0.921875 -0.578125 -2.0625q0 -1.109375 0.421875 -1.953125q0.4375 -0.859375 1.25 -1.421875q0.828125 -0.5625 1.96875 -0.859375q1.140625 -0.296875 2.5625 -0.296875l2.734375 0zm8.0217285 -2.484375l0 10.84375l-2.359375 0l0 -13.78125l2.234375 0l0.125 2.9375zm-0.5625 3.421875l-0.984375 -0.03125q0.015625 -1.421875 0.421875 -2.625q0.40625 -1.203125 1.140625 -2.09375q0.75 -0.890625 1.765625 -1.375q1.03125 -0.5 2.28125 -0.5q1.015625 0 1.828125 0.28125q0.828125 0.265625 1.40625 0.875q0.578125 0.59375 0.875 1.546875q0.3125 0.953125 0.3125 2.3125l0 9.03125l-2.375 0l0 -9.0625q0 -1.078125 -0.328125 -1.734375q-0.3125 -0.65625 -0.921875 -0.953125q-0.609375 -0.296875 -1.5 -0.296875q-0.875 0 -1.59375 0.375q-0.71875 0.359375 -1.234375 1.015625q-0.515625 0.640625 -0.8125 1.484375q-0.28125 0.828125 -0.28125 1.75zm18.128906 5.734375q0.84375 0 1.546875 -0.34375q0.71875 -0.34375 1.171875 -0.9375q0.46875 -0.609375 0.53125 -1.390625l2.25 0q-0.078125 1.21875 -0.84375 2.28125q-0.75 1.046875 -1.96875 1.6875q-1.21875 0.640625 -2.6875 0.640625q-1.546875 0 -2.703125 -0.546875q-1.15625 -0.546875 -1.921875 -1.5q-0.75 -0.953125 -1.125 -2.1875q-0.375 -1.25 -0.375 -2.640625l0 -0.53125q0 -1.390625 0.375 -2.625q0.375 -1.25 1.125 -2.203125q0.765625 -0.953125 1.921875 -1.5q1.15625 -0.5625 2.703125 -0.5625q1.625 0 2.828125 0.65625q1.21875 0.65625 1.90625 1.796875q0.6875 1.125 0.765625 2.546875l-2.25 0q-0.0625 -0.859375 -0.484375 -1.546875q-0.40625 -0.6875 -1.125 -1.09375q-0.703125 -0.421875 -1.640625 -0.421875q-1.078125 0 -1.8125 0.4375q-0.734375 0.421875 -1.171875 1.140625q-0.421875 0.71875 -0.609375 1.59375q-0.171875 0.875 -0.171875 1.78125l0 0.53125q0 0.90625 0.171875 1.78125q0.1875 0.875 0.609375 1.59375q0.421875 0.71875 1.15625 1.140625q0.734375 0.421875 1.828125 0.421875zm13.861572 1.9375q-1.4375 0 -2.609375 -0.484375q-1.15625 -0.484375 -2.0 -1.375q-0.828125 -0.90625 -1.28125 -2.125q-0.4375 -1.21875 -0.4375 -2.671875l0 -0.53125q0 -1.6875 0.484375 -3.0q0.5 -1.328125 1.359375 -2.234375q0.859375 -0.921875 1.9375 -1.390625q1.078125 -0.484375 2.25 -0.484375q1.46875 0 2.546875 0.515625q1.078125 0.515625 1.765625 1.421875q0.6875 0.90625 1.015625 2.140625q0.328125 1.234375 0.328125 2.6875l0 1.046875l-10.28125 0l0 -1.921875l7.9375 0l0 -0.171875q-0.0625 -0.921875 -0.390625 -1.78125q-0.3125 -0.875 -1.015625 -1.4375q-0.703125 -0.5625 -1.90625 -0.5625q-0.8125 0 -1.484375 0.34375q-0.671875 0.34375 -1.15625 1.0q-0.484375 0.65625 -0.75 1.625q-0.265625 0.953125 -0.265625 2.203125l0 0.53125q0 0.984375 0.265625 1.84375q0.28125 0.859375 0.796875 1.515625q0.53125 0.640625 1.28125 1.015625q0.765625 0.359375 1.734375 0.359375q1.25 0 2.109375 -0.5q0.875 -0.515625 1.53125 -1.375l1.421875 1.140625q-0.453125 0.671875 -1.140625 1.28125q-0.6875 0.609375 -1.6875 1.0q-1.0 0.375 -2.359375 0.375zm16.149353 -3.90625q0 -0.515625 -0.234375 -0.953125q-0.21875 -0.4375 -0.90625 -0.796875q-0.671875 -0.359375 -2.03125 -0.640625q-1.15625 -0.234375 -2.078125 -0.5625q-0.921875 -0.328125 -1.5625 -0.796875q-0.640625 -0.484375 -0.984375 -1.109375q-0.34375 -0.640625 -0.34375 -1.5q0 -0.8125 0.359375 -1.53125q0.359375 -0.734375 1.03125 -1.296875q0.671875 -0.5625 1.609375 -0.875q0.9375 -0.328125 2.109375 -0.328125q1.65625 0 2.828125 0.59375q1.171875 0.578125 1.796875 1.5625q0.625 0.96875 0.625 2.15625l-2.359375 0q0 -0.578125 -0.34375 -1.109375q-0.328125 -0.546875 -0.984375 -0.90625q-0.640625 -0.359375 -1.5625 -0.359375q-0.984375 0 -1.59375 0.3125q-0.609375 0.296875 -0.890625 0.75q-0.265625 0.453125 -0.265625 0.96875q0 0.375 0.125 0.6875q0.140625 0.296875 0.484375 0.546875q0.34375 0.25 0.96875 0.46875q0.625 0.203125 1.59375 0.421875q1.703125 0.390625 2.796875 0.921875q1.09375 0.53125 1.625 1.3125q0.546875 0.78125 0.546875 1.890625q0 0.890625 -0.390625 1.65625q-0.375 0.75 -1.078125 1.296875q-0.703125 0.53125 -1.6875 0.828125q-0.96875 0.296875 -2.171875 0.296875q-1.828125 0 -3.09375 -0.640625q-1.25 -0.65625 -1.90625 -1.6875q-0.65625 -1.03125 -0.65625 -2.171875l2.375 0q0.046875 0.96875 0.5625 1.53125q0.515625 0.5625 1.25 0.796875q0.734375 0.234375 1.46875 0.234375q0.96875 0 1.625 -0.25q0.65625 -0.25 1.0 -0.6875q0.34375 -0.453125 0.34375 -1.03125zm11.283508 -3.078125l0 -0.296875q0 -1.5 0.421875 -2.765625q0.4375 -1.28125 1.25 -2.234375q0.828125 -0.953125 1.984375 -1.484375q1.15625 -0.53125 2.59375 -0.53125q1.453125 0 2.625 0.53125q1.171875 0.53125 1.984375 1.484375q0.828125 0.953125 1.25 2.234375q0.4375 1.265625 0.4375 2.765625l0 0.296875q0 1.484375 -0.4375 2.765625q-0.421875 1.265625 -1.25 2.21875q-0.8125 0.953125 -1.96875 1.484375q-1.15625 0.515625 -2.609375 0.515625q-1.453125 0 -2.609375 -0.515625q-1.15625 -0.53125 -1.984375 -1.484375q-0.828125 -0.953125 -1.265625 -2.21875q-0.421875 -1.28125 -0.421875 -2.765625zm2.359375 -0.296875l0 0.296875q0 1.03125 0.234375 1.9375q0.25 0.90625 0.734375 1.609375q0.5 0.703125 1.234375 1.109375q0.734375 0.390625 1.71875 0.390625q0.96875 0 1.703125 -0.390625q0.734375 -0.40625 1.21875 -1.109375q0.484375 -0.703125 0.734375 -1.609375q0.25 -0.90625 0.25 -1.9375l0 -0.296875q0 -1.015625 -0.25 -1.921875q-0.25 -0.921875 -0.75 -1.625q-0.484375 -0.703125 -1.21875 -1.109375q-0.734375 -0.421875 -1.71875 -0.421875q-0.96875 0 -1.703125 0.421875q-0.71875 0.40625 -1.21875 1.109375q-0.484375 0.703125 -0.734375 1.625q-0.234375 0.90625 -0.234375 1.921875zm16.662842 7.03125l-2.359375 0l0 -15.234375q0 -1.5 0.53125 -2.515625q0.546875 -1.03125 1.5625 -1.5625q1.03125 -0.53125 2.4375 -0.53125q0.40625 0 0.8125 0.0625q0.421875 0.046875 0.8125 0.140625l-0.125 1.9375q-0.265625 -0.078125 -0.609375 -0.09375q-0.328125 -0.03125 -0.671875 -0.03125q-0.75 0 -1.296875 0.3125q-0.53125 0.296875 -0.8125 0.875q-0.28125 0.5625 -0.28125 1.40625l0 15.234375zm2.9375 -13.78125l0 1.796875l-7.46875 0l0 -1.796875l7.46875 0z" fill-rule="nonzero"/><path fill="#ffffff" d="m578.16595 355.6474q-1.4375 0 -2.609375 -0.484375q-1.15625 -0.484375 -2.0 -1.375q-0.828125 -0.90625 -1.28125 -2.125q-0.4375 -1.21875 -0.4375 -2.671875l0 -0.53125q0 -1.6875 0.484375 -3.0q0.5 -1.328125 1.359375 -2.234375q0.859375 -0.921875 1.9375 -1.390625q1.078125 -0.484375 2.25 -0.484375q1.46875 0 2.546875 0.515625q1.078125 0.515625 1.765625 1.421875q0.6875 0.90625 1.015625 2.140625q0.328125 1.234375 0.328125 2.6875l0 1.046875l-10.28125 0l0 -1.921875l7.9375 0l0 -0.171875q-0.0625 -0.921875 -0.390625 -1.78125q-0.3125 -0.875 -1.015625 -1.4375q-0.703125 -0.5625 -1.90625 -0.5625q-0.8125 0 -1.484375 0.34375q-0.671875 0.34375 -1.15625 1.0q-0.484375 0.65625 -0.75 1.625q-0.265625 0.953125 -0.265625 2.203125l0 0.53125q0 0.984375 0.265625 1.84375q0.28125 0.859375 0.796875 1.515625q0.53125 0.640625 1.28125 1.015625q0.765625 0.359375 1.734375 0.359375q1.25 0 2.109375 -0.5q0.875 -0.515625 1.53125 -1.375l1.421875 1.140625q-0.453125 0.671875 -1.140625 1.28125q-0.6875 0.609375 -1.6875 1.0q-1.0 0.375 -2.359375 0.375zm16.243042 -2.609375l0 -7.09375q0 -0.8125 -0.328125 -1.421875q-0.3125 -0.609375 -0.96875 -0.9375q-0.65625 -0.328125 -1.609375 -0.328125q-0.890625 0 -1.5625 0.3125q-0.65625 0.296875 -1.046875 0.796875q-0.375 0.5 -0.375 1.0625l-2.34375 0q0 -0.734375 0.375 -1.453125q0.390625 -0.734375 1.109375 -1.328125q0.71875 -0.59375 1.71875 -0.9375q1.015625 -0.359375 2.265625 -0.359375q1.5 0 2.65625 0.515625q1.15625 0.515625 1.8125 1.546875q0.65625 1.015625 0.65625 2.5625l0 6.421875q0 0.6875 0.125 1.46875q0.125 0.765625 0.359375 1.328125l0 0.203125l-2.453125 0q-0.1875 -0.40625 -0.296875 -1.078125q-0.09375 -0.6875 -0.09375 -1.28125zm0.40625 -6.0l0.03125 1.65625l-2.390625 0q-1.0 0 -1.796875 0.15625q-0.78125 0.15625 -1.328125 0.484375q-0.53125 0.3125 -0.8125 0.796875q-0.265625 0.46875 -0.265625 1.109375q0 0.65625 0.28125 1.1875q0.296875 0.53125 0.890625 0.84375q0.59375 0.3125 1.453125 0.3125q1.09375 0 1.921875 -0.453125q0.828125 -0.46875 1.3125 -1.125q0.484375 -0.65625 0.53125 -1.28125l1.0 1.125q-0.078125 0.546875 -0.484375 1.203125q-0.390625 0.640625 -1.046875 1.234375q-0.65625 0.59375 -1.5625 0.984375q-0.890625 0.375 -2.015625 0.375q-1.390625 0 -2.453125 -0.546875q-1.046875 -0.546875 -1.625 -1.46875q-0.578125 -0.921875 -0.578125 -2.0625q0 -1.109375 0.421875 -1.953125q0.4375 -0.859375 1.25 -1.421875q0.828125 -0.5625 1.96875 -0.859375q1.140625 -0.296875 2.5625 -0.296875l2.734375 0zm11.1779785 6.671875q0.84375 0 1.546875 -0.34375q0.71875 -0.34375 1.171875 -0.9375q0.46875 -0.609375 0.53125 -1.390625l2.25 0q-0.078125 1.21875 -0.84375 2.28125q-0.75 1.046875 -1.96875 1.6875q-1.21875 0.640625 -2.6875 0.640625q-1.546875 0 -2.703125 -0.546875q-1.15625 -0.546875 -1.921875 -1.5q-0.75 -0.953125 -1.125 -2.1875q-0.375 -1.25 -0.375 -2.640625l0 -0.53125q0 -1.390625 0.375 -2.625q0.375 -1.25 1.125 -2.203125q0.765625 -0.953125 1.921875 -1.5q1.15625 -0.5625 2.703125 -0.5625q1.625 0 2.828125 0.65625q1.21875 0.65625 1.90625 1.796875q0.6875 1.125 0.765625 2.546875l-2.25 0q-0.0625 -0.859375 -0.484375 -1.546875q-0.40625 -0.6875 -1.125 -1.09375q-0.703125 -0.421875 -1.640625 -0.421875q-1.078125 0 -1.8125 0.4375q-0.734375 0.421875 -1.171875 1.140625q-0.421875 0.71875 -0.609375 1.59375q-0.171875 0.875 -0.171875 1.78125l0 0.53125q0 0.90625 0.171875 1.78125q0.1875 0.875 0.609375 1.59375q0.421875 0.71875 1.15625 1.140625q0.734375 0.421875 1.828125 0.421875zm10.502197 -17.890625l0 19.578125l-2.359375 0l0 -19.578125l2.359375 0zm-0.5625 12.15625l-0.984375 -0.03125q0.015625 -1.421875 0.421875 -2.625q0.40625 -1.203125 1.140625 -2.09375q0.75 -0.890625 1.765625 -1.375q1.03125 -0.5 2.28125 -0.5q1.015625 0 1.828125 0.28125q0.828125 0.265625 1.40625 0.875q0.578125 0.59375 0.875 1.546875q0.3125 0.953125 0.3125 2.3125l0 9.03125l-2.375 0l0 -9.0625q0 -1.078125 -0.328125 -1.734375q-0.3125 -0.65625 -0.921875 -0.953125q-0.609375 -0.296875 -1.5 -0.296875q-0.875 0 -1.59375 0.375q-0.71875 0.359375 -1.234375 1.015625q-0.515625 0.640625 -0.8125 1.484375q-0.28125 0.828125 -0.28125 1.75zm21.406921 -3.71875l0 16.4375l-2.375 0l0 -19.078125l2.171875 0l0.203125 2.640625zm9.28125 4.140625l0 0.265625q0 1.5 -0.359375 2.78125q-0.34375 1.28125 -1.03125 2.21875q-0.6875 0.9375 -1.6875 1.46875q-0.984375 0.515625 -2.265625 0.515625q-1.3125 0 -2.328125 -0.421875q-1.0 -0.4375 -1.703125 -1.265625q-0.703125 -0.828125 -1.125 -1.984375q-0.40625 -1.171875 -0.5625 -2.625l0 -1.421875q0.15625 -1.53125 0.578125 -2.734375q0.421875 -1.21875 1.109375 -2.078125q0.703125 -0.859375 1.6875 -1.3125q1.0 -0.453125 2.296875 -0.453125q1.3125 0 2.3125 0.515625q1.0 0.5 1.6875 1.4375q0.6875 0.921875 1.03125 2.21875q0.359375 1.28125 0.359375 2.875zm-2.359375 0.265625l0 -0.265625q0 -1.046875 -0.21875 -1.953125q-0.21875 -0.90625 -0.671875 -1.59375q-0.453125 -0.703125 -1.15625 -1.09375q-0.703125 -0.40625 -1.671875 -0.40625q-0.890625 0 -1.546875 0.3125q-0.65625 0.296875 -1.109375 0.8125q-0.453125 0.515625 -0.75 1.171875q-0.28125 0.65625 -0.421875 1.359375l0 3.296875q0.25 0.890625 0.703125 1.671875q0.46875 0.78125 1.234375 1.265625q0.765625 0.46875 1.921875 0.46875q0.953125 0 1.640625 -0.390625q0.703125 -0.40625 1.15625 -1.109375q0.453125 -0.703125 0.671875 -1.609375q0.21875 -0.90625 0.21875 -1.9375zm11.089783 6.984375q-1.437561 0 -2.609436 -0.484375q-1.15625 -0.484375 -2.0 -1.375q-0.828125 -0.90625 -1.28125 -2.125q-0.4375 -1.21875 -0.4375 -2.671875l0 -0.53125q0 -1.6875 0.484375 -3.0q0.5 -1.328125 1.359375 -2.234375q0.859375 -0.921875 1.9375 -1.390625q1.078125 -0.484375 2.250061 -0.484375q1.46875 0 2.546875 0.515625q1.078125 0.515625 1.765625 1.421875q0.6875 0.90625 1.015625 2.140625q0.328125 1.234375 0.328125 2.6875l0 1.046875l-10.281311 0l0 -1.921875l7.937561 0l0 -0.171875q-0.0625 -0.921875 -0.390625 -1.78125q-0.3125 -0.875 -1.015625 -1.4375q-0.703125 -0.5625 -1.90625 -0.5625q-0.81256104 0 -1.484436 0.34375q-0.671875 0.34375 -1.15625 1.0q-0.484375 0.65625 -0.75 1.625q-0.265625 0.953125 -0.265625 2.203125l0 0.53125q0 0.984375 0.265625 1.84375q0.28125 0.859375 0.796875 1.515625q0.53125 0.640625 1.28125 1.015625q0.765625 0.359375 1.734436 0.359375q1.25 0 2.109375 -0.5q0.875 -0.515625 1.53125 -1.375l1.421875 1.140625q-0.453125 0.671875 -1.140625 1.28125q-0.6875 0.609375 -1.6875 1.0q-1.0 0.375 -2.359375 0.375zm10.477417 -11.875l0 11.625l-2.359375 0l0 -13.78125l2.296875 0l0.0625 2.15625zm4.296875 -2.234375l0 2.1875q-0.296875 -0.0625 -0.5625 -0.078125q-0.265625 -0.015625 -0.59375 -0.015625q-0.8125 0 -1.4375 0.25q-0.625 0.25 -1.0625 0.71875q-0.421875 0.453125 -0.671875 1.09375q-0.25 0.625 -0.328125 1.375l-0.65625 0.375q0 -1.25 0.234375 -2.34375q0.25 -1.09375 0.765625 -1.9375q0.53125 -0.84375 1.34375 -1.328125q0.8125 -0.484375 1.9375 -0.484375q0.25 0 0.578125 0.0625q0.328125 0.0625 0.453125 0.125zm10.217285 10.203125q0 -0.515625 -0.234375 -0.953125q-0.21875 -0.4375 -0.90625 -0.796875q-0.671875 -0.359375 -2.03125 -0.640625q-1.15625 -0.234375 -2.078125 -0.5625q-0.921875 -0.328125 -1.5625 -0.796875q-0.640625 -0.484375 -0.984375 -1.109375q-0.34375 -0.640625 -0.34375 -1.5q0 -0.8125 0.359375 -1.53125q0.359375 -0.734375 1.03125 -1.296875q0.671875 -0.5625 1.609375 -0.875q0.9375 -0.328125 2.109375 -0.328125q1.65625 0 2.828125 0.59375q1.171875 0.578125 1.796875 1.5625q0.625 0.96875 0.625 2.15625l-2.359375 0q0 -0.578125 -0.34375 -1.109375q-0.328125 -0.546875 -0.984375 -0.90625q-0.640625 -0.359375 -1.5625 -0.359375q-0.984375 0 -1.59375 0.3125q-0.609375 0.296875 -0.890625 0.75q-0.265625 0.453125 -0.265625 0.96875q0 0.375 0.125 0.6875q0.140625 0.296875 0.484375 0.546875q0.34375 0.25 0.96875 0.46875q0.625 0.203125 1.59375 0.421875q1.703125 0.390625 2.796875 0.921875q1.09375 0.53125 1.625 1.3125q0.546875 0.78125 0.546875 1.890625q0 0.890625 -0.390625 1.65625q-0.375 0.75 -1.078125 1.296875q-0.703125 0.53125 -1.6875 0.828125q-0.96875 0.296875 -2.171875 0.296875q-1.828125 0 -3.09375 -0.640625q-1.25 -0.65625 -1.90625 -1.6875q-0.65625 -1.03125 -0.65625 -2.171875l2.375 0q0.046875 0.96875 0.5625 1.53125q0.515625 0.5625 1.25 0.796875q0.734375 0.234375 1.46875 0.234375q0.96875 0 1.625 -0.25q0.65625 -0.25 1.0 -0.6875q0.34375 -0.453125 0.34375 -1.03125zm4.811096 -3.078125l0 -0.296875q0 -1.5 0.421875 -2.765625q0.4375 -1.28125 1.25 -2.234375q0.828125 -0.953125 1.984375 -1.484375q1.15625 -0.53125 2.59375 -0.53125q1.453125 0 2.625 0.53125q1.171875 0.53125 1.984375 1.484375q0.828125 0.953125 1.25 2.234375q0.4375 1.265625 0.4375 2.765625l0 0.296875q0 1.484375 -0.4375 2.765625q-0.421875 1.265625 -1.25 2.21875q-0.8125 0.953125 -1.96875 1.484375q-1.15625 0.515625 -2.609375 0.515625q-1.453125 0 -2.609375 -0.515625q-1.15625 -0.53125 -1.984375 -1.484375q-0.828125 -0.953125 -1.265625 -2.21875q-0.421875 -1.28125 -0.421875 -2.765625zm2.359375 -0.296875l0 0.296875q0 1.03125 0.234375 1.9375q0.25 0.90625 0.734375 1.609375q0.5 0.703125 1.234375 1.109375q0.734375 0.390625 1.71875 0.390625q0.96875 0 1.703125 -0.390625q0.734375 -0.40625 1.21875 -1.109375q0.484375 -0.703125 0.734375 -1.609375q0.25 -0.90625 0.25 -1.9375l0 -0.296875q0 -1.015625 -0.25 -1.921875q-0.25 -0.921875 -0.75 -1.625q-0.484375 -0.703125 -1.21875 -1.109375q-0.734375 -0.421875 -1.71875 -0.421875q-0.96875 0 -1.703125 0.421875q-0.71875 0.40625 -1.21875 1.109375q-0.484375 0.703125 -0.734375 1.625q-0.234375 0.90625 -0.234375 1.921875zm15.506592 -3.8125l0 10.84375l-2.359375 0l0 -13.78125l2.234375 0l0.125 2.9375zm-0.5625 3.421875l-0.984375 -0.03125q0.015625 -1.421875 0.421875 -2.625q0.40625 -1.203125 1.140625 -2.09375q0.75 -0.890625 1.765625 -1.375q1.03125 -0.5 2.28125 -0.5q1.015625 0 1.828125 0.28125q0.828125 0.265625 1.40625 0.875q0.578125 0.59375 0.875 1.546875q0.3125 0.953125 0.3125 2.3125l0 9.03125l-2.375 0l0 -9.0625q0 -1.078125 -0.328125 -1.734375q-0.3125 -0.65625 -0.921875 -0.953125q-0.609375 -0.296875 -1.5 -0.296875q-0.875 0 -1.59375 0.375q-0.71875 0.359375 -1.234375 1.015625q-0.515625 0.640625 -0.8125 1.484375q-0.28125 0.828125 -0.28125 1.75z" fill-rule="nonzero"/><path fill="#ffd966" d="m42.43679 278.32767l0 0c0 -61.70804 115.0875 -111.732285 257.0551 -111.732285l0 0c141.96762 0 257.05508 50.024246 257.05508 111.732285l0 0c0 61.70804 -115.08746 111.7323 -257.05508 111.7323l0 0c-141.96762 0 -257.0551 -50.02426 -257.0551 -111.7323z" fill-rule="evenodd"/><path fill="#000000" d="m192.2558 203.21518l-6.375 20.03125l-5.921875 0l9.15625 -24.734375l3.734375 0l-0.59375 4.703125zm5.3125 20.03125l-6.40625 -20.03125l-0.671875 -4.703125l3.796875 0l9.1875 24.734375l-5.90625 0zm-0.28125 -9.203125l0 4.28125l-12.890625 0l0 -4.28125l12.890625 0zm15.641449 5.421875q0.84375 0 1.46875 -0.328125q0.625 -0.328125 0.96875 -0.90625q0.359375 -0.59375 0.359375 -1.421875l5.0 0q0 2.0 -1.03125 3.53125q-1.03125 1.53125 -2.765625 2.390625q-1.734375 0.859375 -3.90625 0.859375q-2.140625 0 -3.734375 -0.703125q-1.59375 -0.71875 -2.671875 -1.984375q-1.0625 -1.28125 -1.609375 -2.96875q-0.53125 -1.6875 -0.53125 -3.65625l0 -0.4375q0 -1.953125 0.53125 -3.65625q0.546875 -1.703125 1.609375 -2.96875q1.078125 -1.28125 2.65625 -1.984375q1.59375 -0.703125 3.734375 -0.703125q2.265625 0 4.0 0.875q1.75 0.859375 2.734375 2.484375q0.984375 1.609375 0.984375 3.890625l-5.0 0q0 -0.890625 -0.3125 -1.59375q-0.3125 -0.703125 -0.953125 -1.109375q-0.640625 -0.421875 -1.578125 -0.421875q-0.96875 0 -1.59375 0.421875q-0.609375 0.40625 -0.9375 1.140625q-0.3125 0.734375 -0.4375 1.65625q-0.109375 0.921875 -0.109375 1.96875l0 0.4375q0 1.046875 0.109375 2.0q0.125 0.9375 0.453125 1.65625q0.328125 0.703125 0.9375 1.125q0.609375 0.40625 1.625 0.40625zm18.112045 0q0.84375 0 1.46875 -0.328125q0.625 -0.328125 0.96875 -0.90625q0.359375 -0.59375 0.359375 -1.421875l5.0 0q0 2.0 -1.03125 3.53125q-1.03125 1.53125 -2.765625 2.390625q-1.734375 0.859375 -3.90625 0.859375q-2.140625 0 -3.734375 -0.703125q-1.59375 -0.71875 -2.671875 -1.984375q-1.0625 -1.28125 -1.609375 -2.96875q-0.53125 -1.6875 -0.53125 -3.65625l0 -0.4375q0 -1.953125 0.53125 -3.65625q0.546875 -1.703125 1.609375 -2.96875q1.078125 -1.28125 2.65625 -1.984375q1.59375 -0.703125 3.734375 -0.703125q2.265625 0 4.0 0.875q1.75 0.859375 2.734375 2.484375q0.984375 1.609375 0.984375 3.890625l-5.0 0q0 -0.890625 -0.3125 -1.59375q-0.3125 -0.703125 -0.953125 -1.109375q-0.640625 -0.421875 -1.578125 -0.421875q-0.96875 0 -1.59375 0.421875q-0.609375 0.40625 -0.9375 1.140625q-0.3125 0.734375 -0.4375 1.65625q-0.109375 0.921875 -0.109375 1.96875l0 0.4375q0 1.046875 0.109375 2.0q0.125 0.9375 0.453125 1.65625q0.328125 0.703125 0.9375 1.125q0.609375 0.40625 1.625 0.40625zm19.096405 4.125q-2.203125 0 -3.9375 -0.6875q-1.7187347 -0.703125 -2.9218597 -1.9375q-1.203125 -1.234375 -1.828125 -2.84375q-0.625 -1.625 -0.625 -3.453125l0 -0.640625q0 -2.0625 0.578125 -3.796875q0.578125 -1.734375 1.6875 -3.015625q1.109375 -1.28125 2.7343597 -1.984375q1.640625 -0.703125 3.734375 -0.703125q1.953125 0 3.46875 0.640625q1.53125 0.625 2.578125 1.8125q1.0625153 1.171875 1.6093903 2.828125q0.5625 1.65625 0.5625 3.71875l0 2.171875l-14.8125 0l0 -3.40625l9.60936 0l0 -0.40625q0 -0.96875 -0.34375 -1.703125q-0.34375 -0.734375 -1.015625 -1.125q-0.671875 -0.40625 -1.6875 -0.40625q-0.96875 0 -1.625 0.40625q-0.640625 0.40625 -1.03125 1.15625q-0.375 0.734375 -0.546875 1.71875q-0.171875 0.96875 -0.171875 2.09375l0 0.640625q0 1.0625 0.28125 1.953125q0.296875 0.875 0.859375 1.515625q0.5625 0.625 1.359375 0.984375q0.796875 0.359375 1.8125 0.359375q1.265625 0 2.40625 -0.484375q1.140625 -0.484375 1.96875 -1.53125l2.4843903 2.84375q-0.5625 0.8125 -1.5781403 1.578125q-1.015625 0.75 -2.421875 1.234375q-1.40625 0.46875 -3.1875 0.46875zm19.986038 -5.453125q0 -0.515625 -0.3125 -0.90625q-0.3125 -0.390625 -1.125 -0.703125q-0.796875 -0.328125 -2.265625 -0.65625q-1.375 -0.28125 -2.5625 -0.75q-1.1875 -0.46875 -2.078125 -1.140625q-0.875 -0.671875 -1.375 -1.59375q-0.484375 -0.9375 -0.484375 -2.125q0 -1.15625 0.5 -2.1875q0.5 -1.03125 1.453125 -1.828125q0.96875 -0.8125 2.34375 -1.265625q1.390625 -0.453125 3.15625 -0.453125q2.4375 0 4.203125 0.75q1.765625 0.75 2.71875 2.109375q0.953125 1.34375 0.953125 3.078125l-5.3125 0q0 -0.703125 -0.265625 -1.234375q-0.265625 -0.53125 -0.828125 -0.828125q-0.5625 -0.296875 -1.484375 -0.296875q-0.703125 0 -1.25 0.25q-0.53125 0.25 -0.828125 0.671875q-0.296875 0.421875 -0.296875 0.984375q0 0.390625 0.171875 0.703125q0.1875 0.3125 0.5625 0.578125q0.390625 0.265625 1.0 0.46875q0.625 0.203125 1.53125 0.390625q1.921875 0.359375 3.5 1.0q1.59375 0.640625 2.546875 1.78125q0.96875 1.140625 0.96875 3.015625q0 1.21875 -0.5625 2.25q-0.546875 1.015625 -1.59375 1.78125q-1.03125 0.75 -2.46875 1.1875q-1.4375 0.421875 -3.265625 0.421875q-2.59375 0 -4.40625 -0.9375q-1.796875 -0.9375 -2.703125 -2.34375q-0.90625 -1.421875 -0.90625 -2.921875l4.984375 0q0.03125 0.921875 0.453125 1.5q0.4375 0.578125 1.125 0.84375q0.703125 0.25 1.578125 0.25q0.859375 0 1.4375 -0.234375q0.578125 -0.234375 0.875 -0.65625q0.3125 -0.421875 0.3125 -0.953125zm17.857178 0q0 -0.515625 -0.3125 -0.90625q-0.3125 -0.390625 -1.125 -0.703125q-0.796875 -0.328125 -2.265625 -0.65625q-1.375 -0.28125 -2.5625 -0.75q-1.1875 -0.46875 -2.078125 -1.140625q-0.875 -0.671875 -1.375 -1.59375q-0.484375 -0.9375 -0.484375 -2.125q0 -1.15625 0.5 -2.1875q0.5 -1.03125 1.453125 -1.828125q0.96875 -0.8125 2.34375 -1.265625q1.390625 -0.453125 3.15625 -0.453125q2.4375 0 4.203125 0.75q1.765625 0.75 2.71875 2.109375q0.953125 1.34375 0.953125 3.078125l-5.3125 0q0 -0.703125 -0.265625 -1.234375q-0.265625 -0.53125 -0.828125 -0.828125q-0.5625 -0.296875 -1.484375 -0.296875q-0.703125 0 -1.25 0.25q-0.53125 0.25 -0.828125 0.671875q-0.296875 0.421875 -0.296875 0.984375q0 0.390625 0.171875 0.703125q0.1875 0.3125 0.5625 0.578125q0.390625 0.265625 1.0 0.46875q0.625 0.203125 1.53125 0.390625q1.921875 0.359375 3.5 1.0q1.59375 0.640625 2.546875 1.78125q0.96875 1.140625 0.96875 3.015625q0 1.21875 -0.5625 2.25q-0.546875 1.015625 -1.59375 1.78125q-1.03125 0.75 -2.46875 1.1875q-1.4375 0.421875 -3.265625 0.421875q-2.59375 0 -4.40625 -0.9375q-1.796875 -0.9375 -2.703125 -2.34375q-0.90625 -1.421875 -0.90625 -2.921875l4.984375 0q0.03125 0.921875 0.453125 1.5q0.4375 0.578125 1.125 0.84375q0.703125 0.25 1.578125 0.25q0.859375 0 1.4375 -0.234375q0.578125 -0.234375 0.875 -0.65625q0.3125 -0.421875 0.3125 -0.953125zm13.669708 -13.28125l0 18.390625l-5.328125 0l0 -18.390625l5.328125 0zm-5.640625 -4.75q0 -1.15625 0.8125 -1.890625q0.8125 -0.75 2.140625 -0.75q1.328125 0 2.140625 0.75q0.828125 0.734375 0.828125 1.890625q0 1.140625 -0.828125 1.875q-0.8125 0.734375 -2.140625 0.734375q-1.328125 0 -2.140625 -0.734375q-0.8125 -0.734375 -0.8125 -1.875zm9.4583435 -2.953125l5.296875 0l0 21.734375l-0.53125 4.359375l-4.765625 0l0 -26.09375zm16.765625 16.703125l0 0.359375q0 2.078125 -0.4375 3.796875q-0.421875 1.71875 -1.3125 2.96875q-0.875 1.25 -2.21875 1.9375q-1.34375 0.671875 -3.15625 0.671875q-1.6875 0 -2.890625 -0.703125q-1.203125 -0.71875 -2.03125 -1.96875q-0.8125 -1.25 -1.3125 -2.9375q-0.5 -1.6875 -0.765625 -3.625l0 -0.609375q0.265625 -1.9375 0.765625 -3.609375q0.5 -1.6875 1.3125 -2.9375q0.828125 -1.265625 2.015625 -1.96875q1.203125 -0.703125 2.875 -0.703125q1.828125 0 3.171875 0.703125q1.359375 0.6875 2.234375 1.9375q0.890625 1.25 1.3125 2.953125q0.4375 1.703125 0.4375 3.734375zm-5.296875 0.359375l0 -0.359375q0 -1.0625 -0.140625 -1.984375q-0.140625 -0.9375 -0.5 -1.65625q-0.34375 -0.734375 -0.96875 -1.140625q-0.609375 -0.421875 -1.578125 -0.421875q-0.953125 0 -1.625 0.328125q-0.65625 0.3125 -1.0625 0.90625q-0.40625 0.578125 -0.59375 1.421875q-0.1875 0.828125 -0.203125 1.84375l0 1.796875q0.015625 1.359375 0.34375 2.390625q0.34375 1.015625 1.109375 1.578125q0.765625 0.546875 2.0625 0.546875q0.984375 0 1.59375 -0.375q0.625 -0.390625 0.953125 -1.09375q0.34375 -0.703125 0.46875 -1.671875q0.140625 -0.96875 0.140625 -2.109375zm13.6996155 -9.359375l0 18.390625l-5.328125 0l0 -18.390625l5.328125 0zm-5.640625 -4.75q0 -1.15625 0.8125 -1.890625q0.8125 -0.75 2.140625 -0.75q1.328125 0 2.140625 0.75q0.828125 0.734375 0.828125 1.890625q0 1.140625 -0.828125 1.875q-0.8125 0.734375 -2.140625 0.734375q-1.328125 0 -2.140625 -0.734375q-0.8125 -0.734375 -0.8125 -1.875zm15.0364685 -2.953125l0 26.09375l-5.328125 0l0 -26.09375l5.328125 0zm9.3958435 7.703125l0 18.390625l-5.328125 0l0 -18.390625l5.328125 0zm-5.640625 -4.75q0 -1.15625 0.8125 -1.890625q0.8125 -0.75 2.140625 -0.75q1.328125 0 2.140625 0.75q0.828125 0.734375 0.828125 1.890625q0 1.140625 -0.828125 1.875q-0.8125 0.734375 -2.140625 0.734375q-1.328125 0 -2.140625 -0.734375q-0.8125 -0.734375 -0.8125 -1.875zm18.786469 4.75l0 3.734375l-10.90625 0l0 -3.734375l10.90625 0zm-8.40625 -4.546875l5.3125 0l0 17.171875q0 0.765625 0.1875 1.171875q0.1875 0.40625 0.609375 0.578125q0.4375 0.15625 1.09375 0.15625q0.46875 0 0.8125 -0.03125q0.34375 -0.03125 0.625 -0.078125l0 3.828125q-0.671875 0.21875 -1.4375 0.34375q-0.765625 0.140625 -1.671875 0.140625q-1.703125 0 -2.953125 -0.5625q-1.25 -0.5625 -1.921875 -1.78125q-0.65625 -1.21875 -0.65625 -3.171875l0 -17.765625zm16.48584 20.8125l4.796875 -16.265625l5.71875 0l-7.390625 21.140625q-0.25 0.703125 -0.65625 1.5q-0.390625 0.796875 -1.0625 1.515625q-0.671875 0.734375 -1.703125 1.1875q-1.03125 0.46875 -2.546875 0.46875q-0.765625 0 -1.1875 -0.078125q-0.40625 -0.078125 -1.09375 -0.234375l-0.015625 -3.859375q0.21875 0 0.390625 0q0.1875 0.015625 0.375 0.015625q0.953125 0 1.53125 -0.203125q0.59375 -0.203125 0.921875 -0.609375q0.328125 -0.390625 0.546875 -1.015625l1.375 -3.5625zm-1.625 -16.265625l3.8125 13.09375l0.640625 5.625l-3.578125 0.1875l-6.578125 -18.90625l5.703125 0z" fill-rule="nonzero"/><path fill="#000000" d="m147.53899 245.73549q1.6875 1.84375 2.921875 2.8125q1.25 0.953125 2.34375 1.421875l0 0.578125q-1.265625 0.609375 -2.453125 1.5625q-1.1875 0.953125 -2.828125 2.78125l-0.984375 0q1.203125 -2.5625 2.515625 -3.9375l-20.328125 0l0 -1.28125l20.328125 0q-0.96875 -1.234375 -1.359375 -1.828125q-0.375 -0.609375 -1.125 -2.109375l0.96875 0z" fill-rule="nonzero"/><path fill="#000000" d="m164.65208 243.11049l0 13.781265l-2.375 0l0 -13.781265l2.375 0zm-2.546875 -3.65625q0 -0.578125 0.34375 -0.96875q0.359375 -0.40625 1.046875 -0.40625q0.671875 0 1.03125 0.40625q0.359375 0.390625 0.359375 0.96875q0 0.546875 -0.359375 0.9375q-0.359375 0.375 -1.03125 0.375q-0.6875 0 -1.046875 -0.375q-0.34375 -0.390625 -0.34375 -0.9375zm8.688812 6.59375l0 10.843765l-2.359375 0l0 -13.781265l2.234375 0l0.125 2.9375zm-0.5625 3.421875l-0.984375 -0.03125q0.015625 -1.421875 0.421875 -2.625q0.40625 -1.203125 1.140625 -2.09375q0.75 -0.890625 1.765625 -1.375q1.03125 -0.5 2.28125 -0.5q1.015625 0 1.828125 0.28125q0.828125 0.265625 1.40625 0.875q0.578125 0.59375 0.875 1.546875q0.3125 0.953125 0.3125 2.3125l0 9.031265l-2.375 0l0 -9.062515q0 -1.078125 -0.328125 -1.734375q-0.3125 -0.65625 -0.921875 -0.953125q-0.609375 -0.296875 -1.5 -0.296875q-0.875 0 -1.59375 0.375q-0.71875 0.359375 -1.234375 1.015625q-0.515625 0.640625 -0.8125 1.484375q-0.28125 0.828125 -0.28125 1.75zm18.128922 5.734375q0.84375 0 1.546875 -0.34375q0.71875 -0.34375 1.171875 -0.9375q0.46875 -0.609375 0.53125 -1.390625l2.25 0q-0.078125 1.21875 -0.84375 2.28125q-0.75 1.046875 -1.96875 1.6875153q-1.21875 0.640625 -2.6875 0.640625q-1.546875 0 -2.703125 -0.546875q-1.15625 -0.546875 -1.921875 -1.5000153q-0.75 -0.953125 -1.125 -2.1875q-0.375 -1.25 -0.375 -2.640625l0 -0.53125q0 -1.390625 0.375 -2.625q0.375 -1.25 1.125 -2.203125q0.765625 -0.953125 1.921875 -1.5q1.15625 -0.5625 2.703125 -0.5625q1.625 0 2.828125 0.65625q1.21875 0.65625 1.90625 1.796875q0.6875 1.125 0.765625 2.546875l-2.25 0q-0.0625 -0.859375 -0.484375 -1.546875q-0.40625 -0.6875 -1.125 -1.09375q-0.703125 -0.421875 -1.640625 -0.421875q-1.078125 0 -1.8125 0.4375q-0.734375 0.421875 -1.171875 1.140625q-0.421875 0.71875 -0.609375 1.59375q-0.171875 0.875 -0.171875 1.78125l0 0.53125q0 0.90625 0.171875 1.78125q0.1875 0.875 0.609375 1.59375q0.421875 0.71875 1.15625 1.140625q0.734375 0.421875 1.828125 0.421875zm10.705322 -17.890625l0 19.57814l-2.375 0l0 -19.57814l2.375 0zm12.220062 16.390625l0 -10.59375l2.359375 0l0 13.781265l-2.25 0l-0.109375 -3.1875153zm0.4375 -2.90625l0.984375 -0.015625q0 1.375 -0.296875 2.546875q-0.28125 1.15625 -0.921875 2.015625q-0.625 0.84376526 -1.65625 1.3281403q-1.03125 0.46875 -2.515625 0.46875q-1.0 0 -1.84375 -0.28125q-0.828125 -0.296875 -1.4375 -0.90626526q-0.59375 -0.609375 -0.921875 -1.59375q-0.3125 -0.984375 -0.3125 -2.359375l0 -8.890625l2.359375 0l0 8.921875q0 0.921875 0.203125 1.53125q0.203125 0.59375 0.5625 0.953125q0.375 0.34375 0.828125 0.484375q0.453125 0.140625 0.9375 0.140625q1.5 0 2.375 -0.578125q0.890625 -0.578125 1.265625 -1.5625q0.390625 -0.984375 0.390625 -2.203125zm14.197189 3.421875l0 -16.90625l2.375 0l0 19.57814l-2.171875 0l-0.203125 -2.6718903zm-9.28125 -4.0625l0 -0.265625q0 -1.59375 0.390625 -2.875q0.390625 -1.296875 1.109375 -2.21875q0.71875 -0.9375 1.71875 -1.4375q1.0 -0.515625 2.234375 -0.515625q1.3125 0 2.28125 0.453125q0.96875 0.453125 1.65625 1.3125q0.6875 0.859375 1.078125 2.078125q0.390625 1.203125 0.546875 2.734375l0 1.171875q-0.140625 1.515625 -0.546875 2.734375q-0.390625 1.203125 -1.078125 2.0625q-0.6875 0.84376526 -1.671875 1.2968903q-0.96875 0.453125 -2.28125 0.453125q-1.21875 0 -2.21875 -0.515625q-1.0 -0.53125 -1.71875 -1.4687653q-0.71875 -0.9375 -1.109375 -2.21875q-0.390625 -1.28125 -0.390625 -2.78125zm2.375 -0.265625l0 0.265625q0 1.03125 0.203125 1.9375q0.21875 0.890625 0.65625 1.59375q0.453125 0.6875 1.140625 1.078125q0.6875 0.375 1.640625 0.375q1.171875 0 1.921875 -0.484375q0.765625 -0.5 1.21875 -1.3125q0.46875 -0.828125 0.71875 -1.78125l0 -3.0625q-0.140625 -0.703125 -0.4375 -1.359375q-0.28125 -0.65625 -0.734375 -1.171875q-0.453125 -0.515625 -1.109375 -0.8125q-0.65625 -0.3125 -1.546875 -0.3125q-0.96875 0 -1.671875 0.40625q-0.6875 0.390625 -1.140625 1.09375q-0.4375 0.6875 -0.65625 1.59375q-0.203125 0.90625 -0.203125 1.953125zm18.653458 7.2500153q-1.4375 0 -2.609375 -0.484375q-1.15625 -0.484375 -2.0 -1.3750153q-0.828125 -0.90625 -1.28125 -2.125q-0.4375 -1.21875 -0.4375 -2.671875l0 -0.53125q0 -1.6875 0.484375 -3.0q0.5 -1.328125 1.359375 -2.234375q0.859375 -0.921875 1.9375 -1.390625q1.078125 -0.484375 2.25 -0.484375q1.46875 0 2.546875 0.515625q1.078125 0.515625 1.765625 1.421875q0.6875 0.90625 1.015625 2.140625q0.328125 1.234375 0.328125 2.6875l0 1.046875l-10.28125 0l0 -1.921875l7.9375 0l0 -0.171875q-0.0625 -0.921875 -0.390625 -1.78125q-0.3125 -0.875 -1.015625 -1.4375q-0.703125 -0.5625 -1.90625 -0.5625q-0.8125 0 -1.484375 0.34375q-0.671875 0.34375 -1.15625 1.0q-0.484375 0.65625 -0.75 1.625q-0.265625 0.953125 -0.265625 2.203125l0 0.53125q0 0.984375 0.265625 1.84375q0.28125 0.859375 0.796875 1.515625q0.53125 0.640625 1.28125 1.015625q0.765625 0.359375 1.734375 0.359375q1.25 0 2.109375 -0.5q0.875 -0.515625 1.53125 -1.375l1.421875 1.140625q-0.453125 0.671875 -1.140625 1.28125q-0.6875 0.60939026 -1.6875 1.0000153q-1.0 0.375 -2.359375 0.375zm23.278046 -2.9218903l0 -16.90625l2.375 0l0 19.57814l-2.171875 0l-0.203125 -2.6718903zm-9.28125 -4.0625l0 -0.265625q0 -1.59375 0.390625 -2.875q0.390625 -1.296875 1.109375 -2.21875q0.71875 -0.9375 1.71875 -1.4375q1.0 -0.515625 2.234375 -0.515625q1.3125 0 2.28125 0.453125q0.96875 0.453125 1.65625 1.3125q0.6875 0.859375 1.078125 2.078125q0.390625 1.203125 0.546875 2.734375l0 1.171875q-0.140625 1.515625 -0.546875 2.734375q-0.390625 1.203125 -1.078125 2.0625q-0.6875 0.84376526 -1.671875 1.2968903q-0.96875 0.453125 -2.28125 0.453125q-1.21875 0 -2.21875 -0.515625q-1.0 -0.53125 -1.71875 -1.4687653q-0.71875 -0.9375 -1.109375 -2.21875q-0.390625 -1.28125 -0.390625 -2.78125zm2.375 -0.265625l0 0.265625q0 1.03125 0.203125 1.9375q0.21875 0.890625 0.65625 1.59375q0.453125 0.6875 1.140625 1.078125q0.6875 0.375 1.640625 0.375q1.171875 0 1.921875 -0.484375q0.765625 -0.5 1.21875 -1.3125q0.46875 -0.828125 0.71875 -1.78125l0 -3.0625q-0.140625 -0.703125 -0.4375 -1.359375q-0.28125 -0.65625 -0.734375 -1.171875q-0.453125 -0.515625 -1.109375 -0.8125q-0.65625 -0.3125 -1.546875 -0.3125q-0.96875 0 -1.671875 0.40625q-0.6875 0.390625 -1.140625 1.09375q-0.4375 0.6875 -0.65625 1.59375q-0.203125 0.90625 -0.203125 1.953125zm15.497223 -6.78125l0 13.781265l-2.375 0l0 -13.781265l2.375 0zm-2.546875 -3.65625q0 -0.578125 0.34375 -0.96875q0.359375 -0.40625 1.046875 -0.40625q0.671875 0 1.03125 0.40625q0.359375 0.390625 0.359375 0.96875q0 0.546875 -0.359375 0.9375q-0.359375 0.375 -1.03125 0.375q-0.6875 0 -1.046875 -0.375q-0.34375 -0.390625 -0.34375 -0.9375zm14.360687 13.78125q0 -0.515625 -0.234375 -0.953125q-0.21875 -0.4375 -0.90625 -0.796875q-0.671875 -0.359375 -2.03125 -0.640625q-1.15625 -0.234375 -2.078125 -0.5625q-0.921875 -0.328125 -1.5625 -0.796875q-0.640625 -0.484375 -0.984375 -1.109375q-0.34375 -0.640625 -0.34375 -1.5q0 -0.8125 0.359375 -1.53125q0.359375 -0.734375 1.03125 -1.296875q0.671875 -0.5625 1.609375 -0.875q0.9375 -0.328125 2.109375 -0.328125q1.65625 0 2.828125 0.59375q1.171875 0.578125 1.796875 1.5625q0.625 0.96875 0.625 2.15625l-2.359375 0q0 -0.578125 -0.34375 -1.109375q-0.328125 -0.546875 -0.984375 -0.90625q-0.640625 -0.359375 -1.5625 -0.359375q-0.984375 0 -1.59375 0.3125q-0.609375 0.296875 -0.890625 0.75q-0.265625 0.453125 -0.265625 0.96875q0 0.375 0.125 0.6875q0.140625 0.296875 0.484375 0.546875q0.34375 0.25 0.96875 0.46875q0.625 0.203125 1.59375 0.421875q1.703125 0.390625 2.796875 0.921875q1.09375 0.53125 1.625 1.3125q0.546875 0.78125 0.546875 1.890625q0 0.890625 -0.390625 1.65625q-0.375 0.75 -1.078125 1.2968903q-0.703125 0.53125 -1.6875 0.828125q-0.96875 0.296875 -2.171875 0.296875q-1.828125 0 -3.09375 -0.640625q-1.25 -0.65626526 -1.90625 -1.6875153q-0.65625 -1.03125 -0.65625 -2.171875l2.375 0q0.046875 0.96875 0.5625 1.53125q0.515625 0.5625 1.25 0.796875q0.734375 0.234375 1.46875 0.234375q0.96875 0 1.625 -0.25q0.65625 -0.25 1.0 -0.6875q0.34375 -0.453125 0.34375 -1.03125zm13.561066 1.296875l0 -7.09375q0 -0.8125 -0.328125 -1.421875q-0.3125 -0.609375 -0.96875 -0.9375q-0.65625 -0.328125 -1.609375 -0.328125q-0.890625 0 -1.5625 0.3125q-0.65625 0.296875 -1.046875 0.796875q-0.375 0.5 -0.375 1.0625l-2.34375 0q0 -0.734375 0.375 -1.453125q0.390625 -0.734375 1.109375 -1.328125q0.71875 -0.59375 1.71875 -0.9375q1.015625 -0.359375 2.265625 -0.359375q1.5 0 2.65625 0.515625q1.15625 0.515625 1.8125 1.546875q0.65625 1.015625 0.65625 2.5625l0 6.421875q0 0.6875 0.125 1.46875q0.125 0.76564026 0.359375 1.3281403l0 0.203125l-2.453125 0q-0.1875 -0.40625 -0.296875 -1.0781403q-0.09375 -0.6875 -0.09375 -1.28125zm0.40625 -6.0l0.03125 1.65625l-2.390625 0q-1.0 0 -1.796875 0.15625q-0.78125 0.15625 -1.328125 0.484375q-0.53125 0.3125 -0.8125 0.796875q-0.265625 0.46875 -0.265625 1.109375q0 0.65625 0.28125 1.1875q0.296875 0.53125 0.890625 0.84375q0.59375 0.3125 1.453125 0.3125q1.09375 0 1.921875 -0.453125q0.828125 -0.46875 1.3125 -1.125q0.484375 -0.65625 0.53125 -1.28125l1.0 1.125q-0.078125 0.546875 -0.484375 1.203125q-0.390625 0.640625 -1.046875 1.234375q-0.65625 0.59376526 -1.5625 0.98439026q-0.890625 0.375 -2.015625 0.375q-1.390625 0 -2.453125 -0.546875q-1.046875 -0.546875 -1.625 -1.4687653q-0.578125 -0.921875 -0.578125 -2.0625q0 -1.109375 0.421875 -1.953125q0.4375 -0.859375 1.25 -1.421875q0.828125 -0.5625 1.96875 -0.859375q1.140625 -0.296875 2.5625 -0.296875l2.734375 0zm5.646698 -11.21875l2.375 0l0 16.90625l-0.203125 2.6718903l-2.171875 0l0 -19.57814zm11.6875 12.578125l0 0.265625q0 1.5 -0.359375 2.78125q-0.359375 1.28125 -1.046875 2.21875q-0.6875 0.93751526 -1.6875 1.4687653q-0.984375 0.515625 -2.265625 0.515625q-1.3125 0 -2.3125 -0.453125q-0.984375 -0.453125 -1.65625 -1.2968903q-0.671875 -0.859375 -1.078125 -2.0625q-0.40625 -1.21875 -0.546875 -2.734375l0 -1.171875q0.140625 -1.53125 0.546875 -2.734375q0.40625 -1.21875 1.078125 -2.078125q0.671875 -0.859375 1.65625 -1.3125q0.984375 -0.453125 2.28125 -0.453125q1.296875 0 2.296875 0.515625q1.015625 0.5 1.6875 1.4375q0.6875 0.921875 1.046875 2.21875q0.359375 1.28125 0.359375 2.875zm-2.375 0.265625l0 -0.265625q0 -1.046875 -0.1875 -1.953125q-0.1875 -0.90625 -0.609375 -1.59375q-0.421875 -0.703125 -1.109375 -1.09375q-0.6875 -0.40625 -1.703125 -0.40625q-0.890625 0 -1.546875 0.3125q-0.65625 0.296875 -1.109375 0.8125q-0.453125 0.515625 -0.75 1.171875q-0.28125 0.65625 -0.421875 1.359375l0 3.0625q0.203125 0.890625 0.671875 1.71875q0.46875 0.8125 1.25 1.34375q0.78125 0.515625 1.9375 0.515625q0.953125 0 1.640625 -0.375q0.6875 -0.390625 1.109375 -1.078125q0.421875 -0.703125 0.625 -1.59375q0.203125 -0.90625 0.203125 -1.9375zm7.917877 -12.84375l0 19.57814l-2.375 0l0 -19.57814l2.375 0zm9.501312 19.82814q-1.4375 0 -2.609375 -0.484375q-1.15625 -0.484375 -2.0 -1.3750153q-0.828125 -0.90625 -1.28125 -2.125q-0.4375 -1.21875 -0.4375 -2.671875l0 -0.53125q0 -1.6875 0.484375 -3.0q0.5 -1.328125 1.359375 -2.234375q0.859375 -0.921875 1.9375 -1.390625q1.078125 -0.484375 2.25 -0.484375q1.46875 0 2.546875 0.515625q1.078125 0.515625 1.765625 1.421875q0.6875 0.90625 1.015625 2.140625q0.328125 1.234375 0.328125 2.6875l0 1.046875l-10.28125 0l0 -1.921875l7.9375 0l0 -0.171875q-0.0625 -0.921875 -0.390625 -1.78125q-0.3125 -0.875 -1.015625 -1.4375q-0.703125 -0.5625 -1.90625 -0.5625q-0.8125 0 -1.484375 0.34375q-0.671875 0.34375 -1.15625 1.0q-0.484375 0.65625 -0.75 1.625q-0.265625 0.953125 -0.265625 2.203125l0 0.53125q0 0.984375 0.265625 1.84375q0.28125 0.859375 0.796875 1.515625q0.53125 0.640625 1.28125 1.015625q0.765625 0.359375 1.734375 0.359375q1.25 0 2.109375 -0.5q0.875 -0.515625 1.53125 -1.375l1.421875 1.140625q-0.453125 0.671875 -1.140625 1.28125q-0.6875 0.60939026 -1.6875 1.0000153q-1.0 0.375 -2.359375 0.375zm16.805573 -2.9218903l0 -16.90625l2.375 0l0 19.57814l-2.171875 0l-0.203125 -2.6718903zm-9.28125 -4.0625l0 -0.265625q0 -1.59375 0.390625 -2.875q0.390625 -1.296875 1.109375 -2.21875q0.71875 -0.9375 1.71875 -1.4375q1.0 -0.515625 2.234375 -0.515625q1.3125 0 2.28125 0.453125q0.96875 0.453125 1.65625 1.3125q0.6875 0.859375 1.078125 2.078125q0.390625 1.203125 0.546875 2.734375l0 1.171875q-0.140625 1.515625 -0.546875 2.734375q-0.390625 1.203125 -1.078125 2.0625q-0.6875 0.84376526 -1.671875 1.2968903q-0.96875 0.453125 -2.28125 0.453125q-1.21875 0 -2.21875 -0.515625q-1.0 -0.53125 -1.71875 -1.4687653q-0.71875 -0.9375 -1.109375 -2.21875q-0.390625 -1.28125 -0.390625 -2.78125zm2.375 -0.265625l0 0.265625q0 1.03125 0.203125 1.9375q0.21875 0.890625 0.65625 1.59375q0.453125 0.6875 1.140625 1.078125q0.6875 0.375 1.640625 0.375q1.171875 0 1.921875 -0.484375q0.765625 -0.5 1.21875 -1.3125q0.46875 -0.828125 0.71875 -1.78125l0 -3.0625q-0.140625 -0.703125 -0.4375 -1.359375q-0.28125 -0.65625 -0.734375 -1.171875q-0.453125 -0.515625 -1.109375 -0.8125q-0.65625 -0.3125 -1.546875 -0.3125q-0.96875 0 -1.671875 0.40625q-0.6875 0.390625 -1.140625 1.09375q-0.4375 0.6875 -0.65625 1.59375q-0.203125 0.90625 -0.203125 1.953125zm21.766571 -4.140625l0 16.437515l-2.375 0l0 -19.07814l2.171875 0l0.203125 2.640625zm9.28125 4.140625l0 0.265625q0 1.5 -0.359375 2.78125q-0.34375 1.28125 -1.03125 2.21875q-0.6875 0.93751526 -1.6875 1.4687653q-0.984375 0.515625 -2.265625 0.515625q-1.3125 0 -2.328125 -0.421875q-1.0 -0.4375 -1.703125 -1.2656403q-0.703125 -0.828125 -1.125 -1.984375q-0.40625 -1.171875 -0.5625 -2.625l0 -1.421875q0.15625 -1.53125 0.578125 -2.734375q0.421875 -1.21875 1.109375 -2.078125q0.703125 -0.859375 1.6875 -1.3125q1.0 -0.453125 2.296875 -0.453125q1.3125 0 2.3125 0.515625q1.0 0.5 1.6875 1.4375q0.6875 0.921875 1.03125 2.21875q0.359375 1.28125 0.359375 2.875zm-2.359375 0.265625l0 -0.265625q0 -1.046875 -0.21875 -1.953125q-0.21875 -0.90625 -0.671875 -1.59375q-0.453125 -0.703125 -1.15625 -1.09375q-0.703125 -0.40625 -1.671875 -0.40625q-0.890625 0 -1.546875 0.3125q-0.65625 0.296875 -1.109375 0.8125q-0.453125 0.515625 -0.75 1.171875q-0.28125 0.65625 -0.421875 1.359375l0 3.296875q0.25 0.890625 0.703125 1.671875q0.46875 0.78125 1.234375 1.265625q0.765625 0.46875 1.921875 0.46875q0.953125 0 1.640625 -0.390625q0.703125 -0.40625 1.15625 -1.109375q0.453125 -0.703125 0.671875 -1.609375q0.21875 -0.90625 0.21875 -1.9375zm11.089752 6.9843903q-1.4375 0 -2.609375 -0.484375q-1.15625 -0.484375 -2.0 -1.3750153q-0.828125 -0.90625 -1.28125 -2.125q-0.4375 -1.21875 -0.4375 -2.671875l0 -0.53125q0 -1.6875 0.484375 -3.0q0.5 -1.328125 1.359375 -2.234375q0.859375 -0.921875 1.9375 -1.390625q1.078125 -0.484375 2.25 -0.484375q1.46875 0 2.546875 0.515625q1.078125 0.515625 1.765625 1.421875q0.6875 0.90625 1.015625 2.140625q0.328125 1.234375 0.328125 2.6875l0 1.046875l-10.28125 0l0 -1.921875l7.9375 0l0 -0.171875q-0.0625 -0.921875 -0.390625 -1.78125q-0.3125 -0.875 -1.015625 -1.4375q-0.703125 -0.5625 -1.90625 -0.5625q-0.8125 0 -1.484375 0.34375q-0.671875 0.34375 -1.15625 1.0q-0.484375 0.65625 -0.75 1.625q-0.265625 0.953125 -0.265625 2.203125l0 0.53125q0 0.984375 0.265625 1.84375q0.28125 0.859375 0.796875 1.515625q0.53125 0.640625 1.28125 1.015625q0.765625 0.359375 1.734375 0.359375q1.25 0 2.109375 -0.5q0.875 -0.515625 1.53125 -1.375l1.421875 1.140625q-0.453125 0.671875 -1.140625 1.28125q-0.6875 0.60939026 -1.6875 1.0000153q-1.0 0.375 -2.359375 0.375zm7.4930725 -6.9843903l0 -0.296875q0 -1.5 0.421875 -2.765625q0.4375 -1.28125 1.25 -2.234375q0.828125 -0.953125 1.984375 -1.484375q1.15625 -0.53125 2.59375 -0.53125q1.453125 0 2.625 0.53125q1.171875 0.53125 1.984375 1.484375q0.828125 0.953125 1.25 2.234375q0.4375 1.265625 0.4375 2.765625l0 0.296875q0 1.484375 -0.4375 2.765625q-0.421875 1.265625 -1.25 2.21875q-0.8125 0.95314026 -1.96875 1.4843903q-1.15625 0.515625 -2.609375 0.515625q-1.453125 0 -2.609375 -0.515625q-1.15625 -0.53125 -1.984375 -1.4843903q-0.828125 -0.953125 -1.265625 -2.21875q-0.421875 -1.28125 -0.421875 -2.765625zm2.359375 -0.296875l0 0.296875q0 1.03125 0.234375 1.9375q0.25 0.90625 0.734375 1.609375q0.5 0.703125 1.234375 1.109375q0.734375 0.390625 1.71875 0.390625q0.96875 0 1.703125 -0.390625q0.734375 -0.40625 1.21875 -1.109375q0.484375 -0.703125 0.734375 -1.609375q0.25 -0.90625 0.25 -1.9375l0 -0.296875q0 -1.015625 -0.25 -1.921875q-0.25 -0.921875 -0.75 -1.625q-0.484375 -0.703125 -1.21875 -1.109375q-0.734375 -0.421875 -1.71875 -0.421875q-0.96875 0 -1.703125 0.421875q-0.71875 0.40625 -1.21875 1.109375q-0.484375 0.703125 -0.734375 1.625q-0.234375 0.90625 -0.234375 1.921875zm15.506592 -4.109375l0 16.437515l-2.375 0l0 -19.07814l2.171875 0l0.203125 2.640625zm9.28125 4.140625l0 0.265625q0 1.5 -0.359375 2.78125q-0.34375 1.28125 -1.03125 2.21875q-0.6875 0.93751526 -1.6875 1.4687653q-0.984375 0.515625 -2.265625 0.515625q-1.3125 0 -2.328125 -0.421875q-1.0 -0.4375 -1.703125 -1.2656403q-0.703125 -0.828125 -1.125 -1.984375q-0.40625 -1.171875 -0.5625 -2.625l0 -1.421875q0.15625 -1.53125 0.578125 -2.734375q0.421875 -1.21875 1.109375 -2.078125q0.703125 -0.859375 1.6875 -1.3125q1.0 -0.453125 2.296875 -0.453125q1.3125 0 2.3125 0.515625q1.0 0.5 1.6875 1.4375q0.6875 0.921875 1.03125 2.21875q0.359375 1.28125 0.359375 2.875zm-2.359375 0.265625l0 -0.265625q0 -1.046875 -0.21875 -1.953125q-0.21875 -0.90625 -0.671875 -1.59375q-0.453125 -0.703125 -1.15625 -1.09375q-0.703125 -0.40625 -1.671875 -0.40625q-0.890625 0 -1.546875 0.3125q-0.65625 0.296875 -1.109375 0.8125q-0.453125 0.515625 -0.75 1.171875q-0.28125 0.65625 -0.421875 1.359375l0 3.296875q0.25 0.890625 0.703125 1.671875q0.46875 0.78125 1.234375 1.265625q0.765625 0.46875 1.921875 0.46875q0.953125 0 1.640625 -0.390625q0.703125 -0.40625 1.15625 -1.109375q0.453125 -0.703125 0.671875 -1.609375q0.21875 -0.90625 0.21875 -1.9375zm7.933502 -12.84375l0 19.57814l-2.375 0l0 -19.57814l2.375 0zm9.501312 19.82814q-1.4375 0 -2.609375 -0.484375q-1.15625 -0.484375 -2.0 -1.3750153q-0.828125 -0.90625 -1.28125 -2.125q-0.4375 -1.21875 -0.4375 -2.671875l0 -0.53125q0 -1.6875 0.484375 -3.0q0.5 -1.328125 1.359375 -2.234375q0.859375 -0.921875 1.9375 -1.390625q1.078125 -0.484375 2.25 -0.484375q1.46875 0 2.546875 0.515625q1.078125 0.515625 1.765625 1.421875q0.6875 0.90625 1.015625 2.140625q0.328125 1.234375 0.328125 2.6875l0 1.046875l-10.28125 0l0 -1.921875l7.9375 0l0 -0.171875q-0.0625 -0.921875 -0.390625 -1.78125q-0.3125 -0.875 -1.015625 -1.4375q-0.703125 -0.5625 -1.90625 -0.5625q-0.8125 0 -1.484375 0.34375q-0.671875 0.34375 -1.15625 1.0q-0.484375 0.65625 -0.75 1.625q-0.265625 0.953125 -0.265625 2.203125l0 0.53125q0 0.984375 0.265625 1.84375q0.28125 0.859375 0.796875 1.515625q0.53125 0.640625 1.28125 1.015625q0.765625 0.359375 1.734375 0.359375q1.25 0 2.109375 -0.5q0.875 -0.515625 1.53125 -1.375l1.421875 1.140625q-0.453125 0.671875 -1.140625 1.28125q-0.6875 0.60939026 -1.6875 1.0000153q-1.0 0.375 -2.359375 0.375z" fill-rule="nonzero"/><path fill="#ff9900" d="m175.3857 346.7762c0 -34.65912 81.97069 -62.75589 183.08662 -62.75589l0 0c101.11594 0 183.08664 28.096771 183.08664 62.75589l0 0c0 34.65915 -81.9707 62.75592 -183.08664 62.75592l0 0c-101.11594 0 -183.08662 -28.096771 -183.08662 -62.75592z" fill-rule="evenodd"/><path fill="#000000" d="m265.7897 334.4606l0 24.734375l-5.515625 0l-9.343735 -15.984375l0 15.984375l-5.546875 0l0 -24.734375l5.546875 0l9.35936 15.984375l0 -15.984375l5.5 0zm12.500549 25.078125q-2.203125 0 -3.9375 -0.6875q-1.71875 -0.703125 -2.921875 -1.9375q-1.203125 -1.234375 -1.828125 -2.84375q-0.625 -1.625 -0.625 -3.453125l0 -0.640625q0 -2.0625 0.578125 -3.796875q0.578125 -1.734375 1.6875 -3.015625q1.109375 -1.28125 2.734375 -1.984375q1.640625 -0.703125 3.734375 -0.703125q1.953125 0 3.46875 0.640625q1.53125 0.625 2.578125 1.8125q1.0625 1.171875 1.609375 2.828125q0.5625 1.65625 0.5625 3.71875l0 2.171875l-14.8125 0l0 -3.40625l9.609375 0l0 -0.40625q0 -0.96875 -0.34375 -1.703125q-0.34375 -0.734375 -1.015625 -1.125q-0.671875 -0.40625 -1.6875 -0.40625q-0.96875 0 -1.625 0.40625q-0.640625 0.40625 -1.03125 1.15625q-0.375 0.734375 -0.546875 1.71875q-0.171875 0.96875 -0.171875 2.09375l0 0.640625q0 1.0625 0.28125 1.953125q0.296875 0.875 0.859375 1.515625q0.5625 0.625 1.359375 0.984375q0.796875 0.359375 1.8125 0.359375q1.265625 0 2.40625 -0.484375q1.140625 -0.484375 1.96875 -1.53125l2.484375 2.84375q-0.5625 0.8125 -1.578125 1.578125q-1.015625 0.75 -2.421875 1.234375q-1.40625 0.46875 -3.1875 0.46875zm21.001617 -4.78125l0 -13.953125l5.328125 0l0 18.390625l-5.0 0l-0.328125 -4.4375zm0.546875 -3.75l1.46875 -0.03125q0 1.84375 -0.4375 3.40625q-0.421875 1.5625 -1.28125 2.71875q-0.859375 1.15625 -2.125 1.796875q-1.265625 0.640625 -2.953125 0.640625q-1.359375 0 -2.5 -0.375q-1.125 -0.390625 -1.9375 -1.21875q-0.8125 -0.828125 -1.265625 -2.125q-0.4375 -1.296875 -0.4375 -3.109375l0 -11.90625l5.3125 0l0 11.9375q0 0.703125 0.171875 1.21875q0.1875 0.5 0.5 0.828125q0.3125 0.3125 0.78125 0.46875q0.46875 0.15625 1.03125 0.15625q1.40625 0 2.203125 -0.59375q0.8125 -0.59375 1.140625 -1.578125q0.328125 -1.0 0.328125 -2.234375zm13.541992 -5.921875l0 14.109375l-5.296875 0l0 -18.390625l4.984375 0l0.3125 4.28125zm5.5 -4.40625l-0.09375 4.9375q-0.34375 -0.046875 -0.890625 -0.09375q-0.53125 -0.046875 -0.921875 -0.046875q-1.015625 0 -1.765625 0.25q-0.734375 0.25 -1.21875 0.734375q-0.484375 0.46875 -0.71875 1.171875q-0.234375 0.703125 -0.234375 1.625l-1.015625 -0.5q0 -1.8125 0.359375 -3.328125q0.359375 -1.515625 1.03125 -2.625q0.6875 -1.109375 1.671875 -1.71875q0.984375 -0.609375 2.25 -0.609375q0.40625 0 0.828125 0.046875q0.421875 0.046875 0.71875 0.15625zm0.8248291 9.515625l0 -0.359375q0 -2.03125 0.578125 -3.734375q0.578125 -1.703125 1.703125 -2.953125q1.125 -1.265625 2.75 -1.96875q1.625 -0.703125 3.734375 -0.703125q2.140625 0 3.78125 0.703125q1.640625 0.703125 2.765625 1.96875q1.125 1.25 1.703125 2.953125q0.578125 1.703125 0.578125 3.734375l0 0.359375q0 2.0 -0.578125 3.71875q-0.578125 1.703125 -1.703125 2.96875q-1.125 1.265625 -2.765625 1.96875q-1.625 0.6875 -3.75 0.6875q-2.09375 0 -3.75 -0.6875q-1.640625 -0.703125 -2.765625 -1.96875q-1.125 -1.265625 -1.703125 -2.96875q-0.578125 -1.71875 -0.578125 -3.71875zm5.328125 -0.359375l0 0.359375q0 1.078125 0.171875 2.03125q0.171875 0.953125 0.578125 1.671875q0.421875 0.703125 1.078125 1.109375q0.671875 0.40625 1.640625 0.40625q0.96875 0 1.625 -0.40625q0.671875 -0.40625 1.078125 -1.109375q0.40625 -0.71875 0.578125 -1.671875q0.1875 -0.953125 0.1875 -2.03125l0 -0.359375q0 -1.078125 -0.1875 -2.015625q-0.171875 -0.9375 -0.578125 -1.671875q-0.40625 -0.734375 -1.078125 -1.140625q-0.671875 -0.40625 -1.65625 -0.40625q-0.953125 0 -1.609375 0.40625q-0.65625 0.40625 -1.078125 1.140625q-0.40625 0.734375 -0.578125 1.671875q-0.171875 0.9375 -0.171875 2.015625zm25.747864 5.25l0 -21.984375l5.34375 0l0 26.09375l-4.796875 0l-0.546875 -4.109375zm-11.453125 -4.859375l0 -0.359375q0 -2.09375 0.46875 -3.8125q0.46875 -1.71875 1.375 -2.96875q0.90625 -1.25 2.25 -1.921875q1.34375 -0.6875 3.078125 -0.6875q1.59375 0 2.78125 0.703125q1.203125 0.703125 2.03125 1.96875q0.84375 1.265625 1.375 2.984375q0.53125 1.703125 0.796875 3.6875l0 0.609375q-0.25 1.90625 -0.796875 3.5625q-0.53125 1.640625 -1.375 2.890625q-0.828125 1.234375 -2.03125 1.953125q-1.203125 0.703125 -2.8125 0.703125q-1.734375 0 -3.078125 -0.6875q-1.328125 -0.703125 -2.234375 -1.953125q-0.890625 -1.265625 -1.359375 -2.96875q-0.46875 -1.703125 -0.46875 -3.703125zm5.3125 -0.359375l0 0.359375q0 1.078125 0.15625 2.015625q0.15625 0.9375 0.53125 1.65625q0.375 0.703125 0.984375 1.109375q0.609375 0.40625 1.5 0.40625q1.1875 0 1.953125 -0.546875q0.765625 -0.5625 1.15625 -1.546875q0.390625 -0.984375 0.40625 -2.296875l0 -1.78125q0 -1.09375 -0.21875 -1.953125q-0.21875 -0.875 -0.65625 -1.46875q-0.4375 -0.59375 -1.078125 -0.90625q-0.640625 -0.3125 -1.53125 -0.3125q-0.859375 0 -1.484375 0.40625q-0.609375 0.390625 -1.0 1.109375q-0.375 0.703125 -0.546875 1.671875q-0.171875 0.953125 -0.171875 2.078125zm20.604492 -9.0625l0 18.390625l-5.328125 0l0 -18.390625l5.328125 0zm-5.640625 -4.75q0 -1.15625 0.8125 -1.890625q0.8125 -0.75 2.140625 -0.75q1.328125 0 2.140625 0.75q0.828125 0.734375 0.828125 1.890625q0 1.140625 -0.828125 1.875q-0.8125 0.734375 -2.140625 0.734375q-1.328125 0 -2.140625 -0.734375q-0.8125 -0.734375 -0.8125 -1.875zm15.8802185 19.390625l3.84375 -14.640625l5.578125 0l-6.109375 18.390625l-3.34375 0l0.03125 -3.75zm-2.484375 -14.640625l3.828125 14.65625l0.03125 3.734375l-3.34375 0l-6.09375 -18.390625l5.578125 0zm22.287018 18.734375q-2.203125 0 -3.9375 -0.6875q-1.71875 -0.703125 -2.921875 -1.9375q-1.203125 -1.234375 -1.828125 -2.84375q-0.625 -1.625 -0.625 -3.453125l0 -0.640625q0 -2.0625 0.578125 -3.796875q0.578125 -1.734375 1.6875 -3.015625q1.109375 -1.28125 2.734375 -1.984375q1.640625 -0.703125 3.734375 -0.703125q1.953125 0 3.46875 0.640625q1.53125 0.625 2.578125 1.8125q1.0625 1.171875 1.609375 2.828125q0.5625 1.65625 0.5625 3.71875l0 2.171875l-14.8125 0l0 -3.40625l9.609375 0l0 -0.40625q0 -0.96875 -0.34375 -1.703125q-0.34375 -0.734375 -1.015625 -1.125q-0.671875 -0.40625 -1.6875 -0.40625q-0.96875 0 -1.625 0.40625q-0.640625 0.40625 -1.03125 1.15625q-0.375 0.734375 -0.546875 1.71875q-0.171875 0.96875 -0.171875 2.09375l0 0.640625q0 1.0625 0.28125 1.953125q0.296875 0.875 0.859375 1.515625q0.5625 0.625 1.359375 0.984375q0.796875 0.359375 1.8125 0.359375q1.265625 0 2.40625 -0.484375q1.140625 -0.484375 1.96875 -1.53125l2.484375 2.84375q-0.5625 0.8125 -1.578125 1.578125q-1.015625 0.75 -2.421875 1.234375q-1.40625 0.46875 -3.1875 0.46875zm15.517242 -14.453125l0 14.109375l-5.296875 0l0 -18.390625l4.984375 0l0.3125 4.28125zm5.5 -4.40625l-0.09375 4.9375q-0.34375 -0.046875 -0.890625 -0.09375q-0.53125 -0.046875 -0.921875 -0.046875q-1.015625 0 -1.765625 0.25q-0.734375 0.25 -1.21875 0.734375q-0.484375 0.46875 -0.71875 1.171875q-0.234375 0.703125 -0.234375 1.625l-1.015625 -0.5q0 -1.8125 0.359375 -3.328125q0.359375 -1.515625 1.03125 -2.625q0.6875 -1.109375 1.671875 -1.71875q0.984375 -0.609375 2.25 -0.609375q0.40625 0 0.828125 0.046875q0.421875 0.046875 0.71875 0.15625zm11.932648 13.40625q0 -0.515625 -0.3125 -0.90625q-0.3125 -0.390625 -1.125 -0.703125q-0.796875 -0.328125 -2.265625 -0.65625q-1.375 -0.28125 -2.5625 -0.75q-1.1875 -0.46875 -2.078125 -1.140625q-0.875 -0.671875 -1.375 -1.59375q-0.484375 -0.9375 -0.484375 -2.125q0 -1.15625 0.5 -2.1875q0.5 -1.03125 1.453125 -1.828125q0.96875 -0.8125 2.34375 -1.265625q1.390625 -0.453125 3.15625 -0.453125q2.4375 0 4.203125 0.75q1.765625 0.75 2.71875 2.109375q0.953125 1.34375 0.953125 3.078125l-5.3125 0q0 -0.703125 -0.265625 -1.234375q-0.265625 -0.53125 -0.828125 -0.828125q-0.5625 -0.296875 -1.484375 -0.296875q-0.703125 0 -1.25 0.25q-0.53125 0.25 -0.828125 0.671875q-0.296875 0.421875 -0.296875 0.984375q0 0.390625 0.171875 0.703125q0.1875 0.3125 0.5625 0.578125q0.390625 0.265625 1.0 0.46875q0.625 0.203125 1.53125 0.390625q1.921875 0.359375 3.5 1.0q1.59375 0.640625 2.546875 1.78125q0.96875 1.140625 0.96875 3.015625q0 1.21875 -0.5625 2.25q-0.546875 1.015625 -1.59375 1.78125q-1.03125 0.75 -2.46875 1.1875q-1.4375 0.421875 -3.265625 0.421875q-2.59375 0 -4.40625 -0.9375q-1.796875 -0.9375 -2.703125 -2.34375q-0.90625 -1.421875 -0.90625 -2.921875l4.984375 0q0.03125 0.921875 0.453125 1.5q0.4375 0.578125 1.125 0.84375q0.703125 0.25 1.578125 0.25q0.859375 0 1.4375 -0.234375q0.578125 -0.234375 0.875 -0.65625q0.3125 -0.421875 0.3125 -0.953125zm13.669678 -13.28125l0 18.390625l-5.328125 0l0 -18.390625l5.328125 0zm-5.640625 -4.75q0 -1.15625 0.8125 -1.890625q0.8125 -0.75 2.140625 -0.75q1.328125 0 2.140625 0.75q0.828125 0.734375 0.828125 1.890625q0 1.140625 -0.828125 1.875q-0.8125 0.734375 -2.140625 0.734375q-1.328125 0 -2.140625 -0.734375q-0.8125 -0.734375 -0.8125 -1.875zm18.786469 4.75l0 3.734375l-10.90625 0l0 -3.734375l10.90625 0zm-8.40625 -4.546875l5.3125 0l0 17.171875q0 0.765625 0.1875 1.171875q0.1875 0.40625 0.609375 0.578125q0.4375 0.15625 1.09375 0.15625q0.46875 0 0.8125 -0.03125q0.34375 -0.03125 0.625 -0.078125l0 3.828125q-0.671875 0.21875 -1.4375 0.34375q-0.765625 0.140625 -1.671875 0.140625q-1.703125 0 -2.953125 -0.5625q-1.25 -0.5625 -1.921875 -1.78125q-0.65625 -1.21875 -0.65625 -3.171875l0 -17.765625zm16.48587 20.8125l4.796875 -16.265625l5.71875 0l-7.390625 21.140625q-0.25 0.703125 -0.65625 1.5q-0.390625 0.796875 -1.0625 1.515625q-0.671875 0.734375 -1.703125 1.1875q-1.03125 0.46875 -2.546875 0.46875q-0.765625 0 -1.1875 -0.078125q-0.40625 -0.078125 -1.09375 -0.234375l-0.015625 -3.859375q0.21875 0 0.390625 0q0.1875 0.015625 0.375 0.015625q0.953125 0 1.53125 -0.203125q0.59375 -0.203125 0.921875 -0.609375q0.328125 -0.390625 0.546875 -1.015625l1.375 -3.5625zm-1.625 -16.265625l3.8125 13.09375l0.640625 5.625l-3.578125 0.1875l-6.578125 -18.90625l5.703125 0z" fill-rule="nonzero"/></g></svg>