<svg version="1.1" viewBox="0.0 0.0 960.0 540.0" fill="none" stroke="none" stroke-linecap="square" stroke-miterlimit="10" xmlns:xlink="http://www.w3.org/1999/xlink" xmlns="http://www.w3.org/2000/svg"><clipPath id="g377aef350ad_0_17.0"><path d="m0 0l960.0 0l0 540.0l-960.0 0l0 -540.0z" clip-rule="nonzero"/></clipPath><g clip-path="url(#g377aef350ad_0_17.0)"><path fill="#fcfaf7" d="m0 0l960.0 0l0 540.0l-960.0 0z" fill-rule="evenodd"/><path fill="#000000" fill-opacity="0.0" d="m10.585301 374.7792l165.88977 0.881897" fill-rule="evenodd"/><path stroke="#513184" stroke-width="4.435695538057742" stroke-linejoin="round" stroke-linecap="butt" d="m10.585301 374.7792l149.07872 0.792511" fill-rule="evenodd"/><path stroke="#513184" stroke-width="4.435695538057742" stroke-linecap="butt" d="m174.25725 375.6493c-0.02142334 4.0298157 -3.3055878 7.2792664 -7.3354034 7.257843c-4.0298157 -0.02142334 -7.279251 -3.305603 -7.2578278 -7.3354187c0.02142334 -4.0298157 3.305603 -7.279236 7.3354034 -7.2578125c4.0298157 0.02142334 7.279251 3.3055725 7.2578278 7.335388z" fill-rule="nonzero"/><path fill="#000000" fill-opacity="0.0" d="m541.2979 374.7792l287.77948 0" fill-rule="evenodd"/><path stroke="#513184" stroke-width="4.435695538057742" stroke-linejoin="round" stroke-linecap="butt" stroke-dasharray="4.435695538057742,13.307086614173228" d="m541.2979 374.7792l270.96826 0" fill-rule="evenodd"/><path stroke="#513184" stroke-width="4.435695538057742" stroke-linecap="butt" d="m826.85956 374.7792c0 4.029846 -3.2668457 7.2967224 -7.296692 7.2967224c-4.029846 0 -7.296753 -3.2668762 -7.296753 -7.2967224c0 -4.0298767 3.2669067 -7.2967224 7.296753 -7.2967224c4.029846 0 7.296692 3.2668457 7.296692 7.2967224z" fill-rule="nonzero"/><path fill="#000000" fill-opacity="0.0" d="m174.65692 375.69617l362.07874 -0.881897" fill-rule="evenodd"/><path stroke="#513184" stroke-width="4.435695538057742" stroke-linejoin="round" stroke-linecap="butt" d="m174.65692 375.69617l345.26752 -0.8409729" fill-rule="evenodd"/><path stroke="#513184" stroke-width="4.435695538057742" stroke-linecap="butt" d="m519.9066 367.5585l14.593445 -0.03552246l0.03552246 14.593384l-14.593384 0.03555298l-0.035583496 -14.593414z" fill-rule="nonzero"/><path fill="#000000" fill-opacity="0.0" d="m829.10077 374.76175l120.31494 -0.5984497" fill-rule="evenodd"/><path stroke="#513184" stroke-width="4.435695538057742" stroke-linejoin="round" stroke-linecap="butt" d="m829.10077 374.76175l120.31494 -0.5984497" fill-rule="evenodd"/><path fill="#000000" fill-opacity="0.0" d="m100.40944 390.21616l141.48032 0l0 53.763794l-141.48032 0z" fill-rule="evenodd"/><path fill="#434343" d="m122.69069 420.9882q0 -0.65625 -0.203125 -1.171875q-0.203125 -0.515625 -0.703125 -0.921875q-0.5 -0.421875 -1.375 -0.796875q-0.875 -0.390625 -2.21875 -0.78125q-1.40625 -0.40625 -2.53125 -0.921875q-1.125 -0.515625 -1.9375 -1.171875q-0.8125 -0.671875 -1.234375 -1.515625q-0.421875 -0.859375 -0.421875 -1.96875q0 -1.109375 0.453125 -2.03125q0.453125 -0.9375 1.296875 -1.625q0.859375 -0.703125 2.03125 -1.09375q1.1875 -0.390625 2.640625 -0.390625q2.140625 0 3.625 0.8125q1.484375 0.8125 2.265625 2.125q0.78125 1.296875 0.78125 2.78125l-2.5 0q0 -1.078125 -0.453125 -1.890625q-0.453125 -0.828125 -1.375 -1.296875q-0.921875 -0.484375 -2.34375 -0.484375q-1.328125 0 -2.203125 0.40625q-0.875 0.40625 -1.296875 1.09375q-0.421875 0.6875 -0.421875 1.5625q0 0.609375 0.25 1.09375q0.265625 0.484375 0.796875 0.90625q0.546875 0.40625 1.375 0.765625q0.84375 0.34375 2.015625 0.671875q1.609375 0.453125 2.765625 1.015625q1.171875 0.546875 1.9375 1.25q0.765625 0.6875 1.125 1.578125q0.375 0.875 0.375 1.96875q0 1.15625 -0.46875 2.09375q-0.46875 0.9375 -1.34375 1.609375q-0.859375 0.65625 -2.078125 1.015625q-1.21875 0.359375 -2.703125 0.359375q-1.3125 0 -2.578125 -0.359375q-1.265625 -0.375 -2.3125 -1.09375q-1.03125 -0.734375 -1.65625 -1.796875q-0.609375 -1.078125 -0.609375 -2.5l2.5 0q0 0.96875 0.375 1.671875q0.375 0.6875 1.03125 1.15625q0.65625 0.453125 1.484375 0.671875q0.84375 0.203125 1.765625 0.203125q1.3125 0 2.21875 -0.359375q0.90625 -0.359375 1.375 -1.03125q0.484375 -0.6875 0.484375 -1.609375zm11.189941 5.046875q-1.46875 0 -2.671875 -0.5q-1.1875 -0.5 -2.03125 -1.40625q-0.84375 -0.921875 -1.3125 -2.15625q-0.453125 -1.25 -0.453125 -2.734375l0 -0.546875q0 -1.71875 0.5 -3.0625q0.515625 -1.34375 1.390625 -2.28125q0.875 -0.9375 1.96875 -1.40625q1.109375 -0.484375 2.296875 -0.484375q1.5 0 2.59375 0.515625q1.109375 0.515625 1.796875 1.453125q0.703125 0.921875 1.046875 2.1875q0.34375 1.25 0.34375 2.71875l0 1.078125l-10.5 0l0 -1.953125l8.09375 0l0 -0.1875q-0.046875 -0.9375 -0.390625 -1.8125q-0.328125 -0.890625 -1.046875 -1.453125q-0.703125 -0.578125 -1.9375 -0.578125q-0.828125 0 -1.515625 0.34375q-0.6875 0.34375 -1.1875 1.03125q-0.484375 0.671875 -0.765625 1.640625q-0.265625 0.96875 -0.265625 2.25l0 0.546875q0 1.0 0.28125 1.875q0.28125 0.875 0.8125 1.546875q0.546875 0.65625 1.3125 1.03125q0.78125 0.375 1.765625 0.375q1.265625 0 2.15625 -0.515625q0.890625 -0.515625 1.546875 -1.390625l1.453125 1.15625q-0.453125 0.6875 -1.15625 1.3125q-0.703125 0.625 -1.71875 1.015625q-1.015625 0.390625 -2.40625 0.390625zm10.672745 -11.625l0 16.765625l-2.421875 0l0 -19.46875l2.21875 0l0.203125 2.703125zm9.46875 4.21875l0 0.265625q0 1.53125 -0.359375 2.84375q-0.359375 1.296875 -1.0625 2.265625q-0.6875 0.953125 -1.703125 1.5q-1.015625 0.53125 -2.328125 0.53125q-1.34375 0 -2.375 -0.4375q-1.015625 -0.453125 -1.734375 -1.296875q-0.703125 -0.84375 -1.140625 -2.015625q-0.421875 -1.1875 -0.578125 -2.671875l0 -1.453125q0.15625 -1.5625 0.578125 -2.796875q0.4375 -1.234375 1.140625 -2.109375q0.71875 -0.875 1.734375 -1.328125q1.015625 -0.46875 2.34375 -0.46875q1.3125 0 2.34375 0.515625q1.03125 0.5 1.734375 1.453125q0.703125 0.953125 1.046875 2.28125q0.359375 1.3125 0.359375 2.921875zm-2.40625 0.265625l0 -0.265625q0 -1.0625 -0.234375 -1.984375q-0.21875 -0.9375 -0.6875 -1.640625q-0.453125 -0.703125 -1.171875 -1.109375q-0.703125 -0.421875 -1.6875 -0.421875q-0.921875 0 -1.59375 0.3125q-0.65625 0.3125 -1.125 0.84375q-0.46875 0.53125 -0.765625 1.203125q-0.296875 0.65625 -0.4375 1.375l0 3.359375q0.265625 0.921875 0.734375 1.71875q0.46875 0.796875 1.25 1.28125q0.78125 0.484375 1.953125 0.484375q0.984375 0 1.6875 -0.40625q0.703125 -0.40625 1.15625 -1.125q0.46875 -0.71875 0.6875 -1.640625q0.234375 -0.9375 0.234375 -1.984375zm11.363663 -7.1875l0 1.84375l-7.609375 0l0 -1.84375l7.609375 0zm-5.03125 -3.40625l2.40625 0l0 13.984375q0 0.71875 0.21875 1.078125q0.21875 0.359375 0.5625 0.484375q0.359375 0.109375 0.765625 0.109375q0.296875 0 0.625 -0.046875q0.328125 -0.0625 0.5 -0.109375l0.015625 1.96875q-0.28125 0.09375 -0.75 0.171875q-0.453125 0.09375 -1.109375 0.09375q-0.875 0 -1.625 -0.34375q-0.734375 -0.359375 -1.171875 -1.1875q-0.4375 -0.828125 -0.4375 -2.234375l0 -13.96875zm26.586838 15.5l0 1.96875l-12.390625 0l0 -1.734375l6.203125 -6.890625q1.140625 -1.28125 1.765625 -2.171875q0.640625 -0.890625 0.890625 -1.59375q0.25 -0.703125 0.25 -1.453125q0 -0.921875 -0.390625 -1.6875q-0.375 -0.765625 -1.109375 -1.21875q-0.734375 -0.453125 -1.796875 -0.453125q-1.265625 0 -2.109375 0.484375q-0.828125 0.484375 -1.25 1.359375q-0.40625 0.875 -0.40625 2.0l-2.40625 0q0 -1.59375 0.703125 -2.921875q0.703125 -1.328125 2.078125 -2.109375q1.375 -0.78125 3.390625 -0.78125q1.796875 0 3.0625 0.625q1.28125 0.625 1.953125 1.765625q0.6875 1.140625 0.6875 2.65625q0 0.828125 -0.28125 1.6875q-0.28125 0.84375 -0.765625 1.6875q-0.484375 0.84375 -1.125 1.671875q-0.640625 0.8125 -1.375 1.609375l-5.0625 5.5l9.484375 0zm14.439163 -9.0l0 2.890625q0 2.328125 -0.421875 3.921875q-0.421875 1.59375 -1.203125 2.578125q-0.765625 0.96875 -1.875 1.40625q-1.09375 0.4375 -2.46875 0.4375q-1.09375 0 -2.015625 -0.265625q-0.921875 -0.28125 -1.65625 -0.890625q-0.734375 -0.609375 -1.25 -1.578125q-0.515625 -0.96875 -0.796875 -2.359375q-0.265625 -1.390625 -0.265625 -3.25l0 -2.890625q0 -2.328125 0.421875 -3.890625q0.421875 -1.578125 1.1875 -2.53125q0.78125 -0.953125 1.875 -1.359375q1.109375 -0.421875 2.46875 -0.421875q1.109375 0 2.03125 0.265625q0.9375 0.265625 1.65625 0.84375q0.734375 0.578125 1.25 1.53125q0.515625 0.953125 0.78125 2.328125q0.28125 1.375 0.28125 3.234375zm-2.421875 3.28125l0 -3.6875q0 -1.265625 -0.15625 -2.234375q-0.140625 -0.96875 -0.4375 -1.65625q-0.28125 -0.6875 -0.71875 -1.109375q-0.421875 -0.4375 -1.0 -0.640625q-0.5625 -0.203125 -1.265625 -0.203125q-0.859375 0 -1.515625 0.328125q-0.65625 0.3125 -1.109375 1.0q-0.453125 0.6875 -0.6875 1.8125q-0.234375 1.109375 -0.234375 2.703125l0 3.6875q0 1.265625 0.140625 2.25q0.15625 0.96875 0.453125 1.6875q0.3125 0.703125 0.734375 1.15625q0.4375 0.453125 1.0 0.671875q0.5625 0.203125 1.25 0.203125q0.890625 0 1.546875 -0.328125q0.65625 -0.34375 1.109375 -1.0625q0.453125 -0.71875 0.671875 -1.859375q0.21875 -1.140625 0.21875 -2.71875zm17.892288 5.71875l0 1.96875l-12.390625 0l0 -1.734375l6.203125 -6.890625q1.140625 -1.28125 1.765625 -2.171875q0.640625 -0.890625 0.890625 -1.59375q0.25 -0.703125 0.25 -1.453125q0 -0.921875 -0.390625 -1.6875q-0.375 -0.765625 -1.109375 -1.21875q-0.734375 -0.453125 -1.796875 -0.453125q-1.265625 0 -2.109375 0.484375q-0.828125 0.484375 -1.25 1.359375q-0.40625 0.875 -0.40625 2.0l-2.40625 0q0 -1.59375 0.703125 -2.921875q0.703125 -1.328125 2.078125 -2.109375q1.375 -0.78125 3.390625 -0.78125q1.796875 0 3.0625 0.625q1.28125 0.625 1.953125 1.765625q0.6875 1.140625 0.6875 2.65625q0 0.828125 -0.28125 1.6875q-0.28125 0.84375 -0.765625 1.6875q-0.484375 0.84375 -1.125 1.671875q-0.640625 0.8125 -1.375 1.609375l-5.0625 5.5l9.484375 0zm15.345413 -4.390625l0 1.96875l-13.671875 0l0 -1.421875l8.46875 -13.109375l1.96875 0l-2.109375 3.796875l-5.59375 8.765625l10.9375 0zm-2.640625 -12.5625l0 18.921875l-2.40625 0l0 -18.921875l2.40625 0z" fill-rule="nonzero"/><path fill="#000000" fill-opacity="0.0" d="m456.20117 390.22052l141.48035 0l0 53.763794l-141.48035 0z" fill-rule="evenodd"/><path fill="#434343" d="m473.51367 425.7738l-3.953125 0l0.03125 -2.046875l3.921875 0q2.03125 0 3.375 -0.84375q1.359375 -0.84375 2.03125 -2.390625q0.6875 -1.546875 0.6875 -3.609375l0 -1.15625q0 -1.625 -0.390625 -2.890625q-0.390625 -1.265625 -1.140625 -2.140625q-0.75 -0.875 -1.84375 -1.328125q-1.078125 -0.453125 -2.484375 -0.453125l-4.265625 0l0 -2.0625l4.265625 0q1.859375 0 3.390625 0.625q1.53125 0.609375 2.640625 1.78125q1.109375 1.15625 1.703125 2.796875q0.609375 1.640625 0.609375 3.703125l0 1.125q0 2.0625 -0.609375 3.703125q-0.59375 1.640625 -1.71875 2.796875q-1.109375 1.15625 -2.6875 1.78125q-1.578125 0.609375 -3.5625 0.609375zm-2.609375 -18.921875l0 18.921875l-2.5 0l0 -18.921875l2.5 0zm20.431152 19.1875q-1.46875 0 -2.671875 -0.5q-1.1875 -0.5 -2.03125 -1.40625q-0.84375 -0.921875 -1.3125 -2.15625q-0.453125 -1.25 -0.453125 -2.734375l0 -0.546875q0 -1.71875 0.5 -3.0625q0.515625 -1.34375 1.390625 -2.28125q0.875 -0.9375 1.96875 -1.40625q1.109375 -0.484375 2.296875 -0.484375q1.5 0 2.59375 0.515625q1.109375 0.515625 1.796875 1.453125q0.703125 0.921875 1.046875 2.1875q0.34375 1.25 0.34375 2.71875l0 1.078125l-10.5 0l0 -1.953125l8.09375 0l0 -0.1875q-0.046875 -0.9375 -0.390625 -1.8125q-0.328125 -0.890625 -1.046875 -1.453125q-0.703125 -0.578125 -1.9375 -0.578125q-0.828125 0 -1.515625 0.34375q-0.6875 0.34375 -1.1875 1.03125q-0.484375 0.671875 -0.765625 1.640625q-0.265625 0.96875 -0.265625 2.25l0 0.546875q0 1.0 0.28125 1.875q0.28125 0.875 0.8125 1.546875q0.546875 0.65625 1.3125 1.03125q0.78125 0.375 1.765625 0.375q1.265625 0 2.15625 -0.515625q0.890625 -0.515625 1.546875 -1.390625l1.453125 1.15625q-0.453125 0.6875 -1.15625 1.3125q-0.703125 0.625 -1.71875 1.015625q-1.015625 0.390625 -2.40625 0.390625zm13.89151 -1.984375q0.859375 0 1.578125 -0.34375q0.734375 -0.359375 1.203125 -0.96875q0.46875 -0.625 0.53125 -1.40625l2.296875 0q-0.0625 1.234375 -0.84375 2.3125q-0.765625 1.078125 -2.015625 1.734375q-1.25 0.65625 -2.75 0.65625q-1.578125 0 -2.765625 -0.5625q-1.171875 -0.5625 -1.953125 -1.53125q-0.765625 -0.984375 -1.15625 -2.25q-0.375 -1.265625 -0.375 -2.671875l0 -0.546875q0 -1.421875 0.375 -2.6875q0.390625 -1.265625 1.15625 -2.234375q0.78125 -0.984375 1.953125 -1.53125q1.1875 -0.5625 2.765625 -0.5625q1.65625 0 2.890625 0.671875q1.234375 0.65625 1.9375 1.8125q0.71875 1.140625 0.78125 2.609375l-2.296875 0q-0.0625 -0.875 -0.484375 -1.578125q-0.421875 -0.703125 -1.140625 -1.125q-0.71875 -0.421875 -1.6875 -0.421875q-1.09375 0 -1.84375 0.4375q-0.75 0.4375 -1.1875 1.171875q-0.4375 0.734375 -0.625 1.625q-0.1875 0.890625 -0.1875 1.8125l0 0.546875q0 0.921875 0.171875 1.8125q0.1875 0.890625 0.625 1.625q0.4375 0.734375 1.1875 1.171875q0.75 0.421875 1.859375 0.421875zm27.044342 -0.25l0 1.96875l-12.390625 0l0 -1.734375l6.203125 -6.890625q1.140625 -1.28125 1.765625 -2.171875q0.640625 -0.890625 0.890625 -1.59375q0.25 -0.703125 0.25 -1.453125q0 -0.921875 -0.390625 -1.6875q-0.375 -0.765625 -1.109375 -1.21875q-0.734375 -0.453125 -1.796875 -0.453125q-1.265625 0 -2.109375 0.484375q-0.828125 0.484375 -1.25 1.359375q-0.40625 0.875 -0.40625 2.0l-2.40625 0q0 -1.59375 0.703125 -2.921875q0.703125 -1.328125 2.078125 -2.109375q1.375 -0.78125 3.390625 -0.78125q1.796875 0 3.0625 0.625q1.28125 0.625 1.953125 1.765625q0.6875 1.140625 0.6875 2.65625q0 0.828125 -0.28125 1.6875q-0.28125 0.84375 -0.765625 1.6875q-0.484375 0.84375 -1.125 1.671875q-0.640625 0.8125 -1.375 1.609375l-5.0625 5.5l9.484375 0zm14.439148 -9.0l0 2.890625q0 2.328125 -0.421875 3.921875q-0.421875 1.59375 -1.203125 2.578125q-0.765625 0.96875 -1.875 1.40625q-1.09375 0.4375 -2.46875 0.4375q-1.09375 0 -2.015625 -0.265625q-0.921875 -0.28125 -1.65625 -0.890625q-0.734375 -0.609375 -1.25 -1.578125q-0.515625 -0.96875 -0.796875 -2.359375q-0.265625 -1.390625 -0.265625 -3.25l0 -2.890625q0 -2.328125 0.421875 -3.890625q0.421875 -1.578125 1.1875 -2.53125q0.78125 -0.953125 1.875 -1.359375q1.109375 -0.421875 2.46875 -0.421875q1.109375 0 2.03125 0.265625q0.9375 0.265625 1.65625 0.84375q0.734375 0.578125 1.25 1.53125q0.515625 0.953125 0.78125 2.328125q0.28125 1.375 0.28125 3.234375zm-2.421875 3.28125l0 -3.6875q0 -1.265625 -0.15625 -2.234375q-0.140625 -0.96875 -0.4375 -1.65625q-0.28125 -0.6875 -0.71875 -1.109375q-0.421875 -0.4375 -1.0 -0.640625q-0.5625 -0.203125 -1.265625 -0.203125q-0.859375 0 -1.515625 0.328125q-0.65625 0.3125 -1.109375 1.0q-0.453125 0.6875 -0.6875 1.8125q-0.234375 1.109375 -0.234375 2.703125l0 3.6875q0 1.265625 0.140625 2.25q0.15625 0.96875 0.453125 1.6875q0.3125 0.703125 0.734375 1.15625q0.4375 0.453125 1.0 0.671875q0.5625 0.203125 1.25 0.203125q0.890625 0 1.546875 -0.328125q0.65625 -0.34375 1.109375 -1.0625q0.453125 -0.71875 0.671875 -1.859375q0.21875 -1.140625 0.21875 -2.71875zm17.892273 5.71875l0 1.96875l-12.390625 0l0 -1.734375l6.203125 -6.890625q1.140625 -1.28125 1.765625 -2.171875q0.640625 -0.890625 0.890625 -1.59375q0.25 -0.703125 0.25 -1.453125q0 -0.921875 -0.390625 -1.6875q-0.375 -0.765625 -1.109375 -1.21875q-0.734375 -0.453125 -1.796875 -0.453125q-1.265625 0 -2.109375 0.484375q-0.828125 0.484375 -1.25 1.359375q-0.40625 0.875 -0.40625 2.0l-2.40625 0q0 -1.59375 0.703125 -2.921875q0.703125 -1.328125 2.078125 -2.109375q1.375 -0.78125 3.390625 -0.78125q1.796875 0 3.0625 0.625q1.28125 0.625 1.953125 1.765625q0.6875 1.140625 0.6875 2.65625q0 0.828125 -0.28125 1.6875q-0.28125 0.84375 -0.765625 1.6875q-0.484375 0.84375 -1.125 1.671875q-0.640625 0.8125 -1.375 1.609375l-5.0625 5.5l9.484375 0zm15.345459 -4.390625l0 1.96875l-13.671875 0l0 -1.421875l8.46875 -13.109375l1.96875 0l-2.109375 3.796875l-5.59375 8.765625l10.9375 0zm-2.640625 -12.5625l0 18.921875l-2.40625 0l0 -18.921875l2.40625 0z" fill-rule="nonzero"/><path fill="#000000" fill-opacity="0.0" d="m750.74005 389.7606l141.48035 0l0 53.763794l-141.48035 0z" fill-rule="evenodd"/><path fill="#434343" d="m765.4432 406.392l0 18.921875l-2.5 0l0 -18.921875l2.5 0zm7.921875 8.515625l0 2.046875l-8.46875 0l0 -2.046875l8.46875 0zm1.296875 -8.515625l0 2.0625l-9.765625 0l0 -2.0625l9.765625 0zm8.184998 19.1875q-1.46875 0 -2.671875 -0.5q-1.1875 -0.5 -2.03125 -1.40625q-0.84375 -0.921875 -1.3125 -2.15625q-0.453125 -1.25 -0.453125 -2.734375l0 -0.546875q0 -1.71875 0.5 -3.0625q0.515625 -1.34375 1.390625 -2.28125q0.875 -0.9375 1.96875 -1.40625q1.109375 -0.484375 2.296875 -0.484375q1.5 0 2.59375 0.515625q1.109375 0.515625 1.796875 1.453125q0.703125 0.921875 1.046875 2.1875q0.34375 1.25 0.34375 2.71875l0 1.078125l-10.5 0l0 -1.953125l8.09375 0l0 -0.1875q-0.046875 -0.9375 -0.390625 -1.8125q-0.328125 -0.890625 -1.046875 -1.453125q-0.703125 -0.578125 -1.9375 -0.578125q-0.828125 0 -1.515625 0.34375q-0.6875 0.34375 -1.1875 1.03125q-0.484375 0.671875 -0.765625 1.640625q-0.265625 0.96875 -0.265625 2.25l0 0.546875q0 1.0 0.28125 1.875q0.28125 0.875 0.8125 1.546875q0.546875 0.65625 1.3125 1.03125q0.78125 0.375 1.765625 0.375q1.265625 0 2.15625 -0.515625q0.890625 -0.515625 1.546875 -1.390625l1.453125 1.15625q-0.453125 0.6875 -1.15625 1.3125q-0.703125 0.625 -1.71875 1.015625q-1.015625 0.390625 -2.40625 0.390625zm8.2508545 -20.21875l2.421875 0l0 17.21875l-0.203125 2.734375l-2.21875 0l0 -19.953125zm11.921875 12.8125l0 0.265625q0 1.53125 -0.375 2.84375q-0.359375 1.296875 -1.0625 2.265625q-0.6875 0.953125 -1.703125 1.5q-1.015625 0.53125 -2.328125 0.53125q-1.34375 0 -2.359375 -0.453125q-1.0 -0.46875 -1.6875 -1.34375q-0.6875 -0.875 -1.09375 -2.109375q-0.40625 -1.234375 -0.5625 -2.78125l0 -1.1875q0.15625 -1.5625 0.5625 -2.796875q0.40625 -1.234375 1.09375 -2.109375q0.6875 -0.875 1.6875 -1.328125q1.0 -0.46875 2.328125 -0.46875q1.328125 0 2.34375 0.515625q1.03125 0.5 1.71875 1.453125q0.703125 0.953125 1.0625 2.28125q0.375 1.3125 0.375 2.921875zm-2.421875 0.265625l0 -0.265625q0 -1.0625 -0.203125 -1.984375q-0.1875 -0.9375 -0.625 -1.640625q-0.421875 -0.703125 -1.125 -1.109375q-0.6875 -0.421875 -1.71875 -0.421875q-0.90625 0 -1.578125 0.3125q-0.671875 0.3125 -1.140625 0.84375q-0.46875 0.53125 -0.765625 1.203125q-0.28125 0.65625 -0.421875 1.375l0 3.125q0.203125 0.921875 0.671875 1.765625q0.484375 0.828125 1.28125 1.359375q0.796875 0.53125 1.984375 0.53125q0.96875 0 1.65625 -0.390625q0.703125 -0.40625 1.140625 -1.09375q0.4375 -0.703125 0.640625 -1.625q0.203125 -0.9375 0.203125 -1.984375zm24.198425 4.90625l0 1.96875l-12.390625 0l0 -1.734375l6.203125 -6.890625q1.140625 -1.28125 1.765625 -2.171875q0.640625 -0.890625 0.890625 -1.59375q0.25 -0.703125 0.25 -1.453125q0 -0.921875 -0.390625 -1.6875q-0.375 -0.765625 -1.109375 -1.21875q-0.734375 -0.453125 -1.796875 -0.453125q-1.265625 0 -2.109375 0.484375q-0.828125 0.484375 -1.25 1.359375q-0.40625 0.875 -0.40625 2.0l-2.40625 0q0 -1.59375 0.703125 -2.921875q0.703125 -1.328125 2.078125 -2.109375q1.375 -0.78125 3.390625 -0.78125q1.796875 0 3.0625 0.625q1.28125 0.625 1.953125 1.765625q0.6875 1.140625 0.6875 2.65625q0 0.828125 -0.28125 1.6875q-0.28125 0.84375 -0.765625 1.6875q-0.484375 0.84375 -1.125 1.671875q-0.640625 0.8125 -1.375 1.609375l-5.0625 5.5l9.484375 0zm14.439148 -9.0l0 2.890625q0 2.328125 -0.421875 3.921875q-0.421875 1.59375 -1.203125 2.578125q-0.765625 0.96875 -1.875 1.40625q-1.09375 0.4375 -2.46875 0.4375q-1.09375 0 -2.015625 -0.265625q-0.921875 -0.28125 -1.65625 -0.890625q-0.734375 -0.609375 -1.25 -1.578125q-0.515625 -0.96875 -0.796875 -2.359375q-0.265625 -1.390625 -0.265625 -3.25l0 -2.890625q0 -2.328125 0.421875 -3.890625q0.421875 -1.578125 1.1875 -2.53125q0.78125 -0.953125 1.875 -1.359375q1.109375 -0.421875 2.46875 -0.421875q1.109375 0 2.03125 0.265625q0.9375 0.265625 1.65625 0.84375q0.734375 0.578125 1.25 1.53125q0.515625 0.953125 0.78125 2.328125q0.28125 1.375 0.28125 3.234375zm-2.421875 3.28125l0 -3.6875q0 -1.265625 -0.15625 -2.234375q-0.140625 -0.96875 -0.4375 -1.65625q-0.28125 -0.6875 -0.71875 -1.109375q-0.421875 -0.4375 -1.0 -0.640625q-0.5625 -0.203125 -1.265625 -0.203125q-0.859375 0 -1.515625 0.328125q-0.65625 0.3125 -1.109375 1.0q-0.453125 0.6875 -0.6875 1.8125q-0.234375 1.109375 -0.234375 2.703125l0 3.6875q0 1.265625 0.140625 2.25q0.15625 0.96875 0.453125 1.6875q0.3125 0.703125 0.734375 1.15625q0.4375 0.453125 1.0 0.671875q0.5625 0.203125 1.25 0.203125q0.890625 0 1.546875 -0.328125q0.65625 -0.34375 1.109375 -1.0625q0.453125 -0.71875 0.671875 -1.859375q0.21875 -1.140625 0.21875 -2.71875zm17.892273 5.71875l0 1.96875l-12.390625 0l0 -1.734375l6.203125 -6.890625q1.140625 -1.28125 1.765625 -2.171875q0.640625 -0.890625 0.890625 -1.59375q0.25 -0.703125 0.25 -1.453125q0 -0.921875 -0.390625 -1.6875q-0.375 -0.765625 -1.109375 -1.21875q-0.734375 -0.453125 -1.796875 -0.453125q-1.265625 0 -2.109375 0.484375q-0.828125 0.484375 -1.25 1.359375q-0.40625 0.875 -0.40625 2.0l-2.40625 0q0 -1.59375 0.703125 -2.921875q0.703125 -1.328125 2.078125 -2.109375q1.375 -0.78125 3.390625 -0.78125q1.796875 0 3.0625 0.625q1.28125 0.625 1.953125 1.765625q0.6875 1.140625 0.6875 2.65625q0 0.828125 -0.28125 1.6875q-0.28125 0.84375 -0.765625 1.6875q-0.484375 0.84375 -1.125 1.671875q-0.640625 0.8125 -1.375 1.609375l-5.0625 5.5l9.484375 0zm5.595459 -7.03125l-1.921875 -0.5l0.953125 -9.421875l9.703125 0l0 2.21875l-7.671875 0l-0.5625 5.15625q0.515625 -0.296875 1.3125 -0.5625q0.796875 -0.265625 1.84375 -0.265625q1.3125 0 2.34375 0.453125q1.046875 0.453125 1.78125 1.28125q0.734375 0.828125 1.125 2.0q0.390625 1.171875 0.390625 2.609375q0 1.359375 -0.375 2.515625q-0.375 1.140625 -1.109375 2.0q-0.734375 0.84375 -1.859375 1.3125q-1.125 0.46875 -2.65625 0.46875q-1.140625 0 -2.15625 -0.3125q-1.015625 -0.328125 -1.828125 -0.984375q-0.796875 -0.65625 -1.296875 -1.640625q-0.5 -0.984375 -0.625 -2.296875l2.28125 0q0.15625 1.0625 0.625 1.796875q0.46875 0.71875 1.234375 1.09375q0.765625 0.359375 1.765625 0.359375q0.859375 0 1.515625 -0.296875q0.671875 -0.296875 1.125 -0.859375q0.453125 -0.5625 0.6875 -1.34375q0.25 -0.796875 0.25 -1.78125q0 -0.90625 -0.25 -1.671875q-0.25 -0.765625 -0.734375 -1.328125q-0.484375 -0.578125 -1.1875 -0.890625q-0.703125 -0.328125 -1.609375 -0.328125q-1.203125 0 -1.828125 0.328125q-0.609375 0.328125 -1.265625 0.890625z" fill-rule="nonzero"/><path fill="#990000" d="m536.3399 147.6056l47.263733 -51.59117l-3.7634888 68.64168l49.450745 -30.952316l-23.106384 39.92314l74.133606 1.3426514l-65.54144 32.758377l18.249329 22.432999l-26.841492 12.119537l35.462036 39.471634l-60.173218 -15.232574l4.2889404 35.8833l-39.225464 -17.050507l-8.06665 34.54065l-24.711182 -17.490143l-16.644562 27.827393l-16.658752 -18.856567l-37.066772 41.28958l-1.5906067 -39.923157l-49.99048 -4.9309998l29.042755 -29.170044l-47.292114 -29.621536l55.884216 -15.268234l-39.239655 -39.471634l59.647705 -5.382492l-12.355591 -49.808884l57.489044 32.75836l16.644531 -53.40909z" fill-rule="evenodd"/><path stroke="#f1c232" stroke-width="4.435695538057742" stroke-linejoin="round" stroke-linecap="butt" d="m536.3399 147.6056l47.263733 -51.59117l-3.7634888 68.64168l49.450745 -30.952316l-23.106384 39.92314l74.133606 1.3426514l-65.54144 32.758377l18.249329 22.432999l-26.841492 12.119537l35.462036 39.471634l-60.173218 -15.232574l4.2889404 35.8833l-39.225464 -17.050507l-8.06665 34.54065l-24.711182 -17.490143l-16.644562 27.827393l-16.658752 -18.856567l-37.066772 41.28958l-1.5906067 -39.923157l-49.99048 -4.9309998l29.042755 -29.170044l-47.292114 -29.621536l55.884216 -15.268234l-39.239655 -39.471634l59.647705 -5.382492l-12.355591 -49.808884l57.489044 32.75836l16.644531 -53.40909z" fill-rule="evenodd"/><path fill="#ffffff" d="m499.66476 213.74107l-5.609375 0l0 -2.265625l5.609375 0q1.640625 0 2.640625 -0.515625q1.015625 -0.515625 1.484375 -1.4375q0.46875 -0.921875 0.46875 -2.109375q0 -1.078125 -0.46875 -2.03125q-0.46875 -0.953125 -1.484375 -1.53125q-1.0 -0.59375 -2.640625 -0.59375l-4.96875 0l0 18.734375l-2.78125 0l0 -21.015625l7.75 0q2.390625 0 4.03125 0.828125q1.640625 0.8125 2.484375 2.265625q0.859375 1.453125 0.859375 3.3125q0 2.015625 -0.859375 3.453125q-0.84375 1.421875 -2.484375 2.171875q-1.640625 0.734375 -4.03125 0.734375zm13.399811 -13.921875l0 22.171875l-2.6875305 0l0 -22.171875l2.6875305 0zm3.5791016 14.53125l0 -0.328125q0 -1.6875 0.484375 -3.140625q0.5 -1.453125 1.421875 -2.515625q0.921875 -1.078125 2.234375 -1.671875q1.3125 -0.609375 2.953125 -0.609375q1.640625 0 2.953125 0.609375q1.328125 0.59375 2.25 1.671875q0.9375 1.0625 1.421875 2.515625q0.5 1.453125 0.5 3.140625l0 0.328125q0 1.6875 -0.5 3.140625q-0.484375 1.4375 -1.421875 2.515625q-0.921875 1.078125 -2.234375 1.671875q-1.296875 0.59375 -2.953125 0.59375q-1.640625 0 -2.953125 -0.59375q-1.3125 -0.59375 -2.25 -1.671875q-0.921875 -1.078125 -1.421875 -2.515625q-0.484375 -1.453125 -0.484375 -3.140625zm2.671875 -0.328125l0 0.328125q0 1.171875 0.265625 2.203125q0.28125 1.03125 0.828125 1.828125q0.5625 0.796875 1.390625 1.25q0.84375 0.453125 1.953125 0.453125q1.109375 0 1.9375 -0.453125q0.828125 -0.453125 1.375 -1.25q0.546875 -0.796875 0.828125 -1.828125q0.28125 -1.03125 0.28125 -2.203125l0 -0.328125q0 -1.15625 -0.28125 -2.1875q-0.28125 -1.03125 -0.84375 -1.828125q-0.546875 -0.8125 -1.375 -1.265625q-0.828125 -0.46875 -1.9375 -0.46875q-1.109375 0 -1.9375 0.46875q-0.828125 0.453125 -1.390625 1.265625q-0.546875 0.796875 -0.828125 1.828125q-0.265625 1.03125 -0.265625 2.1875zm21.437988 -7.65625l0 2.0625l-8.453125 0l0 -2.0625l8.453125 0zm-5.59375 -3.796875l2.671875 0l0 15.546875q0 0.796875 0.25 1.203125q0.25 0.40625 0.625 0.546875q0.390625 0.125 0.84375 0.125q0.328125 0 0.6875 -0.0625q0.375 -0.078125 0.5625 -0.109375l0.015625 2.171875q-0.3125 0.09375 -0.828125 0.1875q-0.515625 0.09375 -1.234375 0.09375q-0.984375 0 -1.8125 -0.375q-0.8125 -0.390625 -1.296875 -1.3125q-0.484375 -0.921875 -0.484375 -2.484375l0 -15.53125z" fill-rule="nonzero"/><path fill="#ffffff" d="m480.2645 241.36607l0 2.0625l-8.453125 0l0 -2.0625l8.453125 0zm-5.59375 -3.796875l2.671875 0l0 15.546875q0 0.796875 0.25 1.203125q0.25 0.40625 0.625 0.546875q0.390625 0.125 0.84375 0.125q0.328125 0 0.6875 -0.0625q0.375 -0.078125 0.5625 -0.109375l0.015625 2.1718903q-0.3125 0.09375 -0.828125 0.1875q-0.515625 0.09375 -1.234375 0.09375q-0.984375 0 -1.8125 -0.375q-0.8125 -0.390625 -1.296875 -1.3125153q-0.484375 -0.921875 -0.484375 -2.484375l0 -15.53125zm12.671326 16.65625l4.015625 -12.859375l1.765625 0l-0.34375 2.5625l-4.09375 13.062515l-1.71875 0l0.375 -2.7656403zm-2.6875 -12.859375l3.421875 13.0l0.234375 2.6250153l-1.796875 0l-4.53125 -15.625015l2.671875 0zm12.3125 12.890625l3.25 -12.890625l2.65625 0l-4.53125 15.625015l-1.78125 0l0.40625 -2.7343903zm-3.453125 -12.890625l3.921875 12.640625l0.453125 2.9843903l-1.703125 0l-4.203125 -13.093765l-0.34375 -2.53125l1.875 0zm14.996429 0l0 15.625015l-2.6875 0l0 -15.625015l2.6875 0zm-2.890625 -4.140625q0 -0.640625 0.390625 -1.09375q0.40625 -0.453125 1.1875 -0.453125q0.765625 0 1.171875 0.453125q0.421875 0.453125 0.421875 1.09375q0 0.625 -0.421875 1.0625q-0.40625 0.4375 -1.171875 0.4375q-0.78125 0 -1.1875 -0.4375q-0.390625 -0.4375 -0.390625 -1.0625zm16.266663 15.625q0 -0.578125 -0.25 -1.078125q-0.25 -0.5 -1.03125 -0.90625q-0.765625 -0.40625 -2.3125 -0.71875q-1.296875 -0.265625 -2.34375 -0.640625q-1.046875 -0.375 -1.78125 -0.90625q-0.71875 -0.546875 -1.109375 -1.265625q-0.390625 -0.71875 -0.390625 -1.6875q0 -0.921875 0.40625 -1.75q0.421875 -0.828125 1.171875 -1.453125q0.765625 -0.640625 1.828125 -1.0q1.0625 -0.359375 2.375 -0.359375q1.875 0 3.203125 0.671875q1.328125 0.65625 2.03125 1.765625q0.71875 1.09375 0.71875 2.4375l-2.671875 0q0 -0.640625 -0.390625 -1.25q-0.375 -0.625 -1.109375 -1.03125q-0.71875 -0.40625 -1.78125 -0.40625q-1.109375 0 -1.796875 0.34375q-0.671875 0.34375 -0.984375 0.859375q-0.3125 0.515625 -0.3125 1.09375q0 0.4375 0.140625 0.78125q0.15625 0.328125 0.546875 0.609375q0.390625 0.28125 1.09375 0.53125q0.71875 0.25 1.8125 0.5q1.921875 0.421875 3.15625 1.03125q1.25 0.609375 1.84375 1.5q0.609375 0.875 0.609375 2.125q0 1.03125 -0.421875 1.890625q-0.421875 0.84375 -1.234375 1.453125q-0.796875 0.60939026 -1.90625 0.95314026q-1.09375 0.328125 -2.46875 0.328125q-2.0625 0 -3.5 -0.734375q-1.421875 -0.73439026 -2.15625 -1.8906403q-0.734375 -1.171875 -0.734375 -2.484375l2.6875 0q0.046875 1.109375 0.625 1.75q0.578125 0.640625 1.40625 0.90625q0.84375 0.265625 1.671875 0.265625q1.09375 0 1.828125 -0.28125q0.75 -0.296875 1.140625 -0.796875q0.390625 -0.515625 0.390625 -1.15625zm12.710693 -11.484375l0 2.0625l-8.453125 0l0 -2.0625l8.453125 0zm-5.59375 -3.796875l2.671875 0l0 15.546875q0 0.796875 0.25 1.203125q0.25 0.40625 0.625 0.546875q0.390625 0.125 0.84375 0.125q0.328125 0 0.6875 -0.0625q0.375 -0.078125 0.5625 -0.109375l0.015625 2.1718903q-0.3125 0.09375 -0.828125 0.1875q-0.515625 0.09375 -1.234375 0.09375q-0.984375 0 -1.8125 -0.375q-0.8125 -0.390625 -1.296875 -1.3125153q-0.484375 -0.921875 -0.484375 -2.484375l0 -15.53125zm24.535461 -1.703125l0 21.125015l-2.65625 0l0 -17.79689l-5.390625 1.96875l0 -2.421875l7.640625 -2.875l0.40625 0z" fill-rule="nonzero"/><path fill="#513184" d="m17.766691 144.71233l306.7592 0l0 153.98418l-153.3796 38.496063l-153.3796 -38.496063z" fill-rule="evenodd"/><path fill="#ffffff" d="m87.81377 192.2845q0 -0.734375 -0.234375 -1.296875q-0.21875 -0.578125 -0.78125 -1.03125q-0.546875 -0.46875 -1.515625 -0.890625q-0.96875 -0.421875 -2.46875 -0.84375q-1.546875 -0.46875 -2.8125 -1.03125q-1.25 -0.578125 -2.15625 -1.3125q-0.890625 -0.734375 -1.375 -1.6875q-0.46875 -0.953125 -0.46875 -2.1875q0 -1.21875 0.5 -2.25q0.515625 -1.046875 1.453125 -1.8125q0.953125 -0.78125 2.265625 -1.21875q1.3125 -0.4375 2.9375 -0.4375q2.359375 0 4.015625 0.90625q1.65625 0.90625 2.515625 2.359375q0.875 1.453125 0.875 3.09375l-2.78125 0q0 -1.1875 -0.5 -2.09375q-0.5 -0.921875 -1.53125 -1.453125q-1.03125 -0.53125 -2.59375 -0.53125q-1.5 0 -2.46875 0.453125q-0.953125 0.453125 -1.421875 1.21875q-0.46875 0.765625 -0.46875 1.734375q0 0.671875 0.28125 1.21875q0.28125 0.53125 0.875 1.0q0.59375 0.453125 1.53125 0.84375q0.9375 0.390625 2.234375 0.75q1.78125 0.515625 3.078125 1.140625q1.296875 0.609375 2.140625 1.390625q0.859375 0.765625 1.265625 1.75q0.40625 0.96875 0.40625 2.1875q0 1.28125 -0.515625 2.328125q-0.515625 1.03125 -1.484375 1.78125q-0.96875 0.734375 -2.328125 1.125q-1.34375 0.390625 -3.0 0.390625q-1.453125 0 -2.875 -0.390625q-1.40625 -0.40625 -2.546875 -1.21875q-1.140625 -0.8125 -1.828125 -2.0q-0.6875 -1.1875 -0.6875 -2.765625l2.765625 0q0 1.078125 0.421875 1.859375q0.421875 0.765625 1.140625 1.28125q0.734375 0.5 1.65625 0.734375q0.9375 0.234375 1.953125 0.234375q1.453125 0 2.46875 -0.390625q1.015625 -0.40625 1.53125 -1.15625q0.53125 -0.75 0.53125 -1.78125zm12.427734 5.59375q-1.625 0 -2.953125 -0.546875q-1.3125 -0.5625 -2.265625 -1.5625q-0.9375 -1.015625 -1.453125 -2.390625q-0.5 -1.390625 -0.5 -3.046875l0 -0.59375q0 -1.90625 0.5625 -3.40625q0.5625 -1.5 1.53125 -2.53125q0.96875 -1.046875 2.1875 -1.578125q1.234375 -0.53125 2.546875 -0.53125q1.671875 0 2.890625 0.578125q1.21875 0.578125 2.0 1.609375q0.78125 1.03125 1.15625 2.421875q0.375 1.390625 0.375 3.046875l0 1.1875l-11.65625 0l0 -2.171875l8.984375 0l0 -0.203125q-0.0625 -1.046875 -0.4375 -2.015625q-0.359375 -0.984375 -1.15625 -1.625q-0.78125 -0.640625 -2.15625 -0.640625q-0.90625 0 -1.671875 0.390625q-0.765625 0.375 -1.3125 1.125q-0.546875 0.75 -0.859375 1.84375q-0.296875 1.078125 -0.296875 2.5l0 0.59375q0 1.109375 0.296875 2.09375q0.3125 0.96875 0.90625 1.703125q0.609375 0.734375 1.46875 1.15625q0.859375 0.421875 1.953125 0.421875q1.421875 0 2.390625 -0.578125q0.984375 -0.578125 1.734375 -1.546875l1.609375 1.28125q-0.5 0.765625 -1.28125 1.46875q-0.78125 0.6875 -1.921875 1.125q-1.125 0.421875 -2.671875 0.421875zm11.8637085 -13.453125l0 13.171875l-2.671875 0l0 -15.625l2.609375 0l0.0625 2.453125zm4.875 -2.53125l-0.015625 2.484375q-0.328125 -0.078125 -0.625 -0.09375q-0.296875 -0.03125 -0.671875 -0.03125q-0.921875 0 -1.625 0.296875q-0.703125 0.28125 -1.203125 0.8125q-0.484375 0.515625 -0.765625 1.234375q-0.28125 0.703125 -0.375 1.5625l-0.75 0.4375q0 -1.421875 0.28125 -2.65625q0.28125 -1.25 0.875 -2.203125q0.59375 -0.96875 1.5 -1.5q0.921875 -0.546875 2.203125 -0.546875q0.28125 0 0.65625 0.0625q0.375 0.0625 0.515625 0.140625zm7.480835 13.296875l4.28125 -13.21875l2.71875 0l-5.609375 15.625l-1.796875 0l0.40625 -2.40625zm-3.5625 -13.21875l4.40625 13.28125l0.296875 2.34375l-1.78125 0l-5.671875 -15.625l2.75 0zm16.038086 0l0 15.625l-2.6875 0l0 -15.625l2.6875 0zm-2.890625 -4.140625q0 -0.640625 0.390625 -1.09375q0.40625 -0.453125 1.1875 -0.453125q0.765625 0 1.171875 0.453125q0.421875 0.453125 0.421875 1.09375q0 0.625 -0.421875 1.0625q-0.40625 0.4375 -1.171875 0.4375q-0.78125 0 -1.1875 -0.4375q-0.390625 -0.4375 -0.390625 -1.0625zm13.422913 17.859375q0.953125 0 1.765625 -0.390625q0.8125 -0.390625 1.328125 -1.078125q0.515625 -0.6875 0.59375 -1.5625l2.53125 0q-0.0625 1.390625 -0.921875 2.578125q-0.859375 1.1875 -2.25 1.921875q-1.375 0.71875 -3.046875 0.71875q-1.75 0 -3.0625 -0.609375q-1.3125 -0.625 -2.171875 -1.703125q-0.859375 -1.09375 -1.28125 -2.5q-0.421875 -1.40625 -0.421875 -2.96875l0 -0.609375q0 -1.578125 0.421875 -2.984375q0.421875 -1.40625 1.28125 -2.484375q0.859375 -1.09375 2.171875 -1.703125q1.3125 -0.625 3.0625 -0.625q1.84375 0 3.203125 0.75q1.375 0.734375 2.15625 2.015625q0.796875 1.28125 0.859375 2.890625l-2.53125 0q-0.078125 -0.96875 -0.546875 -1.75q-0.46875 -0.78125 -1.265625 -1.25q-0.796875 -0.46875 -1.875 -0.46875q-1.21875 0 -2.046875 0.484375q-0.828125 0.484375 -1.3125 1.3125q-0.484375 0.8125 -0.703125 1.796875q-0.203125 0.984375 -0.203125 2.015625l0 0.609375q0 1.015625 0.203125 2.015625q0.203125 1.0 0.6875 1.8125q0.484375 0.796875 1.3125 1.28125q0.828125 0.484375 2.0625 0.484375zm15.708496 2.1875q-1.625 0 -2.953125 -0.546875q-1.3125 -0.5625 -2.265625 -1.5625q-0.9375 -1.015625 -1.453125 -2.390625q-0.5 -1.390625 -0.5 -3.046875l0 -0.59375q0 -1.90625 0.5625 -3.40625q0.5625 -1.5 1.53125 -2.53125q0.96875 -1.046875 2.1875 -1.578125q1.234375 -0.53125 2.546875 -0.53125q1.671875 0 2.890625 0.578125q1.21875 0.578125 2.0 1.609375q0.78125 1.03125 1.15625 2.421875q0.375 1.390625 0.375 3.046875l0 1.1875l-11.65625 0l0 -2.171875l8.984375 0l0 -0.203125q-0.0625 -1.046875 -0.4375 -2.015625q-0.359375 -0.984375 -1.15625 -1.625q-0.78125 -0.640625 -2.15625 -0.640625q-0.90625 0 -1.671875 0.390625q-0.765625 0.375 -1.3125 1.125q-0.546875 0.75 -0.859375 1.84375q-0.296875 1.078125 -0.296875 2.5l0 0.59375q0 1.109375 0.296875 2.09375q0.3125 0.96875 0.90625 1.703125q0.609375 0.734375 1.46875 1.15625q0.859375 0.421875 1.953125 0.421875q1.421875 0 2.390625 -0.578125q0.984375 -0.578125 1.734375 -1.546875l1.609375 1.28125q-0.5 0.765625 -1.28125 1.46875q-0.78125 0.6875 -1.921875 1.125q-1.125 0.421875 -2.671875 0.421875zm22.61847 -0.28125l-4.390625 0l0.03125 -2.265625l4.359375 0q2.25 0 3.75 -0.9375q1.5 -0.953125 2.25 -2.65625q0.765625 -1.71875 0.765625 -4.015625l0 -1.28125q0 -1.8125 -0.4375 -3.21875q-0.421875 -1.40625 -1.265625 -2.375q-0.828125 -0.96875 -2.03125 -1.46875q-1.203125 -0.515625 -2.765625 -0.515625l-4.734375 0l0 -2.28125l4.734375 0q2.0625 0 3.765625 0.6875q1.703125 0.6875 2.9375 1.984375q1.234375 1.28125 1.890625 3.109375q0.671875 1.828125 0.671875 4.109375l0 1.25q0 2.28125 -0.671875 4.109375q-0.65625 1.828125 -1.90625 3.109375q-1.25 1.28125 -3.0 1.96875q-1.75 0.6875 -3.953125 0.6875zm-2.90625 -21.015625l0 21.015625l-2.78125 0l0 -21.015625l2.78125 0zm22.697266 21.296875q-1.625 0 -2.953125 -0.546875q-1.3125 -0.5625 -2.265625 -1.5625q-0.9375 -1.015625 -1.453125 -2.390625q-0.5 -1.390625 -0.5 -3.046875l0 -0.59375q0 -1.90625 0.5625 -3.40625q0.5625 -1.5 1.53125 -2.53125q0.96875 -1.046875 2.1875 -1.578125q1.234375 -0.53125 2.546875 -0.53125q1.671875 0 2.890625 0.578125q1.21875 0.578125 2.0 1.609375q0.78125 1.03125 1.15625 2.421875q0.375 1.390625 0.375 3.046875l0 1.1875l-11.65625 0l0 -2.171875l8.984375 0l0 -0.203125q-0.0625 -1.046875 -0.4375 -2.015625q-0.359375 -0.984375 -1.15625 -1.625q-0.78125 -0.640625 -2.15625 -0.640625q-0.90625 0 -1.671875 0.390625q-0.765625 0.375 -1.3125 1.125q-0.546875 0.75 -0.859375 1.84375q-0.296875 1.078125 -0.296875 2.5l0 0.59375q0 1.109375 0.296875 2.09375q0.3125 0.96875 0.90625 1.703125q0.609375 0.734375 1.46875 1.15625q0.859375 0.421875 1.953125 0.421875q1.421875 0 2.390625 -0.578125q0.984375 -0.578125 1.734375 -1.546875l1.609375 1.28125q-0.5 0.765625 -1.28125 1.46875q-0.78125 0.6875 -1.921875 1.125q-1.125 0.421875 -2.671875 0.421875zm18.285583 -4.421875q0 -0.578125 -0.25 -1.078125q-0.25 -0.5 -1.03125 -0.90625q-0.765625 -0.40625 -2.3125 -0.71875q-1.296875 -0.265625 -2.34375 -0.640625q-1.046875 -0.375 -1.78125 -0.90625q-0.71875 -0.546875 -1.109375 -1.265625q-0.390625 -0.71875 -0.390625 -1.6875q0 -0.921875 0.40625 -1.75q0.421875 -0.828125 1.171875 -1.453125q0.765625 -0.640625 1.828125 -1.0q1.0625 -0.359375 2.375 -0.359375q1.875 0 3.203125 0.671875q1.328125 0.65625 2.03125 1.765625q0.71875 1.09375 0.71875 2.4375l-2.671875 0q0 -0.640625 -0.390625 -1.25q-0.375 -0.625 -1.109375 -1.03125q-0.71875 -0.40625 -1.78125 -0.40625q-1.109375 0 -1.796875 0.34375q-0.671875 0.34375 -0.984375 0.859375q-0.3125 0.515625 -0.3125 1.09375q0 0.4375 0.140625 0.78125q0.15625 0.328125 0.546875 0.609375q0.390625 0.28125 1.09375 0.53125q0.71875 0.25 1.8125 0.5q1.921875 0.421875 3.15625 1.03125q1.25 0.609375 1.84375 1.5q0.609375 0.875 0.609375 2.125q0 1.03125 -0.421875 1.890625q-0.421875 0.84375 -1.234375 1.453125q-0.796875 0.609375 -1.90625 0.953125q-1.09375 0.328125 -2.46875 0.328125q-2.0625 0 -3.5 -0.734375q-1.421875 -0.734375 -2.15625 -1.890625q-0.734375 -1.171875 -0.734375 -2.484375l2.6875 0q0.046875 1.109375 0.625 1.75q0.578125 0.640625 1.40625 0.90625q0.84375 0.265625 1.671875 0.265625q1.09375 0 1.828125 -0.28125q0.75 -0.296875 1.140625 -0.796875q0.390625 -0.515625 0.390625 -1.15625zm9.070099 -11.484375l0 15.625l-2.6875 0l0 -15.625l2.6875 0zm-2.890625 -4.140625q0 -0.640625 0.390625 -1.09375q0.40625 -0.453125 1.1875 -0.453125q0.765625 0 1.171875 0.453125q0.421875 0.453125 0.421875 1.09375q0 0.625 -0.421875 1.0625q-0.40625 0.4375 -1.171875 0.4375q-0.78125 0 -1.1875 -0.4375q-0.390625 -0.4375 -0.390625 -1.0625zm17.297913 4.140625l2.421875 0l0 15.296875q0 2.0625 -0.84375 3.515625q-0.828125 1.453125 -2.328125 2.203125q-1.484375 0.765625 -3.4375 0.765625q-0.8125 0 -1.90625 -0.25q-1.078125 -0.25 -2.125 -0.859375q-1.046875 -0.59375 -1.765625 -1.59375l1.40625 -1.59375q0.984375 1.1875 2.0625 1.640625q1.078125 0.46875 2.125 0.46875q1.265625 0 2.1875 -0.484375q0.9375 -0.46875 1.4375 -1.40625q0.515625 -0.921875 0.515625 -2.28125l0 -11.984375l0.25 -3.4375zm-10.75 7.984375l0 -0.296875q0 -1.796875 0.421875 -3.25q0.421875 -1.46875 1.21875 -2.515625q0.8125 -1.0625 1.953125 -1.625q1.140625 -0.578125 2.5625 -0.578125q1.46875 0 2.578125 0.515625q1.109375 0.515625 1.875 1.484375q0.78125 0.96875 1.21875 2.34375q0.453125 1.375 0.625 3.109375l0 1.328125q-0.15625 1.71875 -0.609375 3.09375q-0.453125 1.359375 -1.234375 2.328125q-0.765625 0.96875 -1.890625 1.484375q-1.109375 0.5 -2.59375 0.5q-1.390625 0 -2.53125 -0.578125q-1.125 -0.59375 -1.9375 -1.65625q-0.8125 -1.078125 -1.234375 -2.53125q-0.421875 -1.453125 -0.421875 -3.15625zm2.671875 -0.296875l0 0.296875q0 1.171875 0.234375 2.203125q0.234375 1.015625 0.734375 1.796875q0.5 0.78125 1.28125 1.21875q0.78125 0.4375 1.859375 0.4375q1.328125 0 2.1875 -0.5625q0.875 -0.5625 1.375 -1.484375q0.515625 -0.921875 0.8125 -2.0l0 -3.484375q-0.15625 -0.796875 -0.484375 -1.53125q-0.328125 -0.75 -0.84375 -1.328125q-0.515625 -0.59375 -1.265625 -0.9375q-0.75 -0.34375 -1.75 -0.34375q-1.109375 0 -1.890625 0.453125q-0.78125 0.453125 -1.28125 1.25q-0.5 0.78125 -0.734375 1.8125q-0.234375 1.03125 -0.234375 2.203125zm17.225021 -4.34375l0 12.28125l-2.6718597 0l0 -15.625l2.5312347 0l0.140625 3.34375zm-0.62498474 3.875l-1.125 -0.03125q0.015625 -1.609375 0.46875 -2.96875q0.46875 -1.375 1.3124847 -2.375q0.84375 -1.015625 2.0 -1.5625q1.15625 -0.5625 2.578125 -0.5625q1.15625 0 2.078125 0.3125q0.921875 0.3125 1.578125 1.0q0.65625 0.671875 1.0 1.75q0.34375 1.0625 0.34375 2.609375l0 10.234375l-2.671875 0l0 -10.265625q0 -1.21875 -0.375 -1.96875q-0.359375 -0.75 -1.046875 -1.078125q-0.6875 -0.34375 -1.703125 -0.34375q-1.0 0 -1.8125 0.421875q-0.8125 0.421875 -1.40625 1.15625q-0.578125 0.734375 -0.90625 1.6875q-0.31248474 0.9375 -0.31248474 1.984375z" fill-rule="nonzero"/><path fill="#ffffff" d="m53.774124 225.9095l2.78125 0q-0.21875 2.0 -1.15625 3.578125q-0.921875 1.5625 -2.609375 2.484375q-1.6875 0.90625 -4.203125 0.90625q-1.859375 0 -3.375 -0.6875q-1.5 -0.6875 -2.578125 -1.96875q-1.078125 -1.28125 -1.671875 -3.078125q-0.578125 -1.796875 -0.578125 -4.0l0 -2.09375q0 -2.203125 0.578125 -4.0q0.59375 -1.796875 1.6875 -3.078125q1.109375 -1.296875 2.671875 -1.984375q1.5625 -0.703125 3.5 -0.703125q2.390625 0 4.03125 0.90625q1.640625 0.890625 2.5625 2.46875q0.921875 1.578125 1.140625 3.65625l-2.78125 0q-0.203125 -1.46875 -0.75 -2.53125q-0.546875 -1.0625 -1.5625 -1.640625q-1.0 -0.578125 -2.640625 -0.578125q-1.390625 0 -2.453125 0.546875q-1.0625 0.53125 -1.78125 1.515625q-0.71875 0.96875 -1.078125 2.34375q-0.359375 1.375 -0.359375 3.046875l0 2.125q0 1.546875 0.328125 2.90625q0.328125 1.34375 0.984375 2.375q0.671875 1.03125 1.6875 1.609375q1.03125 0.578125 2.4375 0.578125q1.765625 0 2.8125 -0.5625q1.0625 -0.5625 1.59375 -1.609375q0.546875 -1.0625 0.78125 -2.53125zm5.4447327 -0.953125l0 -0.328125q0 -1.6875 0.484375 -3.140625q0.5 -1.453125 1.421875 -2.515625q0.921875 -1.078125 2.234375 -1.671875q1.3125 -0.609375 2.953125 -0.609375q1.640625 0 2.953125 0.609375q1.328125 0.59375 2.25 1.671875q0.9375 1.0625 1.421875 2.515625q0.5 1.453125 0.5 3.140625l0 0.328125q0 1.6875 -0.5 3.140625q-0.484375 1.4375 -1.421875 2.515625q-0.921875 1.078125 -2.234375 1.671875q-1.296875 0.59375 -2.953125 0.59375q-1.640625 0 -2.953125 -0.59375q-1.3125 -0.59375 -2.25 -1.671875q-0.921875 -1.078125 -1.421875 -2.515625q-0.484375 -1.453125 -0.484375 -3.140625zm2.671875 -0.328125l0 0.328125q0 1.171875 0.265625 2.203125q0.28125 1.03125 0.828125 1.828125q0.5625 0.796875 1.390625 1.25q0.84375 0.453125 1.953125 0.453125q1.109375 0 1.9375 -0.453125q0.828125 -0.453125 1.375 -1.25q0.546875 -0.796875 0.828125 -1.828125q0.28125 -1.03125 0.28125 -2.203125l0 -0.328125q0 -1.15625 -0.28125 -2.1875q-0.28125 -1.03125 -0.84375 -1.828125q-0.546875 -0.8125 -1.375 -1.265625q-0.828125 -0.46875 -1.9375 -0.46875q-1.109375 0 -1.9375 0.46875q-0.828125 0.453125 -1.390625 1.265625q-0.546875 0.796875 -0.828125 1.828125q-0.265625 1.03125 -0.265625 2.1875zm17.547363 -4.546875l0 12.515625l-2.6875 0l0 -15.625l2.546875 0l0.140625 3.109375zm-0.546875 4.109375l-1.234375 -0.03125q0.015625 -1.609375 0.40625 -2.96875q0.40625 -1.375 1.203125 -2.375q0.796875 -1.015625 1.96875 -1.5625q1.1875 -0.5625 2.75 -0.5625q1.09375 0 2.015625 0.3125q0.9375 0.3125 1.609375 0.984375q0.6875 0.65625 1.0625 1.703125q0.375 1.03125 0.375 2.5l0 10.40625l-2.671875 0l0 -10.28125q0 -1.21875 -0.421875 -1.953125q-0.40625 -0.75 -1.15625 -1.078125q-0.75 -0.34375 -1.765625 -0.34375q-1.171875 0 -1.96875 0.421875q-0.796875 0.421875 -1.28125 1.15625q-0.46875 0.734375 -0.6875 1.6875q-0.203125 0.9375 -0.203125 1.984375zm10.125 -1.46875l-1.796875 0.546875q0.015625 -1.28125 0.421875 -2.46875q0.421875 -1.1875 1.203125 -2.109375q0.78125 -0.921875 1.9375 -1.453125q1.15625 -0.546875 2.640625 -0.546875q1.265625 0 2.234375 0.328125q0.984375 0.328125 1.640625 1.015625q0.671875 0.6875 1.015625 1.765625q0.359375 1.0625 0.359375 2.53125l0 10.265625l-2.6875 0l0 -10.296875q0 -1.3125 -0.421875 -2.03125q-0.40625 -0.734375 -1.15625 -1.03125q-0.734375 -0.296875 -1.75 -0.296875q-0.890625 0 -1.578125 0.3125q-0.671875 0.296875 -1.140625 0.828125q-0.453125 0.515625 -0.6875 1.203125q-0.234375 0.671875 -0.234375 1.4375zm16.346802 -2.640625l0 12.515625l-2.6875 0l0 -15.625l2.546875 0l0.140625 3.109375zm-0.546875 4.109375l-1.234375 -0.03125q0.015625 -1.609375 0.40625 -2.96875q0.40625 -1.375 1.203125 -2.375q0.796875 -1.015625 1.96875 -1.5625q1.1875 -0.5625 2.75 -0.5625q1.09375 0 2.015625 0.3125q0.9375 0.3125 1.609375 0.984375q0.6875 0.65625 1.0625 1.703125q0.375 1.03125 0.375 2.5l0 10.40625l-2.671875 0l0 -10.28125q0 -1.21875 -0.421875 -1.953125q-0.40625 -0.75 -1.15625 -1.078125q-0.75 -0.34375 -1.765625 -0.34375q-1.171875 0 -1.96875 0.421875q-0.796875 0.421875 -1.28125 1.15625q-0.46875 0.734375 -0.6875 1.6875q-0.203125 0.9375 -0.203125 1.984375zm10.125 -1.46875l-1.796875 0.546875q0.015625 -1.28125 0.421875 -2.46875q0.421875 -1.1875 1.203125 -2.109375q0.78125 -0.921875 1.9375 -1.453125q1.15625 -0.546875 2.640625 -0.546875q1.265625 0 2.234375 0.328125q0.984375 0.328125 1.640625 1.015625q0.671875 0.6875 1.015625 1.765625q0.359375 1.0625 0.359375 2.53125l0 10.265625l-2.6875 0l0 -10.296875q0 -1.3125 -0.421875 -2.03125q-0.40625 -0.734375 -1.15625 -1.03125q-0.734375 -0.296875 -1.75 -0.296875q-0.890625 0 -1.578125 0.3125q-0.671875 0.296875 -1.140625 0.828125q-0.453125 0.515625 -0.6875 1.203125q-0.234375 0.671875 -0.234375 1.4375zm23.253052 6.265625l0 -12.015625l2.6875 0l0 15.625l-2.5625 0l-0.125 -3.609375zm0.5 -3.296875l1.109375 -0.015625q0 1.546875 -0.328125 2.875q-0.3125 1.3125 -1.046875 2.28125q-0.71875 0.96875 -1.890625 1.515625q-1.15625 0.53125 -2.828125 0.53125q-1.140625 0 -2.09375 -0.328125q-0.9375 -0.328125 -1.625 -1.015625q-0.671875 -0.703125 -1.046875 -1.8125q-0.359375 -1.109375 -0.359375 -2.671875l0 -10.078125l2.65625 0l0 10.109375q0 1.0625 0.234375 1.75q0.25 0.671875 0.65625 1.078125q0.421875 0.390625 0.921875 0.546875q0.515625 0.15625 1.0625 0.15625q1.703125 0 2.703125 -0.65625q1.0 -0.65625 1.4375 -1.765625q0.4375 -1.125 0.4375 -2.5zm8.9062805 -5.375l0 12.28125l-2.671875 0l0 -15.625l2.53125 0l0.140625 3.34375zm-0.625 3.875l-1.125 -0.03125q0.015625 -1.609375 0.46875 -2.96875q0.46875 -1.375 1.3125 -2.375q0.84375 -1.015625 2.0 -1.5625q1.15625 -0.5625 2.578125 -0.5625q1.15625 0 2.078125 0.3125q0.921875 0.3125 1.578125 1.0q0.65625 0.671875 1.0 1.75q0.34375 1.0625 0.34375 2.609375l0 10.234375l-2.671875 0l0 -10.265625q0 -1.21875 -0.375 -1.96875q-0.359375 -0.75 -1.046875 -1.078125q-0.6875 -0.34375 -1.703125 -0.34375q-1.0 0 -1.8125 0.421875q-0.8125 0.421875 -1.40625 1.15625q-0.578125 0.734375 -0.90625 1.6875q-0.3125 0.9375 -0.3125 1.984375zm17.18515 -7.21875l0 15.625l-2.6875 0l0 -15.625l2.6875 0zm-2.890625 -4.140625q0 -0.640625 0.390625 -1.09375q0.40625 -0.453125 1.1875 -0.453125q0.765625 0 1.171875 0.453125q0.421875 0.453125 0.421875 1.09375q0 0.625 -0.421875 1.0625q-0.40625 0.4375 -1.171875 0.4375q-0.78125 0 -1.1875 -0.4375q-0.390625 -0.4375 -0.390625 -1.0625zm13.719788 4.140625l0 2.0625l-8.453125 0l0 -2.0625l8.453125 0zm-5.59375 -3.796875l2.671875 0l0 15.546875q0 0.796875 0.25 1.203125q0.25 0.40625 0.625 0.546875q0.390625 0.125 0.84375 0.125q0.328125 0 0.6875 -0.0625q0.375 -0.078125 0.5625 -0.109375l0.015625 2.171875q-0.3125 0.09375 -0.828125 0.1875q-0.515625 0.09375 -1.234375 0.09375q-0.984375 0 -1.8125 -0.375q-0.8125 -0.390625 -1.296875 -1.3125q-0.484375 -0.921875 -0.484375 -2.484375l0 -15.53125zm13.108826 17.8125l4.34375 -14.015625l2.859375 0l-6.265625 18.03125q-0.21875 0.578125 -0.578125 1.25q-0.34375 0.671875 -0.890625 1.28125q-0.546875 0.609375 -1.328125 0.984375q-0.765625 0.390625 -1.828125 0.390625q-0.328125 0 -0.828125 -0.09375q-0.484375 -0.078125 -0.671875 -0.140625l-0.015625 -2.171875q0.109375 0.015625 0.359375 0.03125q0.25 0.03125 0.359375 0.03125q0.90625 0 1.53125 -0.234375q0.640625 -0.234375 1.078125 -0.796875q0.453125 -0.5625 0.765625 -1.515625l1.109375 -3.03125zm-3.1875 -14.015625l4.0625 12.125l0.6875 2.828125l-1.921875 0.96875l-5.75 -15.921875l2.921875 0zm22.773346 3.109375l0 12.515625l-2.6875 0l0 -15.625l2.546875 0l0.140625 3.109375zm-0.546875 4.109375l-1.234375 -0.03125q0.015625 -1.609375 0.40625 -2.96875q0.40625 -1.375 1.203125 -2.375q0.796875 -1.015625 1.96875 -1.5625q1.1875 -0.5625 2.75 -0.5625q1.09375 0 2.015625 0.3125q0.9375 0.3125 1.609375 0.984375q0.6875 0.65625 1.0625 1.703125q0.375 1.03125 0.375 2.5l0 10.40625l-2.671875 0l0 -10.28125q0 -1.21875 -0.421875 -1.953125q-0.40625 -0.75 -1.15625 -1.078125q-0.75 -0.34375 -1.765625 -0.34375q-1.171875 0 -1.96875 0.421875q-0.796875 0.421875 -1.28125 1.15625q-0.46875 0.734375 -0.6875 1.6875q-0.203125 0.9375 -0.203125 1.984375zm10.125 -1.46875l-1.796875 0.546875q0.015625 -1.28125 0.421875 -2.46875q0.421875 -1.1875 1.203125 -2.109375q0.78125 -0.921875 1.9375 -1.453125q1.15625 -0.546875 2.640625 -0.546875q1.265625 0 2.234375 0.328125q0.984375 0.328125 1.640625 1.015625q0.671875 0.6875 1.015625 1.765625q0.359375 1.0625 0.359375 2.53125l0 10.265625l-2.6875 0l0 -10.296875q0 -1.3125 -0.421875 -2.03125q-0.40625 -0.734375 -1.15625 -1.03125q-0.734375 -0.296875 -1.75 -0.296875q-0.890625 0 -1.578125 0.3125q-0.671875 0.296875 -1.140625 0.828125q-0.453125 0.515625 -0.6875 1.203125q-0.234375 0.671875 -0.234375 1.4375zm12.987427 2.234375l0 -0.328125q0 -1.6875 0.484375 -3.140625q0.5 -1.453125 1.421875 -2.515625q0.921875 -1.078125 2.234375 -1.671875q1.3125 -0.609375 2.953125 -0.609375q1.640625 0 2.953125 0.609375q1.328125 0.59375 2.25 1.671875q0.9375 1.0625 1.421875 2.515625q0.5 1.453125 0.5 3.140625l0 0.328125q0 1.6875 -0.5 3.140625q-0.484375 1.4375 -1.421875 2.515625q-0.921875 1.078125 -2.234375 1.671875q-1.296875 0.59375 -2.953125 0.59375q-1.640625 0 -2.953125 -0.59375q-1.3125 -0.59375 -2.25 -1.671875q-0.921875 -1.078125 -1.421875 -2.515625q-0.484375 -1.453125 -0.484375 -3.140625zm2.671875 -0.328125l0 0.328125q0 1.171875 0.265625 2.203125q0.28125 1.03125 0.828125 1.828125q0.5625 0.796875 1.390625 1.25q0.84375 0.453125 1.953125 0.453125q1.109375 0 1.9375 -0.453125q0.828125 -0.453125 1.375 -1.25q0.546875 -0.796875 0.828125 -1.828125q0.28125 -1.03125 0.28125 -2.203125l0 -0.328125q0 -1.15625 -0.28125 -2.1875q-0.28125 -1.03125 -0.84375 -1.828125q-0.546875 -0.8125 -1.375 -1.265625q-0.828125 -0.46875 -1.9375 -0.46875q-1.109375 0 -1.9375 0.46875q-0.828125 0.453125 -1.390625 1.265625q-0.546875 0.796875 -0.828125 1.828125q-0.265625 1.03125 -0.265625 2.1875zm17.562988 -4.3125l0 12.28125l-2.671875 0l0 -15.625l2.53125 0l0.140625 3.34375zm-0.625 3.875l-1.125 -0.03125q0.015625 -1.609375 0.46875 -2.96875q0.46875 -1.375 1.3125 -2.375q0.84375 -1.015625 2.0 -1.5625q1.15625 -0.5625 2.578125 -0.5625q1.15625 0 2.078125 0.3125q0.921875 0.3125 1.578125 1.0q0.65625 0.671875 1.0 1.75q0.34375 1.0625 0.34375 2.609375l0 10.234375l-2.671875 0l0 -10.265625q0 -1.21875 -0.375 -1.96875q-0.359375 -0.75 -1.046875 -1.078125q-0.6875 -0.34375 -1.703125 -0.34375q-1.0 0 -1.8125 0.421875q-0.8125 0.421875 -1.40625 1.15625q-0.578125 0.734375 -0.90625 1.6875q-0.3125 0.9375 -0.3125 1.984375zm20.82576 -7.21875l0 2.0625l-8.453125 0l0 -2.0625l8.453125 0zm-5.59375 -3.796875l2.671875 0l0 15.546875q0 0.796875 0.25 1.203125q0.25 0.40625 0.625 0.546875q0.390625 0.125 0.84375 0.125q0.328125 0 0.6875 -0.0625q0.375 -0.078125 0.5625 -0.109375l0.015625 2.171875q-0.3125 0.09375 -0.828125 0.1875q-0.515625 0.09375 -1.234375 0.09375q-0.984375 0 -1.8125 -0.375q-0.8125 -0.390625 -1.296875 -1.3125q-0.484375 -0.921875 -0.484375 -2.484375l0 -15.53125zm11.390076 -2.75l0 22.171875l-2.671875 0l0 -22.171875l2.671875 0zm-0.625 13.765625l-1.125 -0.03125q0.015625 -1.609375 0.46875 -2.96875q0.46875 -1.375 1.3125 -2.375q0.84375 -1.015625 2.0 -1.5625q1.15625 -0.5625 2.578125 -0.5625q1.15625 0 2.078125 0.3125q0.921875 0.3125 1.578125 1.0q0.65625 0.671875 1.0 1.75q0.34375 1.0625 0.34375 2.609375l0 10.234375l-2.671875 0l0 -10.265625q0 -1.21875 -0.375 -1.96875q-0.359375 -0.75 -1.046875 -1.078125q-0.6875 -0.34375 -1.703125 -0.34375q-1.0 0 -1.8125 0.421875q-0.8125 0.421875 -1.40625 1.15625q-0.578125 0.734375 -0.90625 1.6875q-0.3125 0.9375 -0.3125 1.984375zm17.141846 -13.765625l0 22.171875l-2.6875 0l0 -22.171875l2.6875 0zm8.672913 20.5625l4.34375 -14.015625l2.859375 0l-6.265625 18.03125q-0.21875 0.578125 -0.578125 1.25q-0.34375 0.671875 -0.890625 1.28125q-0.546875 0.609375 -1.328125 0.984375q-0.765625 0.390625 -1.828125 0.390625q-0.328125 0 -0.828125 -0.09375q-0.484375 -0.078125 -0.671875 -0.140625l-0.015625 -2.171875q0.109375 0.015625 0.359375 0.03125q0.25 0.03125 0.359375 0.03125q0.90625 0 1.53125 -0.234375q0.640625 -0.234375 1.078125 -0.796875q0.453125 -0.5625 0.765625 -1.515625l1.109375 -3.03125zm-3.1875 -14.015625l4.0625 12.125l0.6875 2.828125l-1.921875 0.96875l-5.75 -15.921875l2.921875 0z" fill-rule="nonzero"/><path fill="#ffffff" d="m122.30228 255.08138l0 12.51564l-2.6875 0l0 -15.625015l2.546875 0l0.140625 3.109375zm-0.546875 4.1093903l-1.234375 -0.03125q0.015625 -1.609375 0.40625 -2.96875q0.40625 -1.3750153 1.203125 -2.3750153q0.796875 -1.015625 1.96875 -1.5625q1.1875 -0.5625 2.75 -0.5625q1.09375 0 2.015625 0.3125q0.9375 0.3125 1.609375 0.984375q0.6875 0.65625 1.0625 1.703125q0.375 1.03125 0.375 2.5000153l0 10.40625l-2.671875 0l0 -10.28125q0 -1.21875 -0.421875 -1.9531403q-0.40625 -0.75 -1.15625 -1.078125q-0.75 -0.34375 -1.765625 -0.34375q-1.171875 0 -1.96875 0.421875q-0.796875 0.421875 -1.28125 1.15625q-0.46875 0.73439026 -0.6875 1.6875153q-0.203125 0.9375 -0.203125 1.984375zm10.125 -1.46875l-1.796875 0.546875q0.015625 -1.28125 0.421875 -2.4687653q0.421875 -1.1875 1.203125 -2.109375q0.78125 -0.921875 1.9375 -1.453125q1.15625 -0.546875 2.640625 -0.546875q1.265625 0 2.234375 0.328125q0.984375 0.328125 1.640625 1.015625q0.671875 0.6875 1.015625 1.765625q0.359375 1.0625 0.359375 2.5312653l0 10.265625l-2.6875 0l0 -10.296875q0 -1.3125153 -0.421875 -2.0312653q-0.40625 -0.734375 -1.15625 -1.03125q-0.734375 -0.296875 -1.75 -0.296875q-0.890625 0 -1.578125 0.3125q-0.671875 0.296875 -1.140625 0.828125q-0.453125 0.515625 -0.6875 1.2031403q-0.234375 0.671875 -0.234375 1.4375zm20.174927 10.15625q-1.625 0 -2.953125 -0.546875q-1.3125 -0.5625 -2.265625 -1.5625q-0.9375 -1.015625 -1.453125 -2.390625q-0.5 -1.390625 -0.5 -3.046875l0 -0.59375q0 -1.90625 0.5625 -3.40625q0.5625 -1.5000153 1.53125 -2.5312653q0.96875 -1.046875 2.1875 -1.578125q1.234375 -0.53125 2.546875 -0.53125q1.671875 0 2.890625 0.578125q1.21875 0.578125 2.0 1.609375q0.78125 1.03125 1.15625 2.4218903q0.375 1.390625 0.375 3.046875l0 1.1875l-11.65625 0l0 -2.171875l8.984375 0l0 -0.203125q-0.0625 -1.046875 -0.4375 -2.015625q-0.359375 -0.98439026 -1.15625 -1.6250153q-0.78125 -0.640625 -2.15625 -0.640625q-0.90625 0 -1.671875 0.390625q-0.765625 0.375 -1.3125 1.125q-0.546875 0.75001526 -0.859375 1.8437653q-0.296875 1.078125 -0.296875 2.5l0 0.59375q0 1.109375 0.296875 2.09375q0.3125 0.96875 0.90625 1.703125q0.609375 0.734375 1.46875 1.15625q0.859375 0.421875 1.953125 0.421875q1.421875 0 2.390625 -0.578125q0.984375 -0.578125 1.734375 -1.546875l1.609375 1.28125q-0.5 0.765625 -1.28125 1.46875q-0.78125 0.6875 -1.921875 1.125q-1.125 0.421875 -2.671875 0.421875zm15.6762085 0q-1.625 0 -2.953125 -0.546875q-1.3125 -0.5625 -2.265625 -1.5625q-0.9375 -1.015625 -1.453125 -2.390625q-0.5 -1.390625 -0.5 -3.046875l0 -0.59375q0 -1.90625 0.5625 -3.40625q0.5625 -1.5000153 1.53125 -2.5312653q0.96875 -1.046875 2.1875 -1.578125q1.234375 -0.53125 2.546875 -0.53125q1.671875 0 2.890625 0.578125q1.21875 0.578125 2.0 1.609375q0.78125 1.03125 1.15625 2.4218903q0.375 1.390625 0.375 3.046875l0 1.1875l-11.65625 0l0 -2.171875l8.984375 0l0 -0.203125q-0.0625 -1.046875 -0.4375 -2.015625q-0.359375 -0.98439026 -1.15625 -1.6250153q-0.78125 -0.640625 -2.15625 -0.640625q-0.90625 0 -1.671875 0.390625q-0.765625 0.375 -1.3125 1.125q-0.546875 0.75001526 -0.859375 1.8437653q-0.296875 1.078125 -0.296875 2.5l0 0.59375q0 1.109375 0.296875 2.09375q0.3125 0.96875 0.90625 1.703125q0.609375 0.734375 1.46875 1.15625q0.859375 0.421875 1.953125 0.421875q1.421875 0 2.390625 -0.578125q0.984375 -0.578125 1.734375 -1.546875l1.609375 1.28125q-0.5 0.765625 -1.28125 1.46875q-0.78125 0.6875 -1.921875 1.125q-1.125 0.421875 -2.671875 0.421875zm15.7387085 -15.906265l0 2.0625l-8.453125 0l0 -2.0625l8.453125 0zm-5.59375 -3.796875l2.671875 0l0 15.54689q0 0.796875 0.25 1.203125q0.25 0.40625 0.625 0.546875q0.390625 0.125 0.84375 0.125q0.328125 0 0.6875 -0.0625q0.375 -0.078125 0.5625 -0.109375l0.015625 2.171875q-0.3125 0.09375 -0.828125 0.1875q-0.515625 0.09375 -1.234375 0.09375q-0.984375 0 -1.8125 -0.375q-0.8125 -0.390625 -1.296875 -1.3125q-0.484375 -0.921875 -0.484375 -2.484375l0 -15.531265zm11.624451 3.796875l0 15.625015l-2.6875 0l0 -15.625015l2.6875 0zm-2.890625 -4.140625q0 -0.640625 0.390625 -1.09375q0.40625 -0.453125 1.1875 -0.453125q0.765625 0 1.171875 0.453125q0.421875 0.453125 0.421875 1.09375q0 0.625 -0.421875 1.0625q-0.40625 0.4375 -1.171875 0.4375q-0.78125 0 -1.1875 -0.4375q-0.390625 -0.4375 -0.390625 -1.0625zm9.844788 7.484375l0 12.281265l-2.671875 0l0 -15.625015l2.53125 0l0.140625 3.34375zm-0.625 3.8750153l-1.125 -0.03125q0.015625 -1.609375 0.46875 -2.96875q0.46875 -1.3750153 1.3125 -2.3750153q0.84375 -1.015625 2.0 -1.5625q1.15625 -0.5625 2.578125 -0.5625q1.15625 0 2.078125 0.3125q0.921875 0.3125 1.578125 1.0q0.65625 0.671875 1.0 1.75q0.34375 1.0625 0.34375 2.6093903l0 10.234375l-2.671875 0l0 -10.265625q0 -1.21875 -0.375 -1.9687653q-0.359375 -0.75 -1.046875 -1.078125q-0.6875 -0.34375 -1.703125 -0.34375q-1.0 0 -1.8125 0.421875q-0.8125 0.421875 -1.40625 1.15625q-0.578125 0.73439026 -0.90625 1.6875153q-0.3125 0.9375 -0.3125 1.984375zm24.4039 -7.2187653l2.421875 0l0 15.29689q0 2.0625 -0.84375 3.515625q-0.828125 1.453125 -2.328125 2.203125q-1.484375 0.765625 -3.4375 0.765625q-0.8125 0 -1.90625 -0.25q-1.078125 -0.25 -2.125 -0.859375q-1.046875 -0.59375 -1.765625 -1.59375l1.40625 -1.59375q0.984375 1.1875 2.0625 1.640625q1.078125 0.46875 2.125 0.46875q1.265625 0 2.1875 -0.484375q0.9375 -0.46875 1.4375 -1.40625q0.515625 -0.921875 0.515625 -2.28125l0 -11.98439l0.25 -3.4375zm-10.75 7.9843903l0 -0.296875q0 -1.796875 0.421875 -3.25q0.421875 -1.4687653 1.21875 -2.5156403q0.8125 -1.0625 1.953125 -1.625q1.140625 -0.578125 2.5625 -0.578125q1.46875 0 2.578125 0.515625q1.109375 0.515625 1.875 1.484375q0.78125 0.96875 1.21875 2.3437653q0.453125 1.375 0.625 3.109375l0 1.328125q-0.15625 1.71875 -0.609375 3.09375q-0.453125 1.359375 -1.234375 2.328125q-0.765625 0.96875 -1.890625 1.484375q-1.109375 0.5 -2.59375 0.5q-1.390625 0 -2.53125 -0.578125q-1.125 -0.59375 -1.9375 -1.65625q-0.8125 -1.078125 -1.234375 -2.53125q-0.421875 -1.453125 -0.421875 -3.15625zm2.671875 -0.296875l0 0.296875q0 1.171875 0.234375 2.203125q0.234375 1.015625 0.734375 1.796875q0.5 0.78125 1.28125 1.21875q0.78125 0.4375 1.859375 0.4375q1.328125 0 2.1875 -0.5625q0.875 -0.5625 1.375 -1.484375q0.515625 -0.921875 0.8125 -2.0l0 -3.484375q-0.15625 -0.796875 -0.484375 -1.53125q-0.328125 -0.75001526 -0.84375 -1.3281403q-0.515625 -0.59375 -1.265625 -0.9375q-0.75 -0.34375 -1.75 -0.34375q-1.109375 0 -1.890625 0.453125q-0.78125 0.453125 -1.28125 1.25q-0.5 0.78126526 -0.734375 1.8125153q-0.234375 1.03125 -0.234375 2.203125z" fill-rule="nonzero"/><path fill="#513184" d="m703.68695 144.71233l235.5799 0l0 153.98418l-117.78998 38.496063l-117.78992 -38.496063z" fill-rule="evenodd"/><path fill="#ffffff" d="m769.8112 206.847l-5.609375 0l0 -2.265625l5.609375 0q1.640625 0 2.640625 -0.515625q1.015625 -0.515625 1.484375 -1.4375q0.46875 -0.921875 0.46875 -2.109375q0 -1.078125 -0.46875 -2.03125q-0.46875 -0.953125 -1.484375 -1.53125q-1.0 -0.59375 -2.640625 -0.59375l-4.96875 0l0 18.734375l-2.78125 0l0 -21.015625l7.75 0q2.390625 0 4.03125 0.828125q1.640625 0.8125 2.484375 2.265625q0.859375 1.453125 0.859375 3.3125q0 2.015625 -0.859375 3.453125q-0.84375 1.421875 -2.484375 2.171875q-1.640625 0.734375 -4.03125 0.734375zm13.39978 -13.921875l0 22.171875l-2.6875 0l0 -22.171875l2.6875 0zm3.5791626 14.53125l0 -0.328125q0 -1.6875 0.484375 -3.140625q0.5 -1.453125 1.421875 -2.515625q0.921875 -1.078125 2.234375 -1.671875q1.3125 -0.609375 2.953125 -0.609375q1.640625 0 2.953125 0.609375q1.328125 0.59375 2.25 1.671875q0.9375 1.0625 1.421875 2.515625q0.5 1.453125 0.5 3.140625l0 0.328125q0 1.6875 -0.5 3.140625q-0.484375 1.4375 -1.421875 2.515625q-0.921875 1.078125 -2.234375 1.671875q-1.296875 0.59375 -2.953125 0.59375q-1.640625 0 -2.953125 -0.59375q-1.3125 -0.59375 -2.25 -1.671875q-0.921875 -1.078125 -1.421875 -2.515625q-0.484375 -1.453125 -0.484375 -3.140625zm2.671875 -0.328125l0 0.328125q0 1.171875 0.265625 2.203125q0.28125 1.03125 0.828125 1.828125q0.5625 0.796875 1.390625 1.25q0.84375 0.453125 1.953125 0.453125q1.109375 0 1.9375 -0.453125q0.828125 -0.453125 1.375 -1.25q0.546875 -0.796875 0.828125 -1.828125q0.28125 -1.03125 0.28125 -2.203125l0 -0.328125q0 -1.15625 -0.28125 -2.1875q-0.28125 -1.03125 -0.84375 -1.828125q-0.546875 -0.8125 -1.375 -1.265625q-0.828125 -0.46875 -1.9375 -0.46875q-1.109375 0 -1.9375 0.46875q-0.828125 0.453125 -1.390625 1.265625q-0.546875 0.796875 -0.828125 1.828125q-0.265625 1.03125 -0.265625 2.1875zm21.437988 -7.65625l0 2.0625l-8.453125 0l0 -2.0625l8.453125 0zm-5.59375 -3.796875l2.671875 0l0 15.546875q0 0.796875 0.25 1.203125q0.25 0.40625 0.625 0.546875q0.390625 0.125 0.84375 0.125q0.328125 0 0.6875 -0.0625q0.375 -0.078125 0.5625 -0.109375l0.015625 2.171875q-0.3125 0.09375 -0.828125 0.1875q-0.515625 0.09375 -1.234375 0.09375q-0.984375 0 -1.8125 -0.375q-0.8125 -0.390625 -1.296875 -1.3125q-0.484375 -0.921875 -0.484375 -2.484375l0 -15.53125zm22.597961 3.796875l0 2.0625l-8.453125 0l0 -2.0625l8.453125 0zm-5.59375 -3.796875l2.671875 0l0 15.546875q0 0.796875 0.25 1.203125q0.25 0.40625 0.625 0.546875q0.390625 0.125 0.84375 0.125q0.328125 0 0.6875 -0.0625q0.375 -0.078125 0.5625 -0.109375l0.015625 2.171875q-0.3125 0.09375 -0.828125 0.1875q-0.515625 0.09375 -1.234375 0.09375q-0.984375 0 -1.8125 -0.375q-0.8125 -0.390625 -1.296875 -1.3125q-0.484375 -0.921875 -0.484375 -2.484375l0 -15.53125zm12.671326 16.65625l4.015625 -12.859375l1.765625 0l-0.34375 2.5625l-4.09375 13.0625l-1.71875 0l0.375 -2.765625zm-2.6875 -12.859375l3.421875 13.0l0.234375 2.625l-1.796875 0l-4.53125 -15.625l2.671875 0zm12.3125 12.890625l3.25 -12.890625l2.65625 0l-4.53125 15.625l-1.78125 0l0.40625 -2.734375zm-3.453125 -12.890625l3.921875 12.640625l0.453125 2.984375l-1.703125 0l-4.203125 -13.09375l-0.34375 -2.53125l1.875 0zm14.996399 0l0 15.625l-2.6875 0l0 -15.625l2.6875 0zm-2.890625 -4.140625q0 -0.640625 0.390625 -1.09375q0.40625 -0.453125 1.1875 -0.453125q0.765625 0 1.171875 0.453125q0.421875 0.453125 0.421875 1.09375q0 0.625 -0.421875 1.0625q-0.40625 0.4375 -1.171875 0.4375q-0.78125 0 -1.1875 -0.4375q-0.390625 -0.4375 -0.390625 -1.0625zm16.266663 15.625q0 -0.578125 -0.25 -1.078125q-0.25 -0.5 -1.03125 -0.90625q-0.765625 -0.40625 -2.3125 -0.71875q-1.296875 -0.265625 -2.34375 -0.640625q-1.046875 -0.375 -1.78125 -0.90625q-0.71875 -0.546875 -1.109375 -1.265625q-0.390625 -0.71875 -0.390625 -1.6875q0 -0.921875 0.40625 -1.75q0.421875 -0.828125 1.171875 -1.453125q0.765625 -0.640625 1.828125 -1.0q1.0625 -0.359375 2.375 -0.359375q1.875 0 3.203125 0.671875q1.328125 0.65625 2.03125 1.765625q0.71875 1.09375 0.71875 2.4375l-2.671875 0q0 -0.640625 -0.390625 -1.25q-0.375 -0.625 -1.109375 -1.03125q-0.71875 -0.40625 -1.78125 -0.40625q-1.109375 0 -1.796875 0.34375q-0.671875 0.34375 -0.984375 0.859375q-0.3125 0.515625 -0.3125 1.09375q0 0.4375 0.140625 0.78125q0.15625 0.328125 0.546875 0.609375q0.390625 0.28125 1.09375 0.53125q0.71875 0.25 1.8125 0.5q1.921875 0.421875 3.15625 1.03125q1.25 0.609375 1.84375 1.5q0.609375 0.875 0.609375 2.125q0 1.03125 -0.421875 1.890625q-0.421875 0.84375 -1.234375 1.453125q-0.796875 0.609375 -1.90625 0.953125q-1.09375 0.328125 -2.46875 0.328125q-2.0625 0 -3.5 -0.734375q-1.421875 -0.734375 -2.15625 -1.890625q-0.734375 -1.171875 -0.734375 -2.484375l2.6875 0q0.046875 1.109375 0.625 1.75q0.578125 0.640625 1.40625 0.90625q0.84375 0.265625 1.671875 0.265625q1.09375 0 1.828125 -0.28125q0.75 -0.296875 1.140625 -0.796875q0.390625 -0.515625 0.390625 -1.15625zm12.710754 -11.484375l0 2.0625l-8.453125 0l0 -2.0625l8.453125 0zm-5.59375 -3.796875l2.671875 0l0 15.546875q0 0.796875 0.25 1.203125q0.25 0.40625 0.625 0.546875q0.390625 0.125 0.84375 0.125q0.328125 0 0.6875 -0.0625q0.375 -0.078125 0.5625 -0.109375l0.015625 2.171875q-0.3125 0.09375 -0.828125 0.1875q-0.515625 0.09375 -1.234375 0.09375q-0.984375 0 -1.8125 -0.375q-0.8125 -0.390625 -1.296875 -1.3125q-0.484375 -0.921875 -0.484375 -2.484375l0 -15.53125z" fill-rule="nonzero"/><path fill="#ffffff" d="m828.6853 247.9095l0 2.1875l-13.75 0l0 -1.921875l6.875 -7.65625q1.28125 -1.421875 1.96875 -2.40625q0.703125 -1.0 0.984375 -1.78125q0.28125 -0.78125 0.28125 -1.609375q0 -1.03125 -0.421875 -1.875q-0.421875 -0.84375 -1.25 -1.34375q-0.828125 -0.515625 -1.984375 -0.515625q-1.40625 0 -2.34375 0.546875q-0.921875 0.53125 -1.390625 1.5q-0.453125 0.96875 -0.453125 2.21875l-2.671875 0q0 -1.765625 0.78125 -3.234375q0.78125 -1.484375 2.296875 -2.359375q1.53125 -0.875 3.78125 -0.875q1.984375 0 3.390625 0.703125q1.421875 0.703125 2.171875 1.96875q0.765625 1.265625 0.765625 2.953125q0 0.921875 -0.3125 1.875q-0.3125 0.9375 -0.859375 1.875q-0.53125 0.9375 -1.25 1.84375q-0.703125 0.90625 -1.515625 1.796875l-5.625 6.109375l10.53125 0z" fill-rule="nonzero"/></g></svg>